*G04 Output by CAMMaster V10.4.32  PentaLogix LLC*
*G04 Tue Aug 11 15:38:12 2009*
*%FSLAX24Y24*%
%MOIN*%
%IPPOS*%
%ADD12C,0.02*%
%ADD32C,0.0054*%

%LPD*%
X0Y0D2*D32*G1X39916Y33608D2*X39931Y33706D1*X39833Y33691*X39895Y37470D2*X39920Y37566D1*X39821Y37562D2*X39920Y37566D1*X39858Y37516*X39447Y51340D2*X39527Y51399D1*X39447Y51458*X39883Y37792D2*X39824Y37872D1*X39765Y37792*X39785Y46065D2*X39844Y45986D1*X39903Y46065*X37782Y31260D2*X37767Y31162D1*X37865Y31177*X37175Y31083D2*X37197Y31180D1*X37098Y31172D2*X37197Y31180D1*X37137Y31127*X37413Y31364D2*X37391Y31268D1*X37490Y31276D2*X37391Y31268D1*X37451Y31320*X36704Y36901D2*X36800Y36875D1*X36796Y36974D2*X36800Y36875D1*X36750Y36938*X37876Y31838D2*X37891Y31936D1*X37793Y31921*X37925Y37425D2*X37984Y37346D1*X38043Y37425*X38135Y32631D2*X38037Y32646D1*X38052Y32548*X36712Y37293D2*X36810Y37278D1*X36795Y37376*X37163Y30192D2*X37104Y30272D1*X37045Y30192*X38054Y32579D2*X38027Y32483D1*X38126Y32486D2*X38027Y32483D1*X38090Y32532*X37163Y32792D2*X37104Y32872D1*X37045Y32792*X37099Y36507D2*X37195Y36483D1*X37190Y36582D2*X37195Y36483D1*X37145Y36544*X38743Y35327D2*X38841Y35312D1*X38826Y35410*X39565Y34671D2*X39467Y34686D1*X39482Y34588*X39815Y34971D2*X39717Y34986D1*X39732Y34888*X34404Y40456D2*X34484Y40515D1*X34404Y40574*X39715Y33921D2*X39617Y33936D1*X39632Y33838*X35133Y40050D2*X35230Y40029D1*X35221Y40128D2*X35230Y40029D1*X35177Y40089*X37973Y34402D2*X37914Y34482D1*X37855Y34402*X37972Y37860D2*X37957Y37762D1*X38055Y37777*X37915Y36371D2*X37817Y36386D1*X37832Y36288*X37106Y37687D2*X37204Y37672D1*X37189Y37770*X37188Y40499D2*X37210Y40595D1*X37111Y40588D2*X37210Y40595D1*X37150Y40543*X39312Y50060D2*X39297Y49962D1*X39395Y49977*X37582Y40498D2*X37604Y40595D1*X37506Y40588D2*X37604Y40595D1*X37544Y40543*X39045Y48855D2*X39104Y48776D1*X39163Y48855*X35192Y40456D2*X35272Y40515D1*X35192Y40574*X36712Y39262D2*X36810Y39247D1*X36795Y39345*X38822Y41300D2*X38807Y41202D1*X38905Y41217*X37190Y40906D2*X37194Y41004D1*X37098Y40979D2*X37194Y41004D1*X37144Y40942*X38345Y49255D2*X38404Y49176D1*X38463Y49255*X37189Y40110D2*X37204Y40208D1*X37106Y40193*X39785Y44645D2*X39844Y44566D1*X39903Y44645*X37189Y39717D2*X37204Y39814D1*X37106Y39800*X39765Y43805D2*X39824Y43726D1*X39883Y43805*X37128Y39406D2*X37030Y39421D1*X37045Y39323*X38045Y46305D2*X38104Y46226D1*X38163Y46305*X36734Y39012D2*X36636Y39027D1*X36651Y38929*X36782Y46310D2*X36767Y46212D1*X36865Y46227*X37841Y38388D2*X37761Y38329D1*X37841Y38270*X37583Y38929D2*X37598Y39027D1*X37500Y39012*X38913Y41517D2*X39011Y41502D1*X38996Y41600*X36795Y40898D2*X36810Y40996D1*X36712Y40981*X36553Y44137D2*X36651Y44122D1*X36636Y44220*X39863Y48192D2*X39804Y48272D1*X39745Y48192*X37515Y46171D2*X37417Y46186D1*X37432Y46088*X36926Y48888D2*X36941Y48986D1*X36843Y48971*X39361Y51458D2*X39281Y51399D1*X39361Y51340*X32013Y24992D2*X31954Y25072D1*X31895Y24992*X32728Y35747D2*X32786Y35668D1*X32845Y35747*X34898Y31172D2*X34799Y31163D1*X34836Y31072D2*X34799Y31163D1*X34867Y31122*X36651Y36589D2*X36636Y36491D1*X36734Y36506*X34947Y31740D2*X35027Y31799D1*X34947Y31858*X36650Y36185D2*X36649Y36086D1*X36744Y36114D2*X36649Y36086D1*X36697Y36150*X36052Y35330D2*X36037Y35232D1*X36135Y35247*X33563Y35718D2*X33661Y35704D1*X33646Y35801*X35154Y36257D2*X35056Y36265D1*X35077Y36168D2*X35056Y36265D1*X35116Y36213*X35442Y44170D2*X35427Y44072D1*X35525Y44087*X32425Y41655D2*X32484Y41576D1*X32543Y41655*X38192Y38370D2*X38177Y38272D1*X38275Y38287*X33909Y40078D2*X33967Y39998D1*X34026Y40078*X35138Y36899D2*X35235Y36885D1*X35221Y36982*X32858Y36173D2*X32873Y36271D1*X32775Y36256*X38182Y48110D2*X38167Y48012D1*X38265Y48027*X35615Y36575D2*X35620Y36673D1*X35524Y36649D2*X35620Y36673D1*X35569Y36612*X35615Y36181D2*X35620Y36280D1*X35524Y36255D2*X35620Y36280D1*X35569Y36218*X35159Y36650D2*X35062Y36665D1*X35076Y36567*X35795Y44305D2*X35854Y44226D1*X35913Y44305*X33187Y39800D2*X33088Y39809D1*X33109Y39712D2*X33088Y39809D1*X33148Y39756*X32010Y39406D2*X31912Y39421D1*X31927Y39323*X32845Y45455D2*X32904Y45376D1*X32963Y45455*X32263Y45142D2*X32204Y45222D1*X32145Y45142*X35982Y49160D2*X35967Y49062D1*X36065Y49077*X32947Y45440D2*X33027Y45499D1*X32947Y45558*X37932Y49760D2*X37917Y49662D1*X38015Y49677*X31476Y35938D2*X31491Y36036D1*X31393Y36021*X35632Y47160D2*X35617Y47062D1*X35715Y47077*X31576Y43588D2*X31591Y43686D1*X31493Y43671*X32145Y45055D2*X32204Y44976D1*X32263Y45055*X29963Y29750D2*X29904Y29830D1*X29845Y29750*X30532Y31218D2*X30517Y31120D1*X30615Y31135*X26476Y27646D2*X26491Y27744D1*X26393Y27729*X30632Y38868D2*X30617Y38770D1*X30715Y38785*X24176Y25046D2*X24191Y25144D1*X24093Y25129*X29161Y29366D2*X29081Y29307D1*X29161Y29248*X26126Y25646D2*X26141Y25744D1*X26043Y25729*X29845Y29663D2*X29904Y29584D1*X29963Y29663*X29263Y29350D2*X29204Y29430D1*X29145Y29350*X30098Y35400D2*X30196Y35385D1*X30181Y35483*X28921Y35005D2*X29020Y34996D1*X28999Y35093D2*X29020Y34996D1*X28960Y35049*X26313Y30500D2*X26254Y30580D1*X26195Y30500*X26949Y38156D2*X27046Y38141D1*X27032Y38239*X26493Y38625D2*X26488Y38526D1*X26584Y38551D2*X26488Y38526D1*X26539Y38588*X26493Y38231D2*X26488Y38132D1*X26584Y38157D2*X26488Y38132D1*X26539Y38194*X23926Y26696D2*X23941Y26794D1*X23843Y26779*X29250Y38632D2*X29235Y38534D1*X29333Y38549*X26970Y37906D2*X26873Y37921D1*X26887Y37823*X28199Y34728D2*X28141Y34807D1*X28082Y34728*X23916Y36436D2*X23931Y36534D1*X23833Y36519*X29683Y33150D2*X29624Y33230D1*X29565Y33150*X26666Y30636D2*X26681Y30734D1*X26583Y30719*X26954Y38549D2*X27052Y38541D1*X27031Y38637D2*X27052Y38541D1*X26992Y38593*X28545Y39087D2*X28447Y39102D1*X28462Y39004*X26056Y39476D2*X26071Y39574D1*X25973Y39559*X25458Y38620D2*X25459Y38719D1*X25364Y38692D2*X25459Y38719D1*X25411Y38656*X27161Y43066D2*X27081Y43007D1*X27161Y42948*X25457Y38217D2*X25472Y38315D1*X25374Y38300*X27210Y43634D2*X27309Y43642D1*X27272Y43734D2*X27309Y43642D1*X27241Y43684*X29380Y39058D2*X29322Y39138D1*X29263Y39058*X30095Y49813D2*X30154Y49734D1*X30213Y49813*X22747Y23348D2*X22827Y23407D1*X22747Y23466*X25182Y25918D2*X25167Y25820D1*X25265Y25835*X24593Y28635D2*X24691Y28620D1*X24676Y28718*X22245Y26613D2*X22304Y26534D1*X22363Y26613*X25555Y30669D2*X25457Y30684D1*X25472Y30586*X25313Y33908D2*X25298Y33810D1*X25396Y33825*X23195Y33289D2*X23097Y33304D1*X23112Y33206*X24525Y35876D2*X24510Y35779D1*X24608Y35793*X24267Y36418D2*X24347Y36477D1*X24267Y36536*X25326Y28496D2*X25341Y28594D1*X25243Y28579*X25374Y35793D2*X25472Y35779D1*X25457Y35876*X24063Y28500D2*X24004Y28580D1*X23945Y28500*X24980Y35400D2*X25078Y35385D1*X25063Y35483*X22343Y31000D2*X22284Y31080D1*X22225Y31000*X24919Y35089D2*X24904Y34991D1*X25002Y35006*X22323Y30160D2*X22264Y30240D1*X22205Y30160*X24919Y34695D2*X24904Y34597D1*X25002Y34612*X23763Y25550D2*X23704Y25630D1*X23645Y25550*X24918Y33900D2*X24914Y33801D1*X25010Y33826D2*X24914Y33801D1*X24964Y33863*X23286Y33506D2*X23301Y33604D1*X23203Y33589*X25396Y35544D2*X25298Y35559D1*X25313Y35461*X26916Y34349D2*X26836Y34291D1*X26916Y34232*X23063Y25950D2*X23004Y26030D1*X22945Y25950*X24526Y34307D2*X24504Y34211D1*X24602Y34218D2*X24504Y34211D1*X24564Y34263*X22796Y24746D2*X22811Y24844D1*X22713Y24829*X24920Y34307D2*X24898Y34210D1*X24997Y34218D2*X24898Y34210D1*X24958Y34262*X25002Y37119D2*X24904Y37134D1*X24919Y37036*X24193Y38435D2*X24291Y38420D1*X24276Y38518*X24136Y36946D2*X24151Y37044D1*X24053Y37029*X24135Y40403D2*X24194Y40324D1*X24253Y40403*X26975Y34756D2*X26878Y34777D1*X26887Y34678D2*X26878Y34777D1*X26931Y34717*X22393Y40885D2*X22491Y40870D1*X22476Y40968*X27704Y34349D2*X27624Y34291D1*X27704Y34232*X22293Y39835D2*X22391Y39820D1*X22376Y39918*X22543Y40135D2*X22641Y40120D1*X22626Y40218*X23365Y39479D2*X23267Y39494D1*X23282Y39396*X25009Y38299D2*X24913Y38323D1*X24918Y38224D2*X24913Y38323D1*X24963Y38261*X24945Y42013D2*X25004Y41934D1*X25063Y42013*X24054Y42227D2*X24081Y42322D1*X23982Y42320D2*X24081Y42322D1*X24018Y42273*X24945Y44613D2*X25004Y44534D1*X25063Y44613*X25396Y37512D2*X25298Y37527D1*X25313Y37429*X23973Y42175D2*X24071Y42160D1*X24056Y42258*X24183Y37380D2*X24124Y37460D1*X24065Y37380*X24232Y42968D2*X24217Y42870D1*X24315Y42885*X25404Y37904D2*X25308Y37930D1*X25312Y37832D2*X25308Y37930D1*X25358Y37868*X24695Y43441D2*X24717Y43538D1*X24618Y43530D2*X24717Y43538D1*X24657Y43485*X24933Y43722D2*X24911Y43626D1*X25010Y43634D2*X24911Y43626D1*X24971Y43678*X24326Y43546D2*X24341Y43644D1*X24243Y43629*X22323Y28740D2*X22264Y28820D1*X22205Y28740*X22225Y37013D2*X22284Y36934D1*X22343Y37013*X22661Y23466D2*X22581Y23407D1*X22661Y23348*X22213Y37335D2*X22188Y37240D1*X22287Y37244D2*X22188Y37240D1*X22250Y37290*X22192Y41198D2*X22177Y41100D1*X22275Y41115*X22264Y41187D2*X22114Y41037D1*Y39822*X22944Y38992*Y37447*X22874Y37377*Y36385*X23947Y35312*X24101*X22275Y37326D2*X21914Y36965D1*Y23927*X22434Y23407*X22704*X22275Y37326D2*X22284Y37317D1*Y37057D2*Y36835D1*X22014Y36565*Y29434*X22264Y29184*Y28697*X25081Y44842D2*X24927D1*X24744Y44658*Y44047*X24254Y43557*X24998Y43713D2*X24867Y43582D1*X24761*X24630Y43451*X24998Y43713D2*X25004Y43707D1*X25081Y44842D2*X25294Y44628D1*Y41040*X25194Y40940*Y38045*X25395Y37844*X25385Y37834*X24304Y42957D2*X24106Y42759D1*X23994*X23764Y42528*Y38067*X24124Y37707*Y37337*X23995Y42236D2*X23984Y42247D1*X24494Y41737*Y39479*X24404Y39389*Y38553*X24530Y38427*X24660*X24794Y38293*Y38163*X24930Y38027*X25060*X25184Y37903*Y37641*X25385Y37440*X25004Y44657D2*Y44220D1*X25194Y44030*Y42935*X24856Y42597*X24356*X23995Y42236*X25004Y42057D2*Y41747D1*X24804Y41547*Y38431*X24999Y38236*X24991Y38228*X24624Y43457D2*X24630Y43451D1*X22554Y40207D2*X23354Y39407D1*X22304Y39907D2*X23489Y38722D1*Y36399*X23731Y36157*X25890*X26184Y35863*Y35328*X26763Y34750*Y34620*X26895Y34488*X27195*X27392Y34291*X27747*X22404Y40957D2*X23604Y39757D1*Y37487*X23864Y37227*Y36997*X23654Y36787*Y36375*X23772Y36257*X25932*X26334Y35854*Y35320*X26965Y34690*X26960Y34684*X24194Y40447D2*Y40135D1*X24114Y40055*Y39622*X24144Y39592*Y38997*X24014Y38867*Y38037*X24314Y37737*Y37207*X24064Y36957*X24204Y38507D2*X24374Y38337D1*Y38190*X24536Y38027*X24666*X24794Y37899*Y37244*X24991Y37047*X25849Y36057D2*X24527D1*X24274Y35804*Y35485*X24101Y35312*X24985Y34297D2*X24785Y34097D1*X24536*X24294Y33855*Y32173*X23824Y31703*Y29128*X23254Y28558*Y25287*X22724Y24757*X24985Y34297D2*X24991Y34291D1*X24590Y34298D2*X24290Y33997D1*X24286*X24184Y33895*Y32520*X23124Y31460*Y28618*X23004Y28498*Y25907*X24590Y34298D2*X24597Y34291D1*X25849Y36057D2*X26044Y35862D1*Y35201*X26364Y34881*Y34624*X26698Y34291*X26960*X24914Y35657D2*X25200D1*X25385Y35472*X24914Y35657D2*X24794Y35536D1*Y35407*X24664Y35277*X24534*X24214Y34956*Y34565*X24070Y34421*Y34416*X23359Y33705*Y33662*X23214Y33517*X24991Y33897D2*X25000Y33888D1*X24804Y33691*Y32970*X25094Y32680*Y29995*X24304Y29205*Y27582*X23664Y26942*Y26322*X23704Y26282*Y25507*X24991Y34684D2*X24794Y34488D1*X24532*X24011Y33966*Y32509*X23012Y31510*Y31053*X22581Y30622*X22377*X22264Y30508*Y30117*X24991Y35078D2*X24790Y34877D1*X24528*X24394Y34743*Y34493*X23866Y33965*Y32923*X23504Y32561*X22660*X22546Y32447*X22382*X22114Y32178*Y31404*X22284Y31234*Y30957*X24991Y35472D2*X25184Y35279D1*Y34222*X25059Y34097*X24929*X24794Y33962*Y33832*X24659Y33697*X24529*X24404Y33572*Y32769*X24994Y32179*Y30572*X24004Y29582*Y28457*X25385Y35866D2*X25584Y35666D1*Y32127*X25734Y31977*Y28987*X25254Y28507*X24224Y36477D2*X24444D1*X24514Y36407*X25204*X24597Y35866D2*X24384Y35652D1*Y35312*X22953Y33881*Y33448*X23184Y33217*X25385Y33897D2*X25194Y33706D1*Y30947*X25544Y30597*X22304Y26657D2*Y26017D1*X22169Y25882*Y25080*X22342Y24907*X22366*X22539Y24733*Y24680*X22652Y24567*X24604Y28707D2*X24989Y28322D1*X25254Y25907D2*X24424Y25077D1*Y24827*X23004Y23407*X22704*X30154Y49857D2*Y47657D1*X29704Y47207*Y45339*X29122Y44757*Y39607*X29322Y39407*Y39015*X27204Y43707D2*X27244D1*X27464Y43487*Y42817*X26754Y42107*Y40895*X26186Y40327*X26022*X25714Y40018*Y39418*X25964Y39168*Y38939*X25842Y38817*X25712*X25584Y38689*Y38427*X25385Y38228*X27204Y43007D2*X26263D1*X25514Y42258*Y39238*X25574Y39178*Y38834*X25373Y38633*X25385Y38621*X28626Y39847D2*X26344D1*X25984Y39487*X26883Y39200D2*X28349D1*X28534Y39015*X26966Y38628D2*X27567Y38027D1*X28209*X28334Y37902*Y35207*X28734Y34807*Y33953*X28744Y33943*Y32797*X26594Y30647*X26966Y38628D2*X26960Y38621D1*X28626Y39847D2*X29124Y39348D1*Y38951*X29258Y38817*X29388*X29514Y38691*Y35350*X29614Y35250*Y34098*X29524Y34008*Y33417*X29624Y33317*Y33107*X26883Y39200D2*X26764Y39081D1*Y38952*X26629Y38817*X26500*X26364Y38681*Y38552*X26239Y38427*X26110*X25974Y38291*Y38162*X25839Y38027*X25710*X25584Y37901*Y37378*X25453Y37247*X25323*X25184Y37108*Y36978*X25053Y36847*X24244*X23844Y36447*X27032Y38417D2*X27554Y37895D1*Y36452*X27944Y36062*Y35207*X28141Y35010*Y34684*X27032Y38417D2*X26887D1*X26774Y38304*Y38020*X26960Y37834*X29322Y38621D2*X29125Y38424D1*X28863*X28743Y38304*Y35001*X28863Y34881*X28993*X29149Y34725*Y33172*X29239Y33083*Y32869*X27197Y30826*Y30046*X24680Y27530*X24677*X23854Y26707*X26566Y38228D2*X26575Y38219D1*X26374Y38018*Y37632*X26764Y37242*Y35406*X27683Y34487*X27812*X27934Y34365*Y34155*X27564Y33785*Y32965*X25954Y31355*Y28945*X25331Y28322*X24989*X26566Y38621D2*X26575Y38612D1*X26364Y38402*Y38158*X26233Y38027*X26103*X25974Y37898*Y37374*X25847Y37247*X25717*X25584Y37114*Y36984*Y36787*X25204Y36407*X26960Y38228D2*X27304Y37883D1*Y35437*X27944Y34797*Y34619*X28076Y34487*X28206*X28334Y34359*Y34222*X28208Y34097*X28079*X27704Y33722*Y32523*X26254Y31073*Y30457*X28933Y35083D2*X29286Y34731D1*Y33226*X29339Y33173*Y32816*X27305Y30781*Y29283*X25254Y27232*Y26795*X23026Y24567*X22652*X28933Y35083D2*X28928Y35078D1*X30109Y35472D2*X30304Y35277D1*Y32331*X29704Y31731*Y30792*X29186Y30274*Y29774*X29204Y29757*Y29307*X29904Y29707D2*Y28607D1*X29504Y28207*X28604*X26054Y25657*X29204Y29307D2*X28960D1*X26554Y26901*X25960*X25138Y26080*X25127*X24104Y25057*X30704Y38857D2*X30334Y38487D1*Y37024*X29924Y36614*Y33377*X29984Y33317*Y32664*X29524Y32204*Y30777*X26404Y27657*X30604Y31207D2*X30304Y30907D1*X30054*X29754Y30607*Y30257*X29904Y30107*Y29707*X32204Y45099D2*Y44699D1*X32354Y44549*Y44199*X32054Y43899*X31804*X31504Y43599*X35704Y47149D2*X32584Y44029D1*Y42601*X32124Y42141*Y41489*X32184Y41429*Y38191*X31774Y37781*Y36319*X31404Y35949*X38004Y49749D2*X36981Y48726D1*X36970*X36148Y47905*X35554*X33148Y45499*X32904*X36054Y49149D2*X33504Y46599D1*X32604*X32204Y46199*Y45099*X32904Y45499D2*Y45049D1*X32922Y45031*Y44532*X32404Y44014*Y43075*X31804Y42475*Y39529*X31999Y39334*X33175Y39722D2*X33180Y39728D1*X39456Y50239D2*X39082D1*X36854Y48010*Y47574*X34803Y45523*Y44024*X32769Y41990*Y41632*X32822Y41579*Y40075*X33175Y39722*X35854Y44349D2*Y43732D1*X34404Y42282*Y41084*X34029Y40709*X33900*X33774Y40583*Y40447*X33902Y40319*X34032*X34164Y40186*Y40009*X34804Y39369*Y36922*X35148Y36578*X36904Y38399D2*X36524Y38019D1*Y37821*Y37692*X36391Y37559*X36261*X36134Y37431*Y36908*X36005Y36779*X35875*X35744Y36648*Y36404*X35533Y36193*X35542Y36184*X37119Y46484D2*X36777D1*X36154Y45860*Y43451*X34544Y41841*Y41021*X34174Y40651*Y40440*X34296Y40319*X34425*X35344Y39400*Y37564*X35734Y37174*Y36788*X35533Y36587*X35542Y36578*X38254Y48099D2*X37431Y47276D1*X37428*X34911Y44759*Y43979*X32869Y41937*Y41723*X32959Y41633*Y40081*X33115Y39924*X33245*X33365Y39804*Y36501*X33245Y36381*X32983*X32786Y36184*X35148Y36972D2*X35334Y36786D1*Y36502*X35221Y36389*X35076*X33967Y40121D2*Y39795D1*X34164Y39599*Y38744*X34554Y38354*Y36911*X35076Y36389*X38264Y38359D2*X37864Y37959D1*X37055*X36924Y37828*Y37698*X36785Y37559*X36655*X36524Y37428*Y36904*X36398Y36779*X36269*X36134Y36644*Y36514*X35998Y36379*X35869*X35744Y36254*Y36124*X35608Y35989*X35479*X35344Y35854*Y35724*X35225Y35606*X32484Y41699D2*Y41489D1*X32584Y41389*Y40797*X32494Y40707*Y39555*X32594Y39455*Y36115*X32720Y35989*X32850*X32984Y35854*Y35457*X33482Y34959*X35142Y36178D2*X35148Y36184D1*X35514Y44159D2*X33364Y42009D1*Y40863*X33374Y40853*Y39999*X33774Y39599*Y36903*X33899Y36779*X34541*X35142Y36178*X33574Y35790D2*X33759Y35606D1*X35225*X36124Y35319D2*X35764Y34959D1*X33482*X36723Y36184D2*X36735Y36173D1*X36534Y35972*Y35627*X36594Y35567*Y32548*X35845Y31799*X34904*X36723Y36578D2*X36524Y36379D1*Y36117*X36396Y35989*X36266*X36144Y35867*Y35638*X36394Y35388*Y34787*X36086Y34479*X35922*X35354Y33910*Y32699*X34644Y31989*Y31319*X34864Y31099*X34904*X32786Y35790D2*Y35399D1*X32986Y35199*Y30049*X32404Y29466*Y27599*X31954Y27149*Y24949*X39404Y51399D2*X39104D1*X37684Y49979*Y49729*X36854Y48899*X37504Y46099D2*X37119Y46484D1*X39456Y50239D2*X39569Y50125D1*Y50072*X39742Y49899*X39766*X39939Y49725*Y48924*X39804Y48789*Y48149*X36564Y44209D2*X36914Y43859D1*Y41099*X36723Y40909*X38924Y41589D2*X39155Y41358D1*Y40925*X37724Y39494*Y39153*X37511Y38940*X36904Y38399D2*X37594D1*X37664Y38329*X37884*X36854Y46299D2*X36374Y45819D1*Y42828*X36524Y42678*Y39139*X36723Y38940*X38104Y46349D2*Y45223D1*X37114Y44233*Y42627*X37704Y42037*Y41234*X37579Y41109*X37449*X37314Y40974*Y40844*X37179Y40709*X37049*X36924Y40584*Y39527*X37117Y39334*X39824Y43849D2*Y43572D1*X39994Y43402*Y42627*X39726Y42359*X39562*X39448Y42245*X38604*X38242Y41883*Y40841*X37714Y40313*Y40063*X37580Y39929*X37318*X37117Y39728*X39844Y44689D2*Y44297D1*X39731Y44184*X39527*X39096Y43753*Y43296*X38097Y42296*Y40839*X37576Y40318*X37314*X37117Y40121*X38404Y49299D2*Y48524D1*X38444Y48484*Y47864*X37804Y47224*Y45601*X37014Y44811*Y42126*X37304Y41836*Y41114*X37108Y40918*X37117Y40909*X38894Y41289D2*X38749Y41144D1*Y41100*X38038Y40390*Y40385*X37894Y40240*Y39849*X37574Y39529*X37444*X37314Y39399*Y39269*X37194Y39149*X36723Y39334D2*X36908Y39149D1*X37194*X35148Y40515D2*X35410D1*X35744Y40181*Y39925*X36064Y39605*Y38944*X36259Y38749*X37518Y40508D2*X37511Y40515D1*X39104Y48899D2*Y46308D1*X38984Y46188*Y43346*X37924Y42286*Y40911*X37822Y40809*X37818*X37518Y40508*X37123Y40509D2*X37117Y40515D1*X39384Y50049D2*X38854Y49519D1*Y46248*X38284Y45678*Y43102*X37814Y42632*Y40950*X37572Y40709*X37323*X37123Y40509*X38007Y39494D2*X37834Y39320D1*Y39002*X37581Y38749*X36259*X37117Y37759D2*X37314Y37562D1*Y36907*X37442Y36779*X37572*X37734Y36616*Y36468*X37904Y36299*X38044Y37849D2*X37794Y37599D1*Y37069*X38094Y36769*Y35939*X37964Y35809*Y35214*X37994Y35184*Y34750*X37914Y34670*Y34359*X35148Y40121D2*X35143Y40116D1*X35774Y39485*Y38951*X36176Y38549*X38336*X38454Y38430*Y38019*X38244Y37809*Y37579*X38504Y37319*Y35049*X39704Y33849*X34361Y40515D2*X34716D1*X34913Y40318*X35213*X35345Y40186*Y40056*X35924Y39477*Y38943*X36218Y38649*X38377*X38619Y38407*Y36084*X39804Y34899*X39554Y34599D2*X38754Y35399D1*X37484Y31349D2*X37478Y31355D1*X37117Y36578D2*X37109Y36570D1*X37304Y36374*Y33259*X37104Y33059*Y32749*X38113Y32570D2*X37752Y32209D1*X37252*X36914Y31870*Y30776*X37104Y30586*Y30149*X36723Y37365D2*X36924Y37165D1*Y36903*X37048Y36779*X37178*X37314Y36643*Y36513*X37448Y36379*X37578*X37704Y36253*Y35416*X37614Y35326*Y33069*X38124Y32559*X38113Y32570*X37984Y37469D2*Y37099D1*X38344Y36739*Y32277*X38114Y32047*X38002*X37804Y31849*X36723Y36972D2*X36713Y36962D1*X36914Y36761*Y33866*X36814Y33766*Y30177*X37027Y29964*X37110Y31093D2*X37104Y31099D1*X37478Y31355D2*X37347Y31224D1*X37241*X37110Y31093*X37854Y31249D2*X37364Y30759D1*Y30147*X37181Y29964*X37027*X39844Y46109D2*Y45622D1*X40094Y45372*Y38240*X39824Y37970*Y37749*X39833Y37480D2*X39824Y37489D1*X39404Y51399D2*X39674D1*X40194Y50879*Y37840*X39833Y37480*X38007Y39494D2*X38161D1*X39234Y38420*Y37429*X39164Y37359*Y35814*X39994Y34984*Y33769*X39844Y33619*D12*X22264Y41187D3*X22284Y37057D3*Y37317D3*X22264Y30117D3*X22284Y30957D3*X22264Y28697D3*X24304Y42957D3*X23984Y42247D3*X25004Y44657D3*Y42057D3*X24254Y43557D3*X24624Y43457D3*X25004Y43707D3*X25984Y39487D3*X23354Y39407D3*X22554Y40207D3*X22304Y39907D3*X22404Y40957D3*X24194Y40447D3*X24204Y38507D3*X24991Y38228D3*X25385Y37834D3*Y38228D3*Y38621D3*X24991Y33897D3*Y34291D3*X24597D3*X24991Y34684D3*Y35078D3*X25385Y35472D3*X24991D3*X25385Y35866D3*X24224Y36477D3*X24064Y36957D3*X23844Y36447D3*X24597Y35866D3*X24991Y37047D3*X24124Y37337D3*X25385Y33897D3*Y37440D3*X23214Y33517D3*X26254Y30457D3*X23184Y33217D3*X25544Y30597D3*X23004Y25907D3*X26054Y25657D3*X23854Y26707D3*X22304Y26657D3*X24004Y28457D3*X25254Y28507D3*X24604Y28707D3*X25254Y25907D3*X23704Y25507D3*X22724Y24757D3*X24104Y25057D3*X22704Y23407D3*X30154Y49857D3*X27204Y43707D3*Y43007D3*X29322Y38621D3*Y39015D3*X26566Y38228D3*Y38621D3*X26960Y38228D3*Y38621D3*X28534Y39015D3*X26960Y37834D3*X27747Y34291D3*X26960Y34684D3*Y34291D3*X30109Y35472D3*X28928Y35078D3*X28141Y34684D3*X29904Y29707D3*X29624Y33107D3*X26594Y30647D3*X29204Y29307D3*X26404Y27657D3*X30704Y38857D3*X30604Y31207D3*X31504Y43599D3*X31404Y35949D3*X35704Y47149D3*X32904Y45499D3*X35514Y44159D3*X32484Y41699D3*X32204Y45099D3*X33967Y40121D3*X33180Y39728D3*X31999Y39334D3*X35148Y40515D3*Y40121D3*X34361Y40515D3*X35148Y36972D3*X33574Y35790D3*X35148Y36184D3*Y36578D3*X35542Y36184D3*Y36578D3*X32786Y35790D3*Y36184D3*X34904Y31799D3*Y31099D3*X31954Y24949D3*X39404Y51399D3*X38004Y49749D3*X39384Y50049D3*X38404Y49299D3*X36854Y48899D3*X37504Y46099D3*X36854Y46299D3*X38104Y46349D3*X39804Y48149D3*X38254Y48099D3*X36054Y49149D3*X39104Y48899D3*X36564Y44209D3*X38924Y41589D3*X35854Y44349D3*X38894Y41289D3*X36723Y37365D3*Y40909D3*X37984Y37469D3*X37117Y37759D3*X37511Y38940D3*X38264Y38359D3*X38044Y37849D3*X37884Y38329D3*X36723Y38940D3*X37117Y39334D3*X36723D3*X37117Y39728D3*Y40121D3*X37511Y40515D3*X37117D3*Y40909D3*X36723Y36184D3*Y36578D3*Y36972D3*X37117Y36578D3*X37904Y36299D3*X37914Y34359D3*X39704Y33849D3*X39804Y34899D3*X39554Y34599D3*X38754Y35399D3*X36124Y35319D3*X37104Y31099D3*X37484Y31349D3*X37854Y31249D3*X37104Y32749D3*Y30149D3*X38124Y32559D3*X37804Y31849D3*X39844Y46109D3*X39824Y43849D3*X39844Y44689D3*X39824Y37489D3*Y37749D3*X39844Y33619D3*X0Y0D2*M02*