*G04 Output by CAMMaster V10.4.32  PentaLogix LLC*
*G04 Tue Aug 11 15:38:12 2009*
*%FSLAX24Y24*%
%MOIN*%
%IPPOS*%
%ADD11C,0.045*%
%ADD12C,0.02*%
%ADD32C,0.0054*%

%LPD*%
X0Y0D2*D32*G1X38174Y32279D2*X38201Y32374D1*X38102Y32372D2*X38201Y32374D1*X38138Y32325*X37963Y30852D2*X37904Y30932D1*X37845Y30852*X37093Y32677D2*X37191Y32662D1*X37176Y32760*X37696Y30408D2*X37711Y30506D1*X37613Y30491*X37106Y36899D2*X37204Y36885D1*X37189Y36982*X37115Y31871D2*X37017Y31886D1*X37032Y31788*X36665Y35747D2*X36723Y35668D1*X36782Y35747*X37115Y31171D2*X37017Y31186D1*X37032Y31088*X36319Y36506D2*X36417Y36491D1*X36402Y36589*X37176Y29438D2*X37191Y29536D1*X37093Y29521*X38045Y32255D2*X38104Y32176D1*X38163Y32255*X37106Y37293D2*X37204Y37278D1*X37189Y37376*X37897Y34040D2*X37977Y34099D1*X37897Y34158*X39772Y35700D2*X39757Y35602D1*X39855Y35617*X39426Y36768D2*X39441Y36866D1*X39343Y36851*X39793Y43167D2*X39891Y43152D1*X39876Y43250*X37863Y34992D2*X37804Y35072D1*X37745Y34992*X38155Y37265D2*X38214Y37186D1*X38273Y37265*X37163Y33492D2*X37104Y33572D1*X37045Y33492*X37439Y36594D2*X37418Y36497D1*X37517Y36505D2*X37418Y36497D1*X37478Y36549*X36721Y39655D2*X36820Y39651D1*X36794Y39747D2*X36820Y39651D1*X36757Y39701*X36794Y40102D2*X36820Y40198D1*X36721Y40194D2*X36820Y40198D1*X36757Y40148*X39595Y49305D2*X39654Y49226D1*X39713Y49305*X36319Y41230D2*X36417Y41215D1*X36402Y41313*X39501Y42138D2*X39421Y42079D1*X39501Y42020*X39582Y44380D2*X39567Y44282D1*X39665Y44297*X38634Y39607D2*X38690Y39526D1*X38751Y39604D2*X38690Y39526D1*X38693Y39605*X36388Y40165D2*X36330Y40244D1*X36271Y40165*X35945Y48105D2*X36004Y48026D1*X36063Y48105*X36680Y40574D2*X36600Y40515D1*X36680Y40456*X38545Y52005D2*X38604Y51926D1*X38663Y52005*X37583Y39717D2*X37598Y39814D1*X37500Y39800*X39582Y47310D2*X39567Y47212D1*X39665Y47227*X39103Y37732D2*X39044Y37812D1*X38985Y37732*X39495Y43305D2*X39554Y43226D1*X39613Y43305*X36286Y39786D2*X36207Y39728D1*X36286Y39669*X34350Y40049D2*X34448Y40034D1*X34433Y40132*X35995Y40165D2*X35936Y40244D1*X35877Y40165*X35645Y44805D2*X35704Y44726D1*X35763Y44805*X36795Y41291D2*X36810Y41389D1*X36712Y41374*X38545Y48855D2*X38604Y48776D1*X38663Y48855*X33113Y28642D2*X33054Y28722D1*X32995Y28642*X33108Y39738D2*X33093Y39641D1*X33191Y39655*X32563Y33052D2*X32504Y33132D1*X32445Y33052*X33895Y40920D2*X33880Y40822D1*X33978Y40836*X34113Y33242D2*X34054Y33322D1*X33995Y33242*X35745Y35355D2*X35804Y35276D1*X35863Y35355*X34976Y29438D2*X34991Y29536D1*X34893Y29521*X37782Y31260D2*X37767Y31162D1*X37865Y31177*X33376Y33188D2*X33391Y33286D1*X33293Y33271*X34995Y35355D2*X35054Y35276D1*X35113Y35355*X34976Y32738D2*X34991Y32836D1*X34893Y32821*X36257Y36195D2*X36243Y36097D1*X36340Y36112*X34432Y36559D2*X34457Y36654D1*X34358Y36651D2*X34457Y36654D1*X34395Y36605*X39502Y41160D2*X39487Y41062D1*X39585Y41077*X33642Y36159D2*X33677Y36251D1*X33578Y36257D2*X33677Y36251D1*X33610Y36208*X38073Y39237D2*X38171Y39222D1*X38156Y39320*X33169Y36112D2*X33267Y36097D1*X33252Y36195*X38391Y37738D2*X38311Y37679D1*X38391Y37620*X32382Y36899D2*X32480Y36885D1*X32465Y36982*X39762Y41710D2*X39747Y41612D1*X39845Y41627*X34039Y36169D2*X34060Y36265D1*X33961Y36257D2*X34060Y36265D1*X34000Y36213*X33924Y36637D2*X33844Y36578D1*X33924Y36519D2*X33844Y36578D1*X33924*X38512Y40060D2*X38497Y39962D1*X38595Y39977*X32845Y37015D2*X32786Y37095D1*X32728Y37015*X34245Y43755D2*X34304Y43676D1*X34363Y43755*X35515Y35421D2*X35417Y35436D1*X35432Y35338*X33895Y40526D2*X33880Y40428D1*X33978Y40443*X34404Y36125D2*X34484Y36184D1*X34404Y36243*X39775Y40855D2*X39834Y40776D1*X39893Y40855*X33646Y36567D2*X33661Y36665D1*X33563Y36650*X37962Y39030D2*X37947Y38932D1*X38045Y38947*X34627Y33600D2*X34707Y33659D1*X34627Y33718*X36132Y34870D2*X36117Y34772D1*X36215Y34787*X32058Y39771D2*X31999Y39850D1*X31940Y39771*X33924Y41361D2*X33844Y41302D1*X33924Y41244*X32473Y41627D2*X32571Y41612D1*X32556Y41710*X29635Y33179D2*X29537Y33194D1*X29552Y33096*X28184Y33445D2*X28264Y33503D1*X28184Y33562*X30050Y35035D2*X30109Y34955D1*X30168Y35035*X25976Y39936D2*X25991Y40034D1*X25893Y40019*X27481Y41206D2*X27401Y41147D1*X27481Y41088*X24146Y35776D2*X24161Y35874D1*X24063Y35859*X28462Y38239D2*X28447Y38141D1*X28545Y38156*X22333Y33950D2*X22274Y34030D1*X22215Y33950*X27704Y38680D2*X27624Y38621D1*X27704Y38563*X28213Y34280D2*X28228Y34378D1*X28130Y34363*X26593Y39385D2*X26691Y39370D1*X26676Y39468*X27863Y31050D2*X27804Y31130D1*X27745Y31050*X29263Y37791D2*X29322Y37711D1*X29380Y37791*X23596Y34746D2*X23611Y34844D1*X23513Y34829*X28184Y38169D2*X28264Y38227D1*X28184Y38286D2*X28264Y38227D1*X28184Y38228*X28069Y38637D2*X28048Y38540D1*X28147Y38549D2*X28048Y38540D1*X28108Y38593*X22346Y33096D2*X22361Y33194D1*X22263Y33179*X29726Y37906D2*X29628Y37921D1*X29643Y37823*X23717Y37068D2*X23797Y37127D1*X23717Y37186*X28939Y38694D2*X28841Y38708D1*X28856Y38610*X24035Y35569D2*X23937Y35584D1*X23952Y35486*X28466Y38647D2*X28431Y38554D1*X28530Y38549D2*X28431Y38554D1*X28498Y38598*X22606Y33646D2*X22621Y33744D1*X22523Y33729*X27676Y38247D2*X27651Y38151D1*X27750Y38155D2*X27651Y38151D1*X27713Y38201*X25851Y38610D2*X25865Y38708D1*X25768Y38694*X27132Y42068D2*X27117Y41970D1*X27215Y41985*X27113Y39450D2*X27054Y39530D1*X26995Y39450*X28732Y41618D2*X28717Y41520D1*X28815Y41535*X24326Y43546D2*X24341Y43644D1*X24243Y43629*X27132Y45368D2*X27117Y45270D1*X27215Y45285*X26363Y39450D2*X26304Y39530D1*X26245Y39450*X27995Y41563D2*X28054Y41484D1*X28113Y41563*X28213Y33886D2*X28228Y33984D1*X28130Y33969*X29545Y41753D2*X29604Y41674D1*X29663Y41753*X29000Y35067D2*X29015Y35165D1*X28917Y35150*X28995Y46163D2*X29054Y46084D1*X29113Y46163*X23563Y25950D2*X23504Y26030D1*X23445Y25950*X25313Y33514D2*X25298Y33416D1*X25396Y33431*X26463Y30000D2*X26404Y30080D1*X26345Y30000*X26113Y34641D2*X26172Y34561D1*X26231Y34641*X27758Y34757D2*X27660Y34771D1*X27675Y34674*X25822Y35019D2*X25901Y35078D1*X25822Y35137*X22613Y31500D2*X22554Y31580D1*X22495Y31500*X23005Y37073D2*X23064Y36994D1*X23123Y37073*X22526Y27496D2*X22541Y27594D1*X22443Y27579*X24525Y35089D2*X24510Y34991D1*X24608Y35006*X23563Y22800D2*X23504Y22880D1*X23445Y22800*X25428Y34232D2*X25508Y34291D1*X25428Y34349*X26163Y26700D2*X26104Y26780D1*X26045Y26700*X25720Y34641D2*X25778Y34561D1*X25837Y34641*X23474Y35198D2*X23418Y35280D1*X23357Y35202D2*X23418Y35280D1*X23415Y35200*X22526Y30426D2*X22541Y30524D1*X22443Y30509*X22607Y32668D2*X22687Y32727D1*X22607Y32786*X25789Y33575D2*X25691Y33590D1*X25706Y33492*X22513Y25500D2*X22454Y25580D1*X22395Y25500*X25314Y34703D2*X25288Y34608D1*X25387Y34611D2*X25288Y34608D1*X25351Y34657*X25387Y35151D2*X25288Y35155D1*X25314Y35059D2*X25288Y35155D1*X25351Y35105*X24669Y38212D2*X24690Y38309D1*X24591Y38300D2*X24690Y38309D1*X24630Y38256*X24945Y41313D2*X25004Y41234D1*X25063Y41313*X23953Y37540D2*X23894Y37620D1*X23835Y37540*X24245Y39813D2*X24304Y39734D1*X24363Y39813*X22315Y31639D2*X22217Y31654D1*X22232Y31556*X22682Y38038D2*X22667Y37940D1*X22765Y37955*X22336Y39106D2*X22351Y39204D1*X22253Y39189*X24211Y40766D2*X24131Y40707D1*X24211Y40648*X25002Y37512D2*X24904Y37527D1*X24919Y37429*X24063Y42550D2*X24004Y42630D1*X23945Y42550*X24932Y45368D2*X24917Y45270D1*X25015Y45285*X25789Y38300D2*X25691Y38315D1*X25706Y38217*X24993Y43635D2*X25091Y43620D1*X25076Y43718*X25443Y39058D2*X25385Y39138D1*X25326Y39058*X24993Y42935D2*X25091Y42920D1*X25076Y43018*X25002Y37906D2*X24904Y37921D1*X24919Y37823*X24412Y44398D2*X24397Y44300D1*X24495Y44315*X25015Y42129D2*X24917Y42144D1*X24932Y42046*X24145Y43953D2*X24204Y43874D1*X24263Y43953*X23934Y42527D2*X23907Y42431D1*X24006Y42434D2*X23907Y42431D1*X23970Y42480*X31809Y44273D2*X31904Y44157D1*X31999Y44273*X31751D2*X31904Y44088D1*X32057Y44273*X30299Y30533D2*X30204Y30648D1*X30109Y30533*X30357D2*X30204Y30717D1*X30051Y30533*X24004Y42507D2*X23993Y42518D1*X23799Y42323*Y41852*X24489Y41162*Y39537*X24294Y39337*Y38947*X23994Y38647*Y38177*X24312Y37857*X24204Y43997D2*Y43790D1*X24064Y43650*Y42935*X24520Y42480*X24581*X25004Y42057*X24484Y44387D2*X24316Y44219D1*X24164*X23924Y43978*Y42927*X24589Y42262*Y39384*X24412Y39207*Y38151*X24532Y38031*X24794*X24991Y37834*X25004Y43007D2*X25385Y42626D1*Y39015*X25004Y43707D2*X25584Y43127D1*Y38422*X25778Y38228*X25004Y45357D2*X23824Y44177D1*Y42878*X24004Y42698*Y42507*X24312Y37857D2*X24532Y37637D1*X24794*X24991Y37440*X24254Y40707D2*X23854D1*X22264Y39117*X22754Y38027D2*X22504Y37777D1*Y37015*X22346Y36857*X22342*X21964Y36478*Y31907*X22304Y31567*X24304Y39857D2*Y39571D1*X24174Y39441*Y39027*X23894Y38747*Y37497*X25004Y41357D2*Y40627D1*X25184Y40447*Y38553*X25058Y38427*X24808*X24603Y38222*X24597Y38228*X24521Y35263D2*X25180D1*X25375Y35068*Y34694D2*X25167Y34487D1*X24926*X24794Y34355*Y34226*X24665Y34097*X24536*X24074Y33635*Y32927*X23184Y32037*Y26824*X22454Y26094*Y25457*X25375Y34694D2*X25385Y34684D1*X24914Y34869D2*X25461D1*X25574Y34757*Y34612*X25449Y34487*X25319*X25184Y34352*Y34222*X25059Y34097*X24929*X24804Y33972*Y33822*X24930Y33697*X25585*X25778Y33503*X24914Y34869D2*X24794Y34749D1*Y34620*X24662Y34488*X24532*X23933Y33888*Y33096*X23564Y32727*X22564*X24521Y35263D2*X24224Y34966D1*Y34575*X23716Y34067*X23442*X22714Y33338*Y33282*X22274Y32842*Y32538*X22744Y32068*Y30727*X22454Y30437*X24314Y36667D2*X24137D1*X24029Y36558*Y36328*X23418Y35717*Y35167*X23414Y35163*Y35157*X24314Y36667D2*X24514Y36467D1*X25067*X25778Y34684D2*Y34462D1*X26064Y34177*Y28847*X26144Y28767*Y26984*X26104Y26944*Y26657*X25385Y34291D2*X25646D1*X25964Y33973*Y28792*X24674Y27502*Y25252*X23504Y24082*Y22757*X25385Y35078D2*X25375Y35068D1*X24597Y35078D2*X24374Y34855D1*Y34473*X23808Y33907*Y33136*X23664Y32992*X22567*X22379Y32803*Y32614*X22893Y32100*Y27946*X22454Y27507*X23064Y37117D2*Y36162D1*X22064Y35162*Y32157*X22554Y31667*Y31457*X25778Y35078D2*X27353D1*X27747Y34684*X26172D2*Y34298D1*X26294Y34177*Y32867*X26494Y32667*Y31572*X26404Y31482*Y30572*X26444Y30532*Y30284*X26404Y30244*Y29957*X25385Y33503D2*X25024Y33142D1*Y28302*X23504Y26782*Y25907*X29054Y46207D2*Y45657D1*X29104Y45607*Y40357*X30304Y39157*Y38107*X30154Y37957*Y37257*X29304Y36407*Y35454*X28928Y35078*X29604Y41797D2*Y40280D1*X29914Y39970*Y39757*X30454Y39207*Y38087*X30324Y37957*Y36850*X29514Y36040*Y34869*X29054Y34409*X28652*X28141Y33897*X28054Y41607D2*Y41145D1*X27260Y40351*X26948*X26304Y39707*Y39407*X27204Y45357D2*X26204Y44357D1*X25054*X24254Y43557*X28804Y41607D2*X28606Y41409D1*X28544*X27054Y39918*Y39407*X27204Y42057D2*X26754Y41607D1*Y40895*X26146Y40287*X25982*X25714Y40018*Y39418*X25964Y39168*Y38807*X25778Y38621*X27747Y38228D2*X27737Y38238D1*X26940Y37440*X26566*X25492Y36367*X24384*X24224Y36207*X24088*X23651Y35767*Y35127*X23467Y34943*X23144*X22829Y34628*Y33952*X22534Y33657*X28499Y38622D2*X28509D1*X28510Y38621*X28534*X28499Y38622D2*X28304Y38427D1*X28078*X27944Y38293*Y38163*X27808Y38027*X27678*X26764Y37113*Y36983*X26628Y36847*X26306*X25716Y36257*X24424*X24204Y36037*X24062*X23884Y35858*Y35637*X24024Y35497*X26489Y38806D2*X28743D1*X28928Y38621*X26489Y38806D2*X26364Y38681D1*Y38552*X26239Y38427*X26110*X25974Y38291*Y38162*X25839Y38027*X25710*X25584Y37901*Y37772*X25449Y37637*X25320*X25184Y37501*Y37372*X25059Y37247*X24366*X24266Y37147*X23959*X23939Y37127*X23674*X29245Y38019D2*X29530D1*X29715Y37834*X29245Y38019D2*X29124Y37898D1*Y37768*X28992Y37637*X28863*X28534Y37308*Y36785*X28006Y36257*X27089*X26764Y35932*Y35802*X26629Y35667*X24521*X24394Y35540*Y35311*X23264Y34181*Y34097*X22274Y33107*X28135Y38627D2*X27934Y38427D1*X27552*X27152Y38027*X26497*X26364Y37894*Y37764*X25847Y37247*X25717*X25584Y37114*Y36984*X25067Y36467*X28135Y38627D2*X28141Y38621D1*X28611Y38413D2*X28449D1*X28264Y38228*X28141*X28611Y38413D2*X28724Y38300D1*Y37762*X28399Y37437*X28269*X27944Y37112*Y36982*X27809Y36847*X27476*X26875Y36246*X26583*X26388Y36050*X24518*X24274Y35807*Y35485*X23888Y35100*X23867*X23524Y34757*X29322Y37834D2*Y37370D1*X28462Y36510*Y35399*X27944Y34881*Y33717*X27764Y33537*Y32058*X27804Y32018*Y31007*X26604Y39457D2*X26854Y39207D1*X28998*X29124Y39081*Y38558*X29255Y38427*X29778*X29904Y38301*Y37236*X28675Y36007*Y35086*X28334Y34746*Y34484*X28141Y34291*X27747Y38621D2*X27552D1*X27358Y38427*X26503*X26364Y38288*Y38158*X26233Y38027*X26103*X25974Y37898*Y37768*X25843Y37637*X25713*X25584Y37508*Y37378*X25453Y37247*X25323*X25184Y37108*Y36978*X25053Y36847*X24464*X24384Y36767*X24079*X23989Y36677*X23812*X22164Y35028*Y34394*X22274Y34284*Y33907*X28534Y38228D2*X28334Y38027D1*Y37766*X28005Y37437*X27743*X27153Y36847*X26892*X26764Y36719*Y36589*X26571Y36397*X26434*X26194Y36157*X24474*X24244Y35927*X24214*X24074Y35787*X27524Y41147D2*X27190D1*X26200Y40157*X26114*X25904Y39947*X30109Y35078D2*Y34357D1*X30354Y34112*Y31057*X30204Y30907*Y30407*X28141Y33503D2*X29228D1*X29624Y33107*X32484Y41699D2*X32880Y41302D1*X33967*X31904Y44399D2*Y43899D1*X31754Y43749*Y40694*X31999Y40449*Y39728*X36204Y34859D2*X35994Y34649D1*X35908*X34918Y33659*X34584*X38034Y39019D2*X37894Y38879D1*X37864*X37634Y38649*X35914*X35674Y38409*X35537*X35344Y38216*Y38087*X35216Y37959*X34955*X34365Y37369*X34103*X33774Y37040*Y36778*X33574Y36578*X39834Y40899D2*Y40522D1*X39944Y40412*Y39777*X38296Y38129*X38119*X38029Y38039*X37724*X37644Y37959*X37055*X36924Y37828*Y37698*X36785Y37559*X36655*X36524Y37428*Y37298*X36395Y37169*X36265*X36134Y37038*Y36908*X36005Y36779*X35875*X35744Y36648*Y36518*X35605Y36379*X34750*X34556Y36184*X34361*X33967Y40515D2*X33774Y40322D1*Y40060*X33433Y39719*Y38799*X32204Y37569*Y36505*X32330Y36379*X32853*X32984Y36248*Y35725*X33110Y35599*X35254*X35504Y35349*X34304Y43799D2*Y42787D1*X34344Y42747*Y41268*X34164Y41088*Y39924*X33646Y39406*Y38296*X32786Y37436*Y36972*X38584Y40049D2*X38241Y39706D1*X38220*X37834Y39320*Y38999*X37590Y38755*X35720*X35525Y38560*X35233*X34632Y37959*X34299*X34164Y37824*Y37694*X33839Y37369*X33709*X33384Y37044*Y36506*X33497Y36393*X33967Y36578D2*X33844D1*X33659Y36393*X33497*X33973Y36178D2*X33967Y36184D1*X37041Y38339D2*X36524Y37821D1*Y37692*X36391Y37559*X36261*X35744Y37041*Y36912*X35611Y36779*X34956*X34556Y36379*X34174*X33973Y36178*X39834Y41699D2*X38844Y40709D1*Y40625*X37714Y39495*Y39266*X37587Y39139*X35479*X35344Y39004*Y38874*X35019Y38549*X34102*X33574Y38021*Y37498*X33245Y37169*X33116*X32984Y37037*Y36908*X32863Y36787*X32393Y36972D2*X32578Y36787D1*X32863*X38434Y37679D2*X38169D1*X38149Y37659*X37842*X37742Y37559*X37049*X36924Y37434*Y37304*X36788Y37169*X36659*X36524Y37034*Y36904*X36398Y36779*X36269*X36134Y36644*Y36514*X35998Y36379*X35869*X35744Y36254*Y36124*X35619Y35999*X33180Y36184D2*X33365Y35999D1*X35619*X38084Y39309D2*X38224Y39169D1*Y38947*X38046Y38769*X37904*X37684Y38549*X36392*X35802Y37959*X35480*X35344Y37822*Y37693*X34430Y36779*X34300*X34164Y36642*Y36513*X34030Y36379*X33804*X33609Y36183*X33574Y36184D2*X33598D1*X33599Y36183*X33609*X39574Y41149D2*X39279Y40854D1*Y40178*X38964Y39862*X38641*X38457Y39679*Y39039*X38020Y38599*X37884*X37724Y38439*X36616*X35542Y37365*X35168*X34371Y36568*X34361Y36578*X36330Y36184D2*X36144Y35999D1*Y35638*X36394Y35388*Y34787*X36126Y34519*X35962*X35354Y33910*Y33199*X34904Y32749*X35054Y35399D2*Y34887D1*X33564Y33397*X33502*X33304Y33199*X37854Y31249D2*X37054Y30449D1*X35904*X34904Y29449*X35804Y35399D2*Y35099D1*X35160Y34455*X34848*X34054Y33660*Y33199*X33967Y40909D2*X33456Y40397D1*X33054*X32594Y39937*Y38766*X31784Y37956*Y36849*X31654Y36719*Y35599*X32194Y35049*Y34836*X32504Y34526*Y33009*X33180Y39728D2*X32804Y39352D1*Y38399*X31954Y37549*Y36849*X31804Y36699*Y35649*X33004Y34449*Y29199*X33054Y29149*Y28599*X38604Y48899D2*Y48024D1*X37084Y46504*Y41663*X36723Y41302*X35704Y44849D2*Y44562D1*X35664Y44522*Y44274*X35704Y44234*Y43324*X35614Y43234*Y42139*X35814Y41939*Y40629*X35936Y40507*Y40121*X34361D2*X34755Y39728D1*X36330*X39554Y43349D2*Y43139D1*X40044Y42649*Y39643*X39044Y38643*Y37689*X39654Y47299D2*X39215Y46860D1*Y42706*X39729Y42192*Y42002*X39541Y41814*X38444*X38300Y41669*Y40898*X37734Y40333*Y39951*X37511Y39728*X36723D2*X36733Y39737D1*X38604Y52049D2*Y50724D1*X37434Y49554*Y47304*X36144Y46014*Y40833*X36462Y40515*X36723*X36004Y48149D2*Y47862D1*X35964Y47822*Y46039*X36044Y45959*Y40629*X36330Y40343*Y40121*X37041Y38339D2*X37594D1*X37794Y38139*X38694Y39649D2*Y39642D1*X38690Y39639*Y39089*X38079Y38477*Y38247*X37971Y38139*X37794*X39654Y44369D2*X39364Y44079D1*Y42738*X39834Y42268*Y41963*X39394Y41523*Y41467*X38666Y40739*X38392*X37884Y40230*Y39839*X37587Y39542*X39544Y42079D2*X38544D1*X38175Y41710*Y40918*X37576Y40318*X37446*X37314Y40186*Y40056*X37194Y39936*X36330Y41302D2*X36523Y41109D1*X37178*X37304Y40983*Y40834*X37179Y40709*X37049*X36924Y40584*Y40454*X36789Y40319*X36659*X36534Y40194*Y40049*X36647Y39936*X37194*X36733Y40111D2*X36723Y40121D1*X39654Y49349D2*Y48712D1*X38924Y47982*Y42769*X38034Y41879*Y41170*X37572Y40709*X37443*X37314Y40580*Y40450*X37182Y40319*X36941*X36733Y40111*Y39737D2*X36928Y39542D1*X37587*X37511Y36578D2*X37505Y36584D1*X37300Y36379*X37050*X36924Y36253*Y34359*X37104Y34179*Y33449*X38214Y37309D2*Y36059D1*X37934Y35779*Y35364*X37804Y35234*Y34949*X39804Y43239D2*X40144Y42899D1*Y38327*X39766Y37949*X39762*X39604Y37790*Y37029*X39354Y36779*X39844Y35689D2*X38254Y34099D1*X37854*X37117Y37365D2*X37314Y37168D1*X37576*X37796Y36948*Y36949*X38104Y32299D2*Y32107D1*X38284Y31927*Y30629*X37104Y29449*X36330Y36578D2*X36524Y36384D1*Y31679*X37104Y31099*X36723Y35790D2*Y32180D1*X37104Y31799*X37117Y36972D2*X37314Y36775D1*X37576*X37696Y36655*Y35599*X37519Y35422*Y32544*X38184Y31879*Y30827*X37944Y30587*X37792*X37624Y30419*X37104Y32749D2*X37527Y32326D1*X37588*X38044Y31870*Y31156*X37904Y31016*Y30809*X37796Y36949D2*X38114Y36629D1*Y36159*X37814Y35859*Y35469*X37619Y35269*Y33643*X38309Y32953*Y32482*X38115Y32288*X38104Y32299*D11*X30204Y30407D3*X31904Y44399D3*D12*X26404Y29957D3*X28141Y33503D3*X29624Y33107D3*X27804Y31007D3*X27747Y34684D3*X28928Y35078D3*X28141Y33897D3*Y34291D3*X30109Y35078D3*X27054Y39407D3*X28928Y38621D3*X27524Y41147D3*X26304Y39407D3*X28534Y38621D3*Y38228D3*X28141Y38621D3*Y38228D3*X27747Y38621D3*Y38228D3*X26604Y39457D3*X29715Y37834D3*X29322D3*X27204Y42057D3*X28804Y41607D3*X27204Y45357D3*X28054Y41607D3*X29604Y41797D3*X29054Y46207D3*X22454Y25457D3*X23504Y22757D3*X22454Y27507D3*X23504Y25907D3*X26104Y26657D3*X22304Y31567D3*X22554Y31457D3*X22454Y30437D3*X25778Y33503D3*X22564Y32727D3*X25385Y33503D3*X24991Y37440D3*X23674Y37127D3*X23894Y37497D3*X26172Y34684D3*X25778Y35078D3*X24024Y35497D3*X24074Y35787D3*X23414Y35157D3*X23524Y34757D3*X22534Y33657D3*X23064Y37117D3*X24597Y35078D3*X25385D3*Y34684D3*Y34291D3*X25778Y34684D3*Y38621D3*Y38228D3*X25385Y39015D3*X24597Y38228D3*X25004Y41357D3*X24991Y37834D3*X25904Y39947D3*X24304Y39857D3*X22754Y38027D3*X24254Y40707D3*X25004Y45357D3*X24004Y42507D3*X25004Y43707D3*Y43007D3*X24254Y43557D3*X24484Y44387D3*X25004Y42057D3*X24204Y43997D3*X22274Y33107D3*Y33907D3*X22264Y39117D3*X39844Y35689D3*X39834Y40899D3*Y41699D3*X37904Y30809D3*X37104Y32749D3*X37624Y30419D3*X37854Y31249D3*X37104Y31799D3*Y31099D3*X38104Y32299D3*X37104Y29449D3*X37854Y34099D3*X39354Y36779D3*X37804Y34949D3*X36204Y34859D3*X37117Y36972D3*X37104Y33449D3*X37511Y36578D3*X36723Y35790D3*X36330Y36578D3*Y36184D3*Y40121D3*X36723Y40515D3*Y40121D3*Y39728D3*X37511D3*X39044Y37689D3*X39574Y41149D3*X38584Y40049D3*X38694Y39649D3*X38034Y39019D3*X38084Y39309D3*X36330Y39728D3*X35936Y40121D3*X38214Y37309D3*X38434Y37679D3*X37117Y37365D3*X36723Y41302D3*X39544Y42079D3*X36330Y41302D3*X39654Y44369D3*X39554Y43349D3*X39804Y43239D3*X36004Y48149D3*X38604Y48899D3*X39654Y47299D3*X38604Y52049D3*X39654Y49349D3*X33054Y28599D3*X32504Y33009D3*X34054Y33199D3*X34904Y29449D3*X33304Y33199D3*X34904Y32749D3*X32786Y36972D3*X32393D3*X35504Y35349D3*X34361Y36578D3*Y36184D3*X33967Y36578D3*Y36184D3*X33574Y36578D3*Y36184D3*X35804Y35399D3*X34584Y33659D3*X33180Y36184D3*X35054Y35399D3*X31999Y39728D3*X33967Y40515D3*Y40909D3*X33180Y39728D3*X34361Y40121D3*X34304Y43799D3*X32484Y41699D3*X33967Y41302D3*X35704Y44849D3*X0Y0D2*M02*