*G04 Output by CAMMaster V10.4.32  PentaLogix LLC*
*G04 Tue Aug 11 15:38:12 2009*
*%FSLAX24Y24*%
%MOIN*%
%IPPOS*%
%ADD10C,0.0107*%
%ADD11C,0.045*%
%ADD12C,0.02*%
%ADD32C,0.0054*%
%ADD61C,0.04*%
%ADD87R,0.09055X0.03937*%
%ADD88R,0.032X0.01*%
%ADD96R,0.059X0.048*%
%ADD98R,0.04X0.028*%
%ADD99R,0.048X0.059*%
%ADD100R,0.028X0.04*%
%ADD101C,0.045*%
%ADD102R,0.07X0.048*%
%ADD103R,0.048X0.07*%
%ADD151C,0.05*%

%LPD*%
X0Y0D2*D10*G1X22330Y51657D2*X22334Y51653D1*X25798Y50550D2*X26167D1*X26369Y50752*X25700Y49428D2*X25910D1*X26059Y49279*X26369*Y49108*X25778Y35472D2*X26143Y35107D1*X26154*X25778Y37047D2*X26154Y36671D1*Y36257*X26172Y34684D2*Y34339D1*X26204Y34307*X26154Y37407D2*Y37807D1*X26172Y37834*X26369Y50682D2*Y50752D1*X29704Y39015D2*Y39207D1*X29904Y39407*X30204*X30404Y39607*X29704Y39015D2*X29715D1*X27354Y38157D2*X27654Y37857D1*X27724*X27747Y37834*X28534Y34684D2*X28754Y34457D1*X28804*X29104Y34157*X28141Y34684D2*Y34670D1*X28354Y34457*Y34357*X28454Y34257*Y34157*X28554*X30054Y34407D2*Y33952D1*X30109Y33897*X28554Y35107D2*X28604Y35008D1*X28928Y34684*X27404Y34857D2*X27576Y34684D1*X27747*X34361Y40121D2*X34532D1*X34704Y39949*X33180Y40121D2*X33504Y39797D1*X33554Y39699*X31999Y40909D2*X32054Y40854D1*Y40399*X33554Y40649D2*X33654D1*Y40549*X33754Y40449*Y40349*X33967Y40135*Y40121*X33004Y40649D2*X33304Y40349D1*X33354*X33574Y40121*X34361Y36972D2*X34384Y36949D1*X34454*X34754Y36649*X32404Y35790D2*X32393D1*X31704Y35199D2*X31904Y35399D1*X32204*X32404Y35599*Y35790*X35739Y24123D2*Y24053D1*X35936Y36972D2*X35954Y36999D1*Y37399*X35904Y40499D2*X35936Y40467D1*Y40121*X35954Y38549D2*Y38135D1*X36330Y37759*X35954Y39699D2*X35965D1*X36330Y39334*X35739Y25698D2*Y25526D1*X36049*X36198Y25377*X36408*X35739Y24053D2*X35941Y24255D1*X36310*X39778Y23149D2*X39774Y23153D1*D12*X21586Y51657D2*X22330D1*X21586Y46157D2*X22304D1*X21586Y49157D2*X22389D1*X22393Y49153*X21586Y43157D2*X22304D1*X21586Y44157D2*X22304D1*X21586Y45157D2*X22304D1*X21586Y34657D2*X22154D1*X22354Y34857*X21586Y29657D2*X22354D1*X21586Y32157D2*X22354D1*X21586Y27157D2*X22454D1*X21586Y25157D2*X22354D1*X25044Y50629D2*Y51057D1*X25054*X25454Y46157D2*X25804D1*X25044Y49054D2*Y48617D1*X25054Y48607*X26354Y45357D2*X26104Y45107D1*Y45007*Y44907D2*X26354Y44657D1*Y43707D2*X26104Y43457D1*Y43357*Y43257D2*X26354Y43007D1*Y42057D2*X26104Y41807D1*Y41707*Y41607D2*X26354Y41357D1*X23554Y41707D2*Y41227D1*X26104Y43357D2*Y43257D1*Y45007D2*Y44907D1*Y41707D2*Y41607D1*X25854Y42057D2*X26104Y41807D1*X25854Y45357D2*X26104Y45107D1*X25854Y43007D2*X26104Y43257D1*X25854Y43707D2*X26104Y43457D1*X25854Y44657D2*X26104Y44907D1*X25854Y41357D2*X26104Y41607D1*X23554Y40587D2*Y40057D1*X23954Y39657*Y39357*X24597Y36653D2*X24604Y36646D1*Y36507*X24854Y36257*X25054*X26204Y33807D2*X26504Y33507D1*Y33107*X24804Y31607D2*Y31907D1*X25054Y32157*X25304Y30157D2*Y29407D1*X23804Y30657D2*X24154D1*X24304Y32157D2*X24504Y31957D1*Y31357*X25804Y32157D2*X26154D1*X26304Y32307*Y32407*X25554Y26407D2*Y25907D1*Y27157D2*X25954D1*X25304Y28907D2*X25654Y28557D1*Y28057*X29454Y50757D2*Y50557D1*X29554Y50457*Y49907*X26369Y50182D2*X26828D1*X26854Y50157*X29454Y48507D2*Y48757D1*X29554Y48857*Y49407*X27454Y48507D2*X27824D1*X28018Y48700*X26369Y48608D2*X26803D1*X26804Y48607*X28658Y48700D2*X28851Y48507D1*X29454*X26304Y46157D2*X26654D1*X28804Y45407D2*Y44957D1*X30054Y45407D2*Y44957D1*X28804Y43857D2*Y43157D1*X30054Y43857D2*Y43407D1*X28928Y37834D2*Y37440D1*X27804Y41157D2*Y40727D1*X29404Y41157D2*Y40727D1*X28554Y40087D2*Y39657D1*X29404Y40087D2*Y39657D1*X27804Y40087D2*Y39657D1*Y40727D2*X28554D1*X28928Y35866D2*Y35472D1*X28141Y35866D2*Y36143D1*X28254Y36257*X26566Y36653D2*X26654Y36565D1*Y36257*X26566Y35472D2*Y35195D1*X26654Y35107*X26566Y37047D2*X26654Y37135D1*Y37407*X28554Y33657D2*Y33207D1*X29104Y33657D2*X29258Y33503D1*X29715*X28054Y35107D2*X28104Y35157D1*Y35435*X28141Y35472*X28754Y36257D2*X28928Y36083D1*Y35866*X27404Y35357D2*X27519Y35472D1*X27747*X28104Y37457D2*Y37083D1*X28141Y37047*X28604Y37457D2*X28912D1*X28928Y37440*X26404Y29957D2*Y29857D1*X26804Y29457*X27954Y32957D2*Y32807D1*X28304Y32477*X29054Y32957D2*Y32477D1*X28304Y31837D2*Y31357D1*X30054Y31837D2*Y31357D1*X29054Y31837D2*Y31357D1*X26804Y29457D2*Y29477D1*X28854Y26957D2*Y26607D1*X29054Y26407*X29554Y29207D2*Y28407D1*Y27907D2*Y27157D1*X29054Y25907D2*Y25357D1*X30054Y25907D2*Y25357D1*Y26407D2*X30254Y26607D1*Y26957*X26804Y28837D2*Y28357D1*X29104Y24757D2*X29354Y24507D1*Y24007*X28254Y24607D2*Y24007D1*X27054Y22657D2*X27504D1*X27054Y23157D2*X27504D1*X28254Y21757D2*Y21157D1*X29354Y21757D2*X29854D1*X30404Y41157D2*Y40727D1*X30554Y37857D2*Y37407D1*X30404Y40087D2*Y39607D1*X30554Y34857D2*Y34407D1*Y36657D2*Y36207D1*X30304Y23107D2*Y22657D1*Y22157D2*Y21757D1*X31804Y52649D2*Y53049D1*Y51699D2*Y52149D1*X31554Y38149D2*Y38599D1*Y39949D2*Y40399D1*X31704Y34719D2*Y35199D1*X31554Y36949D2*Y37399D1*X31704Y33649D2*Y34079D1*X32754Y53049D2*X32254D1*X33854D2*Y53649D1*X35054Y51649D2*X34604D1*X35054Y52149D2*X34604D1*X33854Y50199D2*Y50799D1*X32754D2*Y50299D1*X33004Y50049*X35304Y45969D2*Y46449D1*X31854Y47849D2*Y48199D1*X32054Y48399*Y48899D2*Y49449D1*X33054Y48899D2*Y49449D1*X32554Y46899D2*Y47649D1*Y45599D2*Y46399D1*X33054Y48399D2*X33254Y48199D1*Y47849*X35304Y45349D2*Y45329D1*X33054Y42969D2*Y43449D1*X32054Y42969D2*Y43449D1*X33804Y42969D2*Y43449D1*X33054Y41849D2*Y42329D1*X33804D2*X34154Y41999D1*Y41849*X35304Y45349D2*X35704Y44949D1*Y44849*X33180Y37365D2*X33196Y37349D1*X33504*X33967Y37759D2*X34004Y37722D1*Y37349*X34361Y39334D2*X34589D1*X34704Y39449*X33180Y38940D2*Y38723D1*X33354Y38549*X33967Y39334D2*X34004Y39370D1*Y39649*X34054Y39699*X32393Y41302D2*X32850D1*X33004Y41149*X33554D2*Y41599D1*X35454Y37399D2*Y37671D1*X35542Y37759*X35454Y39699D2*X35542Y39611D1*Y39334*X35454Y38549D2*Y38241D1*X35542Y38153*X33854Y38549D2*X33967Y38662D1*Y38940*X33180D2*Y39334D1*X34304Y34079D2*X33554D1*X34304Y34719D2*Y35149D1*X32704Y34719D2*Y35149D1*X33554Y34719D2*Y35149D1*X32704Y33649D2*Y34079D1*X34304Y33649D2*Y34079D1*X33180Y36972D2*Y37365D1*X32054Y30949D2*Y31399D1*X33304Y30949D2*Y31649D1*X32054Y29399D2*Y29849D1*X33304Y29399D2*Y29849D1*X35804Y28649D2*X35454D1*X32654Y26299D2*X33257D1*X33450Y26106*X35304Y26199D2*X35305Y26198D1*X35739*X34090Y26106D2*X34284Y26299D1*X34654*X32554Y25399D2*Y25949D1*X32654Y26049*Y26299*X35254Y24649D2*X35280Y24623D1*X35739*X32554Y24899D2*Y24349D1*X32654Y24249*Y24049*X36454Y46749D2*Y46249D1*X36804Y45899*X36554Y47649D2*X36154D1*X36554Y48399D2*Y48899D1*X35804Y42399D2*Y42499D1*X35954Y42649*X36304*X37604Y43449D2*Y42849D1*X37804Y42649*X38304Y44149D2*X37954D1*X36804Y44649D2*Y45399D1*X37054Y42649D2*X37304Y42899D1*Y43199*X35604Y41699D2*Y41299D1*X35904Y40999*X37054Y38549D2*X37254D1*X37504Y38299*Y38159*X37511Y38153*X38154Y35449D2*Y35149D1*X38554Y34749*Y34219*X36254Y33449D2*X36004Y33199D1*X36254Y30149D2*X36004Y29899D1*X36254Y31099D2*X36004Y31349D1*X36254Y31799D2*X36004Y31549D1*X36254Y29449D2*X36004Y29699D1*X36254Y32749D2*X36004Y32999D1*Y33099D2*Y33199D1*Y29799D2*Y29899D1*Y31449D2*Y31549D1*X38554Y33099D2*Y33579D1*X36004Y33199D2*X35754Y33449D1*X36004Y33099D2*Y32999D1*X35754Y32749*X36004Y31549D2*X35754Y31799D1*X36004Y31449D2*Y31349D1*X35754Y31099*X36004Y29899D2*X35754Y30149D1*X36004Y29799D2*Y29699D1*X35754Y29449*X37054Y26199D2*X37064Y26189D1*Y25751*X36654Y28649D2*X36304D1*X37054Y23749D2*X37064D1*Y24176*X40522Y49649D2*X39754D1*X40522Y47649D2*X39654D1*X40522Y42649D2*X39754D1*X40522Y45149D2*X39754D1*Y39949D2*X39954Y40149D1*X40522*Y29649D2*X39804D1*X40522Y30649D2*X39804D1*X40522Y31649D2*X39804D1*X39715Y25653D2*X39719Y25649D1*X40522*Y28649D2*X39804D1*X40522Y23149D2*X39778D1*D32*X30784Y36887D2*X30639Y37032D1*X30369*X30054Y37347*Y37407*X30109Y38228D2*Y37895D1*X30054Y37840*Y37407*Y32477D2*Y33257D1*X29904Y33407*Y33807*X29654Y34057*Y34457*X29426Y34684*X28928*X29114Y37365D2*X28606Y36857D1*X28083*X27944Y36718*Y36588*X26854Y41357D2*X27204D1*X27354Y38657D2*Y39795D1*X27054Y40095*Y40707*X29114Y39406D2*Y38414D1*X28928Y38228*X29044Y41228D2*X28931Y41342D1*X27719*X27524Y41147*X27747Y39015D2*X27753Y39021D1*X30704Y38547D2*X30408D1*X30297Y38436*X29900*X29715Y38621*X30054Y36657D2*Y36717D1*X29715Y37055*Y37834*X29044Y41228D2*Y41054D1*X28979Y40989*X29114Y39406D2*X28979Y39541D1*Y40989*X26854Y41357D2*Y41297D1*X26629Y41072*X27934Y37759D2*X27824Y37649D1*X26883*X28928Y39015D2*X28743Y39200D1*X27670*X29114Y37365D2*Y37910D1*X28997Y38027*X28867*X28734Y38160*Y38290*X28597Y38427*X28467*X28334Y38560*Y38690*X28207Y38817*X27958*X27753Y39021*X26555Y39026D2*X26566Y39015D1*X26883Y37649D2*X26764Y37768D1*Y37897*X27554Y39084D2*X27670Y39200D1*X27934Y37759D2*Y38696D1*X27813Y38817*X27684*X27554Y38946*Y39084*X30704Y38857D2*X30554D1*X30504Y38807*X29639*X29524Y38692*X29715Y38228D2*X29524Y38419D1*Y38692*X26854Y44657D2*X27204D1*X26854Y45357D2*X27204D1*X26854Y43007D2*X27204D1*X26854Y43707D2*X27204D1*X26854Y42057D2*X27204D1*Y43007D2*X27394Y43197D1*X24294Y24985D2*Y25128D1*X24114Y25309*X23902*X23704Y25507*X26404Y27657D2*X25494D1*X25054Y27217*Y27157*X25782Y26718D2*X25306D1*X25054Y26467*Y26407*Y27157D2*X23879D1*X23589Y26857*X22704*X26244Y25585D2*Y26517D1*X26104Y26657*X25844*X25782Y26718*X25254Y28507D2*X24379D1*X24244Y28642*X23199*X25385Y33897D2*X25184Y33697D1*Y33257*X25054Y33127*Y32657*X25804*X24991Y33294D2*X24354Y32657D1*X24304*X27804Y31007D2*X23594D1*X23304Y30717*Y30657*X24991Y33503D2*Y33294D1*X30784Y36887D2*Y31825D1*X29226Y30267*X25594*X25454Y30407*X24804*X24504Y30107*X23046*X22709Y30443*Y30601*X22504Y30807*X25778Y37440D2*X25584Y37247D1*Y36807*X25554Y36777*Y36257*X25385Y37047D2*X25184Y37247D1*X24414*X24324Y37337*X24124*X23304Y37257D2*X24066Y38019D1*X24597Y34684D2*X24395D1*X24118Y34407*X23134*X23299Y34572D2*X23274Y34597D1*X22969*X24064Y35035D2*X23601Y34572D1*X23299*X26039Y34822D2*X25941D1*X25886Y34877*X24430*X26154Y35107D2*X26039D1*Y34822*X24430Y34877D2*X24180Y34627D1*X23994*Y34607*X27944Y36588D2*X27036Y35680D1*X24544*X24064Y35200*Y35035*X25584Y38559D2*X25452Y38427D1*X24460*X24250Y38217*X23979*X23064Y37302*Y37117*X25004Y41357D2*X25354D1*X25904Y39947D2*X25149D1*X25059Y39857*X24304*X27244Y39038D2*X27023Y38817D1*X26500*X26364Y38681*Y38627*X26359Y38621*X26172*X27304Y40907D2*X26960D1*X26475Y40422*X24929*X24904Y40447*X24194*X24441Y39207D2*X23261Y38027D1*X22754*X23354Y39407D2*X23689Y39072D1*X29604Y41797D2*X29599Y41792D1*X27904*X27149Y41037*X26922*X26407Y40522*X25524*X25339Y40707*X24254*X26960Y39015D2*X26768Y39207D1*X24441*X25984Y39487D2*X24535D1*X24120Y39072*X23689*X26764Y37897D2*X26642Y38019D1*X24066*X26555Y39026D2*X26346Y38817D1*X25712*X25584Y38689*Y38559*X26854Y43707D2*Y43767D1*X26584Y44037*X24427*X24194Y44270*X23957*X23884Y44197*Y44111*X23869Y44096*X24596Y43747D2*X24174D1*X24129Y43702*X23869*X23994Y43520D2*X23869D1*Y43505*X26854Y42057D2*Y42117D1*X26439Y42532*X25104*X24429Y43207*X24194*X24117Y43283*X23869*Y43308*X23994Y43126D2*X23869D1*Y43112*X26004Y40857D2*X25101D1*X24414Y41544*Y42418*X24114Y42718*X23869*X25004Y45357D2*X25354D1*X25004Y43707D2*X25354D1*X25004Y43007D2*X25354D1*X26854Y44657D2*Y44597D1*X26584Y44327*X24976*X24916Y44387*X24484*X25004Y42057D2*X25354D1*X25004Y44657D2*X25354D1*X23869Y43899D2*X23868Y43900D1*X23614*X23548Y43967*Y44227*X27394Y43197D2*Y43778D1*X26991Y44182*X24425*X24224Y44383*X23704*X23548Y44227*X24624Y43457D2*X24424D1*X24339Y43372*X25004Y43007D2*Y43338D1*X24596Y43747*X27244Y39038D2*Y39478D1*X26526Y40197*X24182*X23974Y40405*Y41772*X23554Y42192*Y42815*X23869Y42915D2*X23654D1*X23554Y42815*X26629Y41072D2*X25027D1*X24734Y41365*Y42252*X24114Y42872*Y43006*X23994Y43126*X24339Y43372D2*X24174D1*X24149Y43397*X24117*X23994Y43520*X23239Y43112D2*X23234Y43107D1*X22904*X22654Y42857*Y41907*X23239Y42915D2*X23231Y42907D1*X22904*X22754Y42757*Y41007*X23239Y42718D2*X23015D1*X22854Y42557*Y40057*X24544Y49054D2*X24454Y49153D1*X23948*X24145Y49409D2*X23697D1*X23416Y49128*Y49198*X25044Y49842D2*X25114D1*X23948Y49625D2*X23763D1*X23701Y49687*X23416*Y49698*X25114Y49842D2*X24799Y50157D1*X22954*X24544Y50629D2*X24454Y50552D1*X24149*X24004Y50407*X24544Y49842D2*X24454Y49940D1*X24007*X22144Y24678D2*X22123Y24657D1*X21586*X24294Y24985D2*X23466Y24157D1*X21586*X26244Y25585D2*X25996Y25337D1*X25634*X23954Y23657*X21586*X22704Y23407D2*X22446D1*X22196Y23157*X21586*X22724Y24757D2*X22527D1*X22437Y24847*X22282*X22144Y24708*Y24678*X24604Y28707D2*X24154Y29157D1*X21586*X24004Y28457D2*X23487D1*X23187Y28157*X21586*X22454Y27507D2*X22269D1*X22123Y27653*X21586*Y27657*X30554Y27257D2*X30104D1*X29819Y26972*X29289*X29119Y27142*X27489*X27189Y26842*X24640*X24270Y26472*X22204*X22129Y26547*X21714*Y26657*X21586*X26054Y25657D2*X24629D1*X24129Y26157*X21586*X23004Y25907D2*X22596D1*X22346Y25657*X21586*X23199Y28642D2*X23042Y28485D1*X21586*Y28657*X25778Y33897D2*X25593Y34082D1*X23371*X22586Y33297*X21586*Y33157*X23304Y30657D2*Y30707D1*X22960Y31051*Y31901*X22204Y32657*X21586*X26594Y30647D2*X26209D1*X25949Y30907*X24816*X24216Y30307*X23129*X23044Y30392*Y30697*X22806Y30937*Y31575*X22624Y31757*X21586*Y31657*X26254Y30457D2*X26104D1*X25754Y30807*X24954*X24354Y30207*X23087*X22884Y30410*Y30688*X22416Y31157*X21586*X22454Y30437D2*X22234Y30657D1*X21586*X22264Y30117D2*X21586D1*Y30157*Y36657D2*X22404D1*Y35857D2*X22204Y35657D1*X21586*Y35157D2*X22804D1*X22969Y34597D2*X22529Y34157D1*X21586*Y33657D2*X22534D1*X24991Y36653D2*X24797Y36847D1*X24480*X24180Y37147*X23964*X23744Y36927*X22692*X22293Y37326*X22284Y37317*X24991Y35866D2*X24985Y35859D1*X24683Y36161*X24253*X24034Y36380*Y36523*X23828Y36729*X22612*X22284Y37057*X22404Y36257D2*X21586D1*Y36157*X22404Y40957D2*X22219D1*X22123Y41053*X21586*Y41157*X22754Y41007D2*X22404Y40657D1*X21586*X22554Y40207D2*X22271D1*X22221Y40157*X21586*X22854Y40057D2*X22454Y39657D1*X21586*X26604Y39457D2*X26389Y39672D1*X24554*X24054Y39172*X23864*X23444Y39592*X22904*X22641Y39329*X21586*Y39157*X23239Y43702D2*X23234Y43707D1*X22854*X22654Y43907*Y44357*X22354Y44657*X21586*X23239Y43505D2*X23237Y43507D1*X22704*X22554Y43657*X21586*X23239Y43308D2*X23237Y43307D1*X22904*X22254Y42657*X21586*X22654Y41907D2*X22404Y41657D1*X21586*X23239Y44096D2*X23204D1*Y44307*X22854Y44657*Y46307*X22504Y46657*X21586*X23239Y43899D2*X23231Y43907D1*X23004*X22754Y44157*Y45457*X22554Y45657*X21586*X25554Y51307D2*X23639D1*X23489Y51157*X21586*X40522Y23649D2*X38619D1*X38469Y23499*X36554*X40522Y29149D2*X39554D1*X39354Y29349*Y30649*X39104Y30899*X38877*X38869Y30907*X40522Y28149D2*X39604D1*X39254Y28499*Y30149*X38904Y30499*Y30710*X38869*X40522Y33149D2*X39704D1*X39454Y32899*X40522Y32149D2*X39854D1*X39204Y31499*X38871*X38869Y31497*X40522Y31149D2*X39554D1*X39404Y31299*X38871*X38869Y31300*X40522Y30149D2*X39754D1*X39454Y30449*Y30899*X39254Y31099*X38874*X38869Y31104*X40522Y35649D2*Y35477D1*X39467*X39204Y35214*X38664*X38244Y35634*X38054*X37554Y35134*X35719*X35504Y35349*X40522Y35149D2*X39654D1*X39254Y34749*X40522Y34649D2*X39887D1*X39837Y34599*X39554*X40522Y34149D2*X39704D1*X39354Y33799*X40522Y33649D2*Y33753D1*X39985*X39889Y33849*X39704*X40522Y38649D2*Y38549D1*X39704*X39824Y37749D2*X39496Y38076D1*X38280*X38074Y38282*Y38425*X37855Y38644*X37425*X37123Y38946*X37117Y38940*X39824Y37489D2*X39815Y37480D1*X39416Y37879*X38364*X38144Y37659*X37928*X37628Y37959*X37311*X37117Y38153*X40522Y41149D2*X39574D1*X40522Y40649D2*X39579D1*X39139Y40209*X40522Y39649D2*X39304D1*X40522Y39149D2*X39904D1*X39704Y38949*X40522Y38149D2*X39704D1*X40522Y44649D2*Y44689D1*X39844*X40522Y44149D2*X39874D1*X39654Y44369*X40522Y43649D2*X39692D1*X39224Y44117*Y44395*X39021Y44599*X37754*X37154Y43999*X36354*X36004Y44349*X35854*X40522Y43149D2*Y43049D1*X39484*X39302Y43230*Y43869*X39064Y44109*Y44414*X38979Y44499*X37892*X37292Y43899*X36159*X35899Y44159*X35514*X40522Y42149D2*X39904D1*X39148Y42905*Y43755*X38804Y44099*Y44149*X40522Y41649D2*Y41509D1*X39522*X38737Y40724*X36515*X36330Y40909*X40522Y46149D2*Y46321D1*X39066*X38909Y46164*X40522Y49149D2*X39762D1*X39512Y48899*X39104*X40522Y48649D2*X37979D1*X37479Y49149*X36054*X40522Y48149D2*X40394D1*Y48259*X39979*X39904Y48334*X37838*X37468Y47964*X34919*X34619Y47664*X32989*X32819Y47834*X32289*X32004Y47549*X31554*X40522Y47149D2*Y47153D1*X39985*X39839Y47299*X39654*X40522Y46649D2*X38921D1*X38621Y46349*X38104*X40522Y45649D2*X37954D1*X37504Y46099*X39964Y50128D2*Y50097D1*X39826Y49959*X39671*X39581Y50049*X39384*X40522Y51649D2*X39912D1*X39662Y51399*X39404*X40522Y51149D2*X38154D1*X36474Y49469*X36112*X35864Y49220*X40522Y50649D2*X38642D1*X37814Y49820*X40522Y50149D2*X39985D1*X39964Y50128*X38101Y24865D2*X37654D1*X37564Y24964*X38104Y24399D2*X37959Y24254D1*X37654*X37564Y24176*X39154Y24649D2*X37309D1*X36994Y24964*X38692Y25108D2*Y25119D1*X38407*X38345Y25180*X38160*X37064Y24964D2*X36994D1*X38692Y25608D2*Y25678D1*X38411Y25397*X37963*X38160Y25653D2*X37654D1*X37564Y25751*X39254Y34749D2*Y32249D1*X39093Y32088*X38869*X39354Y33799D2*Y32049D1*X39204Y31899*X38877*X38869Y31891*X39454Y32899D2*Y31949D1*X39204Y31699*X38874*X38869Y31694*X38114Y31286D2*X37991Y31409D1*X37959*X37934Y31434*X37769*X38114Y31679D2*X37994Y31799D1*Y31933*X37374Y32553*Y33440*X37081Y33734*X35479*X38554Y31991D2*X38454Y31891D1*X38239*X38554Y31991D2*Y32614D1*X38134Y33034*Y34400*X37926Y34609*X35582*X34864Y35327*Y35768*X37512Y31059D2*X37104Y31467D1*Y31799*X37769Y31434D2*X37684Y31349D1*X37484*X38560Y30579D2*X38404Y30422D1*X37884*X37683Y30624*X35117*X34714Y31027*Y31609*X38560Y30579D2*Y30839D1*X38494Y30905*X38240*X38239Y30907*X37104Y30149D2*X36754D1*X37104Y32749D2*X36754D1*X37624Y30419D2*X37192D1*X37132Y30479*X35524*X35254Y30209*Y30149*X37104Y31799D2*X36754D1*X37104Y31099D2*X36754D1*X37104Y29449D2*X36754D1*X38239Y32088D2*X37994D1*X37694Y32388*Y33262*X37007Y33949*X36104*X38239Y31694D2*Y31679D1*X38114*X38239Y31497D2*Y31522D1*X37991*X37914Y31599*X37679*X37004Y32274*X35669*X35254Y32689*Y32749*X38239Y31300D2*Y31286D1*X38114*X38239Y31104D2*X37979D1*X37934Y31059*X37512*X38239Y30710D2*X38224Y30695D1*Y30609*X38151Y30536*X37914*X37681Y30769*X35524*X35254Y31039*Y31099*X36524Y36247D2*Y36117D1*X36396Y35989*X35762*X35553Y35780*X38042Y36787D2*X35466D1*X35344Y36908*X38419Y35734D2*X37988D1*X37573Y35319*X36124*X37667Y35599D2*X35340D1*X35148Y35790*X37854Y34099D2*X36769D1*X36584Y34284*X35701*X35186Y33769*X34959*X34204Y33014*X32509*X32504Y33009*X38754Y35399D2*X38419Y35734D1*X39354Y36779D2*X38847D1*X37667Y35599*X37914Y34359D2*X37204D1*X37179Y34384*X35633*X35148Y33899*X34804*X35936Y36184D2*X35749D1*X35744Y36179*Y36124*X35608Y35989*X35085*X34864Y35768*X37804Y34949D2*X37049D1*X36959Y34859*X36204*X37104Y33449D2*X36754D1*X39044Y37689D2*Y37504D1*X38129Y36589*X37858*X37648Y36379*X36656*X36524Y36247*X38044Y39770D2*Y39606D1*X37564Y39125*X35072*X34164Y38217*X38114Y40199D2*Y40179D1*X37928*X37678Y39929*X36069Y39984D2*Y39699D1*X35954*X37678Y39929D2*X36222D1*X36167Y39984*X36069*X38809Y40234D2*X38507D1*X38044Y39770*X39139Y40209D2*X38834D1*X38809Y40234*X38974Y40399D2*X37990D1*X37713Y40121*X37511*X38804Y37549D2*X38042Y36787D1*X37984Y37469D2*X37784D1*X37694Y37559*X36924*X36723Y37759*X36554Y38549D2*Y38029D1*X36524Y37999*Y37559*X36330Y37365*X39604Y43999D2*X39399Y44204D1*Y44362*X39062Y44699*X37604*X37304Y44399*X36654*X36514Y44539*X32882*X31324Y42980*Y37919*X37117Y41302D2*Y41512D1*X38804Y44149D2*Y44089D1*X38514Y43799*X34304*X37804Y42149D2*X37754D1*X37117Y41512*X36304Y42149D2*X37054D1*Y41679*X36924Y41549*Y41109*X36723Y40909*X38909Y46164D2*X37864D1*X37729Y46299*X36854*X36326Y48087D2*X36264Y48149D1*X36004*X35864Y48289*Y49220*X39404Y47949D2*X38519D1*X38229Y47649*X37054*Y48399D2*Y48339D1*X36802Y48087*X36326*X37054Y47649D2*Y47589D1*X36614Y47149*X35704*X38404Y49299D2*X38206Y49497D1*X37994*X37814Y49677*Y49820*X34904Y31799D2*X34714Y31609D1*X35254Y32749D2*X34904D1*X35254Y31099D2*X34904D1*X35254Y31799D2*X34904D1*X35254Y29449D2*X34904D1*X35254Y30149D2*X34904D1*X32584Y36114D2*Y36386D1*X32393Y36578*X32584Y36114D2*X32469Y35999D1*X31604*X31554Y35949*X31404*X34554Y35722D2*Y35859D1*X34424Y35989*X34295*X34174Y36110*Y37046*X34554Y35722D2*X34438Y35606D1*X35344Y36908D2*Y37038D1*X35225Y37157*X35553Y35780D2*X35542Y35790D1*X34355Y35784D2*X34150Y35989D1*X33901*X33774Y36116*Y36246*X33641Y36379*X33511*X33374Y36516*Y36646*X33241Y36779*X33111*X32994Y36896*Y37441*X34438Y35606D2*X33365D1*X33180Y35790*X35225Y37157D2*X34284D1*X34174Y37046*X35479Y33734D2*X35254Y33509D1*Y33449*X33129Y33817D2*Y35264D1*X32994Y35399*X33129Y33817D2*X33064Y33752D1*Y33577*X32393Y36972D2*Y37750D1*X32054Y38089*Y38149*X32393Y36184D2*X32208Y36369D1*X31811*X31700Y36259*X31404*X34361Y35790D2*X34355Y35784D1*X34584Y33659D2*X34389Y33464D1*X33177*X33064Y33577*X33180Y36578D2*X32994Y36392D1*Y35399*X35054Y34099D2*Y34710D1*X34754Y35010*Y36149*X35254Y33449D2*X34904D1*X34164Y38217D2*Y38088D1*X34025Y37949*X33502*X32994Y37441*X33180Y40121D2*X32682D1*X32454Y40349*Y40749*X32204Y40999*Y41399*X32054Y41549*Y42329*Y37399D2*Y36966D1*X31999Y36911*Y36578*X32054Y37399D2*Y37459D1*X31739Y37774*X31469*X31324Y37919*D11*X22553Y54244D3*X30038D3*Y20891D3*X32070Y53914D3*Y20562D3*X39555D3*D12*X22264Y39117D3*Y41187D3*X22284Y37057D3*X22274Y33907D3*X22284Y37317D3*X22274Y33107D3*X22264Y30117D3*X22284Y30957D3*X22264Y28697D3*X24004Y50807D3*X25054Y51057D3*X22334Y51653D3*X25798Y50550D3*X23948Y49625D3*X24007Y49940D3*X24004Y50407D3*X22954Y50157D3*X25554Y51307D3*X22393Y49153D3*X25054Y48607D3*X25700Y49428D3*X23948Y49153D3*X24145Y49409D3*X25454Y46157D3*X22304D3*X24304Y42957D3*X23554Y41707D3*X23984Y42247D3*X25004Y44657D3*X24204Y43997D3*X25004Y42057D3*X24484Y44387D3*X24254Y43557D3*X25004Y43007D3*X24624Y43457D3*X25004Y43707D3*X24004Y42507D3*X25004Y45357D3*X26104Y43357D3*Y45007D3*Y41707D3*X22304Y43157D3*Y44157D3*Y45157D3*X24254Y40707D3*X25984Y39487D3*X23354Y39407D3*X22554Y40207D3*X22304Y39907D3*X22404Y40957D3*X22754Y38027D3*X24194Y40447D3*X24597Y37834D3*X24204Y38507D3*X26004Y40857D3*X26172Y39015D3*Y38621D3*Y37834D3*Y38228D3*X24304Y39857D3*X25904Y39947D3*X23954Y39357D3*X24991Y38228D3*Y37834D3*X25385D3*Y38228D3*X25004Y41357D3*X24597Y38228D3*X25385Y39015D3*X25778Y38228D3*X25385Y38621D3*X25778D3*Y39015D3*X22704Y38957D3*Y38307D3*Y37657D3*X24991Y38621D3*X24597D3*Y39015D3*X24991D3*X25778Y37834D3*Y34684D3*X25385Y34291D3*X24991Y33897D3*Y34291D3*X25778Y33897D3*X24597Y34291D3*X25385Y34684D3*X24991D3*X23134Y34407D3*X24597Y34684D3*X25385Y35078D3*X24991D3*X24597D3*X25385Y35472D3*X24991D3*X24597D3*X25385Y35866D3*X24991D3*X24224Y36477D3*X23064Y37117D3*X22534Y33657D3*X23524Y34757D3*X23414Y35157D3*X24064Y36957D3*X24074Y35787D3*X24024Y35497D3*X23844Y36447D3*X23304Y37257D3*X24597Y35866D3*X24991Y36653D3*X24597Y37047D3*Y37440D3*X24991Y37047D3*X24124Y37337D3*X25385Y37047D3*X25778Y35078D3*X23994Y34607D3*X25778Y35472D3*Y37047D3*Y35866D3*X26172Y34684D3*X22354Y34857D3*X22404Y36657D3*X23894Y37497D3*X25385Y33897D3*X22804Y35157D3*X25778Y37440D3*X22404Y35857D3*X23674Y37127D3*X22404Y36257D3*X25385Y37440D3*X24991D3*X22554Y34507D3*X24597Y33897D3*Y36653D3*X25385Y33503D3*X22504Y30807D3*X22564Y32727D3*X25778Y33503D3*X22454Y30437D3*X23214Y33517D3*X22554Y31457D3*X26254Y30457D3*X22304Y31567D3*X23184Y33217D3*X24991Y33503D3*X23554Y33207D3*X24804Y31607D3*X23554D3*X24154D3*Y30657D3*X23554Y29557D3*X22354Y32157D3*Y29657D3*X25544Y30597D3*X24504Y31357D3*X25304Y30157D3*X24597Y33503D3*X26104Y26657D3*X23504Y25907D3*X22704Y26857D3*X23004Y25907D3*X26054Y25657D3*X23854Y26707D3*X22304Y26657D3*X22454Y27507D3*X24004Y28457D3*X25254Y28507D3*X24604Y28707D3*X25254Y25907D3*X25654Y28057D3*X25954Y27157D3*Y26407D3*X22454Y27157D3*X25554Y25907D3*X23554Y27257D3*X22708Y29407D3*X23504Y22757D3*X23704Y25507D3*X22724Y24757D3*X24104Y25057D3*X22454Y25457D3*X22704Y23407D3*X22354Y25157D3*X23804Y22807D3*X24354Y23157D3*X25804Y25007D3*X26104Y23207D3*Y22607D3*X24804Y25007D3*X22354Y24657D3*X23804Y25007D3*X24804Y20507D3*X30154Y49857D3*X26854Y50157D3*X27554Y51407D3*X29154D3*X29454Y50757D3*X29054Y46207D3*X29454Y48507D3*X26654Y46157D3*X26804Y48607D3*X27454Y48507D3*X26900Y49389D3*X29604Y41797D3*X28054Y41607D3*X27204Y45007D3*X30054Y43407D3*X27204Y41707D3*Y43357D3*X28054Y43157D3*X28804D3*X27204Y44657D3*Y45357D3*Y43707D3*X28804Y41607D3*X27204Y43007D3*Y42057D3*X28804Y45407D3*X30054D3*X29715Y38228D3*X30109D3*X29322Y37834D3*X29715D3*X26604Y39457D3*X29715Y38621D3*X29322D3*Y39015D3*X26566Y38228D3*Y38621D3*Y39015D3*X26960Y38228D3*Y38621D3*Y39015D3*X27747Y38228D3*Y38621D3*Y39015D3*X28141Y38228D3*Y38621D3*X27304Y40907D3*X28141Y39015D3*X28534Y38228D3*Y38621D3*Y39015D3*X28928D3*X27804Y39657D3*X28104D3*X27747Y37834D3*X28554Y39657D3*X28534Y37834D3*X29715Y39015D3*X26304Y39407D3*X29404Y39657D3*X28928Y37834D3*X27804Y41157D3*X29404D3*X27524Y41147D3*X28928Y38228D3*Y38621D3*X28141Y37834D3*X26960D3*X27054Y39407D3*X26566Y37834D3*X27204Y41357D3*X30054Y41157D3*X28854D3*X26304Y40707D3*X27054D3*X30109Y39015D3*Y38621D3*Y35078D3*X28141Y34291D3*Y33897D3*X27747Y34291D3*X26960Y34684D3*Y34291D3*X30109Y35472D3*X28928Y35078D3*X27747Y34684D3*X28928D3*Y36653D3*X30109Y33897D3*X28928Y37440D3*X28534Y34684D3*X28928Y35472D3*Y35866D3*X28141Y34684D3*X26566D3*X27747Y37047D3*X28141D3*Y35866D3*X27747Y36653D3*Y35866D3*Y35472D3*X26566Y36653D3*X28141Y35472D3*X26960Y36653D3*Y35866D3*Y35472D3*X26566Y35866D3*Y35472D3*X26960Y37047D3*X28141Y36653D3*X26566Y37047D3*X29904Y29707D3*X27804Y31007D3*X29624Y33107D3*X28141Y33503D3*X26594Y30647D3*X28304Y30707D3*X26804Y29957D3*X26404D3*X30054Y31357D3*X28304D3*X29054D3*X27954Y32957D3*X29054D3*X28304D3*X28554Y33207D3*X26504Y33107D3*X26304Y32407D3*X30109Y33503D3*X29715D3*X29204Y29307D3*X26404Y27657D3*X28854Y26957D3*X30254D3*X28304Y29107D3*X29554Y27157D3*X26804Y28357D3*X29554Y29207D3*X29054Y25357D3*X30054D3*X29854Y21757D3*X27504Y23157D3*X26554Y25007D3*X26504Y23207D3*Y22607D3*X26304Y22907D3*X27504Y22657D3*X28254Y24607D3*X29254Y23157D3*X27304Y25007D3*X28254Y21157D3*X30704Y38857D3*Y38547D3*X30404Y39607D3*Y41157D3*X30554Y37857D3*Y36207D3*Y34857D3*X30604Y31207D3*X30554Y27257D3*X30304Y21757D3*Y23107D3*Y24707D3*X31804Y50099D3*Y51699D3*Y53049D3*X31554Y47549D3*X31504Y43599D3*X31554Y39949D3*Y38599D3*Y36949D3*X31704Y33649D3*Y35199D3*X31404Y36259D3*Y35949D3*X33854Y53649D3*X34804Y49799D3*X32854Y51649D3*X33854Y50199D3*X34604Y52149D3*X35804Y51899D3*X35604Y52199D3*Y51599D3*X35554Y49799D3*X34604Y51649D3*X32254Y53049D3*X32054Y49449D3*X33054D3*X32554Y45599D3*X35304Y46449D3*X32554Y47649D3*X33804Y45699D3*X31854Y47849D3*X33254D3*X35704Y47149D3*X32904Y45499D3*X32393Y41302D3*X31999D3*X35804Y42399D3*X35604Y41699D3*X33554Y41599D3*X33804Y41849D3*X33054D3*X34154D3*X33054Y43449D3*X33804D3*X32054D3*X35704Y44849D3*X35304D3*X33804Y44099D3*X35514Y44159D3*X33967Y41302D3*X32484Y41699D3*X34304Y43799D3*X32204Y45099D3*X35542Y37759D3*X33967Y38153D3*X35148Y37759D3*X35542Y39334D3*Y38940D3*X35148Y39334D3*Y38940D3*Y38153D3*X33967Y39334D3*X35542Y38153D3*X34361Y39334D3*Y38940D3*Y38153D3*X33967Y38940D3*Y37759D3*X34361D3*X35542Y40121D3*X33967D3*X33180Y38940D3*Y39334D3*X33574Y40121D3*X33180Y37365D3*X31999Y40909D3*X33180Y38153D3*Y40121D3*X34361D3*X33180Y39728D3*X31999Y39334D3*X35148Y40515D3*Y40121D3*X34361Y40515D3*X33967Y40909D3*Y40515D3*X31999Y39728D3*Y36184D3*Y35790D3*X35054Y34099D3*X35804D3*X33254Y33649D3*X32054D3*X34904Y33449D3*X35542Y36972D3*X35054Y35399D3*X35148Y36972D3*X33967D3*X33180Y36184D3*Y36578D3*X34584Y33659D3*X32704Y33649D3*X34304D3*X33180Y36972D3*X32704Y35149D3*X35804Y35399D3*X32393Y35790D3*X33574Y36972D3*X33554Y35149D3*X34361Y36972D3*X34004Y35149D3*X34304D3*X33180Y35790D3*X33574D3*Y36184D3*Y36578D3*X33967Y35790D3*X34804Y33899D3*X33967Y36184D3*Y36578D3*X34361Y35790D3*Y36184D3*Y36578D3*X35148Y35790D3*Y36184D3*Y36578D3*X35542Y35790D3*Y36184D3*Y36578D3*X32786Y35790D3*Y36184D3*X32393D3*X35504Y35349D3*X32393Y36972D3*X32786D3*X31999Y36578D3*X32393D3*X32054Y29399D3*X33304D3*X34904Y32749D3*Y31799D3*X33304Y33199D3*X34904Y31099D3*Y29449D3*Y30149D3*X33304Y31649D3*X34054D3*X34904Y31449D3*Y33099D3*X32054Y31399D3*X34904Y29799D3*X34054Y33199D3*X32504Y33009D3*X35208Y25416D3*X34654Y26299D3*X35304Y26199D3*X35454Y28649D3*X32654Y26299D3*X33054Y28599D3*X32654Y24049D3*X32954Y23399D3*X34554D3*X35254Y24649D3*X31954Y24949D3*X37304Y54299D3*X38304Y49799D3*X39754Y50149D3*X37304Y49799D3*X36004Y52199D3*Y51599D3*X36304Y49799D3*X37754Y51649D3*X38304Y51999D3*X39754Y49649D3*X39404Y51399D3*X39654Y49349D3*X38004Y49749D3*X39384Y50049D3*X38404Y49299D3*X38604Y52049D3*X39400Y45399D3*X38554Y47549D3*X36554Y48899D3*X39654Y47649D3*X36154Y48399D3*Y47649D3*X36454Y46749D3*X36854Y48899D3*X37504Y46099D3*X36854Y46299D3*X38104Y46349D3*X39654Y47299D3*X39804Y48149D3*X38254Y48099D3*X36054Y49149D3*X39104Y48899D3*X39404Y47949D3*X38604Y48899D3*X36004Y48149D3*X37511Y41302D3*X36804Y44649D3*X37604Y43449D3*X36564Y44209D3*X39754Y45149D3*Y42649D3*X38554Y45249D3*X37954Y44149D3*Y43199D3*X38554D3*X37304D3*X38554Y41599D3*X37117Y41302D3*X38924Y41589D3*X39804Y43239D3*X35854Y44349D3*X39554Y43349D3*X38894Y41289D3*X39654Y44369D3*X36330Y41302D3*X39544Y42079D3*X39604Y43999D3*X36723Y41302D3*X37511Y38153D3*Y40909D3*X39554Y40299D3*X37117Y37365D3*X36723D3*X39704Y38549D3*X38434Y37679D3*X39704Y38949D3*X36330Y37365D3*X39304Y39649D3*X36723Y40909D3*X38214Y37309D3*X39704Y38149D3*X39754Y39949D3*X35936Y40121D3*X36330Y38940D3*Y37759D3*Y39334D3*X38114Y40199D3*X36330Y39728D3*X36723Y37759D3*X37984Y37469D3*X37117Y37759D3*X37511Y37365D3*Y37759D3*X37117Y38153D3*X37511Y38940D3*X38804Y37549D3*X38264Y38359D3*X38084Y39309D3*X38034Y39019D3*X38044Y37849D3*X38694Y39649D3*X38584Y40049D3*X39574Y41149D3*X39044Y37689D3*X37884Y38329D3*X37117Y38940D3*X36723D3*X37511Y39334D3*X37117D3*X36723D3*X37511Y39728D3*X37117D3*X36723D3*X37511Y40121D3*X38974Y40399D3*X37117Y40121D3*X36723D3*X37511Y40515D3*X36330Y40909D3*X37117Y40515D3*Y40909D3*X36723Y40515D3*X36330Y40121D3*Y36972D3*X37117Y35790D3*X37511D3*Y36184D3*X37117D3*X39404Y37149D3*Y36499D3*Y35849D3*X36330Y35790D3*Y36184D3*X36723D3*X36330Y36578D3*X36723Y35790D3*X37511Y36578D3*X37104Y33449D3*X36723Y36578D3*Y36972D3*X37117D3*Y36578D3*X38154Y35449D3*X36204Y34859D3*X37804Y34949D3*X35936Y36578D3*Y36972D3*Y36184D3*Y35790D3*X36104Y33949D3*X37904Y36299D3*X37511Y36972D3*X37914Y34359D3*X39354Y36779D3*X39704Y33849D3*X39804Y34899D3*X39554Y34599D3*X38754Y35399D3*X36124Y35319D3*X37854Y34099D3*X39804Y29649D3*Y30649D3*Y31649D3*X36004Y33099D3*Y29799D3*Y31449D3*X37104Y29449D3*X38104Y32299D3*X37104Y31099D3*X37484Y31349D3*X37104Y31799D3*X37854Y31249D3*X37624Y30419D3*X37104Y32749D3*X37904Y30809D3*X37104Y30149D3*X38124Y32559D3*X38554Y33099D3*X37804Y31849D3*X39804Y28649D3*X36654D3*X37963Y25397D3*X38160Y25653D3*X36408Y25377D3*X37054Y26199D3*X39715Y25653D3*X36554Y23499D3*X39154Y24649D3*X38104Y24399D3*X38101Y24865D3*X38160Y25180D3*X36310Y24255D3*X39774Y23153D3*X37054Y23749D3*X38104Y23999D3*X39844Y46109D3*X39824Y43849D3*X39844Y44689D3*X39834Y41699D3*X39824Y37489D3*X39834Y40899D3*X39824Y37749D3*X39844Y33619D3*Y35689D3*D61*X38457Y17149D3*Y18749D3*Y56349D3*Y57149D3*X38057Y17549D3*Y18349D3*Y55949D3*Y56749D3*Y57549D3*X37657Y17149D3*Y18749D3*X36457Y55949D3*Y57549D3*X36057Y17149D3*Y17949D3*Y18749D3*Y56349D3*Y57149D3*X35657Y17549D3*Y18349D3*Y55949D3*Y56749D3*Y57549D3*X35257Y17149D3*Y17949D3*Y18749D3*Y56349D3*Y57149D3*X34857Y17549D3*Y18349D3*Y55949D3*Y56749D3*Y57549D3*X34457Y17149D3*Y17949D3*Y18749D3*Y56349D3*Y57149D3*X34057Y17549D3*Y18349D3*Y55949D3*Y56749D3*Y57549D3*X33657Y17149D3*Y17949D3*Y18749D3*Y56349D3*Y57149D3*X33257Y17549D3*Y18349D3*Y55949D3*Y56749D3*Y57549D3*X32857Y17149D3*Y17949D3*Y18749D3*Y56349D3*Y57149D3*X32457Y17549D3*Y18349D3*Y55949D3*Y56749D3*Y57549D3*X32057Y17149D3*Y17949D3*Y18749D3*Y56349D3*Y57149D3*X31657Y17549D3*Y18349D3*Y55949D3*Y56749D3*Y57549D3*X30457Y17149D3*Y17949D3*Y18749D3*Y56349D3*Y57149D3*X30057Y17549D3*Y18349D3*Y55949D3*Y56749D3*Y57549D3*X29657Y17149D3*Y17949D3*Y18749D3*Y56349D3*Y57149D3*X29257Y17549D3*Y18349D3*Y55949D3*Y56749D3*Y57549D3*X28857Y17149D3*Y17949D3*Y18749D3*Y56349D3*Y57149D3*X28457Y17549D3*Y18349D3*Y55949D3*Y56749D3*Y57549D3*X28057Y17149D3*Y17949D3*Y18749D3*Y56349D3*Y57149D3*X27657Y17549D3*Y18349D3*Y55949D3*Y56749D3*Y57549D3*X27257Y17149D3*Y17949D3*Y18749D3*Y56349D3*Y57149D3*X26857Y17549D3*Y18349D3*Y55949D3*Y56749D3*Y57549D3*X26457Y17149D3*Y17949D3*Y18749D3*Y56349D3*Y57149D3*X26057Y17549D3*Y18349D3*Y55949D3*Y56749D3*Y57549D3*X25657Y17149D3*Y18749D3*X24457Y55949D3*Y57549D3*X24057Y17149D3*Y17949D3*Y18749D3*Y56349D3*Y57149D3*X23657Y17549D3*Y18349D3*Y55949D3*Y57549D3*D87*X21586Y51657D3*Y51157D3*Y50657D3*Y50157D3*Y49657D3*Y49157D3*Y46657D3*Y46157D3*Y45657D3*Y45157D3*Y44657D3*Y44157D3*Y43657D3*Y43157D3*Y42657D3*Y42157D3*Y41657D3*Y41157D3*Y40657D3*Y40157D3*Y39657D3*Y39157D3*Y36657D3*Y36157D3*Y35657D3*Y35157D3*Y34657D3*Y34157D3*Y33657D3*Y33157D3*Y32657D3*Y32157D3*Y31657D3*Y31157D3*Y30657D3*Y30157D3*Y29657D3*Y29157D3*Y28657D3*Y28157D3*Y27657D3*Y27157D3*Y26657D3*Y26157D3*Y25657D3*Y25157D3*Y24657D3*Y24157D3*Y23657D3*Y23157D3*X40522Y51649D3*Y51149D3*Y50649D3*Y50149D3*Y49649D3*Y49149D3*Y48649D3*Y48149D3*Y47649D3*Y47149D3*Y46649D3*Y46149D3*Y45649D3*Y45149D3*Y44649D3*Y44149D3*Y43649D3*Y43149D3*Y42649D3*Y42149D3*Y41649D3*Y41149D3*Y40649D3*Y40149D3*Y39649D3*Y39149D3*Y38649D3*Y38149D3*Y35649D3*Y35149D3*Y34649D3*Y34149D3*Y33649D3*Y33149D3*Y32649D3*Y32149D3*Y31649D3*Y31149D3*Y30649D3*Y30149D3*Y29649D3*Y29149D3*Y28649D3*Y28149D3*Y25649D3*Y25149D3*Y24649D3*Y24149D3*Y23649D3*Y23149D3*D88*X23869Y44096D3*Y43899D3*Y43702D3*Y43505D3*Y43308D3*Y43112D3*Y42915D3*Y42718D3*X23239D3*Y42915D3*Y43112D3*Y43308D3*Y43505D3*Y43702D3*Y43899D3*Y44096D3*X38869Y30710D3*Y30907D3*Y31104D3*Y31300D3*Y31497D3*Y31694D3*Y31891D3*Y32088D3*X38239D3*Y31891D3*Y31694D3*Y31497D3*Y31300D3*Y31104D3*Y30907D3*Y30710D3*D96*X26804Y28837D3*Y29477D3*X29054Y31837D3*Y32477D3*X30054Y31837D3*Y32477D3*X30404Y40727D3*Y40087D3*X28304Y31837D3*Y32477D3*X27804Y40727D3*Y40087D3*X29404Y40727D3*Y40087D3*X23554Y41227D3*Y40587D3*X28554Y40727D3*Y40087D3*X33554Y34719D3*Y34079D3*X38554Y34219D3*Y33579D3*X32704Y34719D3*Y34079D3*X34304Y34719D3*Y34079D3*X33804Y42329D3*Y42969D3*X31704Y34719D3*Y34079D3*X32054Y42329D3*Y42969D3*X33054Y42329D3*Y42969D3*X35304Y45329D3*Y45969D3*D98*X29554Y49907D3*Y49407D3*X26204Y34307D3*Y33807D3*X25304Y28907D3*Y29407D3*X30304Y22157D3*Y22657D3*X30054Y26407D3*Y25907D3*X29054Y26407D3*Y25907D3*X29554Y27907D3*Y28407D3*X27054Y23157D3*Y22657D3*X25804Y32657D3*Y32157D3*X25054D3*Y32657D3*X27354Y38657D3*Y38157D3*X27404Y35357D3*Y34857D3*X24304Y32157D3*Y32657D3*X29104Y34157D3*Y33657D3*X28554Y34157D3*Y33657D3*X26369Y49108D3*Y48608D3*Y50682D3*Y50182D3*X23416Y49698D3*Y49198D3*X38692Y25608D3*Y25108D3*X35739Y24623D3*Y24123D3*Y26198D3*Y25698D3*X33554Y41149D3*Y40649D3*X33004Y41149D3*Y40649D3*X37804Y42149D3*Y42649D3*X34704Y39949D3*Y39449D3*X34754Y36649D3*Y36149D3*X37054Y42149D3*Y42649D3*X36304D3*Y42149D3*X35054Y52149D3*Y51649D3*X32554Y46399D3*Y46899D3*X33054Y48899D3*Y48399D3*X32054Y48899D3*Y48399D3*X31804Y52149D3*Y52649D3*X36804Y45399D3*Y45899D3*X35904Y40999D3*Y40499D3*X32554Y25399D3*Y24899D3*D99*X28658Y48700D3*X28018D3*X34090Y26106D3*X33450D3*D100*X26154Y36257D3*X26654D3*X26304Y46157D3*X25804D3*X30554Y36657D3*X30054D3*X25554Y36257D3*X25054D3*X28604Y37457D3*X28104D3*X30554Y37407D3*X30054D3*X26654Y35107D3*X26154D3*X28754Y36257D3*X28254D3*X28054Y35107D3*X28554D3*X30554Y34407D3*X30054D3*X26654Y37407D3*X26154D3*X26354Y44657D3*X26854D3*X25854D3*X25354D3*X25854Y43707D3*X25354D3*X25854Y43007D3*X25354D3*X25854Y45357D3*X25354D3*X26354D3*X26854D3*X26354Y43007D3*X26854D3*X26354Y43707D3*X26854D3*X25854Y41357D3*X25354D3*X25854Y42057D3*X25354D3*X26354Y41357D3*X26854D3*X26354Y42057D3*X26854D3*X23804Y30657D3*X23304D3*X25554Y27157D3*X25054D3*Y26407D3*X25554D3*X24544Y49054D3*X25044D3*Y49842D3*X24544D3*Y50629D3*X25044D3*X37064Y24176D3*X37564D3*Y24964D3*X37064D3*Y25751D3*X37564D3*X36554Y48399D3*X37054D3*Y47649D3*X36554D3*X38804Y44149D3*X38304D3*X35254Y32749D3*X35754D3*X35254Y33449D3*X35754D3*X36754Y32749D3*X36254D3*X36754Y33449D3*X36254D3*X35254Y31099D3*X35754D3*X35254Y31799D3*X35754D3*X35254Y29449D3*X35754D3*X36754D3*X36254D3*X36754Y31799D3*X36254D3*X36754Y31099D3*X36254D3*X36754Y30149D3*X36254D3*X35254D3*X35754D3*X35954Y37399D3*X35454D3*X32054Y40399D3*X31554D3*X33554Y39699D3*X34054D3*X33854Y38549D3*X33354D3*X35954Y39699D3*X35454D3*X32054Y37399D3*X31554D3*X34004Y37349D3*X33504D3*X37054Y38549D3*X36554D3*X32054Y38149D3*X31554D3*X36304Y28649D3*X35804D3*X35454Y38549D3*X35954D3*D101*X30204Y30407D3*X24054Y21657D3*X29104Y24757D3*X33004Y50049D3*X38054Y53149D3*X31904Y44399D3*D102*X30054Y43857D3*Y44957D3*X28804Y43857D3*Y44957D3*X33304Y29849D3*Y30949D3*X32054Y29849D3*Y30949D3*D103*X29354Y21757D3*X28254D3*X29354Y24007D3*X28254D3*X33854Y50799D3*X32754D3*X33854Y53049D3*X32754D3*D151*X25054Y56807D3*X37054D3*Y17999D3*X25054D3*X0Y0D2*M02*