*G04 Output by CAMMaster V10.4.32  PentaLogix LLC*
*G04 Tue Aug 11 15:38:12 2009*
*%FSLAX24Y24*%
%MOIN*%
%IPPOS*%
%ADD10C,0.0107*%
%ADD31C,0.0075*%
%ADD41C,0.045*%
%ADD51C,0.025*%
%ADD58C,0.1*%
%ADD59C,0.142*%
%ADD60C,0.03*%
%ADD104R,0.045X0.032*%
%ADD105R,0.09555X0.04437*%
%ADD106R,0.037X0.015*%
%ADD107R,0.025X0.055*%
%ADD108O,0.091X0.029*%
%ADD109R,0.067X0.02*%
%ADD110C,0.022*%
%ADD111R,0.08374X0.09949*%
%ADD112R,0.03059X0.05224*%
%ADD113O,0.03846X0.01602*%
%ADD114O,0.025X0.055*%
%ADD115R,0.064X0.053*%
%ADD116R,0.05618X0.08768*%
%ADD117R,0.045X0.033*%
%ADD118R,0.053X0.064*%
%ADD119R,0.033X0.045*%
%ADD120C,0.047*%
%ADD123C,0.051*%
%ADD125C,0.023*%
%ADD126R,0.046X0.033*%
%ADD127R,0.097X0.045*%
%ADD128R,0.038X0.016*%
%ADD129R,0.026X0.056*%
%ADD130O,0.092X0.03*%
%ADD131R,0.068X0.021*%
%ADD132R,0.085X0.1*%
%ADD133R,0.032X0.053*%
%ADD134O,0.039X0.017*%
%ADD135O,0.026X0.056*%
%ADD136R,0.065X0.054*%
%ADD137R,0.057X0.089*%
%ADD138R,0.046X0.034*%
%ADD139R,0.054X0.065*%
%ADD140R,0.034X0.046*%

%LPD*%
X0Y0D2*D10*G1X21054Y55157D2*Y47907D1*Y47119D2*Y38300D1*Y37513D2*Y19649D1*Y55157D2*X27274D1*Y54710*X28849D2*Y55157D1*X31054*Y19649*X28849Y19645*Y19947*X27274D2*Y19649D1*X21054*X21838Y37513D2*X21054D1*Y38300D2*X21838D1*X21849Y47119D2*X21054D1*Y47907D2*X21849D1*Y47119D2*X21888Y47118D1*X21927Y47121*X21966Y47128*X22004Y47138*X22041Y47153*X22076Y47171*X22109Y47192*X22140Y47217*X22169Y47244*X22194Y47274*X22216Y47307*X22235Y47341*X22250Y47378*X22262Y47415*X22270Y47454*X22274Y47493*Y47533*X22270Y47572*X22262Y47611*X22250Y47648*X22235Y47685*X22216Y47719*X22194Y47752*X22169Y47782*X22140Y47810*X22109Y47834*X22076Y47856*X22041Y47873*X22004Y47888*X21966Y47898*X21927Y47905*X21888Y47908*X21849Y47907*X21838Y37513D2*X21878D1*X21918Y37517*X21957Y37524*X21996Y37536*X22032Y37552*X22068Y37571*X22101Y37594*X22131Y37620*X22159Y37649*X22184Y37681*X22205Y37715*X22223Y37751*X22237Y37788*X22247Y37827*X22253Y37867*X22255Y37907*X22253Y37947*X22247Y37987*X22237Y38025*X22223Y38063*X22205Y38099*X22184Y38133*X22159Y38165*X22131Y38194*X22101Y38220*X22068Y38242*X22032Y38262*X21996Y38277*X21957Y38289*X21918Y38297*X21878Y38301*X21838Y38300*X28849Y19947D2*Y19987D1*X28846Y20027*X28841Y20066*X28834Y20106*X28825Y20145*X28815Y20184*X28802Y20222*X28787Y20259*X28771Y20295*X28752Y20331*X28732Y20366*X28710Y20399*X28687Y20432*X28661Y20463*X28635Y20493*X28606Y20521*X28577Y20548*X28546Y20573*X28513Y20597*X28480Y20619*X28446Y20640*X28410Y20658*X28374Y20675*X28337Y20690*X28299Y20703*X28260Y20714*X28221Y20723*X28182Y20730*X28142Y20735*X28102Y20738*X28062Y20740*X28022Y20738*X27982Y20735*X27942Y20730*X27903Y20723*X27864Y20714*X27825Y20703*X27787Y20690*X27750Y20675*X27714Y20658*X27678Y20640*X27644Y20619*X27610Y20597*X27578Y20573*X27547Y20548*X27517Y20521*X27489Y20493*X27462Y20463*X27437Y20432*X27414Y20399*X27392Y20366*X27372Y20331*X27353Y20295*X27337Y20259*X27322Y20222*X27309Y20184*X27298Y20145*X27290Y20106*X27283Y20066*X27278Y20027*X27275Y19987*X27274Y19947*Y54711D2*X27277Y54671D1*X27282Y54631*X27289Y54592*X27297Y54552*X27308Y54514*X27321Y54476*X27336Y54438*X27352Y54402*X27370Y54366*X27391Y54331*X27412Y54298*X27436Y54265*X27461Y54234*X27488Y54204*X27516Y54176*X27546Y54149*X27577Y54123*X27609Y54099*X27643Y54077*X27677Y54056*X27713Y54038*X27749Y54021*X27786Y54006*X27824Y53993*X27863Y53982*X27902Y53973*X27941Y53965*X27981Y53960*X28021Y53957*X28061Y53956*X28101Y53957*X28141Y53960*X28181Y53965*X28221Y53972*X28260Y53981*X28298Y53992*X28336Y54005*X28374Y54020*X28410Y54037*X28446Y54056*X28480Y54076*X28514Y54098*X28546Y54122*X28577Y54148*X28607Y54175*X28635Y54203*X28662Y54233*X28687Y54264*X28711Y54297*X28733Y54330*X28753Y54365*X28771Y54401*X28788Y54437*X28802Y54475*X28815Y54513*X28826Y54551*X28835Y54590*X28842Y54630*X28846Y54670*X28849Y54710*X33259Y20096D2*X33262Y20136D1*X33266Y20176*X33273Y20215*X33282Y20254*X33293Y20293*X33306Y20331*X33320Y20368*X33337Y20405*X33355Y20441*X33375Y20475*X33397Y20509*X33421Y20541*X33446Y20573*X33473Y20602*X33501Y20631*X33531Y20658*X33562Y20683*X33594Y20707*X33628Y20729*X33662Y20750*X33698Y20768*X33734Y20785*X33772Y20800*X33810Y20813*X33848Y20824*X33887Y20833*X33927Y20840*X33967Y20845*X34007Y20849*X34047Y20850*X34087Y20848*X34127Y20845*X34167Y20840*X34206Y20833*X34245Y20824*X34284Y20813*X34322Y20800*X34359Y20785*X34395Y20768*X34431Y20749*X34465Y20729*X34499Y20706*X34531Y20683*X34562Y20657*X34592Y20630*X34620Y20602*X34647Y20572*X34672Y20540*X34696Y20508*X34717Y20474*X34738Y20440*X34756Y20404*X34772Y20367*X34787Y20330*X34800Y20292*X34811Y20253*X34819Y20214*X34826Y20174*X34831Y20135*X34834Y20094*Y54859D2*X34833Y54819D1*X34830Y54779*X34825Y54739*X34818Y54700*X34810Y54661*X34799Y54622*X34786Y54584*X34771Y54547*X34755Y54510*X34736Y54475*X34716Y54440*X34694Y54406*X34671Y54374*X34646Y54343*X34619Y54313*X34591Y54285*X34561Y54258*X34530Y54232*X34498Y54208*X34464Y54186*X34430Y54166*X34394Y54147*X34358Y54130*X34321Y54116*X34283Y54103*X34244Y54091*X34205Y54082*X34166Y54075*X34126Y54070*X34086Y54067*X34046Y54066*X34006Y54067*X33966Y54070*X33926Y54075*X33887Y54082*X33848Y54091*X33809Y54103*X33771Y54116*X33734Y54130*X33698Y54147*X33662Y54166*X33628Y54186*X33595Y54208*X33562Y54232*X33531Y54258*X33502Y54285*X33473Y54313*X33447Y54343*X33421Y54374*X33398Y54406*X33376Y54440*X33356Y54475*X33337Y54510*X33321Y54547*X33306Y54584*X33293Y54622*X33283Y54661*X33274Y54700*X33267Y54739*X33262Y54779*X33259Y54819*Y54859*X40270Y36505D2*X40230D1*X40190Y36509*X40151Y36516*X40112Y36528*X40076Y36544*X40040Y36563*X40007Y36586*X39977Y36612*X39949Y36641*X39924Y36673*X39903Y36707*X39885Y36743*X39871Y36780*X39861Y36819*X39855Y36859*X39853Y36899*X39855Y36939*X39861Y36979*X39871Y37017*X39885Y37055*X39903Y37091*X39924Y37125*X39949Y37157*X39977Y37186*X40007Y37212*X40040Y37234*X40076Y37254*X40112Y37269*X40151Y37281*X40190Y37289*X40230Y37293*X40270Y37292*X40259Y26899D2*X40220Y26898D1*X40181Y26900*X40142Y26907*X40104Y26918*X40067Y26932*X40032Y26950*X39999Y26971*X39968Y26996*X39939Y27023*X39914Y27054*X39892Y27086*X39873Y27121*X39858Y27157*X39846Y27195*X39838Y27234*X39834Y27273*Y27312*X39838Y27351*X39846Y27390*X39858Y27428*X39873Y27464*X39892Y27499*X39914Y27531*X39939Y27562*X39968Y27589*X39999Y27614*X40032Y27635*X40067Y27653*X40104Y27667*X40142Y27678*X40181Y27684*X40220Y27687*X40259Y27686*X41054Y26899D2*X40259D1*Y27686D2*X41054D1*Y36505D2*X40270D1*Y37292D2*X41054D1*Y55157D2*X34834D1*Y54859*X33259D2*Y55161D1*X31054Y55157*Y19649*X33259*Y20095*Y20096D3*X34834Y20095D2*Y19649D1*X41054*Y37292D2*Y55157D1*Y27686D2*Y36505D1*Y19649D2*Y26899D1*D31*X26456Y23654D2*Y23378D1*X26612D2*Y22440D1*X26477Y23378D2*Y22440D1*X26255Y23374D2*X26353D1*X26152D2*Y23654D1*X26027Y23374D2*Y22440D1*X26072Y23374D2*Y22440D1*X26117Y23374D2*Y22440D1*X26297Y23374D2*Y22440D1*X26342Y23374D2*Y22440D1*X26522Y23378D2*Y22440D1*X26567Y23378D2*Y22440D1*X26162Y23654D2*Y22160D1*X26207Y23654D2*Y22160D1*X26252Y23654D2*Y22160D1*X26387Y23654D2*Y22160D1*X26432Y23654D2*Y22160D1*X26456Y23654D2*X26353D1*Y23374*X26255D2*Y23654D1*X26152*Y23374D2*X25982D1*Y22440*X26152*Y22160*X26255*Y22440*X26353*Y22160*X26456*Y22440*X26626*Y23378*X26456*X35652Y51428D2*X35482D1*Y52366*X35652*Y52646*X35755*Y52366*X35853*Y52646*X35956*Y52366*X36126*Y51432*X35956*Y51152D2*X35853D1*Y51432*X35755D2*Y51152D1*X35652*X35676D2*Y52646D1*X35721Y51152D2*Y52646D1*X35856Y51152D2*Y52646D1*X35901Y51152D2*Y52646D1*X35946Y51152D2*Y52646D1*X35541Y51428D2*Y52366D1*X35586Y51428D2*Y52366D1*X35766Y51432D2*Y52366D1*X35811Y51432D2*Y52366D1*X35991Y51432D2*Y52366D1*X36036Y51432D2*Y52366D1*X36081Y51432D2*Y52366D1*X35956Y51432D2*Y51152D1*X35853Y51432D2*X35755D1*X35631Y51428D2*Y52366D1*X35496Y51428D2*Y52366D1*X35652Y51152D2*Y51428D1*D51*X21054Y55157D2*Y47907D1*Y47119D2*Y38300D1*Y37513D2*Y19649D1*Y55157D2*X27274D1*Y54710*X28849D2*Y55157D1*X31054*Y19649*X28849Y19645*Y19947*X27274D2*Y19649D1*X21054*X21838Y37513D2*X21054D1*Y38300D2*X21838D1*X21849Y47119D2*X21054D1*Y47907D2*X21849D1*Y47119D2*X21888Y47118D1*X21927Y47121*X21966Y47128*X22004Y47138*X22041Y47153*X22076Y47171*X22109Y47192*X22140Y47217*X22169Y47244*X22194Y47274*X22216Y47307*X22235Y47341*X22250Y47378*X22262Y47415*X22270Y47454*X22274Y47493*Y47533*X22270Y47572*X22262Y47611*X22250Y47648*X22235Y47685*X22216Y47719*X22194Y47752*X22169Y47782*X22140Y47810*X22109Y47834*X22076Y47856*X22041Y47873*X22004Y47888*X21966Y47898*X21927Y47905*X21888Y47908*X21849Y47907*X21838Y37513D2*X21878D1*X21918Y37517*X21957Y37524*X21996Y37536*X22032Y37552*X22068Y37571*X22101Y37594*X22131Y37620*X22159Y37649*X22184Y37681*X22205Y37715*X22223Y37751*X22237Y37788*X22247Y37827*X22253Y37867*X22255Y37907*X22253Y37947*X22247Y37987*X22237Y38025*X22223Y38063*X22205Y38099*X22184Y38133*X22159Y38165*X22131Y38194*X22101Y38220*X22068Y38242*X22032Y38262*X21996Y38277*X21957Y38289*X21918Y38297*X21878Y38301*X21838Y38300*X28849Y19947D2*Y19987D1*X28846Y20027*X28841Y20066*X28834Y20106*X28825Y20145*X28815Y20184*X28802Y20222*X28787Y20259*X28771Y20295*X28752Y20331*X28732Y20366*X28710Y20399*X28687Y20432*X28661Y20463*X28635Y20493*X28606Y20521*X28577Y20548*X28546Y20573*X28513Y20597*X28480Y20619*X28446Y20640*X28410Y20658*X28374Y20675*X28337Y20690*X28299Y20703*X28260Y20714*X28221Y20723*X28182Y20730*X28142Y20735*X28102Y20738*X28062Y20740*X28022Y20738*X27982Y20735*X27942Y20730*X27903Y20723*X27864Y20714*X27825Y20703*X27787Y20690*X27750Y20675*X27714Y20658*X27678Y20640*X27644Y20619*X27610Y20597*X27578Y20573*X27547Y20548*X27517Y20521*X27489Y20493*X27462Y20463*X27437Y20432*X27414Y20399*X27392Y20366*X27372Y20331*X27353Y20295*X27337Y20259*X27322Y20222*X27309Y20184*X27298Y20145*X27290Y20106*X27283Y20066*X27278Y20027*X27275Y19987*X27274Y19947*Y54711D2*X27277Y54671D1*X27282Y54631*X27289Y54592*X27297Y54552*X27308Y54514*X27321Y54476*X27336Y54438*X27352Y54402*X27370Y54366*X27391Y54331*X27412Y54298*X27436Y54265*X27461Y54234*X27488Y54204*X27516Y54176*X27546Y54149*X27577Y54123*X27609Y54099*X27643Y54077*X27677Y54056*X27713Y54038*X27749Y54021*X27786Y54006*X27824Y53993*X27863Y53982*X27902Y53973*X27941Y53965*X27981Y53960*X28021Y53957*X28061Y53956*X28101Y53957*X28141Y53960*X28181Y53965*X28221Y53972*X28260Y53981*X28298Y53992*X28336Y54005*X28374Y54020*X28410Y54037*X28446Y54056*X28480Y54076*X28514Y54098*X28546Y54122*X28577Y54148*X28607Y54175*X28635Y54203*X28662Y54233*X28687Y54264*X28711Y54297*X28733Y54330*X28753Y54365*X28771Y54401*X28788Y54437*X28802Y54475*X28815Y54513*X28826Y54551*X28835Y54590*X28842Y54630*X28846Y54670*X28849Y54710*X33259Y20096D2*X33262Y20136D1*X33266Y20176*X33273Y20215*X33282Y20254*X33293Y20293*X33306Y20331*X33320Y20368*X33337Y20405*X33355Y20441*X33375Y20475*X33397Y20509*X33421Y20541*X33446Y20573*X33473Y20602*X33501Y20631*X33531Y20658*X33562Y20683*X33594Y20707*X33628Y20729*X33662Y20750*X33698Y20768*X33734Y20785*X33772Y20800*X33810Y20813*X33848Y20824*X33887Y20833*X33927Y20840*X33967Y20845*X34007Y20849*X34047Y20850*X34087Y20848*X34127Y20845*X34167Y20840*X34206Y20833*X34245Y20824*X34284Y20813*X34322Y20800*X34359Y20785*X34395Y20768*X34431Y20749*X34465Y20729*X34499Y20706*X34531Y20683*X34562Y20657*X34592Y20630*X34620Y20602*X34647Y20572*X34672Y20540*X34696Y20508*X34717Y20474*X34738Y20440*X34756Y20404*X34772Y20367*X34787Y20330*X34800Y20292*X34811Y20253*X34819Y20214*X34826Y20174*X34831Y20135*X34834Y20094*Y54859D2*X34833Y54819D1*X34830Y54779*X34825Y54739*X34818Y54700*X34810Y54661*X34799Y54622*X34786Y54584*X34771Y54547*X34755Y54510*X34736Y54475*X34716Y54440*X34694Y54406*X34671Y54374*X34646Y54343*X34619Y54313*X34591Y54285*X34561Y54258*X34530Y54232*X34498Y54208*X34464Y54186*X34430Y54166*X34394Y54147*X34358Y54130*X34321Y54116*X34283Y54103*X34244Y54091*X34205Y54082*X34166Y54075*X34126Y54070*X34086Y54067*X34046Y54066*X34006Y54067*X33966Y54070*X33926Y54075*X33887Y54082*X33848Y54091*X33809Y54103*X33771Y54116*X33734Y54130*X33698Y54147*X33662Y54166*X33628Y54186*X33595Y54208*X33562Y54232*X33531Y54258*X33502Y54285*X33473Y54313*X33447Y54343*X33421Y54374*X33398Y54406*X33376Y54440*X33356Y54475*X33337Y54510*X33321Y54547*X33306Y54584*X33293Y54622*X33283Y54661*X33274Y54700*X33267Y54739*X33262Y54779*X33259Y54819*Y54859*X40270Y36505D2*X40230D1*X40190Y36509*X40151Y36516*X40112Y36528*X40076Y36544*X40040Y36563*X40007Y36586*X39977Y36612*X39949Y36641*X39924Y36673*X39903Y36707*X39885Y36743*X39871Y36780*X39861Y36819*X39855Y36859*X39853Y36899*X39855Y36939*X39861Y36979*X39871Y37017*X39885Y37055*X39903Y37091*X39924Y37125*X39949Y37157*X39977Y37186*X40007Y37212*X40040Y37234*X40076Y37254*X40112Y37269*X40151Y37281*X40190Y37289*X40230Y37293*X40270Y37292*X40259Y26899D2*X40220Y26898D1*X40181Y26900*X40142Y26907*X40104Y26918*X40067Y26932*X40032Y26950*X39999Y26971*X39968Y26996*X39939Y27023*X39914Y27054*X39892Y27086*X39873Y27121*X39858Y27157*X39846Y27195*X39838Y27234*X39834Y27273*Y27312*X39838Y27351*X39846Y27390*X39858Y27428*X39873Y27464*X39892Y27499*X39914Y27531*X39939Y27562*X39968Y27589*X39999Y27614*X40032Y27635*X40067Y27653*X40104Y27667*X40142Y27678*X40181Y27684*X40220Y27687*X40259Y27686*X41054Y26899D2*X40259D1*Y27686D2*X41054D1*Y36505D2*X40270D1*Y37292D2*X41054D1*Y55157D2*X34834D1*Y54859*X33259D2*Y55161D1*X31054Y55157*Y19649*X33259*Y20095*Y20096D3*X34834Y20095D2*Y19649D1*X41054*Y37292D2*Y55157D1*Y27686D2*Y36505D1*Y19649D2*Y26899D1*D60*X31054Y55157D2*X33259Y55161D1*X33569Y55467D2*X33515Y55462D1*X33463Y55448*X33414Y55425*X33370Y55394*X33332Y55356*X33301Y55312*X33278Y55263*X33264Y55211*X33259Y55157*X34834D2*X34829Y55211D1*X34815Y55263*X34792Y55312*X34761Y55356*X34723Y55394*X34679Y55425*X34630Y55448*X34578Y55462*X33569Y55467D2*X34524D1*X34578Y55462*X27585Y55467D2*X27531Y55462D1*X27479Y55448*X27430Y55426*X27385Y55395*X27347Y55356*X27316Y55312*X27293Y55263*X27279Y55211*X27275Y55157*X28849D2*X28845Y55211D1*X28831Y55263*X28808Y55312*X28777Y55356*X28739Y55395*X28694Y55426*X28645Y55448*X28593Y55462*X27585Y55467D2*X28539D1*X28593Y55462*X28539Y19339D2*X28593Y19344D1*X28645Y19358*X28694Y19381*X28739Y19412*X28777Y19450*X28808Y19494*X28831Y19543*X28845Y19595*X28849Y19649*X27275D2*X27279Y19595D1*X27293Y19543*X27316Y19494*X27347Y19450*X27385Y19412*X27430Y19381*X27479Y19358*X27531Y19344*X28539Y19339D2*X27585D1*X27531Y19344*X33515D2*X33569Y19339D1*X34524*X33515Y19344D2*X33463Y19358D1*X33414Y19381*X33370Y19412*X33332Y19450*X33301Y19494*X33278Y19543*X33264Y19595*X33259Y19649*X34834D2*X34829Y19595D1*X34815Y19543*X34792Y19494*X34761Y19450*X34723Y19412*X34679Y19381*X34630Y19358*X34578Y19344*X34524Y19339*X40260Y26899D2*X40191Y26900D1*X40124Y26912*X40060Y26936*X40001Y26970*X39948Y27015*X39904Y27067*X39870Y27127*X39847Y27191*X39835Y27258*Y27327*X39847Y27394*X39870Y27459*X39904Y27518*X39948Y27571*X40001Y27615*X40060Y27650*X40124Y27673*X40191Y27686*X40260*X40270Y36505D2*X40203Y36507D1*X40137Y36521*X40074Y36545*X40016Y36580*X39965Y36624*X39922Y36676*X39889Y36735*X39866Y36799*X39855Y36865*Y36933*X39866Y36999*X39889Y37063*X39922Y37122*X39965Y37174*X40016Y37218*X40074Y37253*X40137Y37277*X40203Y37291*X40270Y37293*X34834Y54859D2*X34823Y54722D1*X34788Y54588*X34730Y54463*X34652Y54350*X34554Y54252*X34442Y54173*X34317Y54114*X34184Y54078*X34046Y54066*X33909Y54078*X33776Y54114*X33651Y54173*X33538Y54252*X33441Y54350*X33363Y54463*X33305Y54588*X33270Y54722*X33259Y54859*Y20096D2*X33276Y20229D1*X33315Y20356*X33376Y20476*X33455Y20583*X33552Y20675*X33663Y20750*X33785Y20805*X33914Y20839*X34047Y20850*X34180Y20838*X34310Y20805*X34431Y20749*X34542Y20675*X34638Y20582*X34718Y20474*X34778Y20355*X34817Y20227*X34834Y20095*X21849Y47907D2*X21917D1*X21985Y47894*X22049Y47870*X22108Y47836*X22160Y47791*X22204Y47739*X22238Y47679*X22261Y47615*X22273Y47548*Y47479*X22261Y47412*X22238Y47347*X22204Y47288*X22160Y47235*X22108Y47191*X22049Y47156*X21985Y47133*X21917Y47120*X21849*X21838Y38301D2*X21905Y38299D1*X21972Y38286*X22035Y38261*X22092Y38226*X22144Y38182*X22186Y38130*X22219Y38071*X22242Y38007*X22254Y37941*Y37873*X22242Y37807*X22219Y37743*X22186Y37684*X22144Y37632*X22092Y37588*X22035Y37553*X21972Y37529*X21905Y37515*X21838Y37513*X27275Y19947D2*X27286Y20084D1*X27321Y20218*X27378Y20343*X27457Y20456*X27554Y20554*X27667Y20633*X27792Y20692*X27925Y20728*X28062Y20740*X28199Y20728*X28332Y20692*X28457Y20633*X28570Y20554*X28667Y20456*X28746Y20343*X28803Y20218*X28838Y20084*X28849Y19947*Y54710D2*X28832Y54578D1*X28793Y54450*X28733Y54331*X28653Y54223*X28557Y54131*X28446Y54056*X28324Y54001*X28195Y53968*X28061Y53956*X27928Y53968*X27799Y54002*X27677Y54057*X27566Y54132*X27470Y54224*X27391Y54332*X27331Y54451*X27291Y54579*X27275Y54711*X28849Y55157D2*Y54711D1*X34834Y55157D2*Y54859D1*X33259D2*Y55161D1*X27275Y54711D2*Y55157D1*X41054D2*X34834D1*X31054D2*X28849D1*X34834Y20095D2*Y19649D1*X33259D2*Y20095D1*X28849Y19947D2*Y19645D1*X27275Y19649D2*Y19947D1*X31054Y19649D2*X33259D1*X21054Y58307D2*Y55157D1*Y16499D2*Y19649D1*X31054Y16499D2*Y19649D1*Y58307D2*Y55157D1*X41054Y16499D2*Y19649D1*Y55157D2*Y58307D1*X21054*Y16499D2*X41054D1*X27275Y55157D2*X21054D1*X31054D2*Y19649D1*X28849Y19645*X27275Y19649D2*X21054D1*Y37513*X21838*Y38301D2*X21054D1*Y47120*X21849*Y47907D2*X21054D1*Y55157*X34834Y19649D2*X41054D1*X31054D2*Y55157D1*X41054D2*Y37293D1*X40270*Y36505D2*X41054D1*Y27686*X40260*Y26899D2*X41054D1*Y19649*D41*X30036Y20903D3*X22559Y54246D3*X30016Y54249D3*X32092Y20557D3*X39549Y20559D3*X32072Y53903D3*D58*X25054Y56807D3*X37054D3*Y17999D3*X25054D3*D59*X39554Y17999D3*X22554D3*Y56807D3*X39554D3*D104*X26576Y45381D3*Y45007D3*Y44633D3*X25632D3*Y45007D3*Y45381D3*X26576Y42081D3*Y41707D3*Y41333D3*X25632D3*Y41707D3*Y42081D3*X26576Y43731D3*Y43357D3*Y42983D3*X25632D3*Y43357D3*Y43731D3*X36476Y31075D3*Y31449D3*Y31823D3*X35532D3*Y31449D3*Y31075D3*X36476Y32725D3*Y33099D3*Y33473D3*X35532D3*Y33099D3*Y32725D3*X36476Y29425D3*Y29799D3*Y30173D3*X35532D3*Y29799D3*Y29425D3*D105*X21586Y23157D3*Y23657D3*Y24157D3*Y24657D3*Y25157D3*Y25657D3*Y26157D3*Y26657D3*Y27157D3*Y27657D3*Y28157D3*Y28657D3*Y29157D3*Y29657D3*Y30157D3*Y30657D3*Y31157D3*Y31657D3*Y32157D3*Y32657D3*Y33157D3*Y33657D3*Y34157D3*Y34657D3*Y35157D3*Y35657D3*Y36157D3*Y36657D3*Y39157D3*Y39657D3*Y40157D3*Y40657D3*Y41157D3*Y41657D3*Y42157D3*Y42657D3*Y43157D3*Y43657D3*Y44157D3*Y44657D3*Y45157D3*Y45657D3*Y46157D3*Y46657D3*Y49157D3*Y49657D3*Y50157D3*Y50657D3*Y51157D3*Y51657D3*X40522Y23149D3*Y23649D3*Y24149D3*Y24649D3*Y25149D3*Y25649D3*Y28149D3*Y28649D3*Y29149D3*Y29649D3*Y30149D3*Y30649D3*Y31149D3*Y31649D3*Y32149D3*Y32649D3*Y33149D3*Y33649D3*Y34149D3*Y34649D3*Y35149D3*Y35649D3*Y38149D3*Y38649D3*Y39149D3*Y39649D3*Y40149D3*Y40649D3*Y41149D3*Y41649D3*Y42149D3*Y42649D3*Y43149D3*Y43649D3*Y44149D3*Y44649D3*Y45149D3*Y45649D3*Y46149D3*Y46649D3*Y47149D3*Y47649D3*Y48149D3*Y48649D3*Y49149D3*Y49649D3*Y50149D3*Y50649D3*Y51149D3*Y51649D3*D106*X22789Y35468D3*Y35665D3*Y35862D3*Y36058D3*Y36255D3*Y36452D3*Y36649D3*Y36846D3*X23419D3*Y36649D3*Y36452D3*Y36255D3*Y36058D3*Y35862D3*Y35665D3*Y35468D3*X23239Y42718D3*Y42915D3*Y43112D3*Y43308D3*Y43505D3*Y43702D3*Y43899D3*Y44096D3*X23869D3*Y43899D3*Y43702D3*Y43505D3*Y43308D3*Y43112D3*Y42915D3*Y42718D3*X38239Y32088D3*Y31891D3*Y31694D3*Y31497D3*Y31300D3*Y31104D3*Y30907D3*Y30710D3*X38869D3*Y30907D3*Y31104D3*Y31300D3*Y31497D3*Y31694D3*Y31891D3*Y32088D3*X38689Y39338D3*Y39141D3*Y38944D3*Y38747D3*Y38550D3*Y38354D3*Y38157D3*Y37960D3*X39319D3*Y38157D3*Y38354D3*Y38550D3*Y38747D3*Y38944D3*Y39141D3*Y39338D3*D107*X29928Y27607D3*X29554D3*X29180D3*Y28707D3*X29554D3*X29928D3*X32180Y46099D3*X32554D3*X32928D3*Y47199D3*X32554D3*X32180D3*D108*X27456Y48875D3*Y49375D3*Y49875D3*Y50375D3*X29456D3*Y49875D3*Y49375D3*Y48875D3*X32652Y25930D3*Y25430D3*Y24930D3*Y24430D3*X34652D3*Y24930D3*Y25430D3*Y25930D3*D109*X26290Y50678D3*Y50423D3*Y50167D3*Y49911D3*Y49655D3*Y49399D3*Y49143D3*Y48887D3*X23456D3*Y49143D3*Y49399D3*Y49655D3*Y49911D3*Y50167D3*Y50423D3*Y50678D3*X38652Y24127D3*Y24383D3*Y24639D3*Y24895D3*Y25151D3*Y25407D3*Y25663D3*Y25918D3*X35818D3*Y25663D3*Y25407D3*Y25151D3*Y24895D3*Y24639D3*Y24383D3*Y24127D3*D110*X24794Y33700D3*Y34094D3*Y34488D3*Y34881D3*Y35275D3*Y35669D3*Y36062D3*Y36456D3*Y36850D3*Y37243D3*Y37637D3*Y38031D3*Y38424D3*Y38818D3*X25188Y33700D3*Y34094D3*Y34488D3*Y34881D3*Y35275D3*Y35669D3*Y36062D3*Y36456D3*Y36850D3*Y37243D3*Y37637D3*Y38031D3*Y38424D3*Y38818D3*X25582Y33700D3*Y34094D3*Y34488D3*Y34881D3*Y35275D3*Y35669D3*Y36062D3*Y36456D3*Y36850D3*Y37243D3*Y37637D3*Y38031D3*Y38424D3*Y38818D3*X25975Y33700D3*Y34094D3*Y34488D3*Y34881D3*Y35275D3*Y35669D3*Y36062D3*Y36456D3*Y36850D3*Y37243D3*Y37637D3*Y38031D3*Y38424D3*Y38818D3*X26369Y33700D3*Y34094D3*Y34488D3*Y34881D3*Y37637D3*Y38031D3*Y38424D3*Y38818D3*X26763Y33700D3*Y34094D3*Y34488D3*Y34881D3*Y35669D3*Y36062D3*Y36456D3*Y36850D3*Y37637D3*Y38031D3*Y38424D3*Y38818D3*X27156Y33700D3*Y34094D3*Y34488D3*Y34881D3*Y35669D3*Y36062D3*Y36456D3*Y36850D3*Y37637D3*Y38031D3*Y38424D3*Y38818D3*X27550Y33700D3*Y34094D3*Y34488D3*Y34881D3*Y35669D3*Y36062D3*Y36456D3*Y36850D3*Y37637D3*Y38031D3*Y38424D3*Y38818D3*X27944Y33700D3*Y34094D3*Y34488D3*Y34881D3*Y35669D3*Y36062D3*Y36456D3*Y36850D3*Y37637D3*Y38031D3*Y38424D3*Y38818D3*X28338Y33700D3*Y34094D3*Y34488D3*Y34881D3*Y37637D3*Y38031D3*Y38424D3*Y38818D3*X28731Y33700D3*Y34094D3*Y34488D3*Y34881D3*Y35275D3*Y35669D3*Y36062D3*Y36456D3*Y36850D3*Y37243D3*Y37637D3*Y38031D3*Y38424D3*Y38818D3*X29125Y33700D3*Y34094D3*Y34488D3*Y34881D3*Y35275D3*Y35669D3*Y36062D3*Y36456D3*Y36850D3*Y37243D3*Y37637D3*Y38031D3*Y38424D3*Y38818D3*X29519Y33700D3*Y34094D3*Y34488D3*Y34881D3*Y35275D3*Y35669D3*Y36062D3*Y36456D3*Y36850D3*Y37243D3*Y37637D3*Y38031D3*Y38424D3*Y38818D3*X29912Y33700D3*Y34094D3*Y34488D3*Y34881D3*Y35275D3*Y35669D3*Y36062D3*Y36456D3*Y36850D3*Y37243D3*Y37637D3*Y38031D3*Y38424D3*Y38818D3*X32196Y35987D3*Y36381D3*Y36775D3*Y37168D3*Y37562D3*Y37956D3*Y38350D3*Y38743D3*Y39137D3*Y39531D3*Y39924D3*Y40318D3*Y40712D3*Y41106D3*X32589Y35987D3*Y36381D3*Y36775D3*Y37168D3*Y37562D3*Y37956D3*Y38350D3*Y38743D3*Y39137D3*Y39531D3*Y39924D3*Y40318D3*Y40712D3*Y41106D3*X32983Y35987D3*Y36381D3*Y36775D3*Y37168D3*Y37562D3*Y37956D3*Y38350D3*Y38743D3*Y39137D3*Y39531D3*Y39924D3*Y40318D3*Y40712D3*Y41106D3*X33377Y35987D3*Y36381D3*Y36775D3*Y37168D3*Y37562D3*Y37956D3*Y38350D3*Y38743D3*Y39137D3*Y39531D3*Y39924D3*Y40318D3*Y40712D3*Y41106D3*X33770Y35987D3*Y36381D3*Y36775D3*Y37168D3*Y39924D3*Y40318D3*Y40712D3*Y41106D3*X34164Y35987D3*Y36381D3*Y36775D3*Y37168D3*Y37956D3*Y38350D3*Y38743D3*Y39137D3*Y39924D3*Y40318D3*Y40712D3*Y41106D3*X34558Y35987D3*Y36381D3*Y36775D3*Y37168D3*Y37956D3*Y38350D3*Y38743D3*Y39137D3*Y39924D3*Y40318D3*Y40712D3*Y41106D3*X34952Y35987D3*Y36381D3*Y36775D3*Y37168D3*Y37956D3*Y38350D3*Y38743D3*Y39137D3*Y39924D3*Y40318D3*Y40712D3*Y41106D3*X35345Y35987D3*Y36381D3*Y36775D3*Y37168D3*Y37956D3*Y38350D3*Y38743D3*Y39137D3*Y39924D3*Y40318D3*Y40712D3*Y41106D3*X35739Y35987D3*Y36381D3*Y36775D3*Y37168D3*Y39924D3*Y40318D3*Y40712D3*Y41106D3*X36133Y35987D3*Y36381D3*Y36775D3*Y37168D3*Y37562D3*Y37956D3*Y38350D3*Y38743D3*Y39137D3*Y39531D3*Y39924D3*Y40318D3*Y40712D3*Y41106D3*X36526Y35987D3*Y36381D3*Y36775D3*Y37168D3*Y37562D3*Y37956D3*Y38350D3*Y38743D3*Y39137D3*Y39531D3*Y39924D3*Y40318D3*Y40712D3*Y41106D3*X36920Y35987D3*Y36381D3*Y36775D3*Y37168D3*Y37562D3*Y37956D3*Y38350D3*Y38743D3*Y39137D3*Y39531D3*Y39924D3*Y40318D3*Y40712D3*Y41106D3*X37314Y35987D3*Y36381D3*Y36775D3*Y37168D3*Y37562D3*Y37956D3*Y38350D3*Y38743D3*Y39137D3*Y39531D3*Y39924D3*Y40318D3*Y40712D3*Y41106D3*D111*X25517Y31407D3*X27091D3*X35017Y43399D3*X36591D3*D112*X29345Y24007D3*X28263D3*X29345Y21757D3*X28263D3*X33845Y53049D3*X32763D3*X33845Y50799D3*X32763D3*D113*X26885Y23300D3*Y23104D3*Y22907D3*Y22710D3*Y22513D3*X25723D3*Y22710D3*Y22907D3*Y23104D3*Y23300D3*X36385Y51505D3*Y51702D3*Y51899D3*Y52096D3*Y52292D3*X35223D3*Y52096D3*Y51899D3*Y51702D3*Y51505D3*D114*X25678Y28607D3*X24930D3*Y29707D3*X25304D3*X25678D3*X36430Y45099D3*X36804D3*X37178D3*Y46199D3*X36430D3*D115*X29054Y47477D3*Y46837D3*X30054Y32477D3*Y31837D3*X28304Y32477D3*Y31837D3*X24304Y32727D3*Y32087D3*X29054Y26477D3*Y25837D3*X30054Y26477D3*Y25837D3*X30304Y24227D3*Y23587D3*X27804Y40087D3*Y40727D3*X28304Y30227D3*Y29587D3*X28804Y42087D3*Y42727D3*X23554Y32727D3*Y32087D3*X26804Y29477D3*Y28837D3*X28054Y42087D3*Y42727D3*X34054Y32079D3*Y32719D3*X35304Y45969D3*Y45329D3*X38554Y42719D3*Y42079D3*X33304Y32079D3*Y32719D3*X33804Y45219D3*Y44579D3*X34304Y34079D3*Y34719D3*X31804Y51219D3*Y50579D3*X32054Y48969D3*Y48329D3*X33054Y48969D3*Y48329D3*X37804Y42719D3*Y42079D3*X33804Y42969D3*Y42329D3*X32054Y42969D3*Y42329D3*X33054Y27969D3*Y27329D3*D116*X23804Y24395D3*Y23415D3*X23554Y27919D3*Y28899D3*X38554Y45907D3*Y46887D3*X38304Y51391D3*Y50411D3*D117*X27054Y40307D3*Y39807D3*X30404Y40157D3*Y40657D3*X28554Y40157D3*Y40657D3*X26304Y40307D3*Y39807D3*X25804Y24157D3*Y24657D3*X28804Y23157D3*Y22657D3*X28054D3*Y23157D3*X24804Y20907D3*Y21407D3*Y21907D3*Y22407D3*X26554Y24157D3*Y24657D3*X27304D3*Y24157D3*X24804Y24657D3*Y24157D3*Y23657D3*Y23157D3*X37304Y51649D3*Y51149D3*Y50649D3*Y50149D3*X34804Y50649D3*Y50149D3*X35554D3*Y50649D3*X37304Y52399D3*Y52899D3*Y53399D3*Y53899D3*X34054Y51649D3*Y52149D3*X33304D3*Y51649D3*X36304Y50149D3*Y50649D3*X35804Y34999D3*Y34499D3*X33554Y34149D3*Y34649D3*X31704Y34149D3*Y34649D3*X35054Y34999D3*Y34499D3*D118*X28034Y51407D3*X28674D3*X33434Y23399D3*X34074D3*D119*X23054Y38307D3*X23554D3*X23054Y37657D3*X23554D3*X23054Y38957D3*X23554D3*X25554Y27157D3*X25054D3*X25554Y26407D3*X25054D3*X25804Y32407D3*X25304D3*X26804D3*X27304D3*X34804Y42399D3*X35304D3*X36804D3*X36304D3*X37054Y48399D3*X36554D3*X37054Y47649D3*X36554D3*X38554Y35849D3*X39054D3*X38554Y37149D3*X39054D3*X38554Y36499D3*X39054D3*D120*X30204Y30407D3*X31904Y44399D3*D123*X30204Y30407D3*X30016Y54249D3*X22559Y54246D3*X30036Y20903D3*X32072Y53903D3*X39549Y20559D3*X32092Y20557D3*X31904Y44399D3*D125*X29912Y38818D3*Y38424D3*Y38031D3*Y37637D3*Y37243D3*Y36850D3*Y36456D3*Y36062D3*Y35669D3*Y35275D3*Y34881D3*Y34488D3*Y34094D3*Y33700D3*X29519Y38818D3*Y38424D3*Y38031D3*Y37637D3*Y37243D3*Y36850D3*Y36456D3*Y36062D3*Y35669D3*Y35275D3*Y34881D3*Y34488D3*Y34094D3*Y33700D3*X29125Y38818D3*Y38424D3*Y38031D3*Y37637D3*Y37243D3*Y36850D3*Y36456D3*Y36062D3*Y35669D3*Y35275D3*Y34881D3*Y34488D3*Y34094D3*Y33700D3*X28731Y38818D3*Y38424D3*Y38031D3*Y37637D3*Y37243D3*Y36850D3*Y36456D3*Y36062D3*Y35669D3*Y35275D3*Y34881D3*Y34488D3*Y34094D3*Y33700D3*X28338Y38818D3*Y38424D3*Y38031D3*Y37637D3*Y34881D3*Y34488D3*Y34094D3*Y33700D3*X27944Y38818D3*Y38424D3*Y38031D3*Y37637D3*Y36850D3*Y36456D3*Y36062D3*Y35669D3*Y34881D3*Y34488D3*Y34094D3*Y33700D3*X27550Y38818D3*Y38424D3*Y38031D3*Y37637D3*Y36850D3*Y36456D3*Y36062D3*Y35669D3*Y34881D3*Y34488D3*Y34094D3*Y33700D3*X27156Y38818D3*Y38424D3*Y38031D3*Y37637D3*Y36850D3*Y36456D3*Y36062D3*Y35669D3*Y34881D3*Y34488D3*Y34094D3*Y33700D3*X26763Y38818D3*Y38424D3*Y38031D3*Y37637D3*Y36850D3*Y36456D3*Y36062D3*Y35669D3*Y34881D3*Y34488D3*Y34094D3*Y33700D3*X26369Y38818D3*Y38424D3*Y38031D3*Y37637D3*Y34881D3*Y34488D3*Y34094D3*Y33700D3*X25975Y38818D3*Y38424D3*Y38031D3*Y37637D3*Y37243D3*Y36850D3*Y36456D3*Y36062D3*Y35669D3*Y35275D3*Y34881D3*Y34488D3*Y34094D3*Y33700D3*X25582Y38818D3*Y38424D3*Y38031D3*Y37637D3*Y37243D3*Y36850D3*Y36456D3*Y36062D3*Y35669D3*Y35275D3*Y34881D3*Y34488D3*Y34094D3*Y33700D3*X25188Y38818D3*Y38424D3*Y38031D3*Y37637D3*Y37243D3*Y36850D3*Y36456D3*Y36062D3*Y35669D3*Y35275D3*Y34881D3*Y34488D3*Y34094D3*Y33700D3*X24794Y38818D3*Y38424D3*Y38031D3*Y37637D3*Y37243D3*Y36850D3*Y36456D3*Y36062D3*Y35669D3*Y35275D3*Y34881D3*Y34488D3*Y34094D3*Y33700D3*X37314Y41106D3*Y40712D3*Y40318D3*Y39924D3*Y39531D3*Y39137D3*Y38743D3*Y38350D3*Y37956D3*Y37562D3*Y37168D3*Y36775D3*Y36381D3*Y35987D3*X36920Y41106D3*Y40712D3*Y40318D3*Y39924D3*Y39531D3*Y39137D3*Y38743D3*Y38350D3*Y37956D3*Y37562D3*Y37168D3*Y36775D3*Y36381D3*Y35987D3*X36526Y41106D3*Y40712D3*Y40318D3*Y39924D3*Y39531D3*Y39137D3*Y38743D3*Y38350D3*Y37956D3*Y37562D3*Y37168D3*Y36775D3*Y36381D3*Y35987D3*X36133Y41106D3*Y40712D3*Y40318D3*Y39924D3*Y39531D3*Y39137D3*Y38743D3*Y38350D3*Y37956D3*Y37562D3*Y37168D3*Y36775D3*Y36381D3*Y35987D3*X35739Y41106D3*Y40712D3*Y40318D3*Y39924D3*Y37168D3*Y36775D3*Y36381D3*Y35987D3*X35345Y41106D3*Y40712D3*Y40318D3*Y39924D3*Y39137D3*Y38743D3*Y38350D3*Y37956D3*Y37168D3*Y36775D3*Y36381D3*Y35987D3*X34952Y41106D3*Y40712D3*Y40318D3*Y39924D3*Y39137D3*Y38743D3*Y38350D3*Y37956D3*Y37168D3*Y36775D3*Y36381D3*Y35987D3*X34558Y41106D3*Y40712D3*Y40318D3*Y39924D3*Y39137D3*Y38743D3*Y38350D3*Y37956D3*Y37168D3*Y36775D3*Y36381D3*Y35987D3*X34164Y41106D3*Y40712D3*Y40318D3*Y39924D3*Y39137D3*Y38743D3*Y38350D3*Y37956D3*Y37168D3*Y36775D3*Y36381D3*Y35987D3*X33770Y41106D3*Y40712D3*Y40318D3*Y39924D3*Y37168D3*Y36775D3*Y36381D3*Y35987D3*X33377Y41106D3*Y40712D3*Y40318D3*Y39924D3*Y39531D3*Y39137D3*Y38743D3*Y38350D3*Y37956D3*Y37562D3*Y37168D3*Y36775D3*Y36381D3*Y35987D3*X32983Y41106D3*Y40712D3*Y40318D3*Y39924D3*Y39531D3*Y39137D3*Y38743D3*Y38350D3*Y37956D3*Y37562D3*Y37168D3*Y36775D3*Y36381D3*Y35987D3*X32589Y41106D3*Y40712D3*Y40318D3*Y39924D3*Y39531D3*Y39137D3*Y38743D3*Y38350D3*Y37956D3*Y37562D3*Y37168D3*Y36775D3*Y36381D3*Y35987D3*X32196Y41106D3*Y40712D3*Y40318D3*Y39924D3*Y39531D3*Y39137D3*Y38743D3*Y38350D3*Y37956D3*Y37562D3*Y37168D3*Y36775D3*Y36381D3*Y35987D3*D126*X25632Y43731D3*Y43357D3*Y42983D3*X26576D3*Y43357D3*Y43731D3*X25632Y42081D3*Y41707D3*Y41333D3*X26576D3*Y41707D3*Y42081D3*X25632Y45381D3*Y45007D3*Y44633D3*X26576D3*Y45007D3*Y45381D3*X35532Y29425D3*Y29799D3*Y30173D3*X36476D3*Y29799D3*Y29425D3*X35532Y32725D3*Y33099D3*Y33473D3*X36476D3*Y33099D3*Y32725D3*X35532Y31075D3*Y31449D3*Y31823D3*X36476D3*Y31449D3*Y31075D3*D127*X21586Y51657D3*Y51157D3*Y50657D3*Y50157D3*Y49657D3*Y49157D3*Y46657D3*Y46157D3*Y45657D3*Y45157D3*Y44657D3*Y44157D3*Y43657D3*Y43157D3*Y42657D3*Y42157D3*Y41657D3*Y41157D3*Y40657D3*Y40157D3*Y39657D3*Y39157D3*Y36657D3*Y36157D3*Y35657D3*Y35157D3*Y34657D3*Y34157D3*Y33657D3*Y33157D3*Y32657D3*Y32157D3*Y31657D3*Y31157D3*Y30657D3*Y30157D3*Y29657D3*Y29157D3*Y28657D3*Y28157D3*Y27657D3*Y27157D3*Y26657D3*Y26157D3*Y25657D3*Y25157D3*Y24657D3*Y24157D3*Y23657D3*Y23157D3*X40522Y51649D3*Y51149D3*Y50649D3*Y50149D3*Y49649D3*Y49149D3*Y48649D3*Y48149D3*Y47649D3*Y47149D3*Y46649D3*Y46149D3*Y45649D3*Y45149D3*Y44649D3*Y44149D3*Y43649D3*Y43149D3*Y42649D3*Y42149D3*Y41649D3*Y41149D3*Y40649D3*Y40149D3*Y39649D3*Y39149D3*Y38649D3*Y38149D3*Y35649D3*Y35149D3*Y34649D3*Y34149D3*Y33649D3*Y33149D3*Y32649D3*Y32149D3*Y31649D3*Y31149D3*Y30649D3*Y30149D3*Y29649D3*Y29149D3*Y28649D3*Y28149D3*Y25649D3*Y25149D3*Y24649D3*Y24149D3*Y23649D3*Y23149D3*D128*X23869Y42718D3*Y42915D3*Y43112D3*Y43308D3*Y43505D3*Y43702D3*Y43899D3*Y44096D3*X23239D3*Y43899D3*Y43702D3*Y43505D3*Y43308D3*Y43112D3*Y42915D3*Y42718D3*X23419Y35468D3*Y35665D3*Y35862D3*Y36058D3*Y36255D3*Y36452D3*Y36649D3*Y36846D3*X22789D3*Y36649D3*Y36452D3*Y36255D3*Y36058D3*Y35862D3*Y35665D3*Y35468D3*X39319Y39338D3*Y39141D3*Y38944D3*Y38747D3*Y38550D3*Y38354D3*Y38157D3*Y37960D3*X38689D3*Y38157D3*Y38354D3*Y38550D3*Y38747D3*Y38944D3*Y39141D3*Y39338D3*X38869Y32088D3*Y31891D3*Y31694D3*Y31497D3*Y31300D3*Y31104D3*Y30907D3*Y30710D3*X38239D3*Y30907D3*Y31104D3*Y31300D3*Y31497D3*Y31694D3*Y31891D3*Y32088D3*D129*X29928Y28707D3*X29554D3*X29180D3*Y27607D3*X29554D3*X29928D3*X32180Y47199D3*X32554D3*X32928D3*Y46099D3*X32554D3*X32180D3*D130*X29456Y48875D3*Y49375D3*Y49875D3*Y50375D3*X27456D3*Y49875D3*Y49375D3*Y48875D3*X34652Y25930D3*Y25430D3*Y24930D3*Y24430D3*X32652D3*Y24930D3*Y25430D3*Y25930D3*D131*X23456Y50678D3*Y50423D3*Y50167D3*Y49911D3*Y49655D3*Y49399D3*Y49143D3*Y48887D3*X26290D3*Y49143D3*Y49399D3*Y49655D3*Y49911D3*Y50167D3*Y50423D3*Y50678D3*X35818Y24127D3*Y24383D3*Y24639D3*Y24895D3*Y25151D3*Y25407D3*Y25663D3*Y25918D3*X38652D3*Y25663D3*Y25407D3*Y25151D3*Y24895D3*Y24639D3*Y24383D3*Y24127D3*D132*X27091Y31407D3*X25517D3*X36591Y43399D3*X35017D3*D133*X28263Y21757D3*X29345D3*X28263Y24007D3*X29345D3*X32763Y50799D3*X33845D3*X32763Y53049D3*X33845D3*D134*X25723Y23300D3*Y23104D3*Y22907D3*Y22710D3*Y22513D3*X26885D3*Y22710D3*Y22907D3*Y23104D3*Y23300D3*X35223Y51505D3*Y51702D3*Y51899D3*Y52096D3*Y52292D3*X36385D3*Y52096D3*Y51899D3*Y51702D3*Y51505D3*D135*X25678Y29707D3*X25304D3*X24930D3*Y28607D3*X25678D3*X36430Y46199D3*X37178D3*Y45099D3*X36804D3*X36430D3*D136*X28054Y42727D3*Y42087D3*X26804Y28837D3*Y29477D3*X23554Y32087D3*Y32727D3*X28804Y42727D3*Y42087D3*X28304Y29587D3*Y30227D3*X27804Y40727D3*Y40087D3*X30304Y23587D3*Y24227D3*X30054Y25837D3*Y26477D3*X29054Y25837D3*Y26477D3*X24304Y32087D3*Y32727D3*X28304Y31837D3*Y32477D3*X30054Y31837D3*Y32477D3*X29054Y46837D3*Y47477D3*X33054Y27329D3*Y27969D3*X32054Y42329D3*Y42969D3*X33804Y42329D3*Y42969D3*X37804Y42079D3*Y42719D3*X33054Y48329D3*Y48969D3*X32054Y48329D3*Y48969D3*X31804Y50579D3*Y51219D3*X34304Y34719D3*Y34079D3*X33804Y44579D3*Y45219D3*X33304Y32719D3*Y32079D3*X38554Y42079D3*Y42719D3*X35304Y45329D3*Y45969D3*X34054Y32719D3*Y32079D3*D137*X23554Y28899D3*Y27919D3*X23804Y23415D3*Y24395D3*X38304Y50411D3*Y51391D3*X38554Y46887D3*Y45907D3*D138*X24804Y23157D3*Y23657D3*Y24157D3*Y24657D3*X27304Y24157D3*Y24657D3*X26554D3*Y24157D3*X24804Y22407D3*Y21907D3*Y21407D3*Y20907D3*X28054Y23157D3*Y22657D3*X28804D3*Y23157D3*X25804Y24657D3*Y24157D3*X26304Y39807D3*Y40307D3*X28554Y40657D3*Y40157D3*X30404Y40657D3*Y40157D3*X27054Y39807D3*Y40307D3*X35054Y34499D3*Y34999D3*X31704Y34649D3*Y34149D3*X33554Y34649D3*Y34149D3*X35804Y34499D3*Y34999D3*X36304Y50649D3*Y50149D3*X33304Y51649D3*Y52149D3*X34054D3*Y51649D3*X37304Y53899D3*Y53399D3*Y52899D3*Y52399D3*X35554Y50649D3*Y50149D3*X34804D3*Y50649D3*X37304Y50149D3*Y50649D3*Y51149D3*Y51649D3*D139*X28674Y51407D3*X28034D3*X34074Y23399D3*X33434D3*D140*X27304Y32407D3*X26804D3*X25304D3*X25804D3*X25054Y26407D3*X25554D3*X25054Y27157D3*X25554D3*X23554Y38957D3*X23054D3*X23554Y37657D3*X23054D3*X23554Y38307D3*X23054D3*X39054Y36499D3*X38554D3*X39054Y37149D3*X38554D3*X39054Y35849D3*X38554D3*X36554Y47649D3*X37054D3*X36554Y48399D3*X37054D3*X36304Y42399D3*X36804D3*X35304D3*X34804D3*X0Y0D2*M02*