*G04 Output by CAMMaster V10.4.32  PentaLogix LLC*
*G04 Tue Aug 11 15:38:12 2009*
*%FSLAX24Y24*%
%MOIN*%
%IPPOS*%
%ADD10C,0.0107*%
%ADD41C,0.045*%
%ADD51C,0.025*%
%ADD58C,0.1*%
%ADD59C,0.142*%
%ADD60C,0.03*%
%ADD105R,0.09555X0.04437*%
%ADD106R,0.037X0.015*%
%ADD115R,0.064X0.053*%
%ADD117R,0.045X0.033*%
%ADD118R,0.053X0.064*%
%ADD119R,0.033X0.045*%
%ADD120C,0.047*%
%ADD121R,0.075X0.053*%
%ADD122R,0.053X0.075*%
%ADD124C,0.051*%
%ADD127R,0.097X0.045*%
%ADD128R,0.038X0.016*%
%ADD136R,0.065X0.054*%
%ADD138R,0.046X0.034*%
%ADD139R,0.054X0.065*%
%ADD140R,0.034X0.046*%
%ADD142R,0.097X0.045*%
%ADD143R,0.038X0.016*%
%ADD144R,0.065X0.054*%
%ADD145R,0.046X0.034*%
%ADD146R,0.054X0.065*%
%ADD147R,0.034X0.046*%
%ADD148R,0.076X0.054*%
%ADD149R,0.054X0.076*%

%LPD*%
X0Y0D2*D10*G1X21054Y55157D2*Y47907D1*X21849*Y47119D2*X21054D1*Y38300*X21838*Y37513D2*X21054D1*Y19649*X27274*Y19947*X28849D2*Y19645D1*X31054Y19649*Y55157*X28849*Y54710*X27274D2*Y55157D1*X21054*X27274Y54711D2*X27277Y54671D1*X27282Y54631*X27289Y54592*X27297Y54552*X27308Y54514*X27321Y54476*X27336Y54438*X27352Y54402*X27370Y54366*X27391Y54331*X27412Y54298*X27436Y54265*X27461Y54234*X27488Y54204*X27516Y54176*X27546Y54149*X27577Y54123*X27609Y54099*X27643Y54077*X27677Y54056*X27713Y54038*X27749Y54021*X27786Y54006*X27824Y53993*X27863Y53982*X27902Y53973*X27941Y53965*X27981Y53960*X28021Y53957*X28061Y53956*X28101Y53957*X28141Y53960*X28181Y53965*X28221Y53972*X28260Y53981*X28298Y53992*X28336Y54005*X28374Y54020*X28410Y54037*X28446Y54056*X28480Y54076*X28514Y54098*X28546Y54122*X28577Y54148*X28607Y54175*X28635Y54203*X28662Y54233*X28687Y54264*X28711Y54297*X28733Y54330*X28753Y54365*X28771Y54401*X28788Y54437*X28802Y54475*X28815Y54513*X28826Y54551*X28835Y54590*X28842Y54630*X28846Y54670*X28849Y54710*Y19947D2*Y19987D1*X28846Y20027*X28841Y20066*X28834Y20106*X28825Y20145*X28815Y20184*X28802Y20222*X28787Y20259*X28771Y20295*X28752Y20331*X28732Y20366*X28710Y20399*X28687Y20432*X28661Y20463*X28635Y20493*X28606Y20521*X28577Y20548*X28546Y20573*X28513Y20597*X28480Y20619*X28446Y20640*X28410Y20658*X28374Y20675*X28337Y20690*X28299Y20703*X28260Y20714*X28221Y20723*X28182Y20730*X28142Y20735*X28102Y20738*X28062Y20740*X28022Y20738*X27982Y20735*X27942Y20730*X27903Y20723*X27864Y20714*X27825Y20703*X27787Y20690*X27750Y20675*X27714Y20658*X27678Y20640*X27644Y20619*X27610Y20597*X27578Y20573*X27547Y20548*X27517Y20521*X27489Y20493*X27462Y20463*X27437Y20432*X27414Y20399*X27392Y20366*X27372Y20331*X27353Y20295*X27337Y20259*X27322Y20222*X27309Y20184*X27298Y20145*X27290Y20106*X27283Y20066*X27278Y20027*X27275Y19987*X27274Y19947*X21838Y37513D2*X21878D1*X21918Y37517*X21957Y37524*X21996Y37536*X22032Y37552*X22068Y37571*X22101Y37594*X22131Y37620*X22159Y37649*X22184Y37681*X22205Y37715*X22223Y37751*X22237Y37788*X22247Y37827*X22253Y37867*X22255Y37907*X22253Y37947*X22247Y37987*X22237Y38025*X22223Y38063*X22205Y38099*X22184Y38133*X22159Y38165*X22131Y38194*X22101Y38220*X22068Y38242*X22032Y38262*X21996Y38277*X21957Y38289*X21918Y38297*X21878Y38301*X21838Y38300*X21849Y47119D2*X21888Y47118D1*X21927Y47121*X21966Y47128*X22004Y47138*X22041Y47153*X22076Y47171*X22109Y47192*X22140Y47217*X22169Y47244*X22194Y47274*X22216Y47307*X22235Y47341*X22250Y47378*X22262Y47415*X22270Y47454*X22274Y47493*Y47533*X22270Y47572*X22262Y47611*X22250Y47648*X22235Y47685*X22216Y47719*X22194Y47752*X22169Y47782*X22140Y47810*X22109Y47834*X22076Y47856*X22041Y47873*X22004Y47888*X21966Y47898*X21927Y47905*X21888Y47908*X21849Y47907*X40259Y26899D2*X40220Y26898D1*X40181Y26900*X40142Y26907*X40104Y26918*X40067Y26932*X40032Y26950*X39999Y26971*X39968Y26996*X39939Y27023*X39914Y27054*X39892Y27086*X39873Y27121*X39858Y27157*X39846Y27195*X39838Y27234*X39834Y27273*Y27312*X39838Y27351*X39846Y27390*X39858Y27428*X39873Y27464*X39892Y27499*X39914Y27531*X39939Y27562*X39968Y27589*X39999Y27614*X40032Y27635*X40067Y27653*X40104Y27667*X40142Y27678*X40181Y27684*X40220Y27687*X40259Y27686*X40270Y36505D2*X40230D1*X40190Y36509*X40151Y36516*X40112Y36528*X40076Y36544*X40040Y36563*X40007Y36586*X39977Y36612*X39949Y36641*X39924Y36673*X39903Y36707*X39885Y36743*X39871Y36780*X39861Y36819*X39855Y36859*X39853Y36899*X39855Y36939*X39861Y36979*X39871Y37017*X39885Y37055*X39903Y37091*X39924Y37125*X39949Y37157*X39977Y37186*X40007Y37212*X40040Y37234*X40076Y37254*X40112Y37269*X40151Y37281*X40190Y37289*X40230Y37293*X40270Y37292*X34834Y54859D2*X34833Y54819D1*X34830Y54779*X34825Y54739*X34818Y54700*X34810Y54661*X34799Y54622*X34786Y54584*X34771Y54547*X34755Y54510*X34736Y54475*X34716Y54440*X34694Y54406*X34671Y54374*X34646Y54343*X34619Y54313*X34591Y54285*X34561Y54258*X34530Y54232*X34498Y54208*X34464Y54186*X34430Y54166*X34394Y54147*X34358Y54130*X34321Y54116*X34283Y54103*X34244Y54091*X34205Y54082*X34166Y54075*X34126Y54070*X34086Y54067*X34046Y54066*X34006Y54067*X33966Y54070*X33926Y54075*X33887Y54082*X33848Y54091*X33809Y54103*X33771Y54116*X33734Y54130*X33698Y54147*X33662Y54166*X33628Y54186*X33595Y54208*X33562Y54232*X33531Y54258*X33502Y54285*X33473Y54313*X33447Y54343*X33421Y54374*X33398Y54406*X33376Y54440*X33356Y54475*X33337Y54510*X33321Y54547*X33306Y54584*X33293Y54622*X33283Y54661*X33274Y54700*X33267Y54739*X33262Y54779*X33259Y54819*Y54859*Y20096D2*X33262Y20136D1*X33266Y20176*X33273Y20215*X33282Y20254*X33293Y20293*X33306Y20331*X33320Y20368*X33337Y20405*X33355Y20441*X33375Y20475*X33397Y20509*X33421Y20541*X33446Y20573*X33473Y20602*X33501Y20631*X33531Y20658*X33562Y20683*X33594Y20707*X33628Y20729*X33662Y20750*X33698Y20768*X33734Y20785*X33772Y20800*X33810Y20813*X33848Y20824*X33887Y20833*X33927Y20840*X33967Y20845*X34007Y20849*X34047Y20850*X34087Y20848*X34127Y20845*X34167Y20840*X34206Y20833*X34245Y20824*X34284Y20813*X34322Y20800*X34359Y20785*X34395Y20768*X34431Y20749*X34465Y20729*X34499Y20706*X34531Y20683*X34562Y20657*X34592Y20630*X34620Y20602*X34647Y20572*X34672Y20540*X34696Y20508*X34717Y20474*X34738Y20440*X34756Y20404*X34772Y20367*X34787Y20330*X34800Y20292*X34811Y20253*X34819Y20214*X34826Y20174*X34831Y20135*X34834Y20094*X41054Y19649D2*X34834D1*Y20095*X33259Y20096D3*Y20095D2*Y19649D1*X31054*Y55157*X33259Y55161*Y54859*X34834D2*Y55157D1*X41054*Y37292*X40270*Y36505D2*X41054D1*Y27686*X40259*Y26899D2*X41054D1*Y19649*D51*X21054Y55157D2*Y47907D1*X21849*Y47119D2*X21054D1*Y38300*X21838*Y37513D2*X21054D1*Y19649*X27274*Y19947*X28849D2*Y19645D1*X31054Y19649*Y55157*X28849*Y54710*X27274D2*Y55157D1*X21054*X27274Y54711D2*X27277Y54671D1*X27282Y54631*X27289Y54592*X27297Y54552*X27308Y54514*X27321Y54476*X27336Y54438*X27352Y54402*X27370Y54366*X27391Y54331*X27412Y54298*X27436Y54265*X27461Y54234*X27488Y54204*X27516Y54176*X27546Y54149*X27577Y54123*X27609Y54099*X27643Y54077*X27677Y54056*X27713Y54038*X27749Y54021*X27786Y54006*X27824Y53993*X27863Y53982*X27902Y53973*X27941Y53965*X27981Y53960*X28021Y53957*X28061Y53956*X28101Y53957*X28141Y53960*X28181Y53965*X28221Y53972*X28260Y53981*X28298Y53992*X28336Y54005*X28374Y54020*X28410Y54037*X28446Y54056*X28480Y54076*X28514Y54098*X28546Y54122*X28577Y54148*X28607Y54175*X28635Y54203*X28662Y54233*X28687Y54264*X28711Y54297*X28733Y54330*X28753Y54365*X28771Y54401*X28788Y54437*X28802Y54475*X28815Y54513*X28826Y54551*X28835Y54590*X28842Y54630*X28846Y54670*X28849Y54710*Y19947D2*Y19987D1*X28846Y20027*X28841Y20066*X28834Y20106*X28825Y20145*X28815Y20184*X28802Y20222*X28787Y20259*X28771Y20295*X28752Y20331*X28732Y20366*X28710Y20399*X28687Y20432*X28661Y20463*X28635Y20493*X28606Y20521*X28577Y20548*X28546Y20573*X28513Y20597*X28480Y20619*X28446Y20640*X28410Y20658*X28374Y20675*X28337Y20690*X28299Y20703*X28260Y20714*X28221Y20723*X28182Y20730*X28142Y20735*X28102Y20738*X28062Y20740*X28022Y20738*X27982Y20735*X27942Y20730*X27903Y20723*X27864Y20714*X27825Y20703*X27787Y20690*X27750Y20675*X27714Y20658*X27678Y20640*X27644Y20619*X27610Y20597*X27578Y20573*X27547Y20548*X27517Y20521*X27489Y20493*X27462Y20463*X27437Y20432*X27414Y20399*X27392Y20366*X27372Y20331*X27353Y20295*X27337Y20259*X27322Y20222*X27309Y20184*X27298Y20145*X27290Y20106*X27283Y20066*X27278Y20027*X27275Y19987*X27274Y19947*X21838Y37513D2*X21878D1*X21918Y37517*X21957Y37524*X21996Y37536*X22032Y37552*X22068Y37571*X22101Y37594*X22131Y37620*X22159Y37649*X22184Y37681*X22205Y37715*X22223Y37751*X22237Y37788*X22247Y37827*X22253Y37867*X22255Y37907*X22253Y37947*X22247Y37987*X22237Y38025*X22223Y38063*X22205Y38099*X22184Y38133*X22159Y38165*X22131Y38194*X22101Y38220*X22068Y38242*X22032Y38262*X21996Y38277*X21957Y38289*X21918Y38297*X21878Y38301*X21838Y38300*X21849Y47119D2*X21888Y47118D1*X21927Y47121*X21966Y47128*X22004Y47138*X22041Y47153*X22076Y47171*X22109Y47192*X22140Y47217*X22169Y47244*X22194Y47274*X22216Y47307*X22235Y47341*X22250Y47378*X22262Y47415*X22270Y47454*X22274Y47493*Y47533*X22270Y47572*X22262Y47611*X22250Y47648*X22235Y47685*X22216Y47719*X22194Y47752*X22169Y47782*X22140Y47810*X22109Y47834*X22076Y47856*X22041Y47873*X22004Y47888*X21966Y47898*X21927Y47905*X21888Y47908*X21849Y47907*X40259Y26899D2*X40220Y26898D1*X40181Y26900*X40142Y26907*X40104Y26918*X40067Y26932*X40032Y26950*X39999Y26971*X39968Y26996*X39939Y27023*X39914Y27054*X39892Y27086*X39873Y27121*X39858Y27157*X39846Y27195*X39838Y27234*X39834Y27273*Y27312*X39838Y27351*X39846Y27390*X39858Y27428*X39873Y27464*X39892Y27499*X39914Y27531*X39939Y27562*X39968Y27589*X39999Y27614*X40032Y27635*X40067Y27653*X40104Y27667*X40142Y27678*X40181Y27684*X40220Y27687*X40259Y27686*X40270Y36505D2*X40230D1*X40190Y36509*X40151Y36516*X40112Y36528*X40076Y36544*X40040Y36563*X40007Y36586*X39977Y36612*X39949Y36641*X39924Y36673*X39903Y36707*X39885Y36743*X39871Y36780*X39861Y36819*X39855Y36859*X39853Y36899*X39855Y36939*X39861Y36979*X39871Y37017*X39885Y37055*X39903Y37091*X39924Y37125*X39949Y37157*X39977Y37186*X40007Y37212*X40040Y37234*X40076Y37254*X40112Y37269*X40151Y37281*X40190Y37289*X40230Y37293*X40270Y37292*X34834Y54859D2*X34833Y54819D1*X34830Y54779*X34825Y54739*X34818Y54700*X34810Y54661*X34799Y54622*X34786Y54584*X34771Y54547*X34755Y54510*X34736Y54475*X34716Y54440*X34694Y54406*X34671Y54374*X34646Y54343*X34619Y54313*X34591Y54285*X34561Y54258*X34530Y54232*X34498Y54208*X34464Y54186*X34430Y54166*X34394Y54147*X34358Y54130*X34321Y54116*X34283Y54103*X34244Y54091*X34205Y54082*X34166Y54075*X34126Y54070*X34086Y54067*X34046Y54066*X34006Y54067*X33966Y54070*X33926Y54075*X33887Y54082*X33848Y54091*X33809Y54103*X33771Y54116*X33734Y54130*X33698Y54147*X33662Y54166*X33628Y54186*X33595Y54208*X33562Y54232*X33531Y54258*X33502Y54285*X33473Y54313*X33447Y54343*X33421Y54374*X33398Y54406*X33376Y54440*X33356Y54475*X33337Y54510*X33321Y54547*X33306Y54584*X33293Y54622*X33283Y54661*X33274Y54700*X33267Y54739*X33262Y54779*X33259Y54819*Y54859*Y20096D2*X33262Y20136D1*X33266Y20176*X33273Y20215*X33282Y20254*X33293Y20293*X33306Y20331*X33320Y20368*X33337Y20405*X33355Y20441*X33375Y20475*X33397Y20509*X33421Y20541*X33446Y20573*X33473Y20602*X33501Y20631*X33531Y20658*X33562Y20683*X33594Y20707*X33628Y20729*X33662Y20750*X33698Y20768*X33734Y20785*X33772Y20800*X33810Y20813*X33848Y20824*X33887Y20833*X33927Y20840*X33967Y20845*X34007Y20849*X34047Y20850*X34087Y20848*X34127Y20845*X34167Y20840*X34206Y20833*X34245Y20824*X34284Y20813*X34322Y20800*X34359Y20785*X34395Y20768*X34431Y20749*X34465Y20729*X34499Y20706*X34531Y20683*X34562Y20657*X34592Y20630*X34620Y20602*X34647Y20572*X34672Y20540*X34696Y20508*X34717Y20474*X34738Y20440*X34756Y20404*X34772Y20367*X34787Y20330*X34800Y20292*X34811Y20253*X34819Y20214*X34826Y20174*X34831Y20135*X34834Y20094*X41054Y19649D2*X34834D1*Y20095*X33259Y20096D3*Y20095D2*Y19649D1*X31054*Y55157*X33259Y55161*Y54859*X34834D2*Y55157D1*X41054*Y37292*X40270*Y36505D2*X41054D1*Y27686*X40259*Y26899D2*X41054D1*Y19649*D60*X41054Y26899D1*X40260*Y27686D2*X41054D1*Y36505*X40270*Y37293D2*X41054D1*Y55157*X31054Y19649D2*Y55157D1*X34834Y19649D2*X41054D1*X21054Y55157D2*Y47907D1*X21849*Y47120D2*X21054D1*Y38301*X21838*Y37513D2*X21054D1*Y19649*X27275*X28849Y19645D2*X31054Y19649D1*Y55157*X27275D2*X21054D1*Y16499D2*X41054D1*X21054Y58307D2*X41054D1*Y55157*Y16499D2*Y19649D1*X31054Y58307D2*Y55157D1*Y16499D2*Y19649D1*X21054Y16499D2*Y19649D1*Y58307D2*Y55157D1*X31054Y19649D2*X33259D1*X27275D2*Y19947D1*X28849D2*Y19645D1*X33259Y19649D2*Y20095D1*X34834D2*Y19649D1*X31054Y55157D2*X28849D1*X41054D2*X34834D1*X27275Y54711D2*Y55157D1*X33259Y54859D2*Y55161D1*X34834Y55157D2*Y54859D1*X28849Y55157D2*Y54711D1*X27275D2*X27291Y54579D1*X27331Y54451*X27391Y54332*X27470Y54224*X27566Y54132*X27677Y54057*X27799Y54002*X27928Y53968*X28061Y53956*X28195Y53968*X28324Y54001*X28446Y54056*X28557Y54131*X28653Y54223*X28733Y54331*X28793Y54450*X28832Y54578*X28849Y54710*Y19947D2*X28838Y20084D1*X28803Y20218*X28746Y20343*X28667Y20456*X28570Y20554*X28457Y20633*X28332Y20692*X28199Y20728*X28062Y20740*X27925Y20728*X27792Y20692*X27667Y20633*X27554Y20554*X27457Y20456*X27378Y20343*X27321Y20218*X27286Y20084*X27275Y19947*X21838Y37513D2*X21905Y37515D1*X21972Y37529*X22035Y37553*X22092Y37588*X22144Y37632*X22186Y37684*X22219Y37743*X22242Y37807*X22254Y37873*Y37941*X22242Y38007*X22219Y38071*X22186Y38130*X22144Y38182*X22092Y38226*X22035Y38261*X21972Y38286*X21905Y38299*X21838Y38301*X21849Y47120D2*X21917D1*X21985Y47133*X22049Y47156*X22108Y47191*X22160Y47235*X22204Y47288*X22238Y47347*X22261Y47412*X22273Y47479*Y47548*X22261Y47615*X22238Y47679*X22204Y47739*X22160Y47791*X22108Y47836*X22049Y47870*X21985Y47894*X21917Y47907*X21849*X34834Y20095D2*X34817Y20227D1*X34778Y20355*X34718Y20474*X34638Y20582*X34542Y20675*X34431Y20749*X34310Y20805*X34180Y20838*X34047Y20850*X33914Y20839*X33785Y20805*X33663Y20750*X33552Y20675*X33455Y20583*X33376Y20476*X33315Y20356*X33276Y20229*X33259Y20096*Y54859D2*X33270Y54722D1*X33305Y54588*X33363Y54463*X33441Y54350*X33538Y54252*X33651Y54173*X33776Y54114*X33909Y54078*X34046Y54066*X34184Y54078*X34317Y54114*X34442Y54173*X34554Y54252*X34652Y54350*X34730Y54463*X34788Y54588*X34823Y54722*X34834Y54859*X40270Y37293D2*X40203Y37291D1*X40137Y37277*X40074Y37253*X40016Y37218*X39965Y37174*X39922Y37122*X39889Y37063*X39866Y36999*X39855Y36933*Y36865*X39866Y36799*X39889Y36735*X39922Y36676*X39965Y36624*X40016Y36580*X40074Y36545*X40137Y36521*X40203Y36507*X40270Y36505*X40260Y27686D2*X40191D1*X40124Y27673*X40060Y27650*X40001Y27615*X39948Y27571*X39904Y27518*X39870Y27459*X39847Y27394*X39835Y27327*Y27258*X39847Y27191*X39870Y27127*X39904Y27067*X39948Y27015*X40001Y26970*X40060Y26936*X40124Y26912*X40191Y26900*X40260Y26899*X34524Y19339D2*X34578Y19344D1*X34630Y19358*X34679Y19381*X34723Y19412*X34761Y19450*X34792Y19494*X34815Y19543*X34829Y19595*X34834Y19649*X33259D2*X33264Y19595D1*X33278Y19543*X33301Y19494*X33332Y19450*X33370Y19412*X33414Y19381*X33463Y19358*X33515Y19344*X34524Y19339D2*X33569D1*X33515Y19344*X27531D2*X27585Y19339D1*X28539*X27531Y19344D2*X27479Y19358D1*X27430Y19381*X27385Y19412*X27347Y19450*X27316Y19494*X27293Y19543*X27279Y19595*X27275Y19649*X28849D2*X28845Y19595D1*X28831Y19543*X28808Y19494*X28777Y19450*X28739Y19412*X28694Y19381*X28645Y19358*X28593Y19344*X28539Y19339*X28593Y55462D2*X28539Y55467D1*X27585*X28593Y55462D2*X28645Y55448D1*X28694Y55426*X28739Y55395*X28777Y55356*X28808Y55312*X28831Y55263*X28845Y55211*X28849Y55157*X27275D2*X27279Y55211D1*X27293Y55263*X27316Y55312*X27347Y55356*X27385Y55395*X27430Y55426*X27479Y55448*X27531Y55462*X27585Y55467*X34578Y55462D2*X34524Y55467D1*X33569*X34578Y55462D2*X34630Y55448D1*X34679Y55425*X34723Y55394*X34761Y55356*X34792Y55312*X34815Y55263*X34829Y55211*X34834Y55157*X33259D2*X33264Y55211D1*X33278Y55263*X33301Y55312*X33332Y55356*X33370Y55394*X33414Y55425*X33463Y55448*X33515Y55462*X33569Y55467*X31054Y55157D2*X33259Y55161D1*D41*X22553Y54244D3*X30038D3*Y20891D3*X32070Y53914D3*Y20562D3*X39555D3*D58*X25054Y56807D3*X37054D3*Y17999D3*X25054D3*D59*X39554Y56807D3*X22554D3*Y17999D3*X39554D3*D105*X21586Y51657D3*Y51157D3*Y50657D3*Y50157D3*Y49657D3*Y49157D3*Y46657D3*Y46157D3*Y45657D3*Y45157D3*Y44657D3*Y44157D3*Y43657D3*Y43157D3*Y42657D3*Y42157D3*Y41657D3*Y41157D3*Y40657D3*Y40157D3*Y39657D3*Y39157D3*Y36657D3*Y36157D3*Y35657D3*Y35157D3*Y34657D3*Y34157D3*Y33657D3*Y33157D3*Y32657D3*Y32157D3*Y31657D3*Y31157D3*Y30657D3*Y30157D3*Y29657D3*Y29157D3*Y28657D3*Y28157D3*Y27657D3*Y27157D3*Y26657D3*Y26157D3*Y25657D3*Y25157D3*Y24657D3*Y24157D3*Y23657D3*Y23157D3*X40522Y51649D3*Y51149D3*Y50649D3*Y50149D3*Y49649D3*Y49149D3*Y48649D3*Y48149D3*Y47649D3*Y47149D3*Y46649D3*Y46149D3*Y45649D3*Y45149D3*Y44649D3*Y44149D3*Y43649D3*Y43149D3*Y42649D3*Y42149D3*Y41649D3*Y41149D3*Y40649D3*Y40149D3*Y39649D3*Y39149D3*Y38649D3*Y38149D3*Y35649D3*Y35149D3*Y34649D3*Y34149D3*Y33649D3*Y33149D3*Y32649D3*Y32149D3*Y31649D3*Y31149D3*Y30649D3*Y30149D3*Y29649D3*Y29149D3*Y28649D3*Y28149D3*Y25649D3*Y25149D3*Y24649D3*Y24149D3*Y23649D3*Y23149D3*D106*X23869Y44096D3*Y43899D3*Y43702D3*Y43505D3*Y43308D3*Y43112D3*Y42915D3*Y42718D3*X23239D3*Y42915D3*Y43112D3*Y43308D3*Y43505D3*Y43702D3*Y43899D3*Y44096D3*X38869Y30710D3*Y30907D3*Y31104D3*Y31300D3*Y31497D3*Y31694D3*Y31891D3*Y32088D3*X38239D3*Y31891D3*Y31694D3*Y31497D3*Y31300D3*Y31104D3*Y30907D3*Y30710D3*D115*X26804Y28837D3*Y29477D3*X29054Y31837D3*Y32477D3*X30054Y31837D3*Y32477D3*X30404Y40727D3*Y40087D3*X28304Y31837D3*Y32477D3*X27804Y40727D3*Y40087D3*X29404Y40727D3*Y40087D3*X23554Y41227D3*Y40587D3*X28554Y40727D3*Y40087D3*X33554Y34719D3*Y34079D3*X38554Y34219D3*Y33579D3*X32704Y34719D3*Y34079D3*X34304Y34719D3*Y34079D3*X33804Y42329D3*Y42969D3*X31704Y34719D3*Y34079D3*X32054Y42329D3*Y42969D3*X33054Y42329D3*Y42969D3*X35304Y45329D3*Y45969D3*D117*X29554Y49907D3*Y49407D3*X26204Y34307D3*Y33807D3*X25304Y28907D3*Y29407D3*X30304Y22157D3*Y22657D3*X30054Y26407D3*Y25907D3*X29054Y26407D3*Y25907D3*X29554Y27907D3*Y28407D3*X27054Y23157D3*Y22657D3*X25804Y32657D3*Y32157D3*X25054D3*Y32657D3*X27354Y38657D3*Y38157D3*X27404Y35357D3*Y34857D3*X24304Y32157D3*Y32657D3*X29104Y34157D3*Y33657D3*X28554Y34157D3*Y33657D3*X26369Y49108D3*Y48608D3*Y50682D3*Y50182D3*X23416Y49698D3*Y49198D3*X38692Y25608D3*Y25108D3*X35739Y24623D3*Y24123D3*Y26198D3*Y25698D3*X33554Y41149D3*Y40649D3*X33004Y41149D3*Y40649D3*X37804Y42149D3*Y42649D3*X34704Y39949D3*Y39449D3*X34754Y36649D3*Y36149D3*X37054Y42149D3*Y42649D3*X36304D3*Y42149D3*X35054Y52149D3*Y51649D3*X32554Y46399D3*Y46899D3*X33054Y48899D3*Y48399D3*X32054Y48899D3*Y48399D3*X31804Y52149D3*Y52649D3*X36804Y45399D3*Y45899D3*X35904Y40999D3*Y40499D3*X32554Y25399D3*Y24899D3*D118*X28658Y48700D3*X28018D3*X34090Y26106D3*X33450D3*D119*X26154Y36257D3*X26654D3*X26304Y46157D3*X25804D3*X30554Y36657D3*X30054D3*X25554Y36257D3*X25054D3*X28604Y37457D3*X28104D3*X30554Y37407D3*X30054D3*X26654Y35107D3*X26154D3*X28754Y36257D3*X28254D3*X28054Y35107D3*X28554D3*X30554Y34407D3*X30054D3*X26654Y37407D3*X26154D3*X26354Y44657D3*X26854D3*X25854D3*X25354D3*X25854Y43707D3*X25354D3*X25854Y43007D3*X25354D3*X25854Y45357D3*X25354D3*X26354D3*X26854D3*X26354Y43007D3*X26854D3*X26354Y43707D3*X26854D3*X25854Y41357D3*X25354D3*X25854Y42057D3*X25354D3*X26354Y41357D3*X26854D3*X26354Y42057D3*X26854D3*X23804Y30657D3*X23304D3*X25554Y27157D3*X25054D3*Y26407D3*X25554D3*X24544Y49054D3*X25044D3*Y49842D3*X24544D3*Y50629D3*X25044D3*X37064Y24176D3*X37564D3*Y24964D3*X37064D3*Y25751D3*X37564D3*X36554Y48399D3*X37054D3*Y47649D3*X36554D3*X38804Y44149D3*X38304D3*X35254Y32749D3*X35754D3*X35254Y33449D3*X35754D3*X36754Y32749D3*X36254D3*X36754Y33449D3*X36254D3*X35254Y31099D3*X35754D3*X35254Y31799D3*X35754D3*X35254Y29449D3*X35754D3*X36754D3*X36254D3*X36754Y31799D3*X36254D3*X36754Y31099D3*X36254D3*X36754Y30149D3*X36254D3*X35254D3*X35754D3*X35954Y37399D3*X35454D3*X32054Y40399D3*X31554D3*X33554Y39699D3*X34054D3*X33854Y38549D3*X33354D3*X35954Y39699D3*X35454D3*X32054Y37399D3*X31554D3*X34004Y37349D3*X33504D3*X37054Y38549D3*X36554D3*X32054Y38149D3*X31554D3*X36304Y28649D3*X35804D3*X35454Y38549D3*X35954D3*D120*X30204Y30407D3*X31904Y44399D3*D121*X30054Y43857D3*Y44957D3*X28804Y43857D3*Y44957D3*X33304Y29849D3*Y30949D3*X32054Y29849D3*Y30949D3*D122*X29354Y21757D3*X28254D3*X29354Y24007D3*X28254D3*X33854Y50799D3*X32754D3*X33854Y53049D3*X32754D3*D124*X30204Y30407D3*X30038Y20891D3*Y54244D3*X22553D3*X39555Y20562D3*X32070D3*Y53914D3*X31904Y44399D3*D127*X21586Y23157D3*Y23657D3*Y24157D3*Y24657D3*Y25157D3*Y25657D3*Y26157D3*Y26657D3*Y27157D3*Y27657D3*Y28157D3*Y28657D3*Y29157D3*Y29657D3*Y30157D3*Y30657D3*Y31157D3*Y31657D3*Y32157D3*Y32657D3*Y33157D3*Y33657D3*Y34157D3*Y34657D3*Y35157D3*Y35657D3*Y36157D3*Y36657D3*Y39157D3*Y39657D3*Y40157D3*Y40657D3*Y41157D3*Y41657D3*Y42157D3*Y42657D3*Y43157D3*Y43657D3*Y44157D3*Y44657D3*Y45157D3*Y45657D3*Y46157D3*Y46657D3*Y49157D3*Y49657D3*Y50157D3*Y50657D3*Y51157D3*Y51657D3*D128*X23239Y44096D3*Y43899D3*Y43702D3*Y43505D3*Y43308D3*Y43112D3*Y42915D3*Y42718D3*X23869D3*Y42915D3*Y43112D3*Y43308D3*Y43505D3*Y43702D3*Y43899D3*Y44096D3*D136*X28554Y40087D3*Y40727D3*X23554Y40587D3*Y41227D3*X29404Y40087D3*Y40727D3*X27804Y40087D3*Y40727D3*X28304Y32477D3*Y31837D3*X30404Y40087D3*Y40727D3*X30054Y32477D3*Y31837D3*X29054Y32477D3*Y31837D3*X26804Y29477D3*Y28837D3*D138*X23416Y49198D3*Y49698D3*X26369Y50182D3*Y50682D3*Y48608D3*Y49108D3*X28554Y33657D3*Y34157D3*X29104Y33657D3*Y34157D3*X24304Y32657D3*Y32157D3*X27404Y34857D3*Y35357D3*X27354Y38157D3*Y38657D3*X25054Y32657D3*Y32157D3*X25804D3*Y32657D3*X27054Y22657D3*Y23157D3*X29554Y28407D3*Y27907D3*X29054Y25907D3*Y26407D3*X30054Y25907D3*Y26407D3*X30304Y22657D3*Y22157D3*X25304Y29407D3*Y28907D3*X26204Y33807D3*Y34307D3*X29554Y49407D3*Y49907D3*D139*X28018Y48700D3*X28658D3*D140*X25044Y50629D3*X24544D3*Y49842D3*X25044D3*Y49054D3*X24544D3*X25554Y26407D3*X25054D3*Y27157D3*X25554D3*X23304Y30657D3*X23804D3*X26854Y42057D3*X26354D3*X26854Y41357D3*X26354D3*X25354Y42057D3*X25854D3*X25354Y41357D3*X25854D3*X26854Y43707D3*X26354D3*X26854Y43007D3*X26354D3*X26854Y45357D3*X26354D3*X25354D3*X25854D3*X25354Y43007D3*X25854D3*X25354Y43707D3*X25854D3*X25354Y44657D3*X25854D3*X26854D3*X26354D3*X26154Y37407D3*X26654D3*X30054Y34407D3*X30554D3*X28554Y35107D3*X28054D3*X28254Y36257D3*X28754D3*X26154Y35107D3*X26654D3*X30054Y37407D3*X30554D3*X28104Y37457D3*X28604D3*X25054Y36257D3*X25554D3*X30054Y36657D3*X30554D3*X25804Y46157D3*X26304D3*X26654Y36257D3*X26154D3*D142*X40522Y23149D3*Y23649D3*Y24149D3*Y24649D3*Y25149D3*Y25649D3*Y28149D3*Y28649D3*Y29149D3*Y29649D3*Y30149D3*Y30649D3*Y31149D3*Y31649D3*Y32149D3*Y32649D3*Y33149D3*Y33649D3*Y34149D3*Y34649D3*Y35149D3*Y35649D3*Y38149D3*Y38649D3*Y39149D3*Y39649D3*Y40149D3*Y40649D3*Y41149D3*Y41649D3*Y42149D3*Y42649D3*Y43149D3*Y43649D3*Y44149D3*Y44649D3*Y45149D3*Y45649D3*Y46149D3*Y46649D3*Y47149D3*Y47649D3*Y48149D3*Y48649D3*Y49149D3*Y49649D3*Y50149D3*Y50649D3*Y51149D3*Y51649D3*D143*X38239Y30710D3*Y30907D3*Y31104D3*Y31300D3*Y31497D3*Y31694D3*Y31891D3*Y32088D3*X38869D3*Y31891D3*Y31694D3*Y31497D3*Y31300D3*Y31104D3*Y30907D3*Y30710D3*D144*X35304Y45969D3*Y45329D3*X33054Y42969D3*Y42329D3*X32054Y42969D3*Y42329D3*X31704Y34079D3*Y34719D3*X33804Y42969D3*Y42329D3*X34304Y34079D3*Y34719D3*X32704Y34079D3*Y34719D3*X38554Y33579D3*Y34219D3*X33554Y34079D3*Y34719D3*D145*X32554Y24899D3*Y25399D3*X35904Y40499D3*Y40999D3*X36804Y45899D3*Y45399D3*X31804Y52649D3*Y52149D3*X32054Y48399D3*Y48899D3*X33054Y48399D3*Y48899D3*X32554Y46899D3*Y46399D3*X35054Y51649D3*Y52149D3*X36304Y42149D3*Y42649D3*X37054D3*Y42149D3*X34754Y36149D3*Y36649D3*X34704Y39449D3*Y39949D3*X37804Y42649D3*Y42149D3*X33004Y40649D3*Y41149D3*X33554Y40649D3*Y41149D3*X35739Y25698D3*Y26198D3*Y24123D3*Y24623D3*X38692Y25108D3*Y25608D3*D146*X33450Y26106D3*X34090D3*D147*X35954Y38549D3*X35454D3*X35804Y28649D3*X36304D3*X31554Y38149D3*X32054D3*X36554Y38549D3*X37054D3*X33504Y37349D3*X34004D3*X31554Y37399D3*X32054D3*X35454Y39699D3*X35954D3*X33354Y38549D3*X33854D3*X34054Y39699D3*X33554D3*X31554Y40399D3*X32054D3*X35454Y37399D3*X35954D3*X35754Y30149D3*X35254D3*X36254D3*X36754D3*X36254Y31099D3*X36754D3*X36254Y31799D3*X36754D3*X36254Y29449D3*X36754D3*X35754D3*X35254D3*X35754Y31799D3*X35254D3*X35754Y31099D3*X35254D3*X36254Y33449D3*X36754D3*X36254Y32749D3*X36754D3*X35754Y33449D3*X35254D3*X35754Y32749D3*X35254D3*X38304Y44149D3*X38804D3*X36554Y47649D3*X37054D3*Y48399D3*X36554D3*X37564Y25751D3*X37064D3*Y24964D3*X37564D3*Y24176D3*X37064D3*D148*X28804Y44957D3*Y43857D3*X30054Y44957D3*Y43857D3*X32054Y30949D3*Y29849D3*X33304Y30949D3*Y29849D3*D149*X28254Y24007D3*X29354D3*X28254Y21757D3*X29354D3*X32754Y53049D3*X33854D3*X32754Y50799D3*X33854D3*X0Y0D2*M02*