*G04 Output by CAMMaster V10.4.32  PentaLogix LLC*
*G04 Tue Aug 11 15:38:12 2009*
*%FSLAX24Y24*%
%MOIN*%
%IPPOS*%
%ADD16C,0.0055*%
%ADD17C,0.006*%

%LPD*%
X0Y0D2*D16*G1X23259Y50916D2*X23225Y50930D1*X23208Y50943*X23191Y50984*Y51025*X23208Y51066*X23242Y51093*X23292Y51107*X23326Y51121*X23377Y51107*X23411Y51080*X23428Y51039*Y50998*X23411Y50957*X23394Y50943*X23546Y50957*Y51093*Y50725D2*X23191D1*X23309Y50793D2*Y50589D1*X23546Y50725*X23276Y50466D2*X23242Y50452D1*X23208Y50425*X23191Y50398*Y50343*X23208Y50316*X23242Y50289*X23276Y50275*X23326Y50262*X23411*X23461Y50275*X23495Y50289*X23529Y50316*X23546Y50343*Y50398*X23529Y50425*X23495Y50452*X23461Y50466*X25045Y51408D2*X25059Y51442D1*X25072Y51459*X25113Y51476*X25154*X25195Y51459*X25222Y51425*X25236Y51375*Y51341*X25222Y51290*X25209Y51273*X25181Y51256*X25140*X25222Y51122*X25072*X24854D2*Y51476D1*X24922Y51358D2*X24718D1*X24854Y51122*X24595Y51392D2*X24581Y51425D1*X24554Y51459*X24527Y51476*X24472*X24445Y51459*X24418Y51425*X24404Y51392*X24390Y51341*Y51256*X24404Y51206*X24418Y51172*X24445Y51138*X24472Y51122*X24527*X24554Y51138*X24581Y51172*X24595Y51206*X25916Y50173D2*X25561D1*X25679Y50241D2*Y50036D1*X25916Y50173*Y49845D2*X25561D1*X25679Y49914D2*Y49709D1*X25916Y49845*X25646Y49586D2*X25612Y49573D1*X25578Y49545*X25561Y49518*Y49464*X25578Y49436*X25612Y49409*X25646Y49395*X25696Y49382*X25781*X25831Y49395*X25865Y49409*X25899Y49436*X25916Y49464*Y49518*X25899Y49545*X25865Y49573*X25831Y49586*X25019Y48460D2*X25033Y48409D1*X25060Y48376*X25101Y48359*X25114*X25155Y48376*X25183Y48409*X25196Y48460*Y48477*X25183Y48527*X25155Y48561*X25114Y48578*X25101*X25060Y48561*X25033Y48527*X25019Y48460*Y48376*X25033Y48291*X25060Y48240*X25101Y48224*X25128*X25169Y48240*X25183Y48274*X24828Y48224D2*Y48578D1*X24896Y48460D2*X24692D1*X24828Y48224*X24569Y48494D2*X24555Y48527D1*X24528Y48561*X24501Y48578*X24446*X24419Y48561*X24392Y48527*X24378Y48494*X24364Y48443*Y48359*X24378Y48308*X24392Y48274*X24419Y48240*X24446Y48224*X24501*X24528Y48240*X24555Y48274*X24569Y48308*X26834Y50863D2*X27189D1*X27138Y50822*X27121Y50794*X27189Y50604D2*X26834D1*X26952Y50672D2*Y50467D1*X27189Y50604*X26919Y50344D2*X26885Y50331D1*X26851Y50304*X26834Y50276*Y50222*X26851Y50194*X26885Y50167*X26919Y50154*X26969Y50140*X27054*X27104Y50154*X27138Y50167*X27172Y50194*X27189Y50222*Y50276*X27172Y50304*X27138Y50331*X27104Y50344*X26874Y49532D2*Y49341D1*X27043Y49477*X27094Y49504*X27127Y49518*X27161*X27195Y49504*X27212Y49491*X27229Y49464*Y49409*X27212Y49382*X27195Y49368*X27161Y49354*X27144*X27229Y49150D2*X26874D1*X26992Y49218D2*Y49014D1*X27229Y49150*X26959Y48891D2*X26925Y48877D1*X26891Y48850*X26874Y48823*Y48768*X26891Y48741*X26925Y48714*X26959Y48700*X27009Y48686*X27094*X27144Y48700*X27178Y48714*X27212Y48741*X27229Y48768*Y48823*X27212Y48850*X27178Y48877*X27144Y48891*X26488Y26509D2*X26502Y26543D1*X26516Y26560*X26557Y26577*X26598*X26638Y26560*X26666Y26526*X26680Y26476*X26693Y26442*X26680Y26391*X26652Y26357*X26611Y26340*X26570*X26530Y26357*X26516Y26374*X26530Y26222*X26666*X26366Y26577D2*Y26222D1*X26325Y26273*X26298Y26290*X26080Y26391D2*X26175Y26577D1*X25984Y26391D2*X26107D1*X26148Y26374*X26161Y26357*X26175Y26324*Y26290*X26161Y26256*X26148Y26239*X26107Y26222*X25984*Y26577*X26601Y27004D2*Y27359D1*X26670Y27241D2*X26465D1*X26601Y27004*X26342Y27359D2*Y27004D1*X26301Y27055*X26274Y27072*X26056Y27173D2*X26151Y27359D1*X25960Y27173D2*X26083D1*X26124Y27156*X26138Y27139*X26151Y27106*Y27072*X26138Y27038*X26124Y27021*X26083Y27004*X25960*Y27359*X23701Y29904D2*Y30259D1*X23770Y30141D2*X23565D1*X23701Y29904*X23347Y30073D2*X23442Y30259D1*X23251Y30073D2*X23374D1*X23415Y30056*X23428Y30039*X23442Y30006*Y29972*X23428Y29938*X23415Y29921*X23374Y29904*X23251*Y30259*X27828Y42191D2*X27842Y42225D1*X27856Y42242*X27897Y42259*X27938*X27978Y42242*X28006Y42208*X28020Y42157*Y42124*X28006Y42073*X27992Y42056*X27965Y42039*X27924*X28006Y41904*X27856*X27706Y42259D2*X27515D1*X27651Y42090*X27678Y42039*X27692Y42006*Y41972*X27678Y41938*X27665Y41921*X27638Y41904*X27583*X27556Y41921*X27542Y41938*X27528Y41972*Y41989*X27392Y42174D2*X27378Y42208D1*X27351Y42242*X27324Y42259*X27270*X27242Y42242*X27215Y42208*X27201Y42174*X27188Y42124*Y42039*X27201Y41989*X27215Y41955*X27242Y41921*X27270Y41904*X27324*X27351Y41921*X27378Y41955*X27392Y41989*X28066Y41577D2*X27875D1*X28011Y41408*X28038Y41357*X28052Y41324*Y41290*X28038Y41256*X28025Y41239*X27998Y41222*X27943*X27916Y41239*X27902Y41256*X27888Y41290*Y41307*X27752Y41577D2*X27561D1*X27698Y41408*X27725Y41357*X27738Y41324*Y41290*X27725Y41256*X27711Y41239*X27684Y41222*X27630*X27602Y41239*X27588Y41256*X27575Y41290*Y41307*X27438Y41492D2*X27425Y41526D1*X27398Y41560*X27370Y41577*X27316*X27288Y41560*X27261Y41526*X27248Y41492*X27234Y41442*Y41357*X27248Y41307*X27261Y41273*X27288Y41239*X27316Y41222*X27370*X27398Y41239*X27425Y41273*X27438Y41307*X24860Y41904D2*X24888D1*X24928Y41921*X24956Y41972*X24970Y42056*Y42107*X24956Y42191*X24928Y42242*X24888Y42259*X24860*X24820Y42242*X24792Y42191*X24778Y42107*Y42056*X24792Y41972*X24820Y41921*X24860Y41904*X24656Y42259D2*X24465D1*X24601Y42090*X24628Y42039*X24642Y42006*Y41972*X24628Y41938*X24615Y41921*X24588Y41904*X24533*X24506Y41921*X24492Y41938*X24478Y41972*Y41989*X24342Y42174D2*X24328Y42208D1*X24301Y42242*X24274Y42259*X24220*X24192Y42242*X24165Y42208*X24151Y42174*X24138Y42124*Y42039*X24151Y41989*X24165Y41955*X24192Y41921*X24220Y41904*X24274*X24301Y41921*X24328Y41955*X24342Y41989*X24870Y41559D2*Y41204D1*X24828Y41255*X24801Y41272*X24678Y41559D2*X24488D1*X24624Y41390*X24651Y41339*X24665Y41306*Y41272*X24651Y41238*X24638Y41221*X24610Y41204*X24556*X24528Y41221*X24515Y41238*X24501Y41272*Y41289*X24365Y41474D2*X24351Y41508D1*X24324Y41542*X24297Y41559*X24242*X24215Y41542*X24188Y41508*X24174Y41474*X24160Y41424*Y41339*X24174Y41289*X24188Y41255*X24215Y41221*X24242Y41204*X24297*X24324Y41221*X24351Y41255*X24365Y41289*X27875Y43522D2*X28066D1*X27930Y43877*X27752D2*X27561D1*X27698Y43708*X27725Y43657*X27738Y43624*Y43590*X27725Y43556*X27711Y43539*X27684Y43522*X27630*X27602Y43539*X27588Y43556*X27575Y43590*Y43607*X27438Y43792D2*X27425Y43826D1*X27398Y43860*X27370Y43877*X27316*X27288Y43860*X27261Y43826*X27248Y43792*X27234Y43742*Y43657*X27248Y43607*X27261Y43573*X27288Y43539*X27316Y43522*X27370*X27398Y43539*X27425Y43573*X27438Y43607*X27875Y43059D2*X27888Y43008D1*X27916Y42974*X27957Y42957*X27970*X28011Y42974*X28038Y43008*X28052Y43059*Y43076*X28038Y43126*X28011Y43160*X27970Y43177*X27957*X27916Y43160*X27888Y43126*X27875Y43059*Y42974*X27888Y42890*X27916Y42839*X27957Y42822*X27984*X28025Y42839*X28038Y42873*X27752Y43177D2*X27561D1*X27698Y43008*X27725Y42957*X27738Y42924*Y42890*X27725Y42856*X27711Y42839*X27684Y42822*X27630*X27602Y42839*X27588Y42856*X27575Y42890*Y42907*X27438Y43092D2*X27425Y43126D1*X27398Y43160*X27370Y43177*X27316*X27288Y43160*X27261Y43126*X27248Y43092*X27234Y43042*Y42957*X27248Y42907*X27261Y42873*X27288Y42839*X27316Y42822*X27370*X27398Y42839*X27425Y42873*X27438Y42907*X27816Y45476D2*X27830Y45510D1*X27870Y45527*X27898*X27938Y45510*X27966Y45459*X27980Y45375*Y45290*X27966Y45223*X27938Y45189*X27898Y45172*X27884*X27843Y45189*X27816Y45223*X27802Y45274*Y45290*X27816Y45341*X27843Y45375*X27884Y45392*X27898*X27938Y45375*X27966Y45341*X27980Y45290*X27680Y45527D2*Y45172D1*X27638Y45223*X27611Y45240*X27488Y45442D2*X27475Y45476D1*X27448Y45510*X27420Y45527*X27366*X27338Y45510*X27311Y45476*X27298Y45442*X27284Y45392*Y45307*X27298Y45257*X27311Y45223*X27338Y45189*X27366Y45172*X27420*X27448Y45189*X27475Y45223*X27488Y45257*X24742Y45441D2*X24756Y45390D1*X24783Y45356*X24824Y45339*X24838*X24878Y45356*X24906Y45390*X24920Y45441*Y45457*X24906Y45508*X24878Y45542*X24838Y45559*X24824*X24783Y45542*X24756Y45508*X24742Y45441*Y45356*X24756Y45272*X24783Y45221*X24824Y45204*X24851*X24892Y45221*X24906Y45255*X24620Y45559D2*Y45204D1*X24578Y45255*X24551Y45272*X24428Y45474D2*X24415Y45508D1*X24388Y45542*X24360Y45559*X24306*X24278Y45542*X24251Y45508*X24238Y45474*X24224Y45424*Y45339*X24238Y45289*X24251Y45255*X24278Y45221*X24306Y45204*X24360*X24388Y45221*X24415Y45255*X24428Y45289*X24815Y43141D2*X24828Y43175D1*X24842Y43192*X24883Y43209*X24924*X24965Y43192*X24992Y43158*X25006Y43107*X25020Y43074*X25006Y43023*X24978Y42989*X24938Y42972*X24897*X24856Y42989*X24842Y43006*X24856Y42854*X24992*X24692Y43209D2*X24501D1*X24638Y43040*X24665Y42989*X24678Y42956*Y42922*X24665Y42888*X24651Y42871*X24624Y42854*X24570*X24542Y42871*X24528Y42888*X24515Y42922*Y42939*X24378Y43124D2*X24365Y43158D1*X24338Y43192*X24310Y43209*X24256*X24228Y43192*X24201Y43158*X24188Y43124*X24174Y43074*Y42989*X24188Y42939*X24201Y42905*X24228Y42871*X24256Y42854*X24310*X24338Y42871*X24365Y42905*X24378Y42939*X24951Y43554D2*Y43909D1*X25020Y43791D2*X24815D1*X24951Y43554*X24692Y43909D2*X24501D1*X24638Y43740*X24665Y43689*X24678Y43656*Y43622*X24665Y43588*X24651Y43571*X24624Y43554*X24570*X24542Y43571*X24528Y43588*X24515Y43622*Y43639*X24378Y43824D2*X24365Y43858D1*X24338Y43892*X24310Y43909*X24256*X24228Y43892*X24201Y43858*X24188Y43824*X24174Y43774*Y43689*X24188Y43639*X24201Y43605*X24228Y43571*X24256Y43554*X24310*X24338Y43571*X24365Y43605*X24378Y43639*X28056Y34154D2*X27702D1*X27820Y34222D2*Y34018D1*X28056Y34154*X27702Y33895D2*X28056D1*X28006Y33854*X27989Y33827*X27786Y33704D2*X27753Y33690D1*X27719Y33663*X27702Y33636*Y33581*X27719Y33554*X27753Y33527*X27786Y33513*X27837Y33500*X27922*X27972Y33513*X28006Y33527*X28040Y33554*X28056Y33581*Y33636*X28040Y33663*X28006Y33690*X27972Y33704*X24728Y44554D2*X24920D1*X24783Y44909*X24606D2*Y44554D1*X24565Y44605*X24538Y44622*X24415Y44824D2*X24401Y44858D1*X24374Y44892*X24347Y44909*X24292*X24265Y44892*X24238Y44858*X24224Y44824*X24210Y44774*Y44689*X24224Y44639*X24238Y44605*X24265Y44571*X24292Y44554*X24347*X24374Y44571*X24401Y44605*X24415Y44639*X29570Y33781D2*X29536Y33795D1*X29519Y33809*X29502Y33850*Y33890*X29519Y33931*X29553Y33959*X29603Y33972*X29637*X29688Y33959*X29705Y33945*X29722Y33918*Y33877*X29856Y33959*Y33809*X29502Y33659D2*X29856D1*X29806Y33618*X29789Y33590*X29586Y33468D2*X29553Y33454D1*X29519Y33427*X29502Y33400*Y33345*X29519Y33318*X29553Y33290*X29586Y33277*X29637Y33263*X29722*X29772Y33277*X29806Y33290*X29840Y33318*X29856Y33345*Y33400*X29840Y33427*X29806Y33454*X29772Y33468*X27870Y44422D2*X27925D1*X27966Y44439*X27980Y44473*Y44507*X27966Y44540*X27938Y44557*X27884Y44574*X27843Y44591*X27816Y44625*X27802Y44659*Y44709*X27816Y44743*X27830Y44760*X27870Y44777*X27925*X27966Y44760*X27980Y44743*X27993Y44709*Y44659*X27980Y44625*X27952Y44591*X27911Y44574*X27857Y44557*X27830Y44540*X27816Y44507*Y44473*X27830Y44439*X27870Y44422*X27680Y44777D2*Y44422D1*X27638Y44473*X27611Y44490*X27488Y44692D2*X27475Y44726D1*X27448Y44760*X27420Y44777*X27366*X27338Y44760*X27311Y44726*X27298Y44692*X27284Y44642*Y44557*X27298Y44507*X27311Y44473*X27338Y44439*X27366Y44422*X27420*X27448Y44439*X27475Y44473*X27488Y44507*X27370Y37609D2*Y37254D1*X27328Y37305*X27301Y37322*X27178Y37524D2*X27165Y37558D1*X27138Y37592*X27110Y37609*X27056*X27028Y37592*X27001Y37558*X26988Y37524*X26974Y37474*Y37389*X26988Y37339*X27001Y37305*X27028Y37271*X27056Y37254*X27110*X27138Y37271*X27165Y37305*X27178Y37339*X24149Y31690D2*Y31500D1*X24318Y31636*X24368Y31663*X24402Y31677*X24436*X24470Y31663*X24486Y31650*X24503Y31622*Y31568*X24486Y31540*X24470Y31527*X24436Y31513*X24419*X24233Y31377D2*X24200Y31363D1*X24166Y31336*X24149Y31309*Y31254*X24166Y31227*X24200Y31200*X24233Y31186*X24284Y31172*X24368*X24419Y31186*X24453Y31200*X24486Y31227*X24503Y31254*Y31309*X24486Y31336*X24453Y31363*X24419Y31377*X30547Y34854D2*X30601D1*X30642Y34871*X30656Y34905*Y34939*X30642Y34972*X30615Y34989*X30560Y35006*X30520Y35023*X30492Y35057*X30478Y35090*Y35141*X30492Y35175*X30506Y35192*X30547Y35209*X30601*X30642Y35192*X30656Y35175*X30670Y35141*Y35090*X30656Y35057*X30628Y35023*X30588Y35006*X30533Y34989*X30506Y34972*X30492Y34939*Y34905*X30506Y34871*X30547Y34854*X30356Y35124D2*X30342Y35158D1*X30315Y35192*X30288Y35209*X30233*X30206Y35192*X30178Y35158*X30165Y35124*X30151Y35074*Y34989*X30165Y34939*X30178Y34905*X30206Y34871*X30233Y34854*X30288*X30315Y34871*X30342Y34905*X30356Y34939*X29211Y35159D2*X29225Y35108D1*X29252Y35074*X29293Y35057*X29307*X29348Y35074*X29375Y35108*X29388Y35159*Y35176*X29375Y35226*X29348Y35260*X29307Y35277*X29293*X29252Y35260*X29225Y35226*X29211Y35159*Y35074*X29225Y34990*X29252Y34939*X29293Y34922*X29320*X29361Y34939*X29375Y34973*X29088Y35192D2*X29075Y35226D1*X29048Y35260*X29020Y35277*X28966*X28938Y35260*X28911Y35226*X28898Y35192*X28884Y35142*Y35057*X28898Y35007*X28911Y34973*X28938Y34939*X28966Y34922*X29020*X29048Y34939*X29075Y34973*X29088Y35007*X29720Y36409D2*X29528D1*X29665Y36240*X29692Y36189*X29706Y36156*Y36122*X29692Y36088*X29678Y36071*X29651Y36054*X29597*X29570Y36071*X29556Y36088*X29542Y36122*Y36139*X29406Y36409D2*Y36054D1*X29365Y36105*X29338Y36122*X29215Y36324D2*X29201Y36358D1*X29174Y36392*X29147Y36409*X29092*X29065Y36392*X29038Y36358*X29024Y36324*X29010Y36274*Y36189*X29024Y36139*X29038Y36105*X29065Y36071*X29092Y36054*X29147*X29174Y36071*X29201Y36105*X29215Y36139*X25556Y35308D2*X25570Y35342D1*X25610Y35359*X25638*X25678Y35342*X25706Y35291*X25720Y35207*Y35122*X25706Y35055*X25678Y35021*X25638Y35004*X25624*X25583Y35021*X25556Y35055*X25542Y35106*Y35122*X25556Y35173*X25583Y35207*X25624Y35224*X25638*X25678Y35207*X25706Y35173*X25720Y35122*X25420Y35274D2*X25406Y35308D1*X25378Y35342*X25351Y35359*X25297*X25270Y35342*X25242Y35308*X25228Y35274*X25215Y35224*Y35139*X25228Y35089*X25242Y35055*X25270Y35021*X25297Y35004*X25351*X25378Y35021*X25406Y35055*X25420Y35089*X27170Y34231D2*X27136Y34245D1*X27119Y34259*X27102Y34300*Y34340*X27119Y34381*X27153Y34409*X27203Y34422*X27237*X27288Y34409*X27305Y34395*X27322Y34368*Y34327*X27456Y34409*Y34259*X27186Y34109D2*X27153Y34095D1*X27119Y34068*X27102Y34040*Y33986*X27119Y33959*X27153Y33931*X27186Y33918*X27237Y33904*X27322*X27372Y33918*X27406Y33931*X27440Y33959*X27456Y33986*Y34040*X27440Y34068*X27406Y34095*X27372Y34109*X30515Y38141D2*X30528Y38175D1*X30542Y38192*X30583Y38209*X30624*X30665Y38192*X30692Y38158*X30706Y38107*X30720Y38074*X30706Y38023*X30678Y37989*X30638Y37972*X30597*X30556Y37989*X30542Y38006*X30556Y37854*X30692*X30297Y38023D2*X30392Y38209D1*X30201Y38023D2*X30324D1*X30365Y38006*X30378Y37989*X30392Y37956*Y37922*X30378Y37888*X30365Y37871*X30324Y37854*X30201*Y38209*X29570Y37659D2*Y37304D1*X29528Y37355*X29501Y37372*X29378Y37659D2*Y37304D1*X29338Y37355*X29310Y37372*X29188Y37574D2*X29174Y37608D1*X29147Y37642*X29120Y37659*X29065*X29038Y37642*X29010Y37608*X28997Y37574*X28983Y37524*Y37439*X28997Y37389*X29010Y37355*X29038Y37321*X29065Y37304*X29120*X29147Y37321*X29174Y37355*X29188Y37389*X27556Y39454D2*X27202D1*X27320Y39522D2*Y39318D1*X27556Y39454*X27286Y39195D2*X27253Y39181D1*X27219Y39154*X27202Y39127*Y39072*X27219Y39045*X27253Y39018*X27286Y39004*X27337Y38990*X27422*X27472Y39004*X27506Y39018*X27540Y39045*X27556Y39072*Y39127*X27540Y39154*X27506Y39181*X27472Y39195*X24560Y36204D2*X24588D1*X24628Y36221*X24656Y36272*X24670Y36356*Y36407*X24656Y36491*X24628Y36542*X24588Y36559*X24560*X24520Y36542*X24492Y36491*X24478Y36407*Y36356*X24492Y36272*X24520Y36221*X24560Y36204*X24356Y36559D2*Y36204D1*X24315Y36255*X24288Y36272*X24165Y36474D2*X24151Y36508D1*X24124Y36542*X24097Y36559*X24042*X24015Y36542*X23988Y36508*X23974Y36474*X23960Y36424*Y36339*X23974Y36289*X23988Y36255*X24015Y36221*X24042Y36204*X24097*X24124Y36221*X24151Y36255*X24165Y36289*X25238Y31591D2*Y31782D1*X24884Y31646*Y31469D2*X25238D1*X25188Y31428*X25171Y31400*X25070Y31182D2*X24884Y31278D1*X25070Y31087D2*Y31210D1*X25086Y31250*X25103Y31264*X25137Y31278*X25171*X25205Y31264*X25222Y31250*X25238Y31210*Y31087*X24884*X25956Y31704D2*X25602D1*X25720Y31772D2*Y31568D1*X25956Y31704*X25670Y31254D2*X25636Y31268D1*X25619Y31281*X25602Y31322*Y31363*X25619Y31404*X25653Y31431*X25703Y31445*X25737*X25788Y31431*X25805Y31418*X25822Y31390*Y31350*X25956Y31431*Y31281*X25686Y31131D2*X25653Y31118D1*X25619Y31090*X25602Y31063*Y31009*X25619Y30981*X25653Y30954*X25686Y30940*X25737Y30927*X25822*X25872Y30940*X25906Y30954*X25940Y30981*X25956Y31009*Y31063*X25940Y31090*X25906Y31118*X25872Y31131*X28499Y48036D2*X28513Y48069D1*X28526Y48086*X28567Y48103*X28608*X28649Y48086*X28676Y48053*X28690Y48002*Y47968*X28676Y47918*X28663Y47901*X28636Y47884*X28595*X28676Y47749*X28526*X28376Y48103D2*Y47749D1*X28336Y47799*X28308Y47816*X28090Y47918D2*X28186Y48103D1*X27995Y47918D2*X28117D1*X28158Y47901*X28172Y47884*X28186Y47850*Y47816*X28172Y47783*X28158Y47766*X28117Y47749*X27995*Y48103*X28470Y41568D2*X28436Y41581D1*X28419Y41595*X28402Y41636*Y41677*X28419Y41718*X28453Y41745*X28503Y41759*X28537Y41772*X28588Y41759*X28622Y41731*X28638Y41690*Y41650*X28622Y41609*X28605Y41595*X28756Y41609*Y41745*X28402Y41445D2*Y41281D1*X28756*X23706Y39963D2*Y39990D1*X23690Y40031*X23639Y40059*X23555Y40072*X23504*X23420Y40059*X23369Y40031*X23352Y39990*Y39963*X23369Y39922*X23420Y39895*X23504Y39881*X23555*X23639Y39895*X23690Y39922*X23706Y39963*X23352Y39759D2*X23706D1*X23656Y39718*X23639Y39690*X23352Y39568D2*Y39404D1*X23706*X29202Y41822D2*X29556D1*X29506Y41781*X29489Y41754*X29202Y41631D2*X29556D1*X29506Y41590*X29489Y41563*X29202Y41440D2*Y41277D1*X29556*X26953Y40309D2*X26919Y40322D1*X26902Y40363*Y40390*X26919Y40431*X26970Y40459*X27054Y40472*X27138*X27206Y40459*X27240Y40431*X27256Y40390*Y40377*X27240Y40336*X27206Y40309*X27155Y40295*X27138*X27088Y40309*X27054Y40336*X27037Y40377*Y40390*X27054Y40431*X27088Y40459*X27138Y40472*X26902Y40172D2*Y40009D1*X27256*X28120Y31131D2*X28086Y31145D1*X28069Y31159*X28052Y31200*Y31240*X28069Y31281*X28103Y31309*X28153Y31322*X28187*X28238Y31309*X28255Y31295*X28272Y31268*Y31227*X28406Y31309*Y31159*X28052Y31009D2*X28406D1*X28356Y30968*X28339Y30940*X28052Y30818D2*Y30654D1*X28406*X30252Y41573D2*X30218Y41587D1*X30201Y41600*X30184Y41641*Y41682*X30201Y41723*X30235Y41750*X30285Y41764*X30319*X30370Y41750*X30386Y41737*X30403Y41710*Y41669*X30538Y41750*Y41600*X30184Y41450D2*Y41287D1*X30538*X30260Y31180D2*X29906D1*X30024Y31248D2*Y31043D1*X30260Y31180*X29906Y30920D2*Y30757D1*X30260*X26970Y24145D2*X27021Y24159D1*X27055Y24186*X27072Y24227*Y24240*X27055Y24281*X27021Y24309*X26970Y24322*X26953*X26903Y24309*X26869Y24281*X26852Y24240*Y24227*X26869Y24186*X26903Y24159*X26970Y24145*X27055*X27139Y24159*X27190Y24186*X27206Y24227*Y24254*X27190Y24295*X27156Y24309*X26920Y23831D2*X26886Y23845D1*X26869Y23859*X26852Y23900*Y23940*X26869Y23981*X26903Y24009*X26953Y24022*X26987*X27038Y24009*X27055Y23995*X27072Y23968*Y23927*X27206Y24009*Y23859*X26936Y23709D2*X26903Y23695D1*X26869Y23668*X26852Y23640*Y23586*X26869Y23559*X26903Y23531*X26936Y23518*X26987Y23504*X27072*X27122Y23518*X27156Y23531*X27190Y23559*X27206Y23586*Y23640*X27190Y23668*X27156Y23695*X27122Y23709*X28703Y28277D2*X28669Y28290D1*X28652Y28331*Y28359*X28669Y28400*X28720Y28427*X28804Y28440*X28889*X28956Y28427*X28990Y28400*X29007Y28359*Y28345*X28990Y28304*X28956Y28277*X28906Y28263*X28889*X28838Y28277*X28804Y28304*X28787Y28345*Y28359*X28804Y28400*X28838Y28427*X28889Y28440*X28720Y27950D2*X28686Y27963D1*X28669Y27977*X28652Y28018*Y28059*X28669Y28100*X28703Y28127*X28754Y28140*X28787*X28838Y28127*X28855Y28113*X28872Y28086*Y28045*X29007Y28127*Y27977*X28737Y27827D2*X28703Y27813D1*X28669Y27786*X28652Y27759*Y27704*X28669Y27677*X28703Y27650*X28737Y27636*X28787Y27622*X28872*X28922Y27636*X28956Y27650*X28990Y27677*X29007Y27704*Y27759*X28990Y27786*X28956Y27813*X28922Y27827*X29156Y25331D2*Y25522D1*X28802Y25386*X28988Y25113D2*X28802Y25209D1*X28988Y25018D2*Y25140D1*X29005Y25181*X29022Y25195*X29055Y25209*X29089*X29123Y25195*X29140Y25181*X29156Y25140*Y25018*X28802*X29970Y25295D2*X30021Y25309D1*X30055Y25336*X30072Y25377*Y25390*X30055Y25431*X30021Y25459*X29970Y25472*X29953*X29903Y25459*X29869Y25431*X29852Y25390*Y25377*X29869Y25336*X29903Y25309*X29970Y25295*X30055*X30139Y25309*X30190Y25336*X30206Y25377*Y25404*X30190Y25445*X30156Y25459*X30038Y25077D2*X29852Y25172D1*X30038Y24981D2*Y25104D1*X30055Y25145*X30072Y25159*X30105Y25172*X30139*X30173Y25159*X30190Y25145*X30206Y25104*Y24981*X29852*X30184Y23782D2*Y23591D1*X30353Y23728*X30403Y23755*X30437Y23769*X30471*X30505Y23755*X30522Y23741*X30538Y23714*Y23660*X30522Y23632*X30505Y23619*X30471Y23605*X30454*X30184Y23469D2*X30538D1*X30488Y23428*X30471Y23400*X30370Y23182D2*X30184Y23278D1*X30370Y23087D2*Y23210D1*X30386Y23250*X30403Y23264*X30437Y23278*X30471*X30505Y23264*X30522Y23250*X30538Y23210*Y23087*X30184*X30378Y36141D2*X30392Y36175D1*X30406Y36192*X30447Y36209*X30488*X30528Y36192*X30556Y36158*X30570Y36107*Y36074*X30556Y36023*X30542Y36006*X30515Y35989*X30474*X30556Y35854*X30406*X30160Y36023D2*X30256Y36209D1*X30065Y36023D2*X30188D1*X30228Y36006*X30242Y35989*X30256Y35956*Y35922*X30242Y35888*X30228Y35871*X30188Y35854*X30065*Y36209*X27328Y46004D2*X27520D1*X27383Y46359*X27138Y46004D2*Y46359D1*X27206Y46241D2*X27001D1*X27138Y46004*X26878Y46274D2*X26865Y46308D1*X26838Y46342*X26810Y46359*X26756*X26728Y46342*X26701Y46308*X26688Y46274*X26674Y46224*Y46139*X26688Y46089*X26701Y46055*X26728Y46021*X26756Y46004*X26810*X26838Y46021*X26865Y46055*X26878Y46089*X27138Y36391D2*X27110D1*X27070Y36374*X27042Y36324*X27028Y36239*Y36189*X27042Y36104*X27070Y36054*X27110Y36037*X27138*X27178Y36054*X27206Y36104*X27220Y36189*Y36239*X27206Y36324*X27178Y36374*X27138Y36391*X27547Y36104D2*X27533Y36071D1*X27520Y36054*X27478Y36037*X27438*X27397Y36054*X27370Y36087*X27356Y36138*X27342Y36172*X27356Y36222*X27383Y36256*X27424Y36273*X27465*X27506Y36256*X27520Y36239*X27506Y36391*X27370*X27670Y36121D2*X27683Y36087D1*X27710Y36054*X27738Y36037*X27792*X27820Y36054*X27847Y36087*X27860Y36121*X27874Y36172*Y36256*X27860Y36307*X27847Y36341*X27820Y36374*X27792Y36391*X27738*X27710Y36374*X27683Y36341*X27670Y36307*X25084Y28510D2*X25438D1*X25388Y28469*X25371Y28441*X25152Y28114D2*X25118Y28128D1*X25101Y28141*X25084Y28182*Y28223*X25101Y28264*X25135Y28291*X25185Y28305*X25219Y28319*X25270Y28305*X25303Y28278*X25320Y28237*Y28196*X25303Y28155*X25286Y28141*X25438Y28155*Y28291*X25168Y27991D2*X25135Y27978D1*X25101Y27950*X25084Y27923*Y27869*X25101Y27841*X25135Y27814*X25168Y27800*X25219Y27787*X25303*X25354Y27800*X25388Y27814*X25422Y27841*X25438Y27869*Y27923*X25422Y27950*X25388Y27978*X25354Y27991*X26688Y33410D2*Y33464D1*X26672Y33505*X26638Y33519*X26604*X26570Y33505*X26553Y33478*X26536Y33423*X26520Y33382*X26486Y33355*X26452Y33341*X26402*X26368Y33355*X26351Y33369*X26334Y33410*Y33464*X26351Y33505*X26368Y33519*X26402Y33532*X26452*X26486Y33519*X26520Y33491*X26536Y33450*X26553Y33396*X26570Y33369*X26604Y33355*X26638*X26672Y33369*X26688Y33410*Y33150D2*X26334D1*X26452Y33219D2*Y33014D1*X26688Y33150*X26418Y32891D2*X26385Y32878D1*X26351Y32850*X26334Y32823*Y32769*X26351Y32741*X26385Y32714*X26418Y32700*X26469Y32687*X26553*X26604Y32700*X26638Y32714*X26672Y32741*X26688Y32769*Y32823*X26672Y32850*X26638Y32878*X26604Y32891*X30406Y49913D2*Y49940D1*X30390Y49981*X30339Y50009*X30255Y50022*X30204*X30120Y50009*X30069Y49981*X30052Y49940*Y49913*X30069Y49872*X30120Y49845*X30204Y49831*X30255*X30339Y49845*X30390Y49872*X30406Y49913*Y49640D2*X30052D1*X30170Y49709D2*Y49504D1*X30406Y49640*X30136Y49381D2*X30103Y49368D1*X30069Y49340*X30052Y49313*Y49259*X30069Y49231*X30103Y49204*X30136Y49190*X30187Y49177*X30272*X30322Y49190*X30356Y49204*X30390Y49231*X30406Y49259*Y49313*X30390Y49340*X30356Y49368*X30322Y49381*X28884Y31355D2*Y31164D1*X29053Y31300*X29103Y31328*X29137Y31341*X29171*X29205Y31328*X29222Y31314*X29238Y31287*Y31232*X29222Y31205*X29205Y31191*X29171Y31178*X29154*X28884Y31041D2*X29238D1*X29188Y31000*X29171Y30973*X28884Y30850D2*Y30687D1*X29238*X26752Y28214D2*X26803Y28228D1*X26836Y28255*X26853Y28296*Y28310*X26836Y28350*X26803Y28378*X26752Y28391*X26735*X26685Y28378*X26651Y28350*X26634Y28310*Y28296*X26651Y28255*X26685Y28228*X26752Y28214*X26836*X26921Y28228*X26972Y28255*X26988Y28296*Y28323*X26972Y28364*X26938Y28378*X26634Y28091D2*X26988D1*X26938Y28050*X26921Y28023*X26634Y27900D2*Y27737D1*X26988*X29047Y23004D2*X29101D1*X29142Y23021*X29156Y23055*Y23089*X29142Y23122*X29115Y23139*X29060Y23156*X29020Y23173*X28992Y23207*X28978Y23241*Y23291*X28992Y23325*X29006Y23342*X29047Y23359*X29101*X29142Y23342*X29156Y23325*X29170Y23291*Y23241*X29156Y23207*X29128Y23173*X29088Y23156*X29033Y23139*X29006Y23122*X28992Y23089*Y23055*X29006Y23021*X29047Y23004*X28665Y23291D2*X28678Y23325D1*X28692Y23342*X28733Y23359*X28774*X28815Y23342*X28842Y23308*X28856Y23257*Y23224*X28842Y23173*X28828Y23156*X28801Y23139*X28760*X28842Y23004*X28692*X28542Y23274D2*X28528Y23308D1*X28501Y23342*X28474Y23359*X28420*X28392Y23342*X28365Y23308*X28351Y23274*X28338Y23224*Y23139*X28351Y23089*X28365Y23055*X28392Y23021*X28420Y23004*X28474*X28501Y23021*X28528Y23055*X28542Y23089*X27528Y21604D2*X27720D1*X27583Y21959*X27215Y21891D2*X27228Y21925D1*X27242Y21942*X27283Y21959*X27324*X27365Y21942*X27392Y21908*X27406Y21857*Y21824*X27392Y21773*X27378Y21756*X27351Y21739*X27310*X27392Y21604*X27242*X27092Y21874D2*X27078Y21908D1*X27051Y21942*X27024Y21959*X26970*X26942Y21942*X26915Y21908*X26901Y21874*X26888Y21824*Y21739*X26901Y21689*X26915Y21655*X26942Y21621*X26970Y21604*X27024*X27051Y21621*X27078Y21655*X27092Y21689*X28635Y46141D2*X28601Y46155D1*X28584Y46196*Y46223*X28601Y46264*X28652Y46291*X28736Y46305*X28820*X28888Y46291*X28922Y46264*X28938Y46223*Y46210*X28922Y46169*X28888Y46141*X28837Y46128*X28820*X28770Y46141*X28736Y46169*X28719Y46210*Y46223*X28736Y46264*X28770Y46291*X28820Y46305*X28584Y46005D2*Y45814D1*X28753Y45950*X28803Y45978*X28837Y45991*X28871*X28905Y45978*X28922Y45964*X28938Y45937*Y45882*X28922Y45855*X28905Y45841*X28871Y45828*X28854*X28668Y45691D2*X28635Y45678D1*X28601Y45650*X28584Y45623*Y45569*X28601Y45541*X28635Y45514*X28668Y45500*X28719Y45487*X28803*X28854Y45500*X28888Y45514*X28922Y45541*X28938Y45569*Y45623*X28922Y45650*X28888Y45678*X28854Y45691*X30338Y46196D2*Y46250D1*X30322Y46291*X30288Y46305*X30254*X30220Y46291*X30203Y46264*X30186Y46210*X30170Y46169*X30136Y46141*X30102Y46128*X30052*X30018Y46141*X30001Y46155*X29984Y46196*Y46250*X30001Y46291*X30018Y46305*X30052Y46319*X30102*X30136Y46305*X30170Y46278*X30186Y46237*X30203Y46182*X30220Y46155*X30254Y46141*X30288*X30322Y46155*X30338Y46196*X29984Y46005D2*Y45814D1*X30153Y45950*X30203Y45978*X30237Y45991*X30271*X30305Y45978*X30322Y45964*X30338Y45937*Y45882*X30322Y45855*X30305Y45841*X30271Y45828*X30254*X30068Y45691D2*X30035Y45678D1*X30001Y45650*X29984Y45623*Y45569*X30001Y45541*X30035Y45514*X30068Y45500*X30119Y45487*X30203*X30254Y45500*X30288Y45514*X30322Y45541*X30338Y45569*Y45623*X30322Y45650*X30288Y45678*X30254Y45691*X23352Y45172D2*X23706D1*X23656Y45131*X23639Y45104*X23706Y44981D2*X23352D1*X23706Y44790*X23352*X23538Y44572D2*X23352Y44668D1*X23538Y44477D2*Y44600D1*X23555Y44640*X23572Y44654*X23605Y44668*X23639*X23673Y44654*X23690Y44640*X23706Y44600*Y44477*X23352*X38756Y30329D2*X38402D1*Y30206*X38418Y30165*X38435Y30152*X38469Y30138*X38503*X38536Y30152*X38553Y30165*X38570Y30206*Y30329*Y30233D2*X38756Y30138D1*Y30015D2*X38402D1*X38756Y29824*X38402*X38469Y29702D2*X38452Y29674D1*X38402Y29633*X38756*X31854Y29114D2*X31820Y29128D1*X31786Y29155*X31770Y29182*Y29237*X31786Y29264*X31820Y29292*X31854Y29305*X31905Y29319*X31989*X32040Y29305*X32073Y29292*X32107Y29264*X32124Y29237*Y29182*X32107Y29155*X32073Y29128*X32040Y29114*X31854Y28978D2*X31837D1*X31803Y28964*X31786Y28951*X31770Y28923*Y28869*X31786Y28842*X31803Y28828*X31837Y28814*X31871*X31905Y28828*X31955Y28855*X32124Y28992*Y28801*X31770Y28610D2*X31786Y28651D1*X31820Y28664*X31854*X31888Y28651*X31905Y28623*X31922Y28569*X31938Y28528*X31972Y28501*X32006Y28487*X32056*X32090Y28501*X32107Y28514*X32124Y28555*Y28610*X32107Y28651*X32090Y28664*X32056Y28678*X32006*X31972Y28664*X31938Y28637*X31922Y28596*X31905Y28542*X31888Y28514*X31854Y28501*X31820*X31786Y28514*X31770Y28555*Y28610*X33254Y29114D2*X33220Y29128D1*X33186Y29155*X33170Y29182*Y29237*X33186Y29264*X33220Y29292*X33254Y29305*X33305Y29319*X33389*X33440Y29305*X33473Y29292*X33507Y29264*X33524Y29237*Y29182*X33507Y29155*X33473Y29128*X33440Y29114*X33254Y28978D2*X33237D1*X33203Y28964*X33186Y28951*X33170Y28923*Y28869*X33186Y28842*X33203Y28828*X33237Y28814*X33271*X33305Y28828*X33355Y28855*X33524Y28992*Y28801*X33288Y28501D2*X33338Y28514D1*X33372Y28542*X33389Y28582*Y28596*X33372Y28637*X33338Y28664*X33288Y28678*X33271*X33220Y28664*X33186Y28637*X33170Y28596*Y28582*X33186Y28542*X33220Y28514*X33288Y28501*X33372*X33456Y28514*X33507Y28542*X33524Y28582*Y28610*X33507Y28651*X33473Y28664*X35016Y53117D2*X35030Y53151D1*X35057Y53184*X35084Y53201*X35138*X35166Y53184*X35193Y53151*X35207Y53117*X35220Y53066*Y52982*X35207Y52931*X35193Y52898*X35166Y52864*X35138Y52847*X35084*X35057Y52864*X35030Y52898*X35016Y52931*X34866Y53201D2*X34716D1*X34798Y53066*X34757*X34730Y53049*X34716Y53032*X34702Y52982*Y52948*X34716Y52898*X34743Y52864*X34784Y52847*X34825*X34866Y52864*X34880Y52881*X34893Y52914*X34525Y52847D2*X34388Y53201D1*X34580*X33566Y51717D2*X33580Y51751D1*X33607Y51784*X33634Y51801*X33688*X33716Y51784*X33743Y51751*X33757Y51717*X33770Y51666*Y51582*X33757Y51531*X33743Y51498*X33716Y51464*X33688Y51447*X33634*X33607Y51464*X33580Y51498*X33566Y51531*X33416Y51801D2*X33266D1*X33348Y51666*X33307*X33280Y51649*X33266Y51632*X33252Y51582*Y51548*X33266Y51498*X33293Y51464*X33334Y51447*X33375*X33416Y51464*X33430Y51481*X33443Y51514*X33061Y51801D2*X33102Y51784D1*X33116Y51751*Y51717*X33102Y51683*X33075Y51666*X33020Y51649*X32980Y51632*X32952Y51599*X32938Y51565*Y51514*X32952Y51481*X32966Y51464*X33007Y51447*X33061*X33102Y51464*X33116Y51481*X33130Y51514*Y51565*X33116Y51599*X33088Y51632*X33048Y51649*X32993Y51666*X32966Y51683*X32952Y51717*Y51751*X32966Y51784*X33007Y51801*X33061*X35120Y47069D2*X35474D1*Y46905*X35187Y46782D2*X35170Y46755D1*X35120Y46714*X35474*X35170Y46428D2*X35136Y46442D1*X35120Y46482*Y46510*X35136Y46551*X35187Y46578*X35272Y46592*X35356*X35423Y46578*X35457Y46551*X35474Y46510*Y46496*X35457Y46455*X35423Y46428*X35373Y46414*X35356*X35305Y46428*X35272Y46455*X35255Y46496*Y46510*X35272Y46551*X35305Y46578*X35356Y46592*X32870Y44119D2*X33224D1*Y43955*X32937Y43832D2*X32920Y43805D1*X32870Y43764*X33224*X32954Y43628D2*X32937D1*X32903Y43614*X32886Y43601*X32870Y43573*Y43519*X32886Y43492*X32903Y43478*X32937Y43464*X32971*X33005Y43478*X33055Y43505*X33224Y43642*Y43451*X31786Y25424D2*X31752Y25438D1*X31718Y25465*X31702Y25492*Y25547*X31718Y25574*X31752Y25602*X31786Y25615*X31836Y25629*X31921*X31972Y25615*X32005Y25602*X32039Y25574*X32056Y25547*Y25492*X32039Y25465*X32005Y25438*X31972Y25424*X31702Y25165D2*X31938Y25302D1*Y25097*X31702Y25165D2*X32056D1*X31702Y24892D2*X31718Y24933D1*X31769Y24961*X31853Y24974*X31904*X31988Y24961*X32039Y24933*X32056Y24892*Y24865*X32039Y24824*X31988Y24797*X31904Y24783*X31853*X31769Y24797*X31718Y24824*X31702Y24865*Y24892*X35504Y41914D2*X35470Y41928D1*X35436Y41955*X35420Y41982*Y42037*X35436Y42064*X35470Y42092*X35504Y42105*X35555Y42119*X35639*X35690Y42105*X35723Y42092*X35757Y42064*X35774Y42037*Y41982*X35757Y41955*X35723Y41928*X35690Y41914*X35420Y41655D2*X35656Y41792D1*Y41587*X35420Y41655D2*X35774D1*X35420Y41396D2*X35436Y41437D1*X35470Y41451*X35504*X35538Y41437*X35555Y41410*X35572Y41355*X35588Y41314*X35622Y41287*X35656Y41273*X35706*X35740Y41287*X35757Y41301*X35774Y41342*Y41396*X35757Y41437*X35740Y41451*X35706Y41464*X35656*X35622Y41451*X35588Y41423*X35572Y41382*X35555Y41328*X35538Y41301*X35504Y41287*X35470*X35436Y41301*X35420Y41342*Y41396*X36754Y46814D2*X36720Y46828D1*X36686Y46855*X36670Y46882*Y46937*X36686Y46964*X36720Y46992*X36754Y47005*X36805Y47019*X36889*X36940Y47005*X36973Y46992*X37007Y46964*X37024Y46937*Y46882*X37007Y46855*X36973Y46828*X36940Y46814*X36670Y46514D2*Y46651D1*X36822Y46664*X36805Y46651*X36788Y46610*Y46569*X36805Y46528*X36838Y46501*X36889Y46487*X36923Y46501*X36973Y46514*X37007Y46542*X37024Y46582*Y46623*X37007Y46664*X36990Y46678*X36956Y46692*X36737Y46364D2*X36720Y46337D1*X36670Y46296*X37024*X34438Y38499D2*X34425Y38465D1*X34398Y38431*X34370Y38414*X34316*X34288Y38431*X34261Y38465*X34248Y38499*X34234Y38549*Y38634*X34248Y38684*X34261Y38718*X34288Y38752*X34316Y38769*X34370*X34398Y38752*X34425Y38718*X34438Y38684*X34738Y38414D2*X34602D1*X34588Y38566*X34602Y38549*X34643Y38532*X34684*X34725Y38549*X34752Y38583*X34766Y38634*X34752Y38668*X34738Y38718*X34711Y38752*X34670Y38769*X34630*X34588Y38752*X34575Y38735*X34561Y38701*X34970Y38414D2*X34930Y38431D1*X34902Y38482*X34888Y38566*Y38617*X34902Y38701*X34930Y38752*X34970Y38769*X34998*X35038Y38752*X35066Y38701*X35080Y38617*Y38566*X35066Y38482*X35038Y38431*X34998Y38414*X34970*X35230Y28717D2*X35243Y28751D1*X35270Y28784*X35298Y28801*X35352*X35380Y28784*X35407Y28751*X35420Y28717*X35434Y28666*Y28582*X35420Y28531*X35407Y28498*X35380Y28464*X35352Y28447*X35298*X35270Y28464*X35243Y28498*X35230Y28531*X34970Y28801D2*X35107Y28565D1*X34902*X34970Y28801D2*Y28447D1*X34725D2*X34588Y28801D1*X34780*X32043Y38597D2*Y38951D1*X31920*X31880Y38934*X31866Y38918*X31852Y38884*Y38850*X31866Y38816*X31880Y38799*X31920Y38782*X32043*X31948D2*X31852Y38597D1*X31702Y38951D2*X31552D1*X31634Y38816*X31593*X31566Y38799*X31552Y38782*X31538Y38732*Y38698*X31552Y38648*X31580Y38614*X31620Y38597*X31661*X31702Y38614*X31716Y38631*X31730Y38664*X31924Y51719D2*X31570D1*Y51596*X31586Y51555*X31603Y51542*X31637Y51528*X31671*X31705Y51542*X31722Y51555*X31738Y51596*Y51719*Y51623D2*X31924Y51528D1*X31637Y51405D2*X31620Y51378D1*X31570Y51337*X31924*X31654Y51201D2*X31637D1*X31603Y51187*X31586Y51173*X31570Y51146*Y51092*X31586Y51064*X31603Y51051*X31637Y51037*X31671*X31705Y51051*X31755Y51078*X31924Y51214*Y51023*X32256Y49824D2*X31902D1*Y49702*X31918Y49661*X31935Y49647*X31969Y49633*X32003*X32036Y49647*X32053Y49661*X32070Y49702*Y49824*Y49729D2*X32256Y49633D1*X31952Y49347D2*X31918Y49361D1*X31902Y49402*Y49429*X31918Y49470*X31969Y49497*X32053Y49511*X32138*X32205Y49497*X32239Y49470*X32256Y49429*Y49415*X32239Y49374*X32205Y49347*X32155Y49333*X32138*X32087Y49347*X32053Y49374*X32036Y49415*Y49429*X32053Y49470*X32087Y49497*X32138Y49511*X33306Y49788D2*X32952D1*Y49665*X32968Y49624*X32985Y49611*X33019Y49597*X33053*X33086Y49611*X33103Y49624*X33120Y49665*Y49788*Y49692D2*X33306Y49597D1*Y49420D2*X32952Y49283D1*Y49474*X33186Y46979D2*X33152Y46992D1*X33118Y47020*X33101Y47047*Y47102*X33118Y47129*X33152Y47156*X33186Y47170*X33236Y47183*X33321*X33371Y47170*X33405Y47156*X33439Y47129*X33456Y47102*Y47047*X33439Y47020*X33405Y46992*X33371Y46979*X33101Y46829D2*Y46679D1*X33236Y46761*Y46720*X33253Y46692*X33270Y46679*X33321Y46665*X33354*X33405Y46679*X33439Y46706*X33456Y46747*Y46788*X33439Y46829*X33422Y46842*X33388Y46856*X33219Y46365D2*X33270Y46379D1*X33304Y46406*X33321Y46447*Y46461*X33304Y46502*X33270Y46529*X33219Y46542*X33202*X33152Y46529*X33118Y46502*X33101Y46461*Y46447*X33118Y46406*X33152Y46379*X33219Y46365*X33304*X33388Y46379*X33439Y46406*X33456Y46447*Y46474*X33439Y46515*X33405Y46529*X34986Y51097D2*X34952Y51111D1*X34918Y51138*X34902Y51165*Y51220*X34918Y51247*X34952Y51274*X34986Y51288*X35036Y51302*X35121*X35172Y51288*X35205Y51274*X35239Y51247*X35256Y51220*Y51165*X35239Y51138*X35205Y51111*X35172Y51097*X34902Y50947D2*Y50797D1*X35036Y50879*Y50838*X35053Y50811*X35070Y50797*X35121Y50783*X35155*X35205Y50797*X35239Y50824*X35256Y50865*Y50906*X35239Y50947*X35222Y50961*X35188Y50974*X34952Y50497D2*X34918Y50511D1*X34902Y50552*Y50579*X34918Y50620*X34969Y50647*X35053Y50661*X35138*X35205Y50647*X35239Y50620*X35256Y50579*Y50565*X35239Y50524*X35205Y50497*X35155Y50483*X35138*X35087Y50497*X35053Y50524*X35036Y50565*Y50579*X35053Y50620*X35087Y50647*X35138Y50661*X31848Y44049D2*X32202D1*Y43885*X31848Y43626D2*X32084Y43762D1*Y43558*X31848Y43626D2*X32202D1*X31570Y33519D2*X31924D1*Y33355*X31570Y33205D2*Y33055D1*X31705Y33137*Y33096*X31722Y33069*X31738Y33055*X31789Y33042*X31823*X31873Y33055*X31907Y33082*X31924Y33123*Y33164*X31907Y33205*X31890Y33219*X31856Y33232*X33702Y44152D2*X34056D1*Y43988*X33769Y43865D2*X33752Y43838D1*X33702Y43797*X34056*X33702Y43647D2*Y43497D1*X33836Y43579*Y43538*X33853Y43511*X33870Y43497*X33921Y43483*X33955*X34005Y43497*X34039Y43524*X34056Y43565*Y43606*X34039Y43647*X34022Y43661*X33988Y43674*X34852Y34797D2*X35206D1*Y34633*X34970Y34333D2*X35020Y34347D1*X35054Y34374*X35071Y34415*Y34429*X35054Y34470*X35020Y34497*X34970Y34511*X34953*X34902Y34497*X34868Y34470*X34852Y34429*Y34415*X34868Y34374*X34902Y34347*X34970Y34333*X35054*X35138Y34347*X35189Y34374*X35206Y34415*Y34442*X35189Y34483*X35155Y34497*X32552Y33529D2*X32906D1*Y33365*X32619Y33242D2*X32602Y33215D1*X32552Y33174*X32906*X32619Y33052D2*X32602Y33024D1*X32552Y32983*X32906*X38402Y35402D2*X38756D1*Y35238*X38469Y35115D2*X38452Y35088D1*X38402Y35047*X38756*X38402Y34842D2*X38418Y34883D1*X38469Y34911*X38553Y34924*X38604*X38688Y34911*X38739Y34883*X38756Y34842*Y34815*X38739Y34774*X38688Y34747*X38604Y34733*X38553*X38469Y34747*X38418Y34774*X38402Y34815*Y34842*X33352Y33524D2*X33706D1*Y33361*X33352Y33061D2*Y33197D1*X33503Y33211*X33486Y33197*X33470Y33156*Y33115*X33486Y33074*X33520Y33047*X33571Y33033*X33605Y33047*X33655Y33061*X33689Y33088*X33706Y33129*Y33170*X33689Y33211*X33672Y33224*X33638Y33238*X34113Y26702D2*Y27057D1*X33991*X33950Y27040*X33936Y27023*X33922Y26989*Y26956*X33936Y26922*X33950Y26905*X33991Y26888*X34113*X34018D2*X33922Y26702D1*X33800Y26989D2*X33772Y27006D1*X33732Y27057*Y26702*X33582Y27057D2*X33432D1*X33513Y26922*X33472*X33445Y26905*X33432Y26888*X33418Y26837*Y26804*X33432Y26753*X33459Y26719*X33500Y26702*X33541*X33582Y26719*X33595Y26736*X33609Y26770*X36236Y43674D2*X36202Y43688D1*X36168Y43715*X36152Y43742*Y43797*X36168Y43824*X36202Y43852*X36236Y43865*X36286Y43879*X36371*X36422Y43865*X36455Y43852*X36489Y43824*X36506Y43797*Y43742*X36489Y43715*X36455Y43688*X36422Y43674*X36152Y43524D2*Y43374D1*X36286Y43456*Y43415*X36303Y43388*X36320Y43374*X36371Y43361*X36405*X36455Y43374*X36489Y43402*X36506Y43442*Y43483*X36489Y43524*X36472Y43538*X36438Y43552*X36152Y43102D2*X36388Y43238D1*Y43033*X36152Y43102D2*X36506D1*X37224Y43719D2*X36870D1*Y43596*X36886Y43555*X36903Y43542*X36937Y43528*X36971*X37005Y43542*X37022Y43555*X37038Y43596*Y43719*Y43623D2*X37224Y43528D1*X36937Y43405D2*X36920Y43378D1*X36870Y43337*X37224*Y43160D2*X36870Y43023D1*Y43214*X37943Y38517D2*X37957Y38551D1*X37984Y38584*X38011Y38601*X38066*X38093Y38584*X38120Y38551*X38134Y38517*X38148Y38466*Y38382*X38134Y38331*X38120Y38298*X38093Y38264*X38066Y38247*X38011*X37984Y38264*X37957Y38298*X37943Y38331*X37820Y38534D2*X37793Y38551D1*X37752Y38601*Y38247*X37548Y38601D2*X37588Y38584D1*X37616Y38534*X37630Y38449*Y38399*X37616Y38314*X37588Y38264*X37548Y38247*X37520*X37480Y38264*X37452Y38314*X37438Y38399*Y38449*X37452Y38534*X37480Y38584*X37520Y38601*X37548*X34636Y35611D2*X34602Y35624D1*X34568Y35652*X34552Y35679*Y35733*X34568Y35761*X34602Y35788*X34636Y35802*X34686Y35815*X34771*X34822Y35802*X34855Y35788*X34889Y35761*X34906Y35733*Y35679*X34889Y35652*X34855Y35624*X34822Y35611*X34552Y35352D2*X34788Y35488D1*Y35283*X34552Y35352D2*X34906D1*X32920Y37417D2*X32934Y37451D1*X32961Y37484*X32988Y37501*X33043*X33070Y37484*X33098Y37451*X33111Y37417*X33125Y37366*Y37282*X33111Y37231*X33098Y37198*X33070Y37164*X33043Y37147*X32988*X32961Y37164*X32934Y37198*X32920Y37231*X32798Y37434D2*X32770Y37451D1*X32730Y37501*Y37147*X32607Y37434D2*X32580Y37451D1*X32538Y37501*Y37147*X31907Y36597D2*Y36951D1*X31784*X31743Y36934*X31730Y36918*X31716Y36884*Y36850*X31730Y36816*X31743Y36799*X31784Y36783*X31907*X31811D2*X31716Y36597D1*X31416Y36951D2*X31552D1*X31566Y36799*X31552Y36816*X31511Y36833*X31470*X31430Y36816*X31402Y36783*X31388Y36732*X31402Y36698*X31416Y36648*X31443Y36614*X31484Y36597*X31525*X31566Y36614*X31580Y36631*X31593Y36664*X34736Y40697D2*X34702Y40711D1*X34668Y40738*X34652Y40765*Y40820*X34668Y40847*X34702Y40874*X34736Y40888*X34786Y40902*X34871*X34922Y40888*X34955Y40874*X34989Y40847*X35006Y40820*Y40765*X34989Y40738*X34955Y40711*X34922Y40697*X34652Y40547D2*Y40397D1*X34786Y40479*Y40438*X34803Y40411*X34820Y40397*X34871Y40383*X34905*X34955Y40397*X34989Y40424*X35006Y40465*Y40506*X34989Y40547*X34972Y40561*X34938Y40574*X36688Y39717D2*X36702Y39751D1*X36730Y39784*X36757Y39801*X36811*X36838Y39784*X36866Y39751*X36880Y39717*X36893Y39666*Y39582*X36880Y39531*X36866Y39498*X36838Y39464*X36811Y39447*X36757*X36730Y39464*X36702Y39498*X36688Y39531*X36388Y39683D2*X36402Y39632D1*X36430Y39599*X36470Y39582*X36484*X36525Y39599*X36552Y39632*X36566Y39683*Y39700*X36552Y39751*X36525Y39784*X36484Y39801*X36470*X36430Y39784*X36402Y39751*X36388Y39683*Y39599*X36402Y39514*X36430Y39464*X36470Y39447*X36498*X36538Y39464*X36552Y39498*X32893Y38667D2*X32907Y38701D1*X32934Y38734*X32961Y38751*X33016*X33043Y38734*X33070Y38701*X33084Y38667*X33098Y38616*Y38532*X33084Y38481*X33070Y38448*X33043Y38414*X33016Y38397*X32961*X32934Y38414*X32907Y38448*X32893Y38481*X32770Y38684D2*X32743Y38701D1*X32702Y38751*Y38397*X32566Y38667D2*Y38684D1*X32552Y38718*X32538Y38734*X32511Y38751*X32457*X32430Y38734*X32416Y38718*X32402Y38684*Y38650*X32416Y38616*X32443Y38566*X32580Y38397*X32388*X33020Y39799D2*X33033Y39833D1*X33060Y39866*X33088Y39883*X33142*X33170Y39866*X33197Y39833*X33210Y39799*X33224Y39748*Y39664*X33210Y39613*X33197Y39579*X33170Y39546*X33142Y39529*X33088*X33060Y39546*X33033Y39579*X33020Y39613*X32733Y39833D2*X32747Y39866D1*X32788Y39883*X32815*X32856Y39866*X32883Y39816*X32897Y39731*Y39647*X32883Y39579*X32856Y39546*X32815Y39529*X32801*X32760Y39546*X32733Y39579*X32720Y39630*Y39647*X32733Y39698*X32760Y39731*X32801Y39748*X32815*X32856Y39731*X32883Y39698*X32897Y39647*X31752Y39867D2*X31766Y39901D1*X31793Y39934*X31820Y39951*X31875*X31902Y39934*X31930Y39901*X31943Y39867*X31957Y39816*Y39732*X31943Y39681*X31930Y39648*X31902Y39614*X31875Y39597*X31820*X31793Y39614*X31766Y39648*X31752Y39681*X31561Y39951D2*X31602Y39934D1*X31616Y39901*Y39867*X31602Y39833*X31575Y39816*X31520Y39799*X31480Y39783*X31452Y39749*X31438Y39715*Y39664*X31452Y39631*X31466Y39614*X31507Y39597*X31561*X31602Y39614*X31616Y39631*X31630Y39664*Y39715*X31616Y39749*X31588Y39783*X31548Y39799*X31493Y39816*X31466Y39833*X31452Y39867*Y39901*X31466Y39934*X31507Y39951*X31561*X37689Y43429D2*X37655Y43442D1*X37622Y43470*X37605Y43497*Y43552*X37622Y43579*X37655Y43606*X37689Y43620*X37740Y43633*X37824*X37875Y43620*X37908Y43606*X37942Y43579*X37959Y43552*Y43497*X37942Y43470*X37908Y43442*X37875Y43429*X37689Y43292D2*X37672D1*X37638Y43279*X37622Y43265*X37605Y43238*Y43183*X37622Y43156*X37638Y43142*X37672Y43129*X37706*X37740Y43142*X37790Y43170*X37959Y43306*Y43115*X34930Y37467D2*X34943Y37501D1*X34970Y37534*X34998Y37551*X35052*X35080Y37534*X35107Y37501*X35120Y37467*X35134Y37416*Y37332*X35120Y37281*X35107Y37248*X35080Y37214*X35052Y37197*X34998*X34970Y37214*X34943Y37248*X34930Y37281*X34807Y37484D2*X34780Y37501D1*X34738Y37551*Y37197*X34620Y30299D2*X34633Y30333D1*X34660Y30366*X34688Y30383*X34742*X34770Y30366*X34797Y30333*X34810Y30299*X34824Y30248*Y30164*X34810Y30113*X34797Y30079*X34770Y30046*X34742Y30029*X34688*X34660Y30046*X34633Y30079*X34620Y30113*X34497Y30316D2*X34470Y30333D1*X34428Y30383*Y30029*X34238Y30383D2*X34278Y30366D1*X34292Y30333*Y30299*X34278Y30265*X34251Y30248*X34197Y30231*X34156Y30214*X34128Y30181*X34115Y30147*Y30096*X34128Y30063*X34142Y30046*X34183Y30029*X34238*X34278Y30046*X34292Y30063*X34306Y30096*Y30147*X34292Y30181*X34265Y30214*X34224Y30231*X34170Y30248*X34142Y30265*X34128Y30299*Y30333*X34142Y30366*X34183Y30383*X34238*X32336Y41338D2*X32302Y41352D1*X32268Y41379*X32252Y41406*Y41461*X32268Y41488*X32302Y41515*X32336Y41529*X32386Y41542*X32471*X32522Y41529*X32555Y41515*X32589Y41488*X32606Y41461*Y41406*X32589Y41379*X32555Y41352*X32522Y41338*X32319Y41215D2*X32302Y41188D1*X32252Y41147*X32606*X32252Y40997D2*Y40847D1*X32386Y40929*Y40888*X32403Y40861*X32420Y40847*X32471Y40833*X32505*X32555Y40847*X32589Y40874*X32606Y40915*Y40956*X32589Y40997*X32572Y41011*X32538Y41024*X37693Y30167D2*X37707Y30201D1*X37734Y30234*X37761Y30251*X37816*X37843Y30234*X37870Y30201*X37884Y30167*X37898Y30116*Y30032*X37884Y29981*X37870Y29948*X37843Y29914*X37816Y29897*X37761*X37734Y29914*X37707Y29948*X37693Y29981*X37570Y30184D2*X37543Y30201D1*X37502Y30251*Y29897*X37325D2*X37188Y30251D1*X37380*X34136Y41102D2*X34102Y41115D1*X34068Y41142*X34052Y41170*Y41224*X34068Y41252*X34102Y41279*X34136Y41292*X34186Y41306*X34271*X34322Y41292*X34355Y41279*X34389Y41252*X34406Y41224*Y41170*X34389Y41142*X34355Y41115*X34322Y41102*X34119Y40979D2*X34102Y40952D1*X34052Y40911*X34406*X34052Y40652D2*X34288Y40788D1*Y40583*X34052Y40652D2*X34406D1*X37730Y31167D2*X37743Y31201D1*X37770Y31234*X37798Y31251*X37852*X37880Y31234*X37907Y31201*X37920Y31167*X37934Y31116*Y31032*X37920Y30981*X37907Y30948*X37880Y30914*X37852Y30897*X37798*X37770Y30914*X37743Y30948*X37730Y30981*X37593Y31167D2*Y31184D1*X37580Y31218*X37566Y31234*X37538Y31251*X37484*X37457Y31234*X37443Y31218*X37430Y31184*Y31150*X37443Y31116*X37470Y31066*X37607Y30897*X37416*X37157Y31251D2*X37293Y31015D1*X37088*X37157Y31251D2*Y30897D1*X37730Y31867D2*X37743Y31901D1*X37770Y31934*X37798Y31951*X37852*X37880Y31934*X37907Y31901*X37920Y31867*X37934Y31816*Y31732*X37920Y31681*X37907Y31648*X37880Y31614*X37852Y31597*X37798*X37770Y31614*X37743Y31648*X37730Y31681*X37593Y31867D2*Y31884D1*X37580Y31918*X37566Y31934*X37538Y31951*X37484*X37457Y31934*X37443Y31918*X37430Y31884*Y31850*X37443Y31816*X37470Y31766*X37607Y31597*X37416*X37116Y31951D2*X37252D1*X37266Y31799*X37252Y31816*X37211Y31833*X37170*X37130Y31816*X37102Y31782*X37088Y31732*X37102Y31698*X37116Y31648*X37143Y31614*X37184Y31597*X37225*X37266Y31614*X37280Y31631*X37293Y31664*X37680Y29517D2*X37693Y29551D1*X37720Y29584*X37748Y29601*X37802*X37830Y29584*X37857Y29551*X37870Y29517*X37884Y29466*Y29382*X37870Y29331*X37857Y29298*X37830Y29264*X37802Y29247*X37748*X37720Y29264*X37693Y29298*X37680Y29331*X37557Y29534D2*X37530Y29551D1*X37488Y29601*Y29247*X37202Y29551D2*X37216Y29584D1*X37257Y29601*X37284*X37325Y29584*X37352Y29534*X37366Y29449*Y29365*X37352Y29298*X37325Y29264*X37284Y29247*X37270*X37230Y29264*X37202Y29298*X37188Y29348*Y29365*X37202Y29416*X37230Y29449*X37270Y29466*X37284*X37325Y29449*X37352Y29416*X37366Y29365*X34620Y29549D2*X34633Y29583D1*X34660Y29616*X34688Y29633*X34742*X34770Y29616*X34797Y29583*X34810Y29549*X34824Y29498*Y29414*X34810Y29363*X34797Y29329*X34770Y29296*X34742Y29279*X34688*X34660Y29296*X34633Y29329*X34620Y29363*X34497Y29566D2*X34470Y29583D1*X34428Y29633*Y29279*X34128Y29515D2*X34142Y29464D1*X34170Y29431*X34210Y29414*X34224*X34265Y29431*X34292Y29464*X34306Y29515*Y29532*X34292Y29583*X34265Y29616*X34224Y29633*X34210*X34170Y29616*X34142Y29583*X34128Y29515*Y29431*X34142Y29346*X34170Y29296*X34210Y29279*X34238*X34278Y29296*X34292Y29329*X34670Y31899D2*X34683Y31933D1*X34710Y31966*X34738Y31983*X34792*X34820Y31966*X34847Y31933*X34860Y31899*X34874Y31848*Y31764*X34860Y31713*X34847Y31679*X34820Y31646*X34792Y31629*X34738*X34710Y31646*X34683Y31679*X34670Y31713*X34533Y31899D2*Y31916D1*X34520Y31949*X34506Y31966*X34478Y31983*X34424*X34397Y31966*X34383Y31949*X34370Y31916*Y31882*X34383Y31848*X34410Y31798*X34547Y31629*X34356*X34070Y31933D2*X34083Y31966D1*X34124Y31983*X34151*X34192Y31966*X34220Y31916*X34233Y31831*Y31747*X34220Y31679*X34192Y31646*X34151Y31629*X34138*X34097Y31646*X34070Y31679*X34056Y31730*Y31747*X34070Y31798*X34097Y31831*X34138Y31848*X34151*X34192Y31831*X34220Y31798*X34233Y31747*X34670Y31199D2*X34683Y31233D1*X34710Y31266*X34738Y31283*X34792*X34820Y31266*X34847Y31233*X34860Y31199*X34874Y31148*Y31064*X34860Y31013*X34847Y30979*X34820Y30946*X34792Y30929*X34738*X34710Y30946*X34683Y30979*X34670Y31013*X34533Y31199D2*Y31216D1*X34520Y31249*X34506Y31266*X34478Y31283*X34424*X34397Y31266*X34383Y31249*X34370Y31216*Y31182*X34383Y31148*X34410Y31098*X34547Y30929*X34356*X34178D2*X34042Y31283D1*X34233*X37743Y33517D2*X37757Y33551D1*X37784Y33584*X37811Y33601*X37866*X37893Y33584*X37920Y33551*X37934Y33517*X37948Y33466*Y33382*X37934Y33331*X37920Y33298*X37893Y33264*X37866Y33247*X37811*X37784Y33264*X37757Y33298*X37743Y33331*X37607Y33517D2*Y33534D1*X37593Y33568*X37580Y33584*X37552Y33601*X37498*X37470Y33584*X37457Y33568*X37443Y33534*Y33500*X37457Y33466*X37484Y33416*X37620Y33247*X37430*X37307Y33534D2*X37280Y33551D1*X37238Y33601*Y33247*X37766Y32817D2*X37780Y32851D1*X37807Y32884*X37834Y32901*X37888*X37916Y32884*X37943Y32851*X37957Y32817*X37970Y32766*Y32682*X37957Y32631*X37943Y32598*X37916Y32564*X37888Y32547*X37834*X37807Y32564*X37780Y32598*X37766Y32631*X37630Y32817D2*Y32834D1*X37616Y32868*X37602Y32884*X37575Y32901*X37520*X37493Y32884*X37480Y32868*X37466Y32834*Y32800*X37480Y32766*X37507Y32716*X37643Y32547*X37452*X37248Y32901D2*X37288Y32884D1*X37316Y32834*X37330Y32749*Y32699*X37316Y32614*X37288Y32564*X37248Y32547*X37220*X37180Y32564*X37152Y32614*X37138Y32699*Y32749*X37152Y32834*X37180Y32884*X37220Y32901*X37248*X34670Y33499D2*X34683Y33533D1*X34710Y33566*X34738Y33583*X34792*X34820Y33566*X34847Y33533*X34860Y33499*X34874Y33448*Y33364*X34860Y33313*X34847Y33279*X34820Y33246*X34792Y33229*X34738*X34710Y33246*X34683Y33279*X34670Y33313*X34533Y33499D2*Y33516D1*X34520Y33549*X34506Y33566*X34478Y33583*X34424*X34397Y33566*X34383Y33549*X34370Y33516*Y33482*X34383Y33448*X34410Y33398*X34547Y33229*X34356*X34220Y33499D2*Y33516D1*X34206Y33549*X34192Y33566*X34165Y33583*X34110*X34083Y33566*X34070Y33549*X34056Y33516*Y33482*X34070Y33448*X34097Y33398*X34233Y33229*X34042*X34716Y32817D2*X34730Y32851D1*X34757Y32884*X34784Y32901*X34838*X34866Y32884*X34893Y32851*X34907Y32817*X34920Y32766*Y32682*X34907Y32631*X34893Y32598*X34866Y32564*X34838Y32547*X34784*X34757Y32564*X34730Y32598*X34716Y32631*X34580Y32817D2*Y32834D1*X34566Y32868*X34552Y32884*X34525Y32901*X34470*X34443Y32884*X34430Y32868*X34416Y32834*Y32800*X34430Y32766*X34457Y32716*X34593Y32547*X34402*X34252Y32901D2*X34102D1*X34184Y32766*X34143*X34116Y32749*X34102Y32732*X34088Y32682*Y32648*X34102Y32598*X34130Y32564*X34170Y32547*X34211*X34252Y32564*X34266Y32581*X34280Y32614*X38857Y44547D2*Y44901D1*X38734*X38693Y44884*X38680Y44868*X38666Y44834*Y44800*X38680Y44766*X38693Y44749*X38734Y44732*X38857*X38761D2*X38666Y44547D1*X38407Y44901D2*X38543Y44665D1*X38338*X38407Y44901D2*Y44547D1*X36148Y47447D2*Y47801D1*X36025*X35984Y47784*X35970Y47768*X35957Y47734*Y47700*X35970Y47666*X35984Y47649*X36025Y47632*X36148*X36052D2*X35957Y47447D1*X35834Y47734D2*X35807Y47751D1*X35766Y47801*Y47447*X35507Y47801D2*X35643Y47565D1*X35438*X35507Y47801D2*Y47447D1*X36124Y48229D2*Y48583D1*X36001*X35960Y48566*X35947Y48549*X35933Y48516*Y48482*X35947Y48448*X35960Y48431*X36001Y48414*X36124*X36028D2*X35933Y48229D1*X35810Y48516D2*X35783Y48533D1*X35742Y48583*Y48229*X35442Y48583D2*X35578D1*X35592Y48431*X35578Y48448*X35538Y48465*X35497*X35456Y48448*X35428Y48414*X35415Y48364*X35428Y48330*X35442Y48279*X35470Y48246*X35510Y48229*X35551*X35592Y48246*X35606Y48263*X35620Y48296*X34964Y25915D2*X34930Y25928D1*X34896Y25956*X34879Y25983*Y26038*X34896Y26065*X34930Y26092*X34964Y26106*X35014Y26119*X35099*X35149Y26106*X35183Y26092*X35217Y26065*X35234Y26038*Y25983*X35217Y25956*X35183Y25928*X35149Y25915*X34879Y25656D2*X35116Y25792D1*Y25588*X34879Y25656D2*X35234D1*X34964Y25451D2*X34947D1*X34913Y25438*X34896Y25424*X34879Y25397*Y25342*X34896Y25315*X34913Y25301*X34947Y25288*X34981*X35014Y25301*X35065Y25328*X35234Y25465*Y25274*X35004Y24461D2*X34970Y24475D1*X34936Y24502*X34919Y24529*Y24584*X34936Y24611*X34970Y24638*X35004Y24652*X35054Y24666*X35139*X35189Y24652*X35223Y24638*X35257Y24611*X35274Y24584*Y24529*X35257Y24502*X35223Y24475*X35189Y24461*X34919Y24202D2*X35156Y24338D1*Y24134*X34919Y24202D2*X35274D1*X34987Y24011D2*X34970Y23984D1*X34919Y23943*X35274*X37539Y26498D2*X37553Y26531D1*X37580Y26565*X37607Y26582*X37662*X37689Y26565*X37716Y26531*X37730Y26498*X37744Y26447*Y26363*X37730Y26312*X37716Y26278*X37689Y26244*X37662Y26228*X37607*X37580Y26244*X37553Y26278*X37539Y26312*X37280Y26582D2*X37416Y26346D1*X37212*X37280Y26582D2*Y26228D1*X36925Y26531D2*X36939Y26565D1*X36980Y26582*X37007*X37048Y26565*X37075Y26514*X37089Y26430*Y26346*X37075Y26278*X37048Y26244*X37007Y26228*X36994*X36953Y26244*X36925Y26278*X36912Y26329*Y26346*X36925Y26396*X36953Y26430*X36994Y26447*X37007*X37048Y26430*X37075Y26396*X37089Y26346*X36277Y25219D2*X36243Y25233D1*X36209Y25260*X36192Y25288*Y25342*X36209Y25369*X36243Y25397*X36277Y25410*X36327Y25424*X36412*X36462Y25410*X36496Y25397*X36530Y25369*X36547Y25342*Y25288*X36530Y25260*X36496Y25233*X36462Y25219*X36192Y24960D2*X36429Y25097D1*Y24892*X36192Y24960D2*X36547D1*X36192Y24633D2*X36429Y24769D1*Y24565*X36192Y24633D2*X36547D1*X37513Y23600D2*X37527Y23634D1*X37554Y23667*X37581Y23684*X37636*X37663Y23667*X37690Y23634*X37704Y23600*X37718Y23549*Y23465*X37704Y23414*X37690Y23380*X37663Y23347*X37636Y23330*X37581*X37554Y23347*X37527Y23380*X37513Y23414*X37254Y23684D2*X37390Y23448D1*X37186*X37254Y23684D2*Y23330D1*X37036Y23684D2*X36886D1*X36968Y23549*X36927*X36899Y23532*X36886Y23515*X36872Y23465*Y23431*X36886Y23380*X36913Y23347*X36954Y23330*X36995*X37036Y23347*X37049Y23364*X37063Y23397*X38647Y24340D2*X38613Y24353D1*X38579Y24380*X38562Y24408*Y24462*X38579Y24490*X38613Y24517*X38647Y24530*X38697Y24544*X38782*X38832Y24530*X38866Y24517*X38900Y24490*X38917Y24462*Y24408*X38900Y24380*X38866Y24353*X38832Y24340*X38562Y24080D2*X38799Y24217D1*Y24012*X38562Y24080D2*X38917D1*X38562Y23712D2*Y23849D1*X38714Y23862*X38697Y23849*X38680Y23808*Y23767*X38697Y23726*X38731Y23699*X38782Y23685*X38816Y23699*X38866Y23712*X38900Y23740*X38917Y23780*Y23821*X38900Y23862*X38883Y23876*X38849Y23890*D17*X28534Y24427D2*X29074D1*X28534Y23587D2*X29074D1*X28534Y22177D2*X29074D1*X28534Y21337D2*X29074D1*X29224Y44677D2*Y44137D1*X28384Y44677D2*Y44137D1*X30474Y44677D2*Y44137D1*X29634Y44677D2*Y44137D1*X24724Y50359D2*X24864D1*X24724Y50899D2*X24864D1*X24724Y50112D2*X24864D1*X24724Y49572D2*X24864D1*X24724Y48784D2*X24864D1*X24724Y49324D2*X24864D1*X25234Y26137D2*X25374D1*X25234Y26677D2*X25374D1*X25234Y27427D2*X25374D1*X25234Y26887D2*X25374D1*X23484Y30927D2*X23624D1*X23484Y30387D2*X23624D1*X26534Y41787D2*X26674D1*X26534Y42327D2*X26674D1*X26534Y41087D2*X26674D1*X26534Y41627D2*X26674D1*X25534Y42327D2*X25674D1*X25534Y41787D2*X25674D1*X25534Y41627D2*X25674D1*X25534Y41087D2*X25674D1*X26534Y43437D2*X26674D1*X26534Y43977D2*X26674D1*X26534Y42737D2*X26674D1*X26534Y43277D2*X26674D1*X26534Y45087D2*X26674D1*X26534Y45627D2*X26674D1*X25534D2*X25674D1*X25534Y45087D2*X25674D1*X25534Y43277D2*X25674D1*X25534Y42737D2*X25674D1*X25534Y43977D2*X25674D1*X25534Y43437D2*X25674D1*X25534Y44927D2*X25674D1*X25534Y44387D2*X25674D1*X26534D2*X26674D1*X26534Y44927D2*X26674D1*X26334Y37677D2*X26474D1*X26334Y37137D2*X26474D1*X30234Y34677D2*X30374D1*X30234Y34137D2*X30374D1*X28234Y34837D2*X28374D1*X28234Y35377D2*X28374D1*X28434Y36527D2*X28574D1*X28434Y35987D2*X28574D1*X26334Y35377D2*X26474D1*X26334Y34837D2*X26474D1*X30234Y37677D2*X30374D1*X30234Y37137D2*X30374D1*X28284Y37727D2*X28424D1*X28284Y37187D2*X28424D1*X25234Y36527D2*X25374D1*X25234Y35987D2*X25374D1*X30234Y36927D2*X30374D1*X30234Y36387D2*X30374D1*X25984Y46427D2*X26124D1*X25984Y45887D2*X26124D1*X26334Y35987D2*X26474D1*X26334Y36527D2*X26474D1*X23146Y49518D2*Y49378D1*X23686Y49518D2*Y49378D1*X26099Y50502D2*Y50362D1*X26639Y50502D2*Y50362D1*X26099Y48928D2*Y48788D1*X26639Y48928D2*Y48788D1*X28284Y33977D2*Y33837D1*X28824Y33977D2*Y33837D1*X28834Y33977D2*Y33837D1*X29374Y33977D2*Y33837D1*X24574Y32477D2*Y32337D1*X24034Y32477D2*Y32337D1*X27134Y35177D2*Y35037D1*X27674Y35177D2*Y35037D1*X27084Y38477D2*Y38337D1*X27624Y38477D2*Y38337D1*X25324Y32477D2*Y32337D1*X24784Y32477D2*Y32337D1*X25534Y32477D2*Y32337D1*X26074Y32477D2*Y32337D1*X26784Y22977D2*Y22837D1*X27324Y22977D2*Y22837D1*X29824Y28227D2*Y28087D1*X29284Y28227D2*Y28087D1*X28784Y26227D2*Y26087D1*X29324Y26227D2*Y26087D1*X29784Y26227D2*Y26087D1*X30324Y26227D2*Y26087D1*X30574Y22477D2*Y22337D1*X30034Y22477D2*Y22337D1*X25574Y29227D2*Y29087D1*X25034Y29227D2*Y29087D1*X25934Y34127D2*Y33987D1*X26474Y34127D2*Y33987D1*X29284Y49727D2*Y49587D1*X29824Y49727D2*Y49587D1*X23003Y44257D2*X24105D1*Y42557*X23003*Y44257*X26087Y53969D2*Y53497D1*X26214Y53969D2*X25960D1*X25796Y53677D2*X25578D1*Y53722*X25596Y53767*X25614Y53789*X25650Y53812*X25705*X25741Y53789*X25778Y53744*X25796Y53677*Y53632*X25778Y53564*X25741Y53519*X25705Y53497*X25650*X25614Y53519*X25578Y53564*X25414Y53812D2*X25214Y53497D1*Y53812D2*X25414Y53497D1*X24832Y53812D2*Y53497D1*Y53744D2*X24868Y53789D1*X24905Y53812*X24960*X24996Y53789*X25032Y53744*X25050Y53677*Y53632*X25032Y53564*X24996Y53519*X24960Y53497*X24905*X24868Y53519*X24832Y53564*X24468Y53744D2*X24487Y53789D1*X24541Y53812*X24596*X24650Y53789*X24668Y53744*X24650Y53699*X24614Y53677*X24523Y53654*X24487Y53632*X24468Y53587*Y53564*X24487Y53519*X24541Y53497*X24596*X24650Y53519*X24668Y53564*X27114Y53119D2*Y52647D1*X26950Y52962D2*Y52647D1*Y52872D2*X26896Y52939D1*X26860Y52962*X26805*X26768Y52939*X26750Y52872*Y52647*X26387Y52894D2*X26405Y52939D1*X26460Y52962*X26514*X26568Y52939*X26587Y52894*X26568Y52849*X26532Y52827*X26441Y52804*X26405Y52782*X26387Y52737*Y52714*X26405Y52669*X26460Y52647*X26514*X26568Y52669*X26587Y52714*X26168Y53119D2*Y52737D1*X26150Y52669*X26114Y52647*X26078*X26223Y52962D2*X26096D1*X25914D2*Y52647D1*Y52827D2*X25896Y52894D1*X25860Y52939*X25823Y52962*X25768*X25605D2*Y52737D1*X25587Y52669*X25550Y52647*X25496*X25460Y52669*X25405Y52737*Y52962D2*Y52647D1*X25241Y52962D2*Y52647D1*Y52872D2*X25187Y52939D1*X25150Y52962*X25096*X25060Y52939*X25041Y52872*Y52647D2*Y52872D1*X24987Y52939*X24950Y52962*X24896*X24860Y52939*X24841Y52872*Y52647*X24678Y52827D2*X24460D1*Y52872*X24478Y52917*X24496Y52939*X24532Y52962*X24587*X24623Y52939*X24660Y52894*X24678Y52827*Y52782*X24660Y52714*X24623Y52669*X24587Y52647*X24532*X24496Y52669*X24460Y52714*X24296Y52962D2*Y52647D1*Y52872D2*X24241Y52939D1*X24205Y52962*X24150*X24114Y52939*X24096Y52872*Y52647*X23878Y53119D2*Y52737D1*X23860Y52669*X23823Y52647*X23787*X23932Y52962D2*X23805D1*X23423Y52894D2*X23441Y52939D1*X23496Y52962*X23550*X23605Y52939*X23623Y52894*X23605Y52849*X23568Y52827*X23478Y52804*X23441Y52782*X23423Y52737*Y52714*X23441Y52669*X23496Y52647*X23550*X23605Y52669*X23623Y52714*X28924Y51877D2*X28734Y52747D1*X28794*X28992Y51875D2*X28802Y52745D1*X28994Y51877D2*X28924D1*X28784Y51867D2*X28694Y52277D1*X28434*X28394Y52447*X28664*X28594Y52737*X28454Y52757D2*X28524D1*X28544Y52747*X28594Y52737*X28364Y52777D2*X28414Y52757D1*X28454*X28254Y52777D2*X28364D1*X28214Y52757D2*X28244D1*X28254Y52777*X28144Y52747D2*X28214Y52757D1*X28064Y52687D2*X28104Y52737D1*X28144Y52747*X28044Y52637D2*X28064Y52687D1*X28044Y52597D2*X28064Y52637D1*X28044*Y52597D2*X28034Y52517D1*X28024Y52427*Y52337*X28004Y52297*X27924Y52197D2*X27964Y52267D1*X28004Y52297*X27924Y52197D2*X27884Y52117D1*Y52047*X27864Y51947*X27894Y51767D2*X27864Y51877D1*Y51947*X27894Y51767D2*X27924Y51727D1*X28044Y51677*X28184Y51617*X28304Y51577*X28514Y51487D2*X28404Y51537D1*X28304Y51577*X28514Y51487D2*X28594Y51447D1*X28694Y51387*X28734Y51307*X28774Y51177*X28764Y51087*X28744Y51027*X28724Y50987*X28744Y50937*X28874Y50917D2*X28774Y50907D1*X28744Y50937*X28874Y50917D2*X29004Y50987D1*X29174Y51067*X29264Y51177*X29314Y51247*X29364Y51377*Y51427*X29474Y51597*X29554Y51707*X29614Y51767*X29754Y51717D2*X29654Y51787D1*X29614Y51767*X29754Y51717D2*X29804Y51677D1*X29914*X30054Y51757*X29144Y51787D2*Y51817D1*X29034Y52277*X29144Y51787D2*X29104Y51747D1*X29034Y51707*X28954Y51677*X28894*X28764Y51717D2*X28844Y51687D1*X28894Y51677*X28734Y51797D2*Y51757D1*X28764Y51727*Y51717*Y51857D2*X28744Y51837D1*X28734Y51817*Y51797*X28764Y51857D2*X28784Y51867D1*X30054Y51757D2*X30164Y51927D1*X30254Y52047*X30424Y52187*X30504Y52337D2*X30474Y52267D1*X30424Y52187*X29814Y52337D2*X30504D1*X29034Y52277D2*X29314D1*X29254Y52457*X29004*X29134Y53367D2*X29814D1*Y52337*X29004Y52457D2*X28924Y52757D1*X28964Y52777*X29054Y52817*X29074Y52857*X29134Y52907*Y53367*X28689Y52892D2*X28728Y52897D1*X28766Y52911*X28798Y52933*X28825Y52963*X28843Y52998*X28853Y53037*Y53077*X28843Y53115*X28825Y53151*X28798Y53180*X28766Y53203*X28728Y53217*X28689Y53222*X28650Y53217*X28612Y53203*X28580Y53180*X28553Y53151*X28535Y53115*X28525Y53077*Y53037*X28535Y52998*X28553Y52963*X28580Y52933*X28612Y52911*X28650Y52897*X28689Y52892*X24204Y44007D2*X24242Y44014D1*X24275Y44036*X24296Y44069*X24304Y44107*X24296Y44145*X24275Y44178*X24242Y44199*X24204Y44207*X24166Y44199*X24133Y44178*X24112Y44145*X24104Y44107*X24112Y44069*X24133Y44036*X24166Y44014*X24204Y44007*X37904Y30799D2*X37942Y30791D1*X37975Y30770*X37996Y30737*X38004Y30699*X37996Y30661*X37975Y30628*X37942Y30606*X37904Y30599*X37866Y30606*X37833Y30628*X37812Y30661*X37804Y30699*X37812Y30737*X37833Y30770*X37866Y30791*X37904Y30799*X33419Y21914D2*X33458Y21909D1*X33496Y21895*X33528Y21872*X33555Y21843*X33573Y21807*X33583Y21769*Y21729*X33573Y21690*X33555Y21655*X33528Y21625*X33496Y21603*X33458Y21589*X33419Y21584*X33380Y21589*X33342Y21603*X33310Y21625*X33283Y21655*X33265Y21690*X33255Y21729*Y21769*X33265Y21807*X33283Y21843*X33310Y21872*X33342Y21895*X33380Y21909*X33419Y21914*X32974Y21439D2*Y21899D1*X33034Y21949*X33054Y21989*X33144Y22029*X33184Y22049*X33104Y22349*X32294Y22469D2*Y21439D1*X32974*X33104Y22349D2*X32854D1*X32794Y22529*X33074*X32294Y22469D2*X31604D1*X31684Y22619D2*X31634Y22539D1*X31604Y22469*X31684Y22619D2*X31854Y22759D1*X31944Y22879*X32054Y23049*X33344Y22949D2*X33324Y22939D1*X33374Y23009D2*Y22989D1*X33364Y22969*X33344Y22949*Y23089D2*Y23079D1*X33374Y23049*Y23009*X33214Y23129D2*X33264Y23119D1*X33344Y23089*X33214Y23129D2*X33154D1*X33074Y23099*X33004Y23059*X32964Y23019*X33074Y22529D2*X32964Y22989D1*Y23019*X32054Y23049D2*X32194Y23129D1*X32304*X32354Y23089*X32494Y23039D2*X32454Y23019D1*X32354Y23089*X32494Y23039D2*X32554Y23099D1*X32634Y23209*X32744Y23379*Y23429*X32794Y23559*X32844Y23629*X32934Y23739*X33104Y23819*X33234Y23889*X33364Y23869D2*X33334Y23899D1*X33234Y23889*X33364Y23869D2*X33384Y23819D1*X33364Y23779*X33344Y23719*X33334Y23629*X33374Y23499*X33414Y23419*X33514Y23359*X33594Y23319*X33804Y23229D2*X33704Y23269D1*X33594Y23319*X33804Y23229D2*X33924Y23189D1*X34064Y23129*X34184Y23079*X34214Y23039*X34244Y22859D2*Y22929D1*X34214Y23039*X34244Y22859D2*X34224Y22759D1*Y22689*X34184Y22609*X34104Y22509D2*X34144Y22539D1*X34184Y22609*X34104Y22509D2*X34084Y22469D1*Y22379*X34074Y22289*X34064Y22209*Y22169D2*X34044D1*X34064Y22209*Y22169D2*X34044Y22119D1*X33964Y22059D2*X34004Y22069D1*X34044Y22119*X33964Y22059D2*X33894Y22049D1*X33854Y22029D2*X33864Y22049D1*X33894*X33854Y22029D2*X33744D1*X33654Y22049D2*X33694D1*X33744Y22029*X33514Y22069D2*X33564Y22059D1*X33584Y22049*X33654*X33514Y22069D2*X33444Y22359D1*X33714*X33674Y22529*X33414*X33324Y22939*X33114Y22929D2*X33184D1*X33116Y22931D2*X33306Y22061D1*X33314Y22059D2*X33374D1*X33184Y22929*X38485Y22091D2*X38503Y22136D1*X38558Y22159*X38612*X38667Y22136*X38685Y22091*Y22069*X38667Y22024*X38630Y22001*X38540Y21979*X38503Y21956*X38485Y21911*X38503Y21866*X38558Y21844*X38612*X38667Y21866*X38685Y21911*X38176Y21844D2*X38303D1*X38321Y22159D2*X38285D1*X38248Y22136*X38230Y22069*Y21686*X38012Y22159D2*Y21934D1*X37994Y21866*X37958Y21844*X37903*X37867Y21866*X37812Y21934*Y21844D2*Y22159D1*X37648Y22091D2*X37612Y22136D1*X37576Y22159*X37521*X37485Y22136*X37448Y22091*X37430Y22024*Y21979*X37448Y21911*X37485Y21866*X37521Y21844*X37576*X37612Y21866*X37630Y21889*X37648Y21934*Y21979*X37430*X37267Y22159D2*Y21934D1*X37248Y21866*X37212Y21844*X37158*X37121Y21866*X37067Y21934*Y22159D2*Y21934D1*X37048Y21866*X37012Y21844*X36958*X36921Y21866*X36867Y21934*Y21844D2*Y22159D1*X36703Y21844D2*Y22159D1*Y22069D2*X36648Y22136D1*X36612Y22159*X36558*X36521Y22136*X36503Y22069*Y21844*X36340D2*X36285D1*X36248Y21866*X36212Y21911*X36194Y21979*Y21844D2*Y22159D1*X35885Y21844D2*X36012D1*X36030Y22159D2*X35994D1*X35958Y22136*X35940Y22069*Y21686*X35521Y22091D2*X35540Y22136D1*X35594Y22159*X35648*X35703Y22136*X35721Y22091*Y22069*X35703Y22024*X35667Y22001*X35576Y21979*X35540Y21956*X35521Y21911*X35540Y21866*X35594Y21844*X35648*X35703Y21866*X35721Y21911*X35358Y22159D2*Y21934D1*X35340Y21866*X35303Y21844*X35248*X35212Y21866*X35158Y21934*Y21844D2*Y22159D1*X34994Y21686D2*Y22159D1*X37440Y21241D2*X37458Y21286D1*X37512Y21309*X37567*X37621Y21286*X37640Y21241*Y21219*X37621Y21174*X37585Y21151*X37494Y21129*X37458Y21106*X37440Y21061*X37458Y21016*X37512Y20994*X37567*X37621Y21016*X37640Y21061*X37276Y21241D2*X37240Y21286D1*X37203Y21309*X37148*X37112Y21286*X37076Y21241*X37058Y21174*Y21129*X37076Y21061*X37112Y21016*X37148Y20994*X37203*X37240Y21016*X37276Y21061*Y20994D2*Y21309D1*X36894Y20994D2*X36694Y21309D1*Y20994D2*X36894Y21309D1*X36530Y21241D2*X36494Y21286D1*X36458Y21309*X36403*X36367Y21286*X36330Y21241*X36312Y21174*Y21129*X36330Y21061*X36367Y21016*X36403Y20994*X36458*X36494Y21016*X36512Y21039*X36530Y21084*Y21129*X36312*X35894Y20836D2*X36148D1*X36021D2*Y21309D1*X39105Y30549D2*Y32249D1*X38003*Y30549*X39105*X32284Y25079D2*Y25219D1*X32824Y25079D2*Y25219D1*X35634Y40679D2*Y40819D1*X36174Y40679D2*Y40819D1*X37074Y45579D2*Y45719D1*X36534Y45579D2*Y45719D1*X32074Y52329D2*Y52469D1*X31534Y52329D2*Y52469D1*X31784Y48579D2*Y48719D1*X32324Y48579D2*Y48719D1*X32784Y48579D2*Y48719D1*X33324Y48579D2*Y48719D1*X32824Y46579D2*Y46719D1*X32284Y46579D2*Y46719D1*X34784Y51829D2*Y51969D1*X35324Y51829D2*Y51969D1*X36034Y42329D2*Y42469D1*X36574Y42329D2*Y42469D1*X37324Y42329D2*Y42469D1*X36784Y42329D2*Y42469D1*X34484Y36329D2*Y36469D1*X35024Y36329D2*Y36469D1*X34434Y39629D2*Y39769D1*X34974Y39629D2*Y39769D1*X38074Y42329D2*Y42469D1*X37534Y42329D2*Y42469D1*X32734Y40829D2*Y40969D1*X33274Y40829D2*Y40969D1*X33284Y40829D2*Y40969D1*X33824Y40829D2*Y40969D1*X35469Y25878D2*Y26018D1*X36009Y25878D2*Y26018D1*X35469Y24303D2*Y24443D1*X36009Y24303D2*Y24443D1*X38422Y25288D2*Y25428D1*X38962Y25288D2*Y25428D1*X35774Y38279D2*X35634D1*X35774Y38819D2*X35634D1*X36124Y28919D2*X35984D1*X36124Y28379D2*X35984D1*X31874Y38419D2*X31734D1*X31874Y37879D2*X31734D1*X36874Y38819D2*X36734D1*X36874Y38279D2*X36734D1*X33824Y37619D2*X33684D1*X33824Y37079D2*X33684D1*X31874Y37669D2*X31734D1*X31874Y37129D2*X31734D1*X35774Y39969D2*X35634D1*X35774Y39429D2*X35634D1*X33674Y38819D2*X33534D1*X33674Y38279D2*X33534D1*X33874Y39429D2*X33734D1*X33874Y39969D2*X33734D1*X31874Y40669D2*X31734D1*X31874Y40129D2*X31734D1*X35774Y37669D2*X35634D1*X35774Y37129D2*X35634D1*X35574Y29879D2*X35434D1*X35574Y30419D2*X35434D1*X36574D2*X36434D1*X36574Y29879D2*X36434D1*X36574Y31369D2*X36434D1*X36574Y30829D2*X36434D1*X36574Y32069D2*X36434D1*X36574Y31529D2*X36434D1*X36574Y29719D2*X36434D1*X36574Y29179D2*X36434D1*X35574D2*X35434D1*X35574Y29719D2*X35434D1*X35574Y31529D2*X35434D1*X35574Y32069D2*X35434D1*X35574Y30829D2*X35434D1*X35574Y31369D2*X35434D1*X36574Y33719D2*X36434D1*X36574Y33179D2*X36434D1*X36574Y33019D2*X36434D1*X36574Y32479D2*X36434D1*X35574Y33179D2*X35434D1*X35574Y33719D2*X35434D1*X35574Y32479D2*X35434D1*X35574Y33019D2*X35434D1*X38624Y44419D2*X38484D1*X38624Y43879D2*X38484D1*X36874Y47919D2*X36734D1*X36874Y47379D2*X36734D1*X36874Y48129D2*X36734D1*X36874Y48669D2*X36734D1*X37384Y25481D2*X37244D1*X37384Y26021D2*X37244D1*X37384Y25234D2*X37244D1*X37384Y24694D2*X37244D1*X37384Y23906D2*X37244D1*X37384Y24446D2*X37244D1*X32474Y30129D2*Y30669D1*X31634Y30129D2*Y30669D1*X33724Y30129D2*Y30669D1*X32884Y30129D2*Y30669D1*X33574Y53469D2*X33034D1*X33574Y52629D2*X33034D1*X33574Y51219D2*X33034D1*X33574Y50379D2*X33034D1*X0Y0D2*M02*