*G04 Output by CAMMaster V10.4.32  PentaLogix LLC*
*G04 Tue Aug 11 15:38:12 2009*
*%FSLAX24Y24*%
%MOIN*%
%IPPOS*%
%ADD16C,0.0055*%
%ADD17C,0.006*%
%ADD74C,0.006*%
%ADD402C,0.006*%

%LPD*%
X0Y0D2*D16*G1X30034Y30131D2*X30106D1*X30302D2*X30388D1*Y30180D2*Y30036D1*X25438Y23109D2*X25472Y23136D1*X25488Y23177*Y23190*X25472Y23231*X25438Y23259*X25134Y23395D2*X25488D1*X25438Y23436*X26903Y41223D2*X26869Y41250D1*X26852Y41278*Y41332*X26869Y41360*X26903Y41387*X24884Y43777D2*X25238D1*Y43681*X25222Y43640*X25188Y43613*X25154Y43600*X25103Y43586*X25019*X24968Y43600*X24935Y43613*X24901Y43640*X24884Y43681*Y43777*Y43463D2*X25238D1*X24884Y43272*X25238*X25171Y43150D2*X25188Y43122D1*X25238Y43081*X24884*Y42127D2*X25238D1*Y42031*X25222Y41990*X25188Y41963*X25154Y41950*X25103Y41936*X25019*X24968Y41950*X24935Y41963*X24901Y41990*X24884Y42031*Y42127*Y41813D2*X25238D1*X24884Y41622*X25238*X25154Y41486D2*X25171D1*X25205Y41472*X25222Y41459*X25238Y41431*Y41377*X25222Y41350*X25205Y41336*X25171Y41322*X25137*X25103Y41336*X25053Y41363*X24884Y41500*Y41309*Y45427D2*X25238D1*Y45331*X25222Y45290*X25188Y45263*X25154Y45250*X25103Y45236*X25019*X24968Y45250*X24935Y45263*X24901Y45290*X24884Y45331*Y45427*Y45113D2*X25238D1*X24884Y44922*X25238*Y44772D2*Y44622D1*X25103Y44704*Y44663*X25086Y44636*X25070Y44622*X25019Y44609*X24985*X24935Y44622*X24901Y44650*X24884Y44690*Y44731*X24901Y44772*X24918Y44786*X24952Y44800*X21553Y52750D2*X21907D1*Y52627*X21890Y52586*X21874Y52573*X21840Y52559*X21789*X21756Y52573*X21739Y52586*X21722Y52627*Y52750*X21840Y52436D2*X21857Y52409D1*X21907Y52368*X21553*X23352Y45310D2*X23706D1*Y45187*X23690Y45146*X23673Y45132*X23639Y45119*X23605*X23572Y45132*X23555Y45146*X23538Y45187*Y45310*Y45214D2*X23352Y45119D1*Y44996D2*X23706D1*X23352Y44805*X23706*X23622Y44669D2*X23639D1*X23673Y44655*X23690Y44641*X23706Y44614*Y44560*X23690Y44532*X23673Y44519*X23639Y44505*X23605*X23572Y44519*X23521Y44546*X23352Y44682*Y44491*X23794Y36528D2*X24148D1*Y36405*X24131Y36364*X24114Y36351*X24081Y36337*X24047*X24013Y36351*X23996Y36364*X23979Y36405*Y36528*Y36433D2*X23794Y36337D1*Y36214D2*X24148D1*X23794Y36024*X24148*Y35874D2*Y35724D1*X24013Y35805*Y35764*X23996Y35737*X23979Y35724*X23929Y35710*X23895*X23844Y35724*X23811Y35751*X23794Y35792*Y35833*X23811Y35874*X23828Y35887*X23861Y35901*X30788Y28327D2*X30535D1*X30485Y28313*X30451Y28286*X30434Y28245*Y28218*X30451Y28177*X30485Y28150*X30535Y28136*X30788*Y27986D2*Y27836D1*X30653Y27918*Y27877*X30636Y27850*X30620Y27836*X30569Y27822*X30535*X30485Y27836*X30451Y27863*X30434Y27904*Y27945*X30451Y27986*X30468Y28000*X30502Y28013*X30506Y49360D2*X30253D1*X30203Y49346*X30169Y49319*X30152Y49278*Y49250*X30169Y49210*X30203Y49182*X30253Y49169*X30506*Y48910D2*X30270Y49046D1*Y48841*X30506Y48910D2*X30152D1*X24397Y51525D2*X24144D1*X24094Y51511*X24060Y51484*X24043Y51443*Y51416*X24060Y51375*X24094Y51347*X24144Y51334*X24397*Y51034D2*Y51170D1*X24245Y51184*X24262Y51170*X24279Y51129*Y51088*X24262Y51047*X24228Y51020*X24178Y51006*X24144Y51020*X24094Y51034*X24060Y51061*X24043Y51102*Y51143*X24060Y51184*X24077Y51197*X24110Y51211*X30738Y39527D2*X30485D1*X30435Y39513*X30401Y39486*X30384Y39445*Y39418*X30401Y39377*X30435Y39350*X30485Y39336*X30738*X30671Y39213D2*X30688Y39186D1*X30738Y39145*X30384*X28138Y31277D2*X27784Y31086D1*X28138D2*X27784Y31277D1*X28071Y30963D2*X28088Y30936D1*X28138Y30895*X27784*X28734Y21091D2*Y20737D1*X28898*X29020Y21024D2*X29048Y21041D1*X29088Y21091*Y20737*X29388Y20973D2*X29375Y20922D1*X29348Y20889*X29307Y20872*X29293*X29252Y20889*X29225Y20922*X29211Y20973*Y20990*X29225Y21041*X29252Y21074*X29293Y21091*X29307*X29348Y21074*X29375Y21041*X29388Y20973*Y20889*X29375Y20804*X29348Y20754*X29307Y20737*X29280*X29238Y20754*X29225Y20787*X27984Y25091D2*Y24737D1*X28148*X28284Y25007D2*Y25024D1*X28298Y25057*X28311Y25074*X28338Y25091*X28393*X28420Y25074*X28434Y25057*X28448Y25024*Y24990*X28434Y24956*X28407Y24906*X28270Y24737*X28461*X28666Y25091D2*X28625Y25074D1*X28598Y25024*X28584Y24939*Y24889*X28598Y24804*X28625Y24754*X28666Y24737*X28693*X28734Y24754*X28761Y24804*X28775Y24889*Y24939*X28761Y25024*X28734Y25074*X28693Y25091*X28666*X26488Y21877D2*X26235D1*X26185Y21863*X26151Y21836*X26134Y21795*Y21768*X26151Y21727*X26185Y21700*X26235Y21686*X26488*X26404Y21550D2*X26421D1*X26455Y21536*X26472Y21522*X26488Y21495*Y21440*X26472Y21413*X26455Y21400*X26421Y21386*X26387*X26353Y21400*X26303Y21427*X26134Y21563*Y21372*X25488Y28227D2*X25235D1*X25185Y28213*X25151Y28186*X25134Y28145*Y28118*X25151Y28077*X25185Y28050*X25235Y28036*X25488*X25438Y27750D2*X25472Y27763D1*X25488Y27804*Y27831*X25472Y27872*X25421Y27900*X25336Y27913*X25252*X25185Y27900*X25151Y27872*X25134Y27831*Y27818*X25151Y27777*X25185Y27750*X25235Y27736*X25252*X25303Y27750*X25336Y27777*X25353Y27818*Y27831*X25336Y27872*X25303Y27900*X25252Y27913*X28188Y43877D2*X27834D1*Y43713*X28121Y43590D2*X28138Y43563D1*X28188Y43522*X27834*Y43345D2*X28188Y43209D1*Y43400*X26956Y28310D2*X26602D1*Y28146*X26889Y28023D2*X26906Y27996D1*X26956Y27955*X26602*X26956Y27764D2*X26940Y27805D1*X26906Y27819*X26872*X26838Y27805*X26822Y27778*X26805Y27723*X26788Y27682*X26754Y27655*X26720Y27641*X26670*X26636Y27655*X26619Y27669*X26602Y27710*Y27764*X26619Y27805*X26636Y27819*X26670Y27832*X26720*X26754Y27819*X26788Y27791*X26805Y27750*X26822Y27696*X26838Y27669*X26872Y27655*X26906*X26940Y27669*X26956Y27710*Y27764*X23654Y30122D2*X23688Y30136D1*X23722Y30163*X23738Y30190*Y30245*X23722Y30272*X23688Y30300*X23654Y30313*X23603Y30327*X23519*X23468Y30313*X23435Y30300*X23401Y30272*X23384Y30245*Y30190*X23401Y30163*X23435Y30136*X23468Y30122*X23738Y29822D2*Y29959D1*X23586Y29972*X23603Y29959*X23620Y29918*Y29877*X23603Y29836*X23570Y29809*X23519Y29795*X23485Y29809*X23435Y29822*X23401Y29850*X23384Y29890*Y29931*X23401Y29972*X23418Y29986*X23452Y30000*X23654Y29659D2*X23671D1*X23705Y29645*X23722Y29631*X23738Y29604*Y29550*X23722Y29522*X23705Y29509*X23671Y29495*X23637*X23603Y29509*X23553Y29536*X23384Y29672*Y29481*X23072Y24232D2*X23106Y24246D1*X23140Y24273*X23156Y24300*Y24355*X23140Y24382*X23106Y24410*X23072Y24423*X23022Y24437*X22937*X22886Y24423*X22853Y24410*X22819Y24382*X22802Y24355*Y24300*X22819Y24273*X22853Y24246*X22886Y24232*X23156Y24082D2*Y23932D1*X23022Y24014*Y23973*X23005Y23946*X22988Y23932*X22937Y23919*X22903*X22853Y23932*X22819Y23960*X22802Y24000*Y24041*X22819Y24082*X22836Y24096*X22870Y24110*X23156Y23619D2*Y23755D1*X23005Y23769*X23022Y23755*X23038Y23714*Y23673*X23022Y23632*X22988Y23605*X22937Y23591*X22903Y23605*X22853Y23619*X22819Y23646*X22802Y23687*Y23728*X22819Y23769*X22836Y23782*X22870Y23796*X23706Y31546D2*X23352D1*Y31382*X23639Y31260D2*X23656Y31232D1*X23706Y31191*X23352*X29038Y43877D2*X28684D1*Y43713*X28971Y43590D2*X28988Y43563D1*X29038Y43522*X28684*X29038Y43222D2*Y43359D1*X28886Y43372*X28903Y43359*X28920Y43318*Y43277*X28903Y43236*X28870Y43209*X28819Y43195*X28785Y43209*X28735Y43222*X28701Y43250*X28684Y43290*Y43331*X28701Y43372*X28718Y43386*X28752Y43400*X28456Y29119D2*X28102D1*Y28955*Y28778D2*X28456Y28641D1*Y28832*X27638Y41627D2*X27284D1*Y41463*X27588Y41177D2*X27622Y41190D1*X27638Y41231*Y41259*X27622Y41300*X27571Y41327*X27486Y41340*X27402*X27335Y41327*X27301Y41300*X27284Y41259*Y41245*X27301Y41204*X27335Y41177*X27385Y41163*X27402*X27453Y41177*X27486Y41204*X27503Y41245*Y41259*X27486Y41300*X27453Y41327*X27402Y41340*X30456Y23060D2*X30102D1*Y22896*Y22773D2*X30456D1*Y22678*X30440Y22637*X30406Y22610*X30372Y22596*X30322Y22582*X30237*X30186Y22596*X30153Y22610*X30119Y22637*X30102Y22678*Y22773*X30389Y22460D2*X30406Y22432D1*X30456Y22391*X30102*X30906Y26532D2*X30552D1*Y26369*Y26246D2*X30906D1*Y26150*X30890Y26110*X30856Y26082*X30822Y26069*X30772Y26055*X30687*X30636Y26069*X30603Y26082*X30569Y26110*X30552Y26150*Y26246*X30822Y25919D2*X30839D1*X30873Y25905*X30890Y25891*X30906Y25864*Y25810*X30890Y25782*X30873Y25769*X30839Y25755*X30805*X30772Y25769*X30721Y25796*X30552Y25932*Y25741*X28506Y26532D2*X28152D1*Y26369*Y26246D2*X28506D1*Y26150*X28490Y26110*X28456Y26082*X28422Y26069*X28372Y26055*X28287*X28236Y26069*X28203Y26082*X28169Y26110*X28152Y26150*Y26246*X28506Y25905D2*Y25755D1*X28372Y25837*Y25796*X28355Y25769*X28338Y25755*X28287Y25741*X28253*X28203Y25755*X28169Y25782*X28152Y25823*Y25864*X28169Y25905*X28186Y25919*X28220Y25932*X25134Y23777D2*X25488D1*Y23654*X25472Y23613*X25455Y23600*X25421Y23586*X25387*X25353Y23600*X25336Y23613*X25320Y23654*Y23777*Y23681D2*X25134Y23586D1*X25421Y23463D2*X25438Y23436D1*X25370Y23095D2*X25320Y23109D1*X25286Y23136*X25269Y23177*Y23190*X25286Y23231*X25320Y23259*X25370Y23272*X25387*X25438Y23259*Y23109D2*X25370Y23095D1*X25286*X25202Y23109*X25151Y23136*X25134Y23177*Y23204*X25151Y23245*X25185Y23259*X24634Y25827D2*X24988D1*Y25704*X24972Y25663*X24955Y25650*X24921Y25636*X24887*X24853Y25650*X24836Y25663*X24820Y25704*Y25827*Y25731D2*X24634Y25636D1*X24904Y25500D2*X24921D1*X24955Y25486*X24972Y25472*X24988Y25445*Y25390*X24972Y25363*X24955Y25350*X24921Y25336*X24887*X24853Y25350*X24803Y25377*X24634Y25513*Y25322*X24988Y25118D2*X24972Y25159D1*X24921Y25186*X24836Y25200*X24786*X24702Y25186*X24651Y25159*X24634Y25118*Y25090*X24651Y25050*X24702Y25022*X24786Y25009*X24836*X24921Y25022*X24972Y25050*X24988Y25090*Y25118*X27118Y25871D2*X27472D1*Y25748*X27456Y25707*X27439Y25694*X27405Y25680*X27371*X27338Y25694*X27321Y25707*X27304Y25748*Y25871*Y25776D2*X27118Y25680D1*X27405Y25557D2*X27422Y25530D1*X27472Y25489*X27118*X27405Y25366D2*X27422Y25339D1*X27472Y25298*X27118*X26366Y25905D2*X26720D1*Y25782*X26703Y25742*X26686Y25728*X26653Y25714*X26619*X26585Y25728*X26568Y25742*X26551Y25782*Y25905*Y25810D2*X26366Y25714D1*X26653Y25592D2*X26670Y25564D1*X26720Y25523*X26366*X26720Y25319D2*X26703Y25360D1*X26653Y25387*X26568Y25401*X26518*X26433Y25387*X26383Y25360*X26366Y25319*Y25292*X26383Y25251*X26433Y25223*X26518Y25210*X26568*X26653Y25223*X26703Y25251*X26720Y25292*Y25319*X25234Y22277D2*X25588D1*Y22154*X25572Y22113*X25555Y22100*X25521Y22086*X25487*X25453Y22100*X25436Y22113*X25420Y22154*Y22277*Y22181D2*X25234Y22086D1*X25588Y21895D2*X25572Y21936D1*X25538Y21950*X25504*X25470Y21936*X25453Y21909*X25436Y21854*X25420Y21813*X25386Y21786*X25352Y21772*X25302*X25268Y21786*X25251Y21800*X25234Y21840*Y21895*X25251Y21936*X25268Y21950*X25302Y21963*X25352*X25386Y21950*X25420Y21922*X25436Y21881*X25453Y21827*X25470Y21800*X25504Y21786*X25538*X25572Y21800*X25588Y21840*Y21895*X25234Y21327D2*X25588D1*Y21204*X25572Y21163*X25555Y21150*X25521Y21136*X25487*X25453Y21150*X25436Y21163*X25420Y21204*Y21327*Y21231D2*X25234Y21136D1*X25470Y20836D2*X25420Y20850D1*X25386Y20877*X25369Y20918*Y20931*X25386Y20972*X25420Y21000*X25470Y21013*X25487*X25538Y21000*X25572Y20972*X25588Y20931*Y20918*X25572Y20877*X25538Y20850*X25470Y20836*X25386*X25302Y20850*X25251Y20877*X25234Y20918*Y20945*X25251Y20986*X25285Y21000*X27284Y23277D2*X27638D1*Y23154*X27622Y23113*X27605Y23100*X27571Y23086*X27537*X27503Y23100*X27486Y23113*X27470Y23154*Y23277*Y23181D2*X27284Y23086D1*X27571Y22963D2*X27588Y22936D1*X27638Y22895*X27284*X27638Y22704D2*X27622Y22745D1*X27588Y22759*X27554*X27520Y22745*X27503Y22718*X27486Y22663*X27470Y22622*X27436Y22595*X27402Y22581*X27352*X27318Y22595*X27301Y22609*X27284Y22650*Y22704*X27301Y22745*X27318Y22759*X27352Y22772*X27402*X27436Y22759*X27470Y22731*X27486Y22690*X27503Y22636*X27520Y22609*X27554Y22595*X27588*X27622Y22609*X27638Y22650*Y22704*X27952Y52051D2*Y52405D1*X28075*X28116Y52388*X28129Y52371*X28143Y52338*Y52304*X28129Y52270*X28116Y52253*X28075Y52236*X27952*X28048D2*X28143Y52051D1*X28266Y52338D2*X28293Y52355D1*X28334Y52405*Y52051*X28620Y52355D2*X28607Y52388D1*X28566Y52405*X28538*X28498Y52388*X28470Y52338*X28457Y52253*Y52169*X28470Y52101*X28498Y52068*X28538Y52051*X28552*X28593Y52068*X28620Y52101*X28634Y52152*Y52169*X28620Y52220*X28593Y52253*X28552Y52270*X28538*X28498Y52253*X28470Y52220*X28457Y52169*X29554Y23122D2*X29588Y23136D1*X29622Y23163*X29638Y23190*Y23245*X29622Y23272*X29588Y23300*X29554Y23313*X29503Y23327*X29419*X29368Y23313*X29335Y23300*X29301Y23272*X29284Y23245*Y23190*X29301Y23163*X29335Y23136*X29368Y23122*X29638Y22972D2*Y22822D1*X29503Y22904*Y22863*X29486Y22836*X29470Y22822*X29419Y22809*X29385*X29335Y22822*X29301Y22850*X29284Y22890*Y22931*X29301Y22972*X29318Y22986*X29352Y23000*X29554Y22672D2*X29571D1*X29605Y22659*X29622Y22645*X29638Y22618*Y22563*X29622Y22536*X29605Y22522*X29571Y22509*X29537*X29503Y22522*X29453Y22550*X29284Y22686*Y22495*X25954Y25672D2*X25988Y25686D1*X26022Y25713*X26038Y25740*Y25795*X26022Y25822*X25988Y25850*X25954Y25863*X25903Y25877*X25819*X25768Y25863*X25735Y25850*X25701Y25822*X25684Y25795*Y25740*X25701Y25713*X25735Y25686*X25768Y25672*X26038Y25522D2*Y25372D1*X25903Y25454*Y25413*X25886Y25386*X25870Y25372*X25819Y25359*X25785*X25735Y25372*X25701Y25400*X25684Y25440*Y25481*X25701Y25522*X25718Y25536*X25752Y25550*X26038Y25209D2*Y25059D1*X25903Y25140*Y25100*X25886Y25072*X25870Y25059*X25819Y25045*X25785*X25735Y25059*X25701Y25086*X25684Y25127*Y25168*X25701Y25209*X25718Y25222*X25752Y25236*X25804Y40272D2*X25838Y40286D1*X25872Y40313*X25888Y40340*Y40395*X25872Y40422*X25838Y40450*X25804Y40463*X25753Y40477*X25669*X25618Y40463*X25585Y40450*X25551Y40422*X25534Y40395*Y40340*X25551Y40313*X25585Y40286*X25618Y40272*X25888Y40013D2*X25652Y40150D1*Y39945*X25888Y40013D2*X25534D1*X25770Y39645D2*X25720Y39659D1*X25686Y39686*X25669Y39727*Y39740*X25686Y39781*X25720Y39809*X25770Y39822*X25787*X25838Y39809*X25872Y39781*X25888Y39740*Y39727*X25872Y39686*X25838Y39659*X25770Y39645*X25686*X25602Y39659*X25551Y39686*X25534Y39727*Y39754*X25551Y39795*X25585Y39809*X26838Y33107D2*X26825Y33140D1*X26798Y33174*X26770Y33191*X26716*X26688Y33174*X26661Y33140*X26648Y33107*X26634Y33056*Y32972*X26648Y32921*X26661Y32887*X26688Y32854*X26716Y32837*X26770*X26798Y32854*X26825Y32887*X26838Y32921*X27138Y33191D2*X27002D1*X26988Y33039*X27002Y33056*X27043Y33073*X27084*X27125Y33056*X27152Y33022*X27166Y32972*X27152Y32938*X27138Y32887*X27111Y32854*X27070Y32837*X27030*X26988Y32854*X26975Y32870*X26961Y32904*X27316Y33191D2*X27466D1*X27384Y33056*X27425*X27452Y33039*X27466Y33022*X27480Y32972*Y32938*X27466Y32887*X27438Y32854*X27398Y32837*X27357*X27316Y32854*X27302Y32870*X27288Y32904*X25338Y33107D2*X25325Y33141D1*X25298Y33174*X25270Y33191*X25216*X25188Y33174*X25161Y33141*X25148Y33107*X25134Y33056*Y32972*X25148Y32921*X25161Y32887*X25188Y32854*X25216Y32837*X25270*X25298Y32854*X25325Y32887*X25338Y32921*X25638Y33191D2*X25502D1*X25488Y33039*X25502Y33056*X25543Y33073*X25584*X25625Y33056*X25652Y33022*X25666Y32972*X25652Y32938*X25638Y32887*X25611Y32854*X25570Y32837*X25530*X25488Y32854*X25475Y32871*X25461Y32904*X25925Y33191D2*X25788Y32955D1*X25993*X25925Y33191D2*Y32837D1*X23834Y26237D2*Y26591D1*X23957*X23998Y26574*X24011Y26557*X24025Y26524*Y26490*X24011Y26456*X23998Y26439*X23957Y26422*X23834*X23930D2*X24025Y26237D1*X24161Y26507D2*Y26524D1*X24175Y26557*X24188Y26574*X24216Y26591*X24270*X24298Y26574*X24311Y26557*X24325Y26524*Y26490*X24311Y26456*X24284Y26406*X24148Y26237*X24338*X24488Y26591D2*X24638D1*X24557Y26456*X24598*X24625Y26439*X24638Y26422*X24652Y26372*Y26338*X24638Y26287*X24611Y26254*X24570Y26237*X24530*X24488Y26254*X24475Y26271*X24461Y26304*X23834Y26987D2*Y27341D1*X23957*X23998Y27324*X24011Y27307*X24025Y27274*Y27240*X24011Y27206*X23998Y27189*X23957Y27172*X23834*X23930D2*X24025Y26987D1*X24161Y27257D2*Y27274D1*X24175Y27307*X24188Y27324*X24216Y27341*X24270*X24298Y27324*X24311Y27307*X24325Y27274*Y27240*X24311Y27206*X24284Y27156*X24148Y26987*X24338*X24475Y27257D2*Y27274D1*X24488Y27307*X24502Y27324*X24530Y27341*X24584*X24611Y27324*X24625Y27307*X24638Y27274*Y27240*X24625Y27206*X24598Y27156*X24461Y26987*X24652*X24538Y31577D2*X24184D1*Y31413*X24538Y31222D2*X24522Y31263D1*X24488Y31277*X24454*X24420Y31263*X24403Y31236*X24386Y31181*X24370Y31140*X24336Y31113*X24302Y31100*X24252*X24218Y31113*X24201Y31127*X24184Y31168*Y31222*X24201Y31263*X24218Y31277*X24252Y31290*X24302*X24336Y31277*X24370Y31250*X24386Y31209*X24403Y31154*X24420Y31127*X24454Y31113*X24488*X24522Y31127*X24538Y31168*Y31222*X29188Y32627D2*X28834D1*Y32463*X29121Y32340D2*X29138Y32313D1*X29188Y32272*X28834*X29188Y32013D2*X28952Y32150D1*Y31945*X29188Y32013D2*X28834D1*X30156Y31282D2*X29802D1*Y31118*X30072Y30982D2*X30089D1*X30122Y30968*X30139Y30955*X30156Y30927*Y30873*X30139Y30846*X30122Y30832*X30089Y30818*X30055*X30021Y30832*X29971Y30859*X29802Y30996*Y30805*X29304Y40472D2*X29338Y40486D1*X29372Y40513*X29388Y40540*Y40595*X29372Y40622*X29338Y40650*X29304Y40663*X29253Y40677*X29169*X29118Y40663*X29085Y40650*X29051Y40622*X29034Y40595*Y40540*X29051Y40513*X29085Y40486*X29118Y40472*X29388Y40172D2*Y40309D1*X29236Y40322*X29253Y40309*X29270Y40268*Y40227*X29253Y40186*X29220Y40159*X29169Y40145*X29135Y40159*X29085Y40172*X29051Y40200*X29034Y40240*Y40281*X29051Y40322*X29068Y40336*X29102Y40350*X23115Y39675D2*X23101Y39709D1*X23074Y39742*X23047Y39759*X22992*X22965Y39742*X22938Y39709*X22924Y39675*X22910Y39624*Y39540*X22924Y39489*X22938Y39456*X22965Y39422*X22992Y39405*X23047*X23074Y39422*X23101Y39456*X23115Y39489*X23265Y39759D2*X23415D1*X23333Y39624*X23374*X23401Y39607*X23415Y39590*X23428Y39540*Y39506*X23415Y39456*X23388Y39422*X23347Y39405*X23306*X23265Y39422*X23251Y39439*X23238Y39472*X23551Y39692D2*X23578Y39709D1*X23620Y39759*Y39405*X22284Y37187D2*Y37541D1*X22407*X22448Y37524*X22461Y37507*X22475Y37474*Y37440*X22461Y37406*X22448Y37389*X22407Y37372*X22284*X22380D2*X22475Y37187D1*X22611Y37457D2*Y37474D1*X22625Y37507*X22638Y37524*X22666Y37541*X22720*X22748Y37524*X22761Y37507*X22775Y37474*Y37440*X22761Y37406*X22734Y37356*X22598Y37187*X22788*X24204Y38472D2*X24238Y38486D1*X24272Y38513*X24288Y38540*Y38595*X24272Y38622*X24238Y38650*X24204Y38663*X24153Y38677*X24069*X24018Y38663*X23985Y38650*X23951Y38622*X23934Y38595*Y38540*X23951Y38513*X23985Y38486*X24018Y38472*X24288Y38322D2*Y38172D1*X24153Y38254*Y38213*X24136Y38186*X24120Y38172*X24069Y38159*X24035*X23985Y38172*X23951Y38200*X23934Y38240*Y38281*X23951Y38322*X23968Y38336*X24002Y38350*X24288Y37954D2*X24272Y37995D1*X24221Y38022*X24136Y38036*X24086*X24002Y38022*X23951Y37995*X23934Y37954*Y37927*X23951Y37886*X24002Y37859*X24086Y37845*X24136*X24221Y37859*X24272Y37886*X24288Y37927*Y37954*X30504Y41372D2*X30538Y41386D1*X30572Y41413*X30588Y41440*Y41495*X30572Y41522*X30538Y41550*X30504Y41563*X30453Y41577*X30369*X30318Y41563*X30285Y41550*X30251Y41522*X30234Y41495*Y41440*X30251Y41413*X30285Y41386*X30318Y41372*X30234Y41195D2*X30588Y41059D1*Y41250*X27122Y41210D2*X27156Y41223D1*X27190Y41250*X27206Y41278*Y41332*X27190Y41360*X27156Y41387*X27122Y41400*X27072Y41414*X26987*X26936Y41400*X26903Y41387*Y41223D2*X26936Y41210D1*X27139Y41087D2*X27156Y41060D1*X27206Y41019*X26852*X27206Y40719D2*Y40855D1*X27055Y40869*X27072Y40855*X27088Y40814*Y40773*X27072Y40732*X27038Y40705*X26987Y40691*X26953Y40705*X26903Y40719*X26869Y40746*X26852Y40787*Y40828*X26869Y40869*X26886Y40882*X26920Y40896*X30034Y29913D2*X30388D1*Y29790*X30372Y29750*X30355Y29736*X30321Y29722*X30270*X30236Y29736*X30220Y29750*X30203Y29790*Y29913*X30321Y29600D2*X30338Y29572D1*X30388Y29531*X30034*X28474Y46837D2*X28120D1*Y46960*X28136Y47000*X28153Y47014*X28187Y47028*X28221*X28255Y47014*X28272Y47000*X28288Y46960*Y46837*Y46932D2*X28474Y47028D1*X28204Y47164D2*X28187D1*X28153Y47178*X28136Y47191*X28120Y47219*Y47273*X28136Y47300*X28153Y47314*X28187Y47328*X28221*X28255Y47314*X28305Y47287*X28474Y47150*Y47341*X28120Y47600D2*X28356Y47464D1*Y47669*X28120Y47600D2*X28474D1*X33988Y27205D2*X33634D1*X33752Y27137D2*Y27342D1*X33988Y27205*X33634Y27464D2*Y27655D1*X33803Y27519*X33853Y27492*X33887Y27478*X33921*X33955Y27492*X33972Y27505*X33988Y27532*Y27587*X33972Y27614*X33955Y27628*X33921Y27642*X33904*X33820Y27873D2*X33634Y27778D1*X33820Y27969D2*Y27846D1*X33836Y27805*X33853Y27792*X33887Y27778*X33921*X33955Y27792*X33972Y27805*X33988Y27846*Y27969*X33634*X32074Y45274D2*X31720D1*X31770Y45233*X31787Y45206*X31905Y44892D2*Y45015D1*X31888Y45056*X31872Y45070*X31838Y45083*X31787*X31753Y45070*X31736Y45056*X31720Y45015*Y44892*X32074*X35188Y33910D2*X35222Y33923D1*X35239Y33937*X35256Y33978*Y34019*X35239Y34060*X35205Y34087*X35155Y34101*X35121Y34114*X35070Y34101*X35036Y34073*X35020Y34032*Y33992*X35036Y33951*X35053Y33937*X34902Y33951*Y34087*X35256Y33787D2*X34902D1*X34952Y33746*X34969Y33719*X35205Y33582D2*X35172Y33596D1*X35205Y33419D2*X35172Y33405D1*X35121Y33392*X35036*X34986Y33405*X34952Y33419*X34918Y33446*X34902Y33473*Y33528*X34918Y33555*X34952Y33582*X34986Y33596*X31520Y33556D2*Y33747D1*X31874Y33611*X31790Y33433D2*X31823Y33420D1*X31857Y33392*X31874Y33365*Y33311*X31857Y33283*X31823Y33256*X31790Y33242*X31739Y33229*X31655*X31604Y33242*X31570Y33256*X31536Y33283*X31520Y33311*Y33365*X31536Y33392*X31570Y33420*X31604Y33433*X37820Y36852D2*Y36879D1*X37836Y36920*X37887Y36947*X37972Y36961*X38022*X38106Y36947*X38157Y36920*X38174Y36879*Y36852*X38157Y36811*X38106Y36783*X38022Y36770*X37972*X37887Y36783*X37836Y36811*X37820Y36852*X38106Y36456D2*X38140Y36470D1*X38157Y36483*X38174Y36524*Y36565*X38157Y36606*X38123Y36633*X38073Y36647*X38039*X37988Y36633*X37972Y36620*X37955Y36592*Y36552*X37820Y36633*Y36483*X38090Y36333D2*X38123Y36320D1*X38157Y36292*X38174Y36265*Y36211*X38157Y36183*X38123Y36156*X38090Y36142*X38039Y36129*X37955*X37904Y36142*X37870Y36156*X37836Y36183*X37820Y36211*Y36265*X37836Y36292*X37870Y36320*X37904Y36333*X39320Y37619D2*X39510D1*X39374Y37450*X39347Y37399*X39333Y37366*Y37332*X39347Y37298*X39360Y37281*X39388Y37264*X39442*X39470Y37281*X39483Y37298*X39497Y37332*Y37349*X39728Y37433D2*X39633Y37619D1*X39824Y37433D2*X39701D1*X39660Y37416*X39647Y37399*X39633Y37366*Y37332*X39647Y37298*X39660Y37281*X39701Y37264*X39824*Y37619*X38488Y35401D2*Y35046D1*X38530Y35097*X38557Y35114*X38870Y35333D2*X38857Y35367D1*X38843Y35384*X38802Y35401*X38761*X38720Y35384*X38693Y35350*X38680Y35299*Y35266*X38693Y35215*X38707Y35198*X38734Y35181*X38775*X38693Y35046*X38843*X38993Y35316D2*X39007Y35350D1*X39034Y35384*X39061Y35401*X39116*X39143Y35384*X39170Y35350*X39184Y35316*X39198Y35266*Y35181*X39184Y35131*X39170Y35097*X39143Y35063*X39116Y35046*X39061*X39034Y35063*X39007Y35097*X38993Y35131*X33006Y34456D2*X33040Y34470D1*X33057Y34483*X33074Y34524*Y34565*X33057Y34606*X33023Y34633*X32973Y34647*X32939Y34661*X32888Y34647*X32855Y34620*X32838Y34579*Y34538*X32855Y34497*X32872Y34483*X32720Y34497*Y34633*X32990Y34333D2*X33023Y34320D1*X33057Y34292*X33074Y34265*Y34211*X33057Y34183*X33023Y34156*X32990Y34142*X32939Y34129*X32855*X32804Y34142*X32770Y34156*X32736Y34183*X32720Y34211*Y34265*X32736Y34292*X32770Y34320*X32804Y34333*X32306Y44001D2*Y43810D1*X32137Y43946*X32087Y43974*X32053Y43987*X32019*X31986Y43974*X31969Y43960*X31952Y43933*Y43878*X31969Y43851*X31986Y43837*X32019Y43824*X32036*X32306Y43687D2*Y43524D1*X31952*X32920Y42792D2*X33274D1*X33156Y42861D2*Y42656D1*X32920Y42792*X33274Y42533D2*X32920D1*X32970Y42492*X32987Y42465*X33274Y42342D2*Y42179D1*X32920*X37570Y43583D2*Y43638D1*X37586Y43679*X37620Y43692*X37654*X37688Y43679*X37705Y43652*X37722Y43597*X37738Y43556*X37772Y43529*X37806Y43515*X37856*X37890Y43529*X37907Y43542*X37924Y43583*Y43638*X37907Y43679*X37890Y43692*X37856Y43706*X37806*X37772Y43692*X37738Y43665*X37722Y43624*X37705Y43570*X37688Y43542*X37654Y43529*X37620*X37586Y43542*X37570Y43583*X37924Y43392D2*Y43229D1*X37570*X37456Y47819D2*X37647D1*X37510Y47650*X37483Y47599*X37470Y47566*Y47532*X37483Y47498*X37497Y47481*X37524Y47464*X37578*X37606Y47481*X37620Y47498*X37633Y47532*Y47549*X37770Y47819D2*X37960D1*X37824Y47650*X37797Y47599*X37783Y47566*Y47532*X37797Y47498*X37810Y47481*X37838Y47464*X37892*X37920Y47481*X37933Y47498*X37947Y47532*Y47549*X38178Y47633D2*X38083Y47819D1*X38274Y47633D2*X38151D1*X38110Y47616*X38097Y47599*X38083Y47566*Y47532*X38097Y47498*X38110Y47481*X38151Y47464*X38274*Y47819*X37647Y48501D2*X37633Y48535D1*X37620Y48552*X37578Y48569*X37538*X37497Y48552*X37470Y48518*X37456Y48468*Y48434*X37470Y48383*X37483Y48366*X37510Y48349*X37551*X37470Y48214*X37620*X37770Y48569D2*X37960D1*X37824Y48400*X37797Y48349*X37783Y48316*Y48282*X37797Y48248*X37810Y48231*X37838Y48214*X37892*X37920Y48231*X37933Y48248*X37947Y48282*Y48299*X38178Y48383D2*X38083Y48569D1*X38274Y48383D2*X38151D1*X38110Y48366*X38097Y48349*X38083Y48316*Y48282*X38097Y48248*X38110Y48231*X38151Y48214*X38274*Y48569*X36183Y41614D2*Y41969D1*X36115Y41851D2*X36320D1*X36183Y41614*X36647Y41901D2*X36633Y41935D1*X36620Y41952*X36578Y41969*X36538*X36497Y41952*X36470Y41918*X36456Y41868*X36442Y41834*X36456Y41783*X36483Y41749*X36524Y41732*X36565*X36606Y41749*X36620Y41766*X36606Y41614*X36470*X36770Y41884D2*X36783Y41918D1*X36810Y41952*X36838Y41969*X36892*X36920Y41952*X36947Y41918*X36960Y41884*X36974Y41834*Y41749*X36960Y41699*X36947Y41665*X36920Y41631*X36892Y41614*X36838*X36810Y41631*X36783Y41665*X36770Y41699*X34820Y41901D2*X34806Y41935D1*X34792Y41952*X34751Y41969*X34710*X34670Y41952*X34642Y41918*X34628Y41868*Y41834*X34642Y41783*X34656Y41766*X34683Y41749*X34724*X34642Y41614*X34792*X35147Y41901D2*X35133Y41935D1*X35120Y41952*X35078Y41969*X35038*X34997Y41952*X34970Y41918*X34956Y41868*X34942Y41834*X34956Y41783*X34983Y41749*X35024Y41733*X35065*X35106Y41749*X35120Y41766*X35106Y41614*X34970*X35270Y41884D2*X35283Y41918D1*X35310Y41952*X35338Y41969*X35392*X35420Y41952*X35447Y41918*X35460Y41884*X35474Y41834*Y41749*X35460Y41699*X35447Y41665*X35420Y41631*X35392Y41614*X35338*X35310Y41631*X35283Y41665*X35270Y41699*X36523Y34997D2*X36557Y35011D1*X36574Y35052*Y35079*X36557Y35120*X36506Y35147*X36422Y35161*X36338*X36270Y35147*X36236Y35120*X36220Y35079*Y35065*X36236Y35024*X36270Y34997*X36321Y34983*X36338*X36388Y34997*X36422Y35024*X36439Y35065*Y35079*X36422Y35120*X36388Y35147*X36338Y35161*X36220Y34792D2*X36574D1*X36456Y34861D2*Y34656D1*X36220Y34792*X36490Y34533D2*X36523Y34520D1*X36557Y34492*X36574Y34465*Y34411*X36557Y34383*X36523Y34356*X36490Y34342*X36439Y34329*X36355*X36304Y34342*X36270Y34356*X36236Y34383*X36220Y34411*Y34465*X36236Y34492*X36270Y34520*X36304Y34533*X36356Y49570D2*X36390Y49583D1*X36407Y49597*X36424Y49638*Y49679*X36407Y49720*X36373Y49747*X36323Y49761*X36289*X36238Y49747*X36222Y49733*X36205Y49706*Y49665*X36070Y49747*Y49597*X36356Y49256D2*X36390Y49270D1*X36407Y49283*X36424Y49324*Y49365*X36407Y49406*X36373Y49433*X36323Y49447*X36289*X36238Y49433*X36222Y49420*X36205Y49392*Y49352*X36070Y49433*Y49283*X36340Y49133D2*X36373Y49120D1*X36407Y49092*X36424Y49065*Y49011*X36407Y48983*X36373Y48956*X36340Y48942*X36289Y48929*X36205*X36154Y48942*X36120Y48956*X36086Y48983*X36070Y49011*Y49065*X36086Y49092*X36120Y49120*X36154Y49133*X32824Y52311D2*Y52120D1*X32655Y52256*X32605Y52283*X32571Y52297*X32537*X32503Y52283*X32486Y52270*X32470Y52242*Y52188*X32486Y52161*X32503Y52147*X32537Y52133*X32554*X32756Y51806D2*X32790Y51820D1*X32807Y51833*X32824Y51874*Y51915*X32807Y51956*X32773Y51983*X32723Y51997*X32689*X32638Y51983*X32622Y51970*X32605Y51942*Y51902*X32470Y51983*Y51833*X32740Y51683D2*X32773Y51670D1*X32807Y51642*X32824Y51615*Y51561*X32807Y51533*X32773Y51506*X32740Y51492*X32689Y51479*X32605*X32554Y51492*X32520Y51506*X32486Y51533*X32470Y51561*Y51615*X32486Y51642*X32520Y51670*X32554Y51683*X33651Y22637D2*X33638Y22586D1*X33610Y22552*X33570Y22535*X33556*X33515Y22552*X33488Y22586*X33474Y22637*Y22654*X33488Y22704*X33515Y22738*X33556Y22755*X33570*X33610Y22738*X33638Y22704*X33651Y22637*Y22552*X33638Y22468*X33610Y22417*X33570Y22400*X33542*X33501Y22417*X33488Y22451*X33774Y22755D2*Y22400D1*X33815Y22451*X33842Y22468*X34060Y22569D2*X33965Y22755D1*X34156Y22569D2*X34033D1*X33992Y22552*X33979Y22535*X33965Y22502*Y22468*X33979Y22434*X33992Y22417*X34033Y22400*X34156*Y22755*X34470Y52102D2*Y52156D1*X34486Y52197*X34520Y52211*X34554*X34588Y52197*X34605Y52170*X34622Y52115*X34638Y52074*X34672Y52047*X34706Y52033*X34756*X34790Y52047*X34807Y52061*X34824Y52102*Y52156*X34807Y52197*X34790Y52211*X34756Y52224*X34706*X34672Y52211*X34638Y52183*X34622Y52142*X34605Y52088*X34588Y52061*X34554Y52047*X34520*X34486Y52061*X34470Y52102*X34824Y51911D2*X34470D1*X34520Y51870*X34537Y51842*X34638Y51624D2*X34824Y51720D1*X34638Y51529D2*Y51652D1*X34622Y51692*X34605Y51706*X34571Y51720*X34537*X34503Y51706*X34486Y51692*X34470Y51652*Y51529*X34824*X36823Y53806D2*X36857Y53820D1*X36874Y53861*Y53888*X36857Y53929*X36806Y53956*X36722Y53970*X36638*X36570Y53956*X36536Y53929*X36520Y53888*Y53874*X36536Y53833*X36570Y53806*X36621Y53792*X36638*X36688Y53806*X36722Y53833*X36739Y53874*Y53888*X36722Y53929*X36688Y53956*X36638Y53970*X36688Y53574D2*X36874Y53670D1*X36688Y53479D2*Y53602D1*X36672Y53642*X36655Y53656*X36621Y53670*X36587*X36553Y53656*X36536Y53642*X36520Y53602*Y53479*X36874*X36520Y52911D2*Y52965D1*X36536Y53006*X36570Y53020*X36604*X36638Y53006*X36655Y52979*X36672Y52924*X36688Y52883*X36722Y52856*X36756Y52842*X36806*X36840Y52856*X36857Y52870*X36874Y52911*Y52965*X36857Y53006*X36840Y53020*X36806Y53033*X36756*X36722Y53020*X36688Y52992*X36672Y52952*X36655Y52897*X36638Y52870*X36604Y52856*X36570*X36536Y52870*X36520Y52911*X36688Y52624D2*X36874Y52720D1*X36688Y52529D2*Y52652D1*X36672Y52692*X36655Y52706*X36621Y52720*X36587*X36553Y52706*X36536Y52692*X36520Y52652*Y52529*X36874*X35388Y49487D2*Y49514D1*X35405Y49555*X35455Y49582*X35540Y49596*X35590*X35675Y49582*X35725Y49555*X35742Y49514*Y49487*X35725Y49446*X35675Y49419*X35590Y49405*X35540*X35455Y49419*X35405Y49446*X35388Y49487*X35742Y49282D2*X35388D1*X35438Y49241*X35455Y49214*X35557Y48996D2*X35742Y49091D1*X35557Y48900D2*Y49023D1*X35540Y49064*X35523Y49078*X35489Y49091*X35455*X35422Y49078*X35405Y49064*X35388Y49023*Y48900*X35742*X34990Y49507D2*X34636D1*X34686Y49466*X34703Y49439*X34990Y49316D2*X34636D1*X34686Y49276*X34703Y49248*X34804Y49030D2*X34990Y49126D1*X34804Y48935D2*Y49057D1*X34787Y49098*X34770Y49112*X34737Y49126*X34703*X34669Y49112*X34652Y49098*X34636Y49057*Y48935*X34990*X37120Y49688D2*Y49715D1*X37136Y49756*X37187Y49783*X37272Y49797*X37322*X37406Y49783*X37457Y49756*X37474Y49715*Y49688*X37457Y49647*X37406Y49620*X37322Y49606*X37272*X37187Y49620*X37136Y49647*X37120Y49688*X37474Y49483D2*Y49292D1*X37305Y49429*X37255Y49456*X37221Y49470*X37187*X37153Y49456*X37136Y49442*X37120Y49415*Y49361*X37136Y49333*X37153Y49320*X37187Y49306*X37204*X37288Y49074D2*X37474Y49170D1*X37288Y48979D2*Y49102D1*X37272Y49142*X37255Y49156*X37221Y49170*X37187*X37153Y49156*X37136Y49142*X37120Y49102*Y48979*X37474*X36923Y51547D2*X36957Y51561D1*X36974Y51602*Y51629*X36957Y51670*X36906Y51697*X36822Y51711*X36738*X36670Y51697*Y51547D2*X36721Y51533D1*X36738*X36788Y51547*X36822Y51574*X36839Y51615*Y51629*X36822Y51670*X36788Y51697*X36738Y51711*X36687Y51342D2*X36670Y51370D1*X36788Y51124D2*X36974Y51220D1*X36788Y51029D2*Y51152D1*X36772Y51192*X36755Y51206*X36721Y51220*X36687*X36653Y51206*X36636Y51192*X36620Y51152*Y51029*X36974*X33888Y48873D2*X33922Y48887D1*X33939Y48901*X33956Y48942*Y48982*X33939Y49023*X33905Y49051*X33855Y49064*X33821*X33770Y49051*X33753Y49037*X33736Y49010*Y48969*X33602Y49051*Y48901*X33956Y48560D2*Y48655D1*X33939Y48696*X33905Y48723*X33872Y48737*X33821Y48751*X33736*X33686Y48737*X33652Y48723*X33618Y48696*X33602Y48655*Y48560*X33956*Y48437D2*Y48273D1*X33602*X31556Y49064D2*Y48873D1*X31387Y49010*X31336Y49037*X31303Y49051*X31269*X31235Y49037*X31218Y49023*X31202Y48996*Y48942*X31218Y48914*X31235Y48901*X31269Y48887*X31286*X31556Y48560D2*Y48655D1*X31539Y48696*X31505Y48723*X31472Y48737*X31421Y48751*X31336*X31286Y48737*X31252Y48723*X31218Y48696*X31202Y48655*Y48560*X31556*Y48437D2*Y48273D1*X31202*X32006Y52414D2*X31652D1*X31702Y52373*X31719Y52346*X32006Y52032D2*Y52128D1*X31989Y52169*X31955Y52196*X31922Y52210*X31871Y52223*X31786*X31736Y52210*X31702Y52196*X31668Y52169*X31652Y52128*Y52032*X32006*Y51910D2*Y51746D1*X31652*X34706Y33465D2*X34655Y33479D1*X34622Y33506*X34605Y33547*Y33561*X34622Y33602*X34655Y33629*X34706Y33642*X34723*X34773Y33629*X34807Y33602*X34824Y33561*Y33547*X34807Y33506*X34773Y33479*X34706Y33465*X34622*X34537Y33479*X34486Y33506*X34470Y33547*Y33574*X34486Y33615*X34520Y33629*X34824Y33342D2*Y33179D1*X34470*X33652Y45973D2*Y46164D1*X34006Y46028*Y45851D2*Y45687D1*X33652*X33356Y31406D2*X33390Y31420D1*X33407Y31433*X33424Y31474*Y31515*X33407Y31556*X33373Y31583*X33323Y31597*X33289Y31611*X33238Y31597*X33205Y31570*X33188Y31529*Y31488*X33205Y31447*X33222Y31433*X33070Y31447*Y31583*X33424Y31283D2*X33070D1*X33120Y31242*X33137Y31215*X33424Y31092D2*Y30929D1*X33070*X38756Y43614D2*X38402D1*X38452Y43573*X38469Y43546*X38756Y43423D2*Y43260D1*X38402*X39238Y51010D2*X39272Y51023D1*X39289Y51037*X39306Y51078*Y51119*X39289Y51160*X39255Y51187*X39205Y51201*X39171Y51214*X39120Y51201*X39086Y51173*X39070Y51132*Y51092*X39086Y51051*X39103Y51037*X38952Y51051*Y51187*X39238Y50696D2*X39272Y50710D1*X39289Y50723*X39306Y50764*Y50805*X39289Y50846*X39255Y50873*X39205Y50887*X39171*X39120Y50873*X39103Y50860*X39086Y50832*Y50792*X38952Y50873*Y50723*X39222Y50573D2*X39255Y50560D1*X39289Y50532*X39306Y50505*Y50451*X39289Y50423*X39255Y50396*X39222Y50382*X39171Y50369*X39086*X39036Y50382*X39002Y50396*X38968Y50423*X38952Y50451*Y50505*X38968Y50532*X39002Y50560*X39036Y50573*X38724Y45324D2*Y45133D1*X38555Y45270*X38505Y45297*X38471Y45311*X38437*X38403Y45297*X38386Y45283*X38370Y45256*Y45202*X38386Y45174*X38403Y45161*X38437Y45147*X38454*X38656Y44806D2*X38690Y44820D1*X38707Y44833*X38724Y44874*Y44915*X38707Y44956*X38673Y44983*X38623Y44997*X38589Y45011*X38538Y44997*X38505Y44970*X38488Y44929*Y44888*X38505Y44847*X38522Y44833*X38370Y44847*Y44983*X38640Y44683D2*X38673Y44670D1*X38707Y44642*X38724Y44615*Y44561*X38707Y44533*X38673Y44506*X38640Y44492*X38589Y44479*X38505*X38454Y44492*X38420Y44506*X38386Y44533*X38370Y44561*Y44615*X38386Y44642*X38420Y44670*X38454Y44683*X35152Y47042D2*Y47096D1*X35168Y47137*X35202Y47151*X35236*X35270Y47137*X35286Y47110*X35303Y47055*X35320Y47014*X35354Y46987*X35388Y46973*X35438*X35472Y46987*X35489Y47001*X35506Y47042*Y47096*X35489Y47137*X35472Y47151*X35438Y47164*X35388*X35354Y47151*X35320Y47123*X35303Y47082*X35286Y47028*X35270Y47001*X35236Y46987*X35202*X35168Y47001*X35152Y47042*X35506Y46851D2*X35152D1*X35202Y46810*X35219Y46782*X35506Y46660D2*Y46496D1*X35152*X33920Y31406D2*Y31597D1*X34274Y31461*Y31283D2*X33920D1*X33970Y31242*X33987Y31215*X34274Y31092D2*Y30929D1*X33920*X36856Y46892D2*X36805Y46906D1*X36772Y46933*X36755Y46974*Y46988*X36772Y47029*X36805Y47056*X36856Y47070*X36873*X36923Y47056*X36957Y47029*X36974Y46988*Y46974*X36957Y46933*X36923Y46906*X36856Y46892*X36772*X36687Y46906*X36636Y46933*X36620Y46974*Y47002*X36636Y47042*X36670Y47056*X36620Y46770D2*X36873D1*X36923Y46756*X36957Y46729*X36974Y46688*Y46661*X36957Y46620*X36923Y46592*X36873Y46579*X36620*X35974Y53433D2*Y53242D1*X35805Y53379*X35755Y53406*X35721Y53420*X35687*X35653Y53406*X35636Y53392*X35620Y53365*Y53311*X35636Y53283*X35653Y53270*X35687Y53256*X35704*X35620Y53120D2*X35873D1*X35923Y53106*X35957Y53079*X35974Y53038*Y53011*X35957Y52970*X35923Y52942*X35873Y52929*X35620*X33442Y49714D2*X33415D1*X33374Y49731*X33347Y49782*X33333Y49866*Y49917*X33347Y50001*X33374Y50052*X33415Y50069*X33442*X33483Y50052*X33510Y50001*X33524Y49917*Y49866*X33510Y49782*X33483Y49731*X33442Y49714*X33647Y50069D2*X33838D1*X33701Y49900*X33674Y49849*X33660Y49816*Y49782*X33674Y49748*X33688Y49731*X33715Y49714*X33770*X33797Y49731*X33810Y49748*X33824Y49782*Y49799*X33960Y50069D2*X34124D1*Y49714*X32883Y54018D2*X32870Y54052D1*X32828Y54069*X32801*X32760Y54052*X32733Y54001*X32720Y53917*Y53832*X32733Y53765*X32760Y53731*X32801Y53714*X32815*X32856Y53731*X32883Y53765*X32897Y53816*Y53832*X32883Y53883*X32856Y53917*X32815Y53934*X32801*X32760Y53917*X32733Y53883*X32720Y53832*X33020Y54069D2*Y53714D1*X33060Y53765*X33088Y53782*X33210Y54069D2*X33374D1*Y53714*X34324Y43911D2*X33970D1*X34020Y43870*X34037Y43842*X33970Y43720D2*X34324Y43529D1*X33970D2*X34324Y43720D1*X31724Y35661D2*X31370D1*X31420Y35620*X31437Y35592*X31370Y35470D2*X31623D1*X31673Y35456*X31707Y35429*X31724Y35388*Y35361*X31707Y35320*X31673Y35292*X31623Y35279*X31370*X37998Y23594D2*X38031Y23608D1*X38048Y23622*X38065Y23663*Y23704*X38048Y23744*X38014Y23772*X37964Y23785*X37930Y23799*X37880Y23785*X37846Y23758*X37829Y23717*Y23676*X37846Y23635*X37863Y23622*X37711Y23635*Y23772*Y23472D2*X37964D1*X38014Y23458*X38048Y23431*X38065Y23390*Y23363*X38048Y23322*X38014Y23294*X37964Y23281*X37711*X31602Y25896D2*X31956D1*X31838Y25964D2*Y25760D1*X31602Y25896*Y25637D2*X31855D1*X31905Y25623*X31939Y25596*X31956Y25555*Y25528*X31939Y25487*X31905Y25460*X31855Y25446*X31602*X31606Y46792D2*X31640Y46806D1*X31657Y46820*X31674Y46861*Y46902*X31657Y46942*X31623Y46970*X31573Y46983*X31539*X31488Y46970*X31472Y46956*X31455Y46929*Y46888*X31320Y46970*Y46820*Y46670D2*X31573D1*X31623Y46656*X31657Y46629*X31674Y46588*Y46561*X31657Y46520*X31623Y46492*X31573Y46479*X31320*X38247Y38905D2*X38280Y38918D1*X38297Y38932*X38314Y38973*Y39014*X38297Y39055*X38264Y39082*X38213Y39096*X38179*X38129Y39082*X38112Y39068*X38095Y39041*Y39000*X37960Y39082*Y38932*Y38782D2*X38314D1*X37960Y38591*X38314*X38129Y38373D2*X38314Y38468D1*X38129Y38278D2*Y38400D1*X38112Y38441*X38095Y38455*X38061Y38468*X38027*X37994Y38455*X37977Y38441*X37960Y38400*Y38278*X38314*X38756Y30314D2*Y30123D1*X38587Y30260*X38536Y30287*X38503Y30301*X38469*X38435Y30287*X38418Y30273*X38402Y30246*Y30192*X38418Y30164*X38435Y30151*X38469Y30137*X38486*X38402Y30001D2*X38756D1*X38402Y29810*X38756*X38570Y29592D2*X38756Y29687D1*X38570Y29496D2*Y29619D1*X38553Y29660*X38536Y29673*X38503Y29687*X38469*X38435Y29673*X38418Y29660*X38402Y29619*Y29496*X38756*X40555Y22438D2*X40201D1*X40251Y22397*X40268Y22369*X40386Y22056D2*Y22178D1*X40369Y22219*X40352Y22233*X40319Y22247*X40268*X40234Y22233*X40218Y22219*X40201Y22178*Y22056*X40555*X37156Y30006D2*X37190Y30020D1*X37207Y30033*X37224Y30074*Y30115*X37207Y30156*X37173Y30183*X37123Y30197*X37089*X37038Y30183*X37022Y30170*X37005Y30142*Y30102*X36870Y30183*Y30033*Y29883D2*X37224D1*X36870Y29692*X37224*Y29379D2*Y29474D1*X37207Y29515*X37173Y29542*X37140Y29556*X37089Y29570*X37005*X36954Y29556*X36920Y29542*X36886Y29515*X36870Y29474*Y29379*X37224*Y33497D2*Y33306D1*X37055Y33442*X37005Y33470*X36971Y33483*X36937*X36903Y33470*X36886Y33456*X36870Y33429*Y33374*X36886Y33347*X36903Y33333*X36937Y33320*X36954*X36870Y33183D2*X37224D1*X36870Y32992*X37224*Y32679D2*Y32774D1*X37207Y32815*X37173Y32842*X37140Y32856*X37089Y32870*X37005*X36954Y32856*X36920Y32842*X36886Y32815*X36870Y32774*Y32679*X37224*Y31724D2*X36870D1*X36920Y31683*X36937Y31656*X36870Y31533D2*X37224D1*X36870Y31342*X37224*Y31029D2*Y31124D1*X37207Y31165*X37173Y31192*X37140Y31206*X37089Y31220*X37005*X36954Y31206*X36920Y31192*X36886Y31165*X36870Y31124*Y31029*X37224*X35205Y33419D2*X35239Y33446D1*X35256Y33473*Y33528*X35239Y33555*X35205Y33582*X36670Y51370D2*X36620Y51411D1*X36974*X36670Y51547D2*X36636Y51574D1*X36620Y51615*Y51629*X36636Y51670*X36670Y51697*X31720Y44626D2*Y44770D1*X31806Y44674D2*X31720D1*X32074D2*X32002D1*D17*X23234Y38037D2*X23374D1*X23234Y38577D2*X23374D1*X23234Y37387D2*X23374D1*X23234Y37927D2*X23374D1*X23234Y38687D2*X23374D1*X23234Y39227D2*X23374D1*X25234Y27427D2*X25374D1*X25234Y26887D2*X25374D1*X25234Y26677D2*X25374D1*X25234Y26137D2*X25374D1*X25484Y32677D2*X25624D1*X25484Y32137D2*X25624D1*X26984D2*X27124D1*X26984Y32677D2*X27124D1*X26784Y40127D2*Y39987D1*X27324Y40127D2*Y39987D1*X30674Y40477D2*Y40337D1*X30134Y40477D2*Y40337D1*X28824Y40477D2*Y40337D1*X28284Y40477D2*Y40337D1*X26034Y40127D2*Y39987D1*X26574Y40127D2*Y39987D1*X26074Y24477D2*Y24337D1*X25534Y24477D2*Y24337D1*X28534Y22977D2*Y22837D1*X29074Y22977D2*Y22837D1*X28324Y22977D2*Y22837D1*X27784Y22977D2*Y22837D1*X25074Y21227D2*Y21087D1*X24534Y21227D2*Y21087D1*X25074Y22227D2*Y22087D1*X24534Y22227D2*Y22087D1*X26824Y24477D2*Y24337D1*X26284Y24477D2*Y24337D1*X27034Y24477D2*Y24337D1*X27574Y24477D2*Y24337D1*X24534Y24477D2*Y24337D1*X25074Y24477D2*Y24337D1*X24534Y23477D2*Y23337D1*X25074Y23477D2*Y23337D1*X23879Y29076D2*X23987D1*X23879Y27738D2*X23987D1*X23121D2*X23229D1*X23121Y29076D2*X23229D1*X23121Y28958D2*X23229D1*X23879D2*X23987D1*X23371Y23238D2*X23479D1*X23371Y24576D2*X23479D1*X24129D2*X24237D1*X24129Y23238D2*X24237D1*X24129Y23356D2*X24237D1*X23371D2*X23479D1*X24654Y29607D2*X24754D1*Y28707D2*X24654D1*X25504D2*X25104D1*X25954Y29607D2*X25854D1*Y28707D2*X25954D1*X29158Y24519D2*X29355Y24322D1*X28253D2*X28450Y24519D1*Y23495D2*X28253Y23692D1*X29355D2*X29158Y23495D1*Y22269D2*X29355Y22072D1*X28253D2*X28450Y22269D1*Y21245D2*X28253Y21442D1*X29355D2*X29158Y21245D1*X23285Y50868D2*X23323Y50861D1*X23361Y50868*X28904Y28607D2*X29004D1*Y27707D2*X28904D1*X30204Y28607D2*X30104D1*Y27707D2*X30204D1*X24166Y42614D2*X24133Y42636D1*X24112Y42669*X24104Y42707*X24112Y42745*X24133Y42778*X24166Y42799*X23716Y35364D2*X23683Y35386D1*X23662Y35419*X23654Y35457*X23662Y35495*X23683Y35528*X23716Y35549*X22553Y37007D2*Y35307D1*X23655D2*Y37007D1*X23003Y44257D2*Y42557D1*X24105D2*Y44257D1*X25454Y43957D2*X25416Y43964D1*X25383Y43986*X25525D2*X25492Y43964D1*X25454Y43957*Y42307D2*X25416Y42314D1*X25383Y42336*X25525D2*X25492Y42314D1*X25454Y42307*Y45607D2*X25416Y45614D1*X25383Y45636*X25525D2*X25492Y45614D1*X25454Y45607*X23702Y22090D2*Y21915D1*X23545Y22010*Y21963*X23525Y21931*X23506Y21915*X23446Y21899*X23407*X23348Y21915*X23309Y21947*X23289Y21994*Y22042*X23309Y22090*X23328Y22106*X23368Y22122*X23702Y21756D2*X23289Y21629D1*X23702Y21501*Y21326D2*Y21151D1*X23545Y21247*Y21199*X23525Y21167*X23506Y21151*X23446Y21135*X23407*X23348Y21151*X23309Y21183*X23289Y21231*Y21279*X23309Y21326*X23328Y21342*X23368Y21358*X29774Y25322D2*X29793Y25290D1*X29852Y25242*X29439*X29852Y25099D2*X29439Y24972D1*X29852Y24844*Y24622D2*X29833Y24670D1*X29793Y24685*X29754*X29715Y24670*X29695Y24638*X29675Y24574*X29656Y24526*X29616Y24494*X29577Y24479*X29518*X29478Y24494*X29459Y24510*X29439Y24558*Y24622*X29459Y24670*X29478Y24685*X29518Y24701*X29577*X29616Y24685*X29656Y24654*X29675Y24606*X29695Y24542*X29715Y24510*X29754Y24494*X29793*X29833Y24510*X29852Y24558*Y24622*X27155Y53202D2*X27100D1*X27064Y53179*X27028Y53134*X27009Y53067*Y53202D2*Y52887D1*X26846Y52954D2*X26809Y52909D1*X26773Y52887*X26718*X26682Y52909*X26646Y52954*X26628Y53022*Y53067*X26646Y53134*X26682Y53179*X26718Y53202*X26773*X26809Y53179*X26828Y53157*X26846Y53112*Y53067*X26628*X26464Y53359D2*Y52887D1*X26300Y53359D2*Y52887D1*X25991Y53202D2*X26046D1*X26082Y53179*X26118Y53134*X26137Y53067*Y53022*X26118Y52954*X26082Y52909*X26046Y52887*X25991*X25955Y52909*X25918Y52954*X25900Y53022*Y53067*X25918Y53134*X25955Y53179*X25991Y53202*X25737D2*X25682D1*X25646Y53179*X25609Y53134*X25591Y53067*Y53202D2*Y52887D1*X25282Y53202D2*X25409D1*X25428Y52887D2*X25391D1*X25355Y52909*X25337Y52977*Y53359*X25118Y52887D2*Y53112D1*X25100Y53179*X25064Y53202*X25009*X24973Y53179*X24918Y53112*Y53202D2*Y52887D1*X24609Y53202D2*X24664D1*X24700Y53179*X24737Y53134*X24755Y53067*Y53022*X24737Y52954*X24700Y52909*X24664Y52887*X24609*X24573Y52909*X24537Y52954*X24518Y53022*Y53067*X24537Y53134*X24573Y53179*X24609Y53202*X23148Y51947D2*X22894D1*X23076Y52172*X23112Y52239*X23130Y52284*Y52329*X23112Y52374*X23094Y52397*X23058Y52419*X22985*X22948Y52397*X22930Y52374*X22912Y52329*Y52307*X25208Y47707D2*Y47729D1*X25226Y47774*X25244Y47797*X25280Y47819*X25353*X25390Y47797*X25408Y47774*X25426Y47729*Y47684*X25408Y47639*X25371Y47572*X25190Y47347*X25444*X26554Y44007D2*X26204D1*Y43907*X26004*Y44007*X25654*X26554Y42707D2*X25654D1*X26554Y42357D2*X26204D1*Y42257*X26004*Y42357*X25654*X26554Y41057D2*X25654D1*X26554Y45657D2*X26204D1*Y45557*X26004*Y45657*X25654*X26554Y44357D2*X25654D1*X23003Y42557D2*X24105D1*Y44257D2*X23003D1*X22553Y35307D2*X23655D1*Y37007D2*X22553D1*X30204Y27707D2*Y28057D1*X30104*Y28257*X30204*Y28607*X28904Y27707D2*Y28607D1*X28106Y48625D2*X28306D1*Y48875*X28606*Y48625*X28806*Y50625*X28106*Y48625*X25773Y50806D2*X24950D1*Y50646*X24795*Y50806*X23973*Y48730*X25773*Y50806*X24400Y39212D2*X30109D1*X30306Y39015*Y33306*X24400*Y39212*X27603Y30777D2*Y32037D1*X25005*Y30777*X27603*X29158Y21245D2*X28450D1*Y22269D2*X29158D1*Y23495D2*X28450D1*Y24519D2*X29158D1*X25713Y23497D2*X26028D1*X26580D2*X26895D1*Y22316D2*X26580D1*X26028D2*X25713D1*X25954Y28707D2*Y29057D1*X25854*Y29257*X25954*Y29607*X24654Y28707D2*Y29607D1*X23987Y29076D2*Y27738D1*X23121D2*Y29076D1*X23371Y23238D2*Y24576D1*X24237D2*Y23238D1*X22494Y51947D2*Y52419D1*X22730*X22494Y52194D2*X22640D1*X23403Y52419D2*X23348Y52397D1*X23330Y52352*Y52307*X23348Y52262*X23385Y52239*X23458Y52217*X23512Y52194*X23548Y52149*X23567Y52104*Y52037*X23548Y51992*X23530Y51969*X23476Y51947*X23403*X23348Y51969*X23330Y51992*X23312Y52037*Y52104*X23330Y52149*X23367Y52194*X23421Y52217*X23494Y52239*X23530Y52262*X23548Y52307*Y52352*X23530Y52397*X23476Y52419*X23403*X23767D2*X23967D1*X23858Y52239*X23912*X23948Y52217*X23967Y52194*X23985Y52127*Y52082*X23967Y52014*X23930Y51969*X23876Y51947*X23821*X23767Y51969*X23748Y51992*X23730Y52037*X24185Y52419D2*X24385D1*X24276Y52239*X24330*X24367Y52217*X24385Y52194*X24403Y52127*Y52082*X24385Y52014*X24348Y51969*X24294Y51947*X24240*X24185Y51969*X24167Y51992*X24148Y52037*X24567Y52262D2*X24767Y51947D1*Y52262D2*X24567Y51947D1*X24930Y52149D2*X25258D1*X25421Y51947D2*Y52419D1*X25585*X25640Y52397*X25658Y52374*X25676Y52329*Y52284*X25658Y52239*X25640Y52217*X25585Y52194*X25421*X25585D2*X25640Y52172D1*X25658Y52149*X25676Y52104*Y52037*X25658Y51992*X25640Y51969*X25585Y51947*X25421*X26112Y52307D2*X26094Y52352D1*X26058Y52397*X26021Y52419*X25948*X25912Y52397*X25876Y52352*X25858Y52307*X25840Y52239*Y52127*X25858Y52059*X25876Y52014*X25912Y51969*X25948Y51947*X26021*X26058Y51969*X26094Y52014*X26112Y52059*Y52127*X26021*X26276Y51947D2*X26421Y52419D1*X26567Y51947*X26330Y52104D2*X26512D1*X23244Y47347D2*Y47819D1*X23408*X23462Y47797*X23480Y47774*X23498Y47729*Y47684*X23480Y47639*X23462Y47617*X23408Y47594*X23244*X23371D2*X23498Y47347D1*X23662Y47527D2*X23880D1*Y47572*X23862Y47617*X23844Y47639*X23808Y47662*X23753*X23717Y47639*X23680Y47594*X23662Y47527*Y47482*X23680Y47414*X23717Y47369*X23753Y47347*X23808*X23844Y47369*X23880Y47414*X24044Y47819D2*Y47347D1*X24208Y47549D2*X24535D1*X24698Y47729D2*X24735Y47752D1*X24790Y47819*Y47347*X24971Y47392D2*X24953Y47369D1*X24971Y47347*X24990Y47369*X24971Y47392*X25619Y23496D2*X25657Y23504D1*X25690Y23525*X25711Y23558*X25719Y23596*X25711Y23634*X25690Y23667*X25657Y23689*X25619Y23696*X25581Y23689*X25548Y23667*X25527Y23634*X25519Y23596*X25527Y23558*X25548Y23525*X25581Y23504*X25619Y23496*X23361Y50868D2*X23394Y50890D1*X23415Y50923*X23423Y50961*X23415Y50999*X23394Y51032*X23361Y51053*X23323Y51061*X23285Y51053*X23252Y51032*X23231Y50999*X23223Y50961*X23231Y50923*X23252Y50890*X23285Y50868*X29706Y48425D2*X29744Y48433D1*X29776Y48455*X29798Y48487*X29806Y48525*X29798Y48564*X29776Y48596*X29744Y48618*X29706Y48625*X29667Y48618*X29635Y48596*X29613Y48564*X29606Y48525*X29613Y48487*X29635Y48455*X29667Y48433*X29706Y48425*X23754Y35357D2*X23792Y35364D1*X23825Y35386*X23846Y35419*X23854Y35457*X23846Y35495*X23825Y35528*X23792Y35549*X23754Y35557*X23716Y35549*Y35364D2*X23754Y35357D1*X24204Y42607D2*X24242Y42614D1*X24275Y42636*X24296Y42669*X24304Y42707*X24296Y42745*X24275Y42778*X24242Y42799*X24204Y42807*X24166Y42799*Y42614D2*X24204Y42607D1*X25525Y45636D2*X25546Y45669D1*X25554Y45707*X25546Y45745*X25525Y45778*X25492Y45799*X25454Y45807*X25416Y45799*X25383Y45778*X25362Y45745*X25354Y45707*X25362Y45669*X25383Y45636*X25525Y42336D2*X25546Y42369D1*X25554Y42407*X25546Y42445*X25525Y42478*X25492Y42499*X25454Y42507*X25416Y42499*X25383Y42478*X25362Y42445*X25354Y42407*X25362Y42369*X25383Y42336*X25525Y43986D2*X25546Y44019D1*X25554Y44057*X25546Y44095*X25525Y44128*X25492Y44149*X25454Y44157*X25416Y44149*X25383Y44128*X25362Y44095*X25354Y44057*X25362Y44019*X25383Y43986*X36725Y30820D2*X36746Y30787D1*X36754Y30749*X36746Y30711*X36725Y30678*X36692Y30656*X36654Y30649*X36616Y30656*X36583Y30678*X36562Y30711*X36554Y30749*X36562Y30787*X36583Y30820*X36725Y32470D2*X36746Y32437D1*X36754Y32399*X36746Y32361*X36725Y32328*X36692Y32306*X36654Y32299*X36616Y32306*X36583Y32328*X36562Y32361*X36554Y32399*X36562Y32437*X36583Y32470*X36725Y29170D2*X36746Y29137D1*X36754Y29099*X36746Y29061*X36725Y29028*X36692Y29006*X36654Y28999*X36616Y29006*X36583Y29028*X36562Y29061*X36554Y29099*X36562Y29137*X36583Y29170*X37942Y32191D2*X37904Y32199D1*X37942Y32006D2*X37904Y31999D1*X37866Y32006*X37833Y32028*X37812Y32061*X37804Y32099*X37812Y32137*X37833Y32170*X37866Y32191*X37904Y32199*X38392Y39441D2*X38354Y39449D1*X38392Y39256D2*X38354Y39249D1*X38316Y39256*X38283Y39278*X38262Y39311*X38254Y39349*X38262Y39387*X38283Y39420*X38316Y39441*X38354Y39449*X32402Y26380D2*X32441Y26373D1*X32473Y26351*X32495Y26319*X32502Y26280*X32495Y26242*X32473Y26210*X32441Y26188*X32402Y26180*X32364Y26188*X32332Y26210*X32310Y26242*X32302Y26280*X32310Y26319*X32332Y26351*X32364Y26373*X32402Y26380*X38823Y23937D2*X38856Y23916D1*X38877Y23883*X38885Y23845*X38877Y23807*X38856Y23774*X38823Y23752*X38785Y23745*X38747Y23752*X38714Y23774*X38693Y23807*X38685Y23845*X38693Y23883*X38714Y23916*X38747Y23937*X36489Y51309D2*X36527Y51302D1*X36560Y51280*X36581Y51248*X36589Y51209*X36581Y51171*X36560Y51139*X36527Y51117*X36489Y51109*X36451Y51117*X36418Y51139*X36397Y51171*X36389Y51209*X36397Y51248*X36418Y51280*X36451Y51302*X36489Y51309*X37137Y27414D2*X37118Y27436D1*X37137Y27459*X37155Y27436*X37137Y27414*X37318Y27459D2*Y26986D1*X37373Y27054*X37410Y27076*X37900Y27256D2*X37573D1*X38064Y26986D2*Y27459D1*X38228Y27391D2*X38264Y27436D1*X38300Y27459*X38355*X38391Y27436*X38428Y27391*X38446Y27324*Y27279*X38428Y27211*X38391Y27166*X38355Y27144*X38300*X38264Y27166*X38246Y27189*X38228Y27234*Y27279*X38446*X38737Y27211D2*X38610Y27459D1*X38864Y27211D2*X38700D1*X38646Y27189*X38628Y27166*X38610Y27121*Y27076*X38628Y27031*X38646Y27009*X38700Y26986*X38864*Y27459*X35778Y22701D2*X35596D1*X35541Y22859D2*X35687Y22386D1*X35832Y22859*X36087Y22679D2*X35996D1*Y22746*X36014Y22791*X36050Y22836*X36087Y22859*X36160*X36196Y22836*X36232Y22791*X36250Y22746*X36268Y22679*Y22566*X36250Y22499*X36232Y22454*X36196Y22409*X36160Y22386*X36087*X36050Y22409*X36014Y22454*X35996Y22499*X36687Y22859D2*X36523D1*X36468Y22836*X36450Y22814*X36432Y22769*Y22701*X36450Y22656*X36468Y22634*X36523Y22611*X36687*X36523D2*X36468Y22589D1*X36450Y22566*X36432Y22521*Y22476*X36450Y22431*X36468Y22409*X36523Y22386*X36687*Y22859*X37178Y22656D2*X36850D1*X37341Y22544D2*X37541Y22859D1*Y22544D2*X37341Y22859D1*X37960Y22769D2*X37941Y22814D1*X37923Y22836*X37868Y22859*X37814*X37760Y22836*X37723Y22791*X37705Y22724*Y22679*X37723Y22611*X37741Y22589*X37778Y22566*X37832*X37723Y22386*X37923*X38378Y22769D2*X38360Y22814D1*X38341Y22836*X38287Y22859*X38232*X38178Y22836*X38141Y22791*X38123Y22724*Y22679*X38141Y22611*X38160Y22589*X38196Y22566*X38250*X38141Y22386*X38341*X38705D2*X38632D1*X38578Y22409*X38560Y22454*Y22499*X38578Y22544*X38614Y22566*X38687Y22589*X38741Y22611*X38778Y22656*X38796Y22701*Y22769*X38778Y22814*X38760Y22836*X38705Y22859*X38632*X38578Y22836*X38560Y22814*X38541Y22769*Y22701*X38560Y22656*X38596Y22611*X38650Y22589*X38723Y22566*X38760Y22544*X38778Y22499*Y22454*X38760Y22409*X38705Y22386*X39614Y22611D2*X39468D1*X39378Y22386D2*X39614D1*Y22859*X37871Y50230D2*Y51568D1*X38737D2*Y50230D1*X38987Y47068D2*Y45730D1*X38121D2*Y47068D1*X37454Y46099D2*Y45199D1*X36154D2*Y45549D1*X36254*Y45749*X36154*Y46099*X36080Y52489D2*X36395D1*X35213D2*X35528D1*Y51308D2*X35213D1*X36395D2*X36080D1*X33658Y50287D2*X32950D1*Y51311D2*X33658D1*Y52537D2*X32950D1*Y53561D2*X33658D1*X34505Y44029D2*X37103D1*Y42769*X34505*Y44029*X37708Y35594D2*Y41499D1*X31802*Y35790*X31999Y35594*X37708*X36335Y23999D2*Y26076D1*X38135*Y23999*X37313*Y24159*X37158*Y23999*X36335*X34002Y26180D2*Y24180D1*X33302*Y26180*X33502*Y25930*X33802*Y26180*X34002*X33204Y47099D2*Y46199D1*X31904D2*Y46549D1*X32004*Y46749*X31904*Y47099*X38453Y37799D2*X39555D1*Y39499D2*X38453D1*X38003Y30549D2*X39105D1*Y32249D2*X38003D1*X35554Y30449D2*X36454D1*Y29149D2*X36104D1*Y29249*X35904*Y29149*X35554*Y33749D2*X36454D1*Y32449D2*X36104D1*Y32549*X35904*Y32449*X35554*Y32099D2*X36454D1*Y30799D2*X36104D1*Y30899*X35904*Y30799*X35554*X36664Y27459D2*X36918D1*X36737Y27234*X36700Y27166*X36682Y27121*Y27076*X36700Y27031*X36718Y27009*X36755Y26986*X36828*X36864Y27009*X36882Y27031*X36900Y27076*Y27099*X39196Y22499D2*Y22476D1*X39178Y22431*X39160Y22409*X39123Y22386*X39050*X39014Y22409*X38996Y22431*X38978Y22476*Y22521*X38996Y22566*X39032Y22634*X39214Y22859*X38960*X37499Y21604D2*X37535Y21626D1*X37571Y21671*X37590Y21739*Y21784*X37571Y21851*X37535Y21896*X37499Y21919*X37444*X37408Y21896*X37371Y21851*X37353Y21784*Y21739*X37371Y21671*X37408Y21626*X37444Y21604*X37499*X37190D2*Y21919D1*Y21694D2*X37135Y21626D1*X37099Y21604*X37044*X37008Y21626*X36990Y21694*Y21919*X36771Y21446D2*Y21829D1*X36753Y21896*X36717Y21919*X36680*X36826Y21604D2*X36699D1*X36517D2*Y21919D1*Y21739D2*X36499Y21671D1*X36462Y21626*X36426Y21604*X36371*X36117D2*X36153Y21626D1*X36190Y21671*X36208Y21739*Y21784*X36190Y21851*X36153Y21896*X36117Y21919*X36062*X36026Y21896*X35990Y21851*X35971Y21784*Y21739*X35990Y21671*X36026Y21626*X36062Y21604*X36117*X35808Y21446D2*Y21919D1*X35644Y21446D2*Y21919D1*X35480Y21739D2*X35262D1*Y21694*X35280Y21649*X35299Y21626*X35335Y21604*X35390*X35426Y21626*X35462Y21671*X35480Y21739*Y21784*X35462Y21851*X35426Y21896*X35390Y21919*X35335*X35299Y21896*X35262Y21851*X35099Y21604D2*Y21919D1*Y21739D2*X35080Y21671D1*X35044Y21626*X35008Y21604*X34953*X32256Y50184D2*Y50247D1*X32275Y50295*X32315Y50311*X32354*X32393Y50295*X32413Y50263*X32433Y50200*X32452Y50152*X32492Y50120*X32531Y50104*X32590*X32630Y50120*X32649Y50136*X32669Y50184*Y50247*X32649Y50295*X32630Y50311*X32590Y50327*X32531*X32492Y50311*X32452Y50279*X32433Y50232*X32413Y50168*X32393Y50136*X32354Y50120*X32315*X32275Y50136*X32256Y50184*Y49961D2*X32669Y49834D1*X32256Y49706*X32669Y49563D2*X32256D1*X32315Y49516*X32334Y49484*X38740Y53447D2*X38780Y53463D1*X38799Y53479*X38819Y53527*Y53575*X38799Y53622*X38760Y53654*X38701Y53670*X38662*X38602Y53654*X38583Y53638*X38563Y53606*Y53559*X38406Y53654*Y53479*Y53304D2*X38819Y53177D1*X38406Y53050*X38740Y52684D2*X38780Y52700D1*X38799Y52716*X38819Y52763*Y52811*X38799Y52859*X38760Y52891*X38701Y52906*X38662*X38602Y52891*X38583Y52875*X38563Y52843*Y52795*X38406Y52891*Y52716*X36654Y29199D2*X36616Y29191D1*X36583Y29170*X36725D2*X36692Y29191D1*X36654Y29199*Y32499D2*X36616Y32491D1*X36583Y32470*X36725D2*X36692Y32491D1*X36654Y32499*Y30849D2*X36616Y30841D1*X36583Y30820*X36725D2*X36692Y30841D1*X36654Y30849*X38003Y32249D2*Y30549D1*X39105D2*Y32249D1*X38453Y39499D2*Y37799D1*X39555D2*Y39499D1*X38392Y39256D2*X38425Y39278D1*X38446Y39311*X38454Y39349*X38446Y39387*X38425Y39420*X38392Y39441*X37942Y32006D2*X37975Y32028D1*X37996Y32061*X38004Y32099*X37996Y32137*X37975Y32170*X37942Y32191*X32004Y47099D2*X31904D1*Y46199D2*X32004D1*X33104Y47099D2*X33204D1*Y46199D2*X33104D1*X38747Y23937D2*X38785Y23945D1*X38823Y23937*X32753Y53364D2*X32950Y53561D1*X33658D2*X33855Y53364D1*Y52734D2*X33658Y52537D1*X32950D2*X32753Y52734D1*Y51114D2*X32950Y51311D1*X33658D2*X33855Y51114D1*Y50484D2*X33658Y50287D1*X32950D2*X32753Y50484D1*X36254Y46099D2*X36154D1*Y45199D2*X36254D1*X36604Y46099D2*X37004D1*X37354D2*X37454D1*Y45199D2*X37354D1*X38737Y51450D2*X38629D1*X37979D2*X37871D1*X37979Y51568D2*X37871D1*X37979Y50230D2*X37871D1*X38737D2*X38629D1*X38737Y51568D2*X38629D1*X38229Y45848D2*X38121D1*X38987D2*X38879D1*X38987Y45730D2*X38879D1*X38987Y47068D2*X38879D1*X38229D2*X38121D1*X38229Y45730D2*X38121D1*X37034Y51329D2*Y51469D1*X37574Y51329D2*Y51469D1*X37034Y50329D2*Y50469D1*X37574Y50329D2*Y50469D1*X34534Y50329D2*Y50469D1*X35074Y50329D2*Y50469D1*X35824Y50329D2*Y50469D1*X35284Y50329D2*Y50469D1*X37574Y52579D2*Y52719D1*X37034Y52579D2*Y52719D1*X37574Y53579D2*Y53719D1*X37034Y53579D2*Y53719D1*X34324Y51829D2*Y51969D1*X33784Y51829D2*Y51969D1*X33034Y51829D2*Y51969D1*X33574Y51829D2*Y51969D1*X36574Y50329D2*Y50469D1*X36034Y50329D2*Y50469D1*X35534Y34679D2*Y34819D1*X36074Y34679D2*Y34819D1*X33824Y34329D2*Y34469D1*X33284Y34329D2*Y34469D1*X31974Y34329D2*Y34469D1*X31434Y34329D2*Y34469D1*X34784Y34679D2*Y34819D1*X35324Y34679D2*Y34819D1*X35124Y42129D2*X34984D1*X35124Y42669D2*X34984D1*X36624D2*X36484D1*X36624Y42129D2*X36484D1*X36874Y48669D2*X36734D1*X36874Y48129D2*X36734D1*X36874Y47919D2*X36734D1*X36874Y47379D2*X36734D1*X38874Y35579D2*X38734D1*X38874Y36119D2*X38734D1*X38874Y36879D2*X38734D1*X38874Y37419D2*X38734D1*X38874Y36229D2*X38734D1*X38874Y36769D2*X38734D1*D74*X24250Y52874D2*X24218Y52894D1*X24189Y52944*X24169Y53018*Y53073*X24189Y53142*X24218Y53192*X24250Y53216*X24368Y52944D2*X24332Y52894D1*X24283Y52874*X24250*X24202Y52894*X24169Y52944*X24153Y53018*Y53073*X24169Y53142*X24202Y53192*X24250Y53216*X24299*X24332Y53192*X24368Y53142*X23220Y52874D2*X23188Y52894D1*X23158Y52944*X23139Y53018*Y53073*X23158Y53142*X23188Y53192*X23220Y53216*X23337Y52944D2*X23302Y52894D1*X23253Y52874*X23220*X23171Y52894*X23139Y52944*X23123Y53018*Y53073*X23139Y53142*X23171Y53192*X23220Y53216*X23269*X23302Y53192*X23337Y53142*X22495Y53390D2*X22632Y52874D1*X22773Y53390*X22495D2*Y52874D1*X22773D2*Y53390D1*X22964Y53216D2*Y52874D1*X22944Y53216D2*Y52874D1*Y53390D2*X22964Y53365D1*X22944Y53340*X22924Y53365*X22944Y53390*X23660Y53216D2*X23606D1*X23570Y53192*X23534Y53142*X23515Y53073*Y53216D2*Y52874D1*X23497Y53216D2*Y52874D1*X23911Y53216D2*X23946Y53192D1*X23976Y53142*X23995Y53073*Y53018*X23976Y52944*X23946Y52894*X23911Y52874*X23878D2*X23849Y52894D1*X23816Y52944*X23797Y53018*Y53073*X23816Y53142*X23849Y53192*X23878Y53216*X23911*X23959Y53192*X23995Y53142*X24008Y53073*Y53018*X23995Y52944*X23959Y52894*X23911Y52874*X23878*X23829Y52894*X23797Y52944*X23780Y53018*Y53073*X23797Y53142*X23829Y53192*X23878Y53216*X38230Y21589D2*X38279Y21614D1*X38311Y21664*X38328Y21733*Y21788*X38311Y21862*X38279Y21912*X38230Y21931*X38197*X38149Y21912*X38113Y21862*X38100Y21788*Y21733*X38113Y21664*X38149Y21614*X38197Y21589*X38230*X38259Y21614*X38292Y21664*X38311Y21733*Y21788*X38292Y21862*X38259Y21912*X38230Y21931*X38197D2*X38162Y21912D1*X38132Y21862*X38113Y21788*Y21733*X38132Y21664*X38162Y21614*X38197Y21589*X38611D2*Y21931D1*X38593Y21589D2*Y21931D1*Y21733D2*X38574Y21664D1*X38538Y21614*X38502Y21589*X38448*X39164Y21416D2*X39184Y21440D1*X39164Y21465*X39144Y21440*X39164Y21416*Y21589D2*Y21931D1*X39144Y21589D2*Y21931D1*X39335D2*Y21416D1*X39613D2*Y21931D1*X39335Y21416D2*X39476Y21931D1*X39613Y21416*X38771Y21664D2*X38806Y21614D1*X38839Y21589*X38888*X38937Y21614*X38969Y21664*X38985Y21733*Y21788*X38969Y21862*X38937Y21912*X38888Y21931*X38855*X38806Y21912*X38771Y21862*X38888Y21589D2*X38920Y21614D1*X38950Y21664*X38969Y21733*Y21788*X38950Y21862*X38920Y21912*X38888Y21931*X37740Y21664D2*X37776Y21614D1*X37809Y21589*X37858*X37906Y21614*X37939Y21664*X37955Y21733*Y21788*X37939Y21862*X37906Y21912*X37858Y21931*X37825*X37776Y21912*X37740Y21862*X37858Y21589D2*X37890Y21614D1*X37919Y21664*X37939Y21733*Y21788*X37919Y21862*X37890Y21912*X37858Y21931*D402*X26308Y54171D2*Y54308D1*X26342Y54377*X26414Y54446*X26483*X26549Y54377*X26583Y54308*Y54171*X26549Y54102*X26483Y54036*X26414*X26342Y54102*X26308Y54171*X25957Y54222D2*X26233D1*X25741Y54446D2*X25600Y54171D1*Y54102*X25630Y54036*X25840*X25874Y54102*Y54171*X25840Y54239*X25630*X24985Y54159D2*X25118D1*X24913Y53946D2*X24875Y53967D1*X24837Y54021*X24820Y54080*X24802Y54159*Y54287*X24820Y54372*X24837Y54420*X24875Y54473*X24913Y54500*X25040Y54021D2*X25005Y53967D1*X24947Y53946*X24913*X24857Y53967*X24820Y54021*X24802Y54080*X24778Y54159*Y54287*X24802Y54372*X24820Y54420*X24857Y54473*X24913Y54500*X24947*X25005Y54473*X25040Y54420*X25064Y54338*X25043Y54473*X25040Y54420D2*X25047Y54468D1*X25036Y54479D2*X24967Y54506D1*X25064Y54159D2*Y53963D1*X25054Y53970D2*X25040Y53963D1*Y53967D2*X25012Y53960D1*X25040Y54159D2*Y53956D1*X25019Y53946D2*X24961Y53936D1*X23929Y54092D2*X23956Y54009D1*X23994Y53954*X24059Y53933*X24122*X24184Y53954*X24221Y54009*Y54119*X24204Y54177*X24184Y54201*X24142Y54233*X24019Y54287*X23977Y54315*X23929Y54374*X24221Y54119D2*X24184Y54177D1*X24142Y54201*X24019Y54260*X23977Y54287*X23956Y54315*X23929Y54374*Y54425*X23977Y54480*X24039Y54508*X24097*X24160Y54480*X24204Y54425*X24221Y54342*Y54508*X24204Y54425*X23929Y53988D2*Y54092D1*X23956Y54009D2*X23960Y53971D1*X24594Y53892D2*X24735D1*X24649Y54546D2*X24735D1*X24670D2*Y53892D1*X24649D2*Y54546D1*X24501Y53892*X24360Y54546*X24377D2*X24501Y53981D1*X24360Y54546D2*Y53892D1*X24305D2*X24422D1*X24305Y54546D2*X24377D1*X25252Y54216D2*X25531D1*X24028Y54578D2*X23971Y54554D1*X23921Y54528*X23876Y54500*X23830Y54467*X23794Y54437*X23764Y54401*X23740Y54367*X23719Y54330*X23703Y54289*X23694Y54252*Y54215*X23698Y54174*X23707Y54136*X23723Y54099*X23743Y54062*X23773Y54029*X23806Y53992*X23843Y53963*X23884Y53930*X23933Y53901*X23987Y53876*X24041Y53852*X24103Y53835*X24164Y53815*X24230Y53802*X24297Y53789*X24363Y53782*X24433Y53777*X24508*X24578*X24647Y53786*X24718Y53794*X24784Y53807*X24845Y53819*X24907Y53840*X24965Y53861*X25024Y53885*X25072Y53909*X25123Y53938*X25163Y53971*X25201Y54005*X25229Y54038*X25259Y54074*X25279Y54107*X25292Y54149*X25299Y54186*X25304Y54223*X25299Y54264*X25287Y54301*X25271Y54339*X25250Y54376*X25220Y54409*X25188Y54446*X25151Y54479*X25110Y54509*X25060Y54536*X25007Y54561*X24953Y54586*X24891Y54603*X24829Y54624*X24763Y54636*X24697Y54648*X24631Y54657*X24560Y54660*X24487*X24416*X24346Y54653*X24276Y54644*X24210Y54632*X24148Y54619*X24086Y54599*X24028Y54578*X30164Y53134D2*X30191Y53296D1*X30202Y53080D2*X30364D1*X30175Y52810D2*X30337D1*X30245Y53350D2*X30407D1*X30434Y53134D2*X30461Y53296D1*X30391Y52864D2*X30418Y53026D1*X29840Y53350D2*X30002D1*X30029Y53134D2*X30056Y53296D1*X29759Y53134D2*X29786Y53296D1*X29986Y52864D2*X30013Y53026D1*X29716Y52864D2*X29743Y53026D1*X29770Y52810D2*X29932D1*X29392Y53080D2*X29554D1*X29219Y53134D2*X29246Y53296D1*X29176Y52864D2*X29203Y53026D1*X28625Y53350D2*X28787D1*X28814Y53134D2*X28841Y53296D1*X28582Y53080D2*X28744D1*X28771Y52864D2*X28798Y53026D1*X28555Y52810D2*X28717D1*X33553Y21996D2*X33391D1*X33337Y21942D2*X33310Y21780D1*X33526Y21726D2*X33364D1*X33294Y21672D2*X33267Y21510D1*X33483Y21456D2*X33321D1*X32932Y21942D2*X32905Y21780D1*X32889Y21672D2*X32862Y21510D1*X32716Y21726D2*X32554D1*X32338Y21996D2*X32176D1*X32392Y21942D2*X32365Y21780D1*X32122Y21942D2*X32095Y21780D1*X32349Y21672D2*X32322Y21510D1*X32079Y21672D2*X32052Y21510D1*X32268Y21456D2*X32106D1*X31717Y21942D2*X31690Y21780D1*X31674Y21672D2*X31647Y21510D1*X31863Y21456D2*X31701D1*X31933Y21996D2*X31771D1*X31906Y21726D2*X31744D1*X31944Y21672D2*X31917Y21510D1*X38080Y20227D2*X38022Y20206D1*X37960Y20187*X37898Y20174*X37832Y20161*X37762Y20153*X37692Y20145*X37621*X37548*X37477Y20149*X37411Y20158*X37345Y20170*X37279Y20182*X37217Y20203*X37155Y20220*X37101Y20245*X37048Y20269*X36998Y20297*X36957Y20327*X36920Y20360*X36888Y20397*X36858Y20430*X36837Y20466*X36821Y20505*X36809Y20541*X36804Y20583*X36809Y20620*X36816Y20656*X36829Y20698*X36849Y20731*X36879Y20768*X36907Y20801*X36945Y20835*X36985Y20868*X37036Y20896*X37084Y20921*X37143Y20945*X37201Y20966*X37263Y20987*X37324Y20999*X37390Y21012*X37461Y21020*X37530Y21029*X37600*X37675*X37745Y21024*X37811Y21016*X37878Y21004*X37944Y20991*X38005Y20970*X38067Y20954*X38121Y20929*X38175Y20905*X38224Y20875*X38265Y20842*X38302Y20814*X38335Y20777*X38365Y20743*X38385Y20706*X38401Y20670*X38410Y20632*X38414Y20591*Y20554*X38405Y20517*X38389Y20475*X38368Y20439*X38344Y20405*X38314Y20368*X38278Y20339*X38232Y20306*X38187Y20277*X38137Y20252*X38080Y20227*X36856Y20590D2*X36577D1*X37803Y20260D2*X37731D1*X37803Y20913D2*X37686D1*X37748Y20260D2*Y20913D1*X37731Y20260D2*X37607Y20824D1*X37748Y20260D2*X37607Y20913D1*X37459Y20260*Y20913*X37438Y20260D2*Y20913D1*X37459Y20260D2*X37373D1*X37514Y20913D2*X37373D1*X38152Y20797D2*X38148Y20835D1*X38179Y20817D2*Y20714D1*X37904Y20380D2*X37887Y20298D1*Y20463*X37904Y20380*X37948Y20325*X38011Y20298*X38069*X38131Y20325*X38179Y20380*Y20432*X38152Y20491*X38131Y20518*X38089Y20545*X37966Y20604*X37924Y20628*X37887Y20686*X38179Y20432D2*X38131Y20491D1*X38089Y20518*X37966Y20573*X37924Y20604*X37904Y20628*X37887Y20686*Y20797*X37924Y20852*X37986Y20872*X38049*X38114Y20852*X38152Y20797*X38179Y20714*X37089Y20860D2*X37147Y20870D1*X37068Y20646D2*Y20850D1*Y20839D2*X37096Y20845D1*X37054Y20835D2*X37068Y20842D1*X37044Y20646D2*Y20842D1*X37072Y20326D2*X37141Y20299D1*X37068Y20385D2*X37061Y20337D1*X37065Y20333D2*X37044Y20467D1*X37068Y20385*X37103Y20333*X37161Y20305*X37195*X37251Y20333*X37288Y20385*X37306Y20433*X37330Y20519*Y20646*X37306Y20725*X37288Y20784*X37251Y20839*X37195Y20860*X37161*X37103Y20839*X37068Y20784*X37195Y20305D2*X37233Y20333D1*X37271Y20385*X37288Y20433*X37306Y20519*Y20646*X37288Y20725*X37271Y20784*X37233Y20839*X37195Y20860*X37123Y20646D2*X36990D1*X36478Y20566D2*X36268D1*X36234Y20635*Y20704*X36268Y20769*X36478*X36508Y20704*Y20635*X36367Y20360*X36151Y20583D2*X35875D1*X35800Y20635D2*X35766Y20704D1*X35694Y20769*X35625*X35559Y20704*X35525Y20635*Y20497*X35559Y20428*X35625Y20360*X35694*X35766Y20428*X35800Y20497*Y20635*X0Y0D2*M02*